<?xml version="1.0" encoding="utf-8"?>
<!-- Generator: Adobe Illustrator 23.0.1, SVG Export Plug-In . SVG Version: 6.00 Build 0)  -->
<svg version="1.1" id="Layer_1" xmlns="http://www.w3.org/2000/svg" xmlns:xlink="http://www.w3.org/1999/xlink" x="0px" y="0px"
	 viewBox="0 0 898 1024" style="enable-background:new 0 0 898 1024;" xml:space="preserve">
<style type="text/css">
	.st0{fill:#FFFFFF;}
</style>
<path class="st0" d="M879,754c-17.3,30-46.2,51.5-86.5,64.5S704.3,835.3,649,830c-24,60.7-53.5,108.2-88.5,142.5
	s-72.3,51.5-112,51.5s-77-17.3-112-52S272,890,248,830c-55.3,5.3-103.2,1.5-143.5-11.5S35.3,784,18,754C0,721.3-4.2,684.3,5.5,643
	S37.7,558,73,512c-35.3-46-57.8-89.7-67.5-131S0,302.7,18,270c17.3-30,46.3-51.5,87-64.5s88.3-16.8,143-11.5
	c24-60.7,53.5-108.2,88.5-142.5S408.8,0,448.5,0s77,17.2,112,51.5S625,133.3,649,194c55.3-5.3,103.2-1.5,143.5,11.5
	S861.7,240,879,270c18.7,32,23,68.8,13,110.5S859.3,466,824,512c35.3,46,58,89.7,68,131S897.7,721.3,879,754z M821,718
	c24-40,11.7-93-37-159c-26.7,28.7-56,55.7-88,81c-5.3,44-14,86.3-26,127C748,771.7,798.3,755.3,821,718z M273,333
	c17.3-11.3,34.3-21.7,51-31c3.3-1.3,16-7.7,38-19c-26-8-50.3-14-73-18C282.3,287.7,277,310.3,273,333z M357,359
	c-33.3,18.7-65.3,39-96,61c-2.7,30-4,60.7-4,92c0,27.3,1.3,58.3,4,93c31.3,22,63.3,42,96,60c28.7,16,59,30.7,91,44
	c34.7-14.7,65.7-29.3,93-44c33.3-18.7,65.3-39,96-61c2.7-30.7,4-61.3,4-92c0-26.7-1.7-57.7-5-93c-31.3-22-63-42-95-60
	c-29.3-16-60-30.7-92-44C414.3,329.7,383.7,344.3,357,359z M194,473c-13.3,11.3-27,24.3-41,39c13.3,14,27,27,41,39
	c-0.7-19.3-1-32.3-1-39C193,501.3,193.3,488.3,194,473z M625,691c-18.7,11.3-36,21.7-52,31l-38,19c25.3,8,49.7,14,73,18
	C614.7,736.3,620.3,713.7,625,691z M704,551c13.3-12,26.7-25,40-39c-12.7-13.3-26.3-26.3-41-39c1.3,22,2,35,2,39
	C705,518.7,704.7,531.7,704,551z M449,960c26.7,0,52-12.2,76-36.5s44.7-58.2,62-101.5c-44-8.7-90.3-22.3-139-41
	c-48,18.7-94,32.3-138,41c18,43.3,39,77.2,63,101.5S422.3,960,449,960z M361,741c-15.3-7.3-27.7-13.7-37-19c-15.3-8.7-32.3-19-51-31
	c4.7,26.7,10,49.3,16,68C309.7,755.7,333.7,749.7,361,741z M76,718c23.3,37.3,73.7,53.7,151,49c-11.3-39.3-20-81.7-26-127
	c-32-25.3-61.3-52-88-80C65,626,52.7,678.7,76,718z M76,306c-23.3,40-11,92.7,37,158c26.7-28,56-54.7,88-80c5.3-44,14-86.3,26-127
	C149.7,252.3,99.3,268.7,76,306z M449,64c-26.7,0-52,12.2-76,36.5s-45,58.2-63,101.5c44.7,8.7,91,22.3,139,41
	c48.7-18.7,94.7-32.3,138-41c-18-43.3-38.8-77.2-62.5-101.5C500.8,76.2,475.7,64,449,64z M537,283c14,7.3,26,13.7,36,19
	c14.7,8.7,31.7,19,51,31c-4.7-26-9.7-48.7-15-68C589,268.3,565,274.3,537,283z M821,306c-22.7-37.3-73-53.7-151-49
	c11.3,39.3,20,81.7,26,127c32,25.3,61.3,52,88,80C832,398.7,844.3,346,821,306z"/>
</svg>
