<?xml version="1.0" encoding="utf-8"?>
<!-- Generator: Adobe Illustrator 23.0.1, SVG Export Plug-In . SVG Version: 6.00 Build 0)  -->
<svg version="1.1" id="Layer_1" xmlns="http://www.w3.org/2000/svg" xmlns:xlink="http://www.w3.org/1999/xlink" x="0px" y="0px"
	 viewBox="0 0 576.5 289.5" style="enable-background:new 0 0 576.5 289.5;" xml:space="preserve">
<style type="text/css">
	.st0{fill:#4D4D4D;}
	.st1{clip-path:url(#SVGID_2_);}
	.st2{fill:#FFFFFF;}
</style>
<g>
	<rect y="1.5" class="st0" width="576" height="288"/>
	<g>
		<defs>
			<rect id="SVGID_1_" x="0.5" width="576" height="288"/>
		</defs>
		<clipPath id="SVGID_2_">
			<use xlink:href="#SVGID_1_"  style="overflow:visible;"/>
		</clipPath>
		<g class="st1">
			<g>
				<g id="triangle36_1455_">
					<path class="st2" d="M602.2-49.5l-56-31L561.2-94l41,30.1l0-0.6l-40.9-30.1c-0.1-0.1-0.2-0.1-0.3,0l-15.5,13.9
						c-0.1,0.1-0.1,0.1-0.1,0.2c0,0.1,0.1,0.1,0.1,0.2L602.2-49L602.2-49.5z"/>
				</g>
				<g id="triangle36_1454_">
					<path class="st2" d="M602-7.1l-55.4-72.6L602.2-49l0-0.5l-56.3-31.1c-0.1-0.1-0.2,0-0.3,0.1c-0.1,0.1-0.1,0.2,0,0.3L602-6.3
						L602-7.1z"/>
				</g>
				<g id="triangle36_1451_">
					<path class="st2" d="M373.5,339.3l75.4-34l7.4,34.4l0.5,0l-7.5-34.8c0-0.1-0.1-0.1-0.1-0.2c-0.1,0-0.1,0-0.2,0l-76.6,34.5
						L373.5,339.3z"/>
				</g>
				<g id="triangle36_1439_">
					<polygon class="st2" points="600.3,324.4 550.8,340.2 552.3,340.2 600.3,324.9 					"/>
				</g>
				<g id="triangle36_1423_">
					<path class="st2" d="M602.3-64.4l-40.3-29.7l40.5-1.3l0-0.5l-41.2,1.4c-0.1,0-0.2,0.1-0.2,0.2c0,0.1,0,0.2,0.1,0.3l41.2,30.3
						L602.3-64.4z"/>
				</g>
				<g id="triangle36_1422_">
					<path class="st2" d="M601.4,104.5l-54.6-3.2l44.1-26.7l10.6,8.2l0-0.6l-10.4-8.1c-0.1-0.1-0.2-0.1-0.3,0l-44.9,27.2
						c-0.1,0.1-0.1,0.2-0.1,0.3s0.1,0.2,0.2,0.2l55.4,3.3L601.4,104.5z"/>
				</g>
				<g id="triangle36_1420_">
					<path class="st2" d="M196.3,338.4l9-15.3l1.8,15.4l0.5,0l-1.9-16.1c0-0.1-0.1-0.2-0.2-0.2c-0.1,0-0.2,0-0.3,0.1l-9.5,16.2
						L196.3,338.4z"/>
				</g>
				<g id="triangle36_1419_">
					<polygon class="st2" points="600.3,324.4 550.8,340.2 552.3,340.2 600.3,324.9 					"/>
					<path class="st2" d="M600.3,321.9L548.4,309c-0.1,0-0.3,0-0.3,0.2l-7.8,31l0.5,0l7.8-30.7l51.7,12.9L600.3,321.9z"/>
				</g>
				<g id="triangle36_1418_">
					<path class="st2" d="M600.8,214.4l-28.3,16.3l-21.4-5.7l49.8-19.1l0-0.5l-50.6,19.4c-0.1,0-0.2,0.1-0.2,0.2
						c0,0.1,0.1,0.2,0.2,0.2l22.2,5.9c0,0,0,0,0.1,0c0,0,0.1,0,0.1,0l28.2-16.2L600.8,214.4z"/>
				</g>
				<g id="triangle36_1417_">
					<path class="st2" d="M456.7,339.7l-7.4-34.4l28.6,10.2l-12.4,24.3l0.5,0l12.4-24.3c0-0.1,0-0.1,0-0.2c0-0.1-0.1-0.1-0.1-0.1
						l-29.3-10.4c-0.1,0-0.2,0-0.2,0c-0.1,0.1-0.1,0.1-0.1,0.2l7.5,34.7L456.7,339.7z"/>
				</g>
				<g id="triangle36_1416_">
					<path class="st2" d="M466.1,339.8l12.2-23.9l15.2,24.1l0.6,0l-15.5-24.7c0-0.1-0.1-0.1-0.2-0.1c-0.1,0-0.2,0.1-0.2,0.1
						l-12.5,24.5L466.1,339.8z"/>
				</g>
				<g id="triangle36_1415_">
					<path class="st2" d="M493.5,339.9l0.6,0l-15.1-24l51.7,24.2l1.1,0l-53.3-25c-0.1,0-0.2,0-0.3,0.1c-0.1,0.1-0.1,0.2,0,0.3
						L493.5,339.9z"/>
				</g>
				<g id="triangle36_1414_">
					<path class="st2" d="M478.2,315.6l52.4,24.5l1.1,0l-52.5-24.6l68.9-6l-7.8,30.7l0.5,0l7.8-30.9c0-0.1,0-0.2,0-0.2
						c0-0.1-0.1-0.1-0.2-0.1l-70.1,6.2c-0.1,0-0.2,0.1-0.2,0.2C478,315.4,478.1,315.5,478.2,315.6z"/>
				</g>
				<g id="triangle36_1412_">
					<path class="st2" d="M207.6,338.5l-1.8-15.6l24.4,15.8l0.9,0l-25.4-16.4c-0.1,0-0.2-0.1-0.3,0c-0.1,0-0.1,0.1-0.1,0.2l1.9,16.1
						L207.6,338.5z"/>
				</g>
				<g id="triangle36_1411_">
					<path class="st2" d="M363.2,180.3c0,0-0.1,0-0.1,0c-0.1,0-0.1-0.1-0.1-0.2l-2.4-11.6c0-0.1,0-0.1,0-0.2c0-0.1,0.1-0.1,0.2-0.1
						l59.6-6.9c0.1,0,0.2,0.1,0.3,0.2c0,0.1,0,0.2-0.2,0.3L363.2,180.3C363.3,180.3,363.3,180.3,363.2,180.3z M361.1,168.7l2.3,11.1
						l54.7-17.7L361.1,168.7z"/>
				</g>
				<g id="triangle36_1409_">
					<path class="st2" d="M174.3,338.3l3.1-33.6l27.8,17.7l-9.4,16l0.5,0l9.3-15.9c0.1-0.1,0-0.2-0.1-0.3l-28.3-18.1
						c-0.1,0-0.2,0-0.2,0c-0.1,0-0.1,0.1-0.1,0.2l-3.1,34L174.3,338.3z"/>
				</g>
				<g id="triangle36_1408_">
					<path class="st2" d="M205.4,322.6c0,0-0.1,0-0.1,0L177,304.5c-0.1,0-0.1-0.1-0.1-0.2c0-0.1,0-0.2,0.1-0.2l48.3-33.9
						c0.1-0.1,0.2-0.1,0.3,0c0.1,0.1,0.1,0.2,0.1,0.3l-20,52C205.6,322.5,205.6,322.5,205.4,322.6
						C205.5,322.6,205.5,322.6,205.4,322.6z M177.6,304.3l27.8,17.7l19.6-51L177.6,304.3z"/>
				</g>
				<g id="triangle36_1407_">
					<path class="st2" d="M291.2,323.9C291.2,323.9,291.2,323.9,291.2,323.9l-85.8-1.4c-0.1,0-0.1,0-0.2-0.1c0-0.1-0.1-0.1,0-0.2
						l20-52c0-0.1,0.1-0.1,0.2-0.1c0.1,0,0.2,0,0.2,0l65.8,53.4c0.1,0.1,0.1,0.2,0.1,0.3C291.4,323.9,291.3,323.9,291.2,323.9z
						 M205.8,322.1l84.8,1.4l-65-52.7L205.8,322.1z"/>
				</g>
				<g id="triangle36_1406_">
					<path class="st2" d="M230.1,338.6l0.9,0l-24.7-16l84.1,1.3l-26.9,14.8l1,0l26.9-14.8c0.1-0.1,0.1-0.2,0.1-0.3
						c0-0.1-0.1-0.2-0.2-0.2l-85.8-1.4h0c-0.1,0-0.2,0.1-0.2,0.2c0,0.1,0,0.2,0.1,0.3L230.1,338.6z"/>
				</g>
				<g id="triangle36_1405_">
					<path class="st2" d="M264.4,338.7l26.1-14.4l-8.9,14.5l0.5,0l9.2-15c0.1-0.1,0-0.2,0-0.3c-0.1-0.1-0.2-0.1-0.3,0l-27.7,15.2
						L264.4,338.7z"/>
				</g>
				<g id="triangle36_1404_">
					<path class="st2" d="M282.2,338.8l9.1-14.9l52,15.2l1.7,0l-53.7-15.7c-0.1,0-0.2,0-0.3,0.1l-9.4,15.2L282.2,338.8z"/>
				</g>
				<g id="triangle36_1382_">
					<path class="st2" d="M519.6,201.6C519.6,201.6,519.5,201.6,519.6,201.6l-99.3-39.8c-0.1,0-0.1-0.1-0.1-0.2c0-0.1,0-0.2,0.1-0.2
						l50.2-41.4c0.1,0,0.1-0.1,0.2-0.1c0.1,0,0.1,0.1,0.2,0.1l49,81.2c0.1,0.1,0,0.2,0,0.3C519.7,201.6,519.7,201.6,519.6,201.6z
						 M420.9,161.5l98.2,39.4l-48.5-80.4L420.9,161.5z"/>
				</g>
				<g id="triangle36_1381_">
					<path class="st2" d="M519.6,201.6c-0.1,0-0.2,0-0.2-0.1l-49-81.2c0-0.1,0-0.1,0-0.2c0-0.1,0.1-0.1,0.1-0.1l41.1-18.4
						c0.1,0,0.1,0,0.2,0c0.1,0,0.1,0.1,0.1,0.2l7.8,99.6C519.8,201.5,519.8,201.6,519.6,201.6C519.6,201.6,519.6,201.6,519.6,201.6z
						 M471,120.3l48.3,80.1l-7.7-98.3L471,120.3z"/>
				</g>
				<g id="triangle36_1380_">
					<path class="st2" d="M519.6,201.6C519.6,201.6,519.6,201.6,519.6,201.6c-0.1,0-0.2-0.1-0.2-0.2l-7.8-99.6c0-0.1,0-0.1,0.1-0.2
						c0,0,0.1-0.1,0.2-0.1l34.3-0.3c0,0,0.1,0,0.2,0.1c0,0.1,0.1,0.1,0,0.2l-26.4,99.9C519.8,201.5,519.7,201.6,519.6,201.6z
						 M512,102l7.7,98l26-98.3L512,102z"/>
				</g>
				<g id="triangle36_1379_">
					<path class="st2" d="M600.9,205.4l-50.5,19.3l-30.2-23.2l80.7-8.7l0-0.5l-81.4,8.7c-0.1,0-0.2,0.1-0.2,0.2c0,0.1,0,0.2,0.1,0.2
						l30.7,23.6c0,0,0.1,0,0.1,0c0,0,0.1,0,0.1,0l50.4-19.3L600.9,205.4z"/>
				</g>
				<g id="triangle36_1378_">
					<path class="st2" d="M511.8,102c-0.1,0-0.2-0.1-0.2-0.1c0-0.1,0-0.2,0.1-0.3L545.7,69c0.1-0.1,0.2-0.1,0.3,0
						c0.1,0,0.1,0.1,0.1,0.2l0.1,32.3c0,0.1-0.1,0.2-0.2,0.2L511.8,102C511.8,102,511.8,102,511.8,102z M545.7,69.7l-33.3,31.8
						l33.4-0.3L545.7,69.7z"/>
				</g>
				<g id="triangle36_1377_">
					<path class="st2" d="M601.7,41.9l-55.6,26.9L546-79.7l56,73.4l0-0.8l-56-73.5c-0.1-0.1-0.2-0.1-0.3-0.1c-0.1,0-0.2,0.1-0.2,0.2
						l0.2,149.6c0,0.1,0,0.2,0.1,0.2c0,0,0.1,0,0.1,0c0,0,0.1,0,0.1,0l55.7-27L601.7,41.9z"/>
				</g>
				<g id="triangle36_1376_">
					<path class="st2" d="M546,101.7c0,0-0.1,0-0.1,0c-0.1,0-0.1-0.1-0.1-0.2l-0.1-32.3c0-0.1,0-0.1,0.1-0.2c0.1,0,0.1-0.1,0.2-0.1
						l45,5.1c0.1,0,0.2,0.1,0.2,0.2c0,0.1,0,0.2-0.1,0.3l-44.9,27.2C546.1,101.7,546.1,101.7,546,101.7z M546.1,69.4l0.1,31.7
						l43.9-26.6L546.1,69.4z"/>
				</g>
				<g id="triangle36_1375_">
					<path class="st2" d="M601.6,61.2L590.8,74l-44.1-5l55-26.6l0-0.5l-55.9,27.1c-0.1,0-0.1,0.1-0.1,0.3c0,0.1,0.1,0.2,0.2,0.2
						l45,5.1c0,0,0,0,0,0c0.1,0,0.1,0,0.2-0.1l10.5-12.5L601.6,61.2z"/>
				</g>
				<g id="triangle36_1374_">
					<path class="st2" d="M601.5,79.3l-10.2-5.1l10.3-12.3l0-0.7l-10.9,12.9c0,0.1-0.1,0.1-0.1,0.2c0,0.1,0.1,0.1,0.1,0.2l10.7,5.3
						L601.5,79.3z"/>
				</g>
				<g id="triangle36_1373_">
					<path class="st2" d="M601.5,82.2l-8.6-6.7l8.6,4.3l0-0.5L591,74.1c-0.1-0.1-0.2,0-0.3,0.1c-0.1,0.1,0,0.2,0.1,0.3l10.7,8.3
						L601.5,82.2z"/>
				</g>
				<g id="triangle36_1366_">
					<path class="st2" d="M291.2,323.9l52.1,15.2l1.7,0l-53.1-15.5l94.3-48.5l-22.8,64.1l0.5,0l22.9-64.5c0-0.1,0-0.2-0.1-0.3
						c-0.1-0.1-0.2-0.1-0.3,0l-95.3,49.1c-0.1,0-0.1,0.1-0.1,0.2C291,323.8,291.1,323.9,291.2,323.9z"/>
				</g>
				<g id="triangle36_1365_">
					<path class="st2" d="M363.8,339.3l22.8-64.3l61.8,30l-76.1,34.3l1.1,0l75.7-34.1c0.1,0,0.1-0.1,0.1-0.2c0-0.1-0.1-0.2-0.1-0.2
						l-62.5-30.3c-0.1,0-0.1,0-0.2,0c-0.1,0-0.1,0.1-0.1,0.1l-23,64.7L363.8,339.3z"/>
				</g>
				<g id="triangle36_1363_">
					<path class="st2" d="M390.6,200.9c0,0-0.1,0-0.1,0l-27.4-20.6c-0.1-0.1-0.1-0.2-0.1-0.3c0.1-0.1,0.2-0.1,0.3-0.1l43.4,15.8
						c0.1,0,0.2,0.1,0.2,0.2c0,0.1-0.1,0.2-0.2,0.2L390.6,200.9C390.7,200.9,390.6,200.9,390.6,200.9z M364.6,180.9l26,19.6
						l15.3-4.6L364.6,180.9z"/>
				</g>
				<g id="triangle36_1362_">
					<path class="st2" d="M406.7,196.1C406.7,196.1,406.6,196.1,406.7,196.1l-43.5-15.8c-0.1,0-0.2-0.1-0.2-0.2
						c0-0.1,0.1-0.2,0.2-0.2l57.2-18.5c0.1,0,0.2,0,0.2,0.1c0.1,0.1,0.1,0.2,0,0.2L406.9,196C406.9,196.1,406.8,196.1,406.7,196.1z
						 M364,180.1l42.6,15.5l13.5-33.7L364,180.1z"/>
				</g>
				<g id="triangle36_1361_">
					<path class="st2" d="M386.5,274.9C386.5,274.9,386.5,274.9,386.5,274.9c-0.2,0-0.2-0.1-0.2-0.2l4.1-73.9c0-0.1,0.1-0.2,0.2-0.2
						l16.1-4.8c0.1,0,0.2,0,0.2,0.1c0.1,0.1,0.1,0.1,0.1,0.2l-20.2,78.7C386.7,274.8,386.6,274.9,386.5,274.9z M390.8,200.9
						l-3.9,71.4l19.5-76L390.8,200.9z"/>
				</g>
				<g id="triangle36_1360_">
					<path class="st2" d="M519.6,201.6C519.6,201.6,519.6,201.6,519.6,201.6l-112.9-5.5c-0.1,0-0.1,0-0.2-0.1c0-0.1,0-0.1,0-0.2
						l13.8-34.4c0-0.1,0.1-0.1,0.1-0.1c0.1,0,0.1,0,0.2,0l99.2,39.8c0.1,0,0.2,0.2,0.1,0.3C519.8,201.5,519.7,201.6,519.6,201.6z
						 M407,195.7l111.2,5.4l-97.7-39.2L407,195.7z"/>
				</g>
				<g id="triangle36_1359_">
					<path class="st2" d="M420.4,161.8C420.4,161.8,420.4,161.8,420.4,161.8c-0.2,0-0.2-0.1-0.2-0.2L408.6,72c0-0.1,0-0.2,0.1-0.2
						c0.1,0,0.2,0,0.3,0l61.8,48.2c0.1,0,0.1,0.1,0.1,0.2c0,0.1,0,0.1-0.1,0.2l-50.2,41.4C420.5,161.8,420.5,161.8,420.4,161.8z
						 M409.2,72.5l11.5,88.6l49.7-40.9L409.2,72.5z"/>
				</g>
				<g id="triangle36_1358_">
					<path class="st2" d="M470.6,120.4c-0.1,0-0.1,0-0.1,0l-61.8-48.2c-0.1-0.1-0.1-0.1-0.1-0.2c0-0.1,0.1-0.2,0.1-0.2l53.8-24.1
						c0.1,0,0.1,0,0.2,0c0.1,0,0.1,0.1,0.1,0.2l8,72.4c0,0.1,0,0.2-0.1,0.2C470.7,120.4,470.7,120.4,470.6,120.4z M409.3,72l61,47.6
						l-7.9-71.5L409.3,72z"/>
				</g>
				<g id="triangle36_1357_">
					<path class="st2" d="M462.7,48C462.7,48,462.6,48,462.7,48c-0.1,0-0.2-0.1-0.2-0.2L436.8-58.8c0-0.1,0-0.1,0-0.2
						c0-0.1,0.1-0.1,0.2-0.1l108.7-21.5c0.1,0,0.2,0,0.2,0.1c0.1,0.1,0.1,0.2,0,0.3L462.9,47.9C462.8,48,462.8,48,462.7,48z
						 M437.3-58.7l25.5,105.9l82.5-127.3L437.3-58.7z"/>
				</g>
				<g id="triangle36_1356_">
					<path class="st2" d="M470.6,120.4c0,0-0.1,0-0.1,0c-0.1,0-0.1-0.1-0.1-0.2l-8-72.4c0-0.1,0-0.2,0.1-0.2c0.1,0,0.2,0,0.3,0.1
						l49.1,54c0.1,0.1,0.1,0.1,0.1,0.2c0,0.1-0.1,0.1-0.1,0.2L470.6,120.4C470.7,120.4,470.7,120.4,470.6,120.4z M463,48.5l7.8,71.3
						l40.5-18.1L463,48.5z"/>
				</g>
				<g id="triangle36_1355_">
					<path class="st2" d="M511.8,102C511.8,102,511.8,102,511.8,102c-0.1,0-0.1,0-0.2-0.1l-49.1-54c-0.1-0.1-0.1-0.2,0-0.3
						c0.1-0.1,0.2-0.1,0.3-0.1l83.2,21.4c0.1,0,0.1,0.1,0.2,0.2c0,0.1,0,0.2-0.1,0.2l-34.1,32.6C511.9,102,511.8,102,511.8,102z
						 M463.4,48.2l48.4,53.2l33.6-32.2L463.4,48.2z"/>
				</g>
				<g id="triangle36_1353_">
					<path class="st2" d="M545.9,69.4C545.9,69.4,545.9,69.4,545.9,69.4L462.6,48c-0.1,0-0.1-0.1-0.2-0.1c0-0.1,0-0.1,0-0.2
						l83.1-128.2c0.1-0.1,0.2-0.1,0.3-0.1c0.1,0,0.2,0.1,0.2,0.2l0.2,149.6c0,0.1,0,0.1-0.1,0.2C546,69.4,545.9,69.4,545.9,69.4z
						 M463.1,47.6l82.6,21.2l-0.2-148.5L463.1,47.6z"/>
				</g>
				<g id="triangle36_1343_">
					<path class="st2" d="M386.5,274.9c-0.1,0-0.1,0-0.2-0.1c-0.1-0.1-0.1-0.1-0.1-0.2l20.2-78.7c0-0.1,0.1-0.1,0.1-0.2
						c0.1,0,0.2,0,0.2,0l85.5,59.1c0.1,0.1,0.1,0.1,0.1,0.2c0,0.1-0.1,0.2-0.2,0.2L386.5,274.9C386.6,274.9,386.5,274.9,386.5,274.9
						z M406.8,196.3l-20,78.1l104.7-19.5L406.8,196.3z"/>
				</g>
				<g id="triangle36_1342_">
					<path class="st2" d="M449,305.2c0,0-0.1,0-0.1,0l-62.5-30.3c-0.1,0-0.1-0.1-0.1-0.2c0-0.1,0.1-0.2,0.2-0.2l105.6-19.7
						c0.1,0,0.2,0,0.2,0.1c0,0.1,0,0.2,0,0.3l-43.2,50C449.2,305.2,449.1,305.2,449,305.2z M387.3,274.8l61.7,29.9l42.6-49.4
						L387.3,274.8z"/>
				</g>
				<g id="triangle36_1341_">
					<path class="st2" d="M492.2,255.2c0,0-0.1,0-0.1,0l-85.5-59.1c-0.1-0.1-0.1-0.2-0.1-0.3c0-0.1,0.1-0.2,0.2-0.2l112.9,5.5
						c0.1,0,0.2,0,0.2,0.1c0,0.1,0,0.2,0,0.2l-27.4,53.6C492.3,255.1,492.3,255.2,492.2,255.2C492.2,255.2,492.2,255.2,492.2,255.2z
						 M407.5,196.2l84.6,58.4l27.1-53L407.5,196.2z"/>
				</g>
				<g id="triangle36_1340_">
					<path class="st2" d="M478.3,315.6C478.3,315.6,478.2,315.6,478.3,315.6l-29.3-10.4c-0.1,0-0.1-0.1-0.1-0.2c0-0.1,0-0.2,0-0.2
						l43.2-50c0.1-0.1,0.2-0.1,0.3-0.1c0.1,0,0.1,0.2,0.1,0.3l-13.9,60.4c0,0.1-0.1,0.1-0.1,0.2
						C478.4,315.6,478.3,315.6,478.3,315.6z M449.4,304.9l28.7,10.2l13.6-59.2L449.4,304.9z"/>
				</g>
				<g id="triangle36_1339_">
					<path class="st2" d="M478.3,315.6c-0.1,0-0.1,0-0.2-0.1c0-0.1-0.1-0.1-0.1-0.2l13.9-60.4c0-0.1,0.1-0.1,0.2-0.2
						c0.1,0,0.2,0,0.2,0.1l56.2,54.3c0.1,0.1,0.1,0.2,0.1,0.2c0,0.1-0.1,0.1-0.2,0.2L478.3,315.6
						C478.3,315.6,478.3,315.6,478.3,315.6z M492.3,255.4l-13.7,59.7l69.3-6.1L492.3,255.4z"/>
				</g>
				<g id="triangle36_1338_">
					<path class="st2" d="M492.2,255.2c-0.1,0-0.1,0-0.2-0.1c-0.1-0.1-0.1-0.2,0-0.3l27.4-53.6c0-0.1,0.1-0.1,0.2-0.1
						c0.1,0,0.1,0,0.2,0l30.7,23.6c0.1,0,0.1,0.1,0.1,0.2c0,0.1-0.1,0.2-0.1,0.2l-58.2,29.9C492.2,255.2,492.2,255.2,492.2,255.2z
						 M519.7,201.7l-27,52.7l57.2-29.4L519.7,201.7z"/>
				</g>
				<g id="triangle36_1337_">
					<path class="st2" d="M548.4,309.4c-0.1,0-0.1,0-0.2-0.1L492,255.1c-0.1-0.1-0.1-0.1-0.1-0.2c0-0.1,0.1-0.1,0.2-0.2l80.4-24
						c0.1,0,0.2,0,0.2,0.1c0.1,0.1,0.1,0.2,0.1,0.2l-24.2,78.3C548.6,309.4,548.5,309.4,548.4,309.4
						C548.4,309.4,548.4,309.4,548.4,309.4z M492.6,255.1l55.6,53.7l23.9-77.5L492.6,255.1z"/>
				</g>
				<g id="triangle36_1336_">
					<path class="st2" d="M492.2,255.2c-0.1,0-0.2-0.1-0.2-0.1c0-0.1,0-0.2,0.1-0.3l58.2-29.9c0.1,0,0.1,0,0.2,0l22.2,5.9
						c0.1,0,0.2,0.1,0.2,0.2c0,0.1-0.1,0.2-0.2,0.2L492.2,255.2C492.2,255.2,492.2,255.2,492.2,255.2z M550.4,225.3L494.5,254
						l77.1-23.1L550.4,225.3z"/>
				</g>
				<g id="triangle36_1324_">
					<path class="st2" d="M145.1,285.1c-0.1,0-0.2-0.1-0.2-0.2c0-0.1,0-0.2,0.1-0.3l66.5-39c0.1,0,0.1,0,0.2,0
						c0.1,0,0.1,0.1,0.1,0.1l13.8,24.5c0,0.1,0,0.1,0,0.2c0,0.1-0.1,0.1-0.2,0.1L145.1,285.1C145.2,285.1,145.2,285.1,145.1,285.1z
						 M211.6,246.2l-65.2,38.2l78.7-14.2L211.6,246.2z"/>
				</g>
				<g id="triangle36_1322_">
					<path class="st2" d="M225.5,270.6C225.4,270.6,225.4,270.6,225.5,270.6c-0.1,0-0.2-0.1-0.2-0.1L211.5,246c0-0.1,0-0.1,0-0.2
						c0-0.1,0.1-0.1,0.2-0.1l41.1-8.2c0.1,0,0.2,0,0.2,0.1c0.1,0.1,0,0.2,0,0.3l-27.3,32.7C225.6,270.5,225.5,270.6,225.5,270.6z
						 M212.1,246l13.4,23.9l26.7-31.9L212.1,246z"/>
				</g>
				<g id="triangle36_1462_">
					<path class="st2" d="M341.7,105.6C341.7,105.6,341.7,105.6,341.7,105.6c-0.2,0-0.3-0.2-0.2-0.3l12.9-49.7
						c0-0.1,0.2-0.2,0.3-0.2c0.1,0,0.2,0.2,0.2,0.3l-12.9,49.7C341.9,105.5,341.8,105.6,341.7,105.6z"/>
				</g>
				<g id="triangle36_1316_">
					<path class="st2" d="M341.7,105.6c-0.1,0-0.1,0-0.1-0.1c-0.1-0.1-0.1-0.2-0.1-0.2l12.9-49.7c0-0.1,0.1-0.1,0.1-0.1
						c0.1,0,0.1,0,0.2,0l54.2,16.3c0.1,0,0.2,0.1,0.2,0.2c0,0.1,0,0.2-0.1,0.2l-67.1,33.4C341.8,105.6,341.8,105.6,341.7,105.6z
						 M354.8,55.9l-12.7,49L408.2,72L354.8,55.9z"/>
				</g>
				<g id="triangle36_1315_">
					<path class="st2" d="M360.8,168.7c-0.1,0-0.2-0.1-0.2-0.2l-19.1-63.1c0-0.1,0-0.2,0.1-0.3c0.1-0.1,0.2-0.1,0.3,0l78.7,56.2
						c0.1,0.1,0.1,0.2,0.1,0.2c0,0.1-0.1,0.2-0.2,0.2L360.8,168.7C360.9,168.7,360.8,168.7,360.8,168.7z M342.1,105.9l18.9,62.3
						l58.8-6.8L342.1,105.9z"/>
				</g>
				<g id="triangle36_1314_">
					<path class="st2" d="M420.4,161.8c0,0-0.1,0-0.1,0l-78.7-56.2c-0.1,0-0.1-0.1-0.1-0.2c0-0.1,0.1-0.2,0.1-0.2l67.1-33.4
						c0.1,0,0.1,0,0.2,0c0.1,0,0.1,0.1,0.1,0.2l11.6,89.6c0,0.1,0,0.2-0.1,0.2C420.5,161.8,420.5,161.8,420.4,161.8z M342.2,105.4
						l78,55.7l-11.5-88.8L342.2,105.4z"/>
				</g>
				<g id="triangle36_1165_">
					<path class="st2" d="M319.9,212.9c-0.1,0-0.1,0-0.2-0.1c-0.1-0.1-0.1-0.2,0-0.3l41-44.2c0.1-0.1,0.1-0.1,0.2-0.1
						c0.1,0,0.1,0.1,0.2,0.2l2.4,11.6c0,0.1,0,0.2-0.1,0.2L320,212.9C320,212.9,319.9,212.9,319.9,212.9z M360.7,169l-38.9,42
						L363,180L360.7,169z"/>
				</g>
				<g id="triangle36_1164_">
					<path class="st2" d="M319.9,212.9c-0.1,0-0.2-0.1-0.2-0.1c0-0.1,0-0.2,0.1-0.3l43.4-32.6c0.1-0.1,0.2-0.1,0.3,0l27.4,20.6
						c0.1,0.1,0.1,0.2,0.1,0.2s-0.1,0.2-0.2,0.2L319.9,212.9C319.9,212.9,319.9,212.9,319.9,212.9z M363.2,180.4l-42.5,31.9
						l69.2-11.7L363.2,180.4z"/>
				</g>
				<g id="triangle36_1160_">
					<path class="st2" d="M386.5,274.9c-0.1,0-0.1,0-0.2-0.1l-66.7-62c-0.1-0.1-0.1-0.2-0.1-0.2c0-0.1,0.1-0.1,0.2-0.2l70.7-12
						c0.1,0,0.1,0,0.2,0.1c0.1,0,0.1,0.1,0.1,0.2l-4.1,73.9C386.8,274.8,386.7,274.8,386.5,274.9
						C386.6,274.9,386.6,274.9,386.5,274.9z M320.4,212.8l65.9,61.3l4-73.2L320.4,212.8z"/>
				</g>
				<g id="triangle36_1159_">
					<path class="st2" d="M601.2,149.8L520,200.9l26.2-99l55.1,23.3l0-0.5l-55.2-23.3c-0.1,0-0.1,0-0.2,0c-0.1,0-0.1,0.1-0.1,0.2
						l-26.4,99.9c0,0.1,0,0.2,0.1,0.2c0,0,0.1,0,0.1,0c0,0,0.1,0,0.1,0l81.4-51.3L601.2,149.8z"/>
				</g>
				<g id="triangle36_1158_">
					<path class="st2" d="M600.9,192.4l-80.4,8.6l80.6-50.7l0-0.6l-81.7,51.4c-0.1,0.1-0.1,0.2-0.1,0.3c0,0.1,0.1,0.2,0.2,0.2
						c0,0,0,0,0,0l81.3-8.7L600.9,192.4z"/>
				</g>
				<g id="triangle36_1153_">
					<path class="st2" d="M601.3,124.6l-53.9-22.8l54,3.2l0-0.5l-55.3-3.3c-0.1,0-0.2,0.1-0.2,0.2c0,0.1,0,0.2,0.1,0.3l55.3,23.4
						L601.3,124.6z"/>
				</g>
				<g id="triangle36_1145_">
					<path class="st2" d="M225.5,270.6c-0.1,0-0.1,0-0.2-0.1c-0.1-0.1-0.1-0.2,0-0.3l27.3-32.7c0-0.1,0.1-0.1,0.2-0.1l54-0.2
						c0,0,0,0,0,0c0.1,0,0.2,0.1,0.2,0.2c0,0.1,0,0.2-0.1,0.3L225.5,270.6C225.5,270.6,225.5,270.6,225.5,270.6z M252.9,237.9
						l-26.7,31.9l79.3-32L252.9,237.9z"/>
				</g>
				<g id="triangle36_1144_">
					<path class="st2" d="M291.2,323.9c-0.1,0-0.1,0-0.1-0.1l-65.8-53.4c-0.1-0.1-0.1-0.1-0.1-0.2c0-0.1,0.1-0.2,0.1-0.2l81.3-32.8
						c0.1,0,0.2,0,0.2,0c0.1,0.1,0.1,0.1,0.1,0.2l-15.6,86.2C291.4,323.8,291.4,323.9,291.2,323.9
						C291.3,323.9,291.3,323.9,291.2,323.9z M225.9,270.4l65.2,52.9l15.4-85.4L225.9,270.4z"/>
				</g>
				<g id="triangle36_1142_">
					<path class="st2" d="M252.8,237.9c-0.1,0-0.2-0.1-0.2-0.2c0-0.1,0-0.2,0.1-0.3l67.1-25c0.1,0,0.2,0,0.3,0.1
						c0.1,0.1,0.1,0.2,0,0.3L307,237.6c0,0.1-0.1,0.1-0.2,0.1L252.8,237.9C252.8,237.9,252.8,237.9,252.8,237.9z M319.4,213.1
						l-65.3,24.3l52.6-0.2L319.4,213.1z"/>
				</g>
				<g id="triangle36_1141_">
					<path class="st2" d="M291.2,323.9c0,0-0.1,0-0.1,0c-0.1-0.1-0.1-0.1-0.1-0.2l15.6-86.2c0-0.1,0.1-0.1,0.1-0.2
						c0.1,0,0.1,0,0.2,0l79.7,37.2c0.1,0,0.1,0.1,0.1,0.2c0,0.1,0,0.2-0.1,0.2l-95.3,49.1C291.3,323.9,291.3,323.9,291.2,323.9z
						 M307,237.8l-15.4,85.4l94.5-48.6L307,237.8z"/>
				</g>
				<g id="triangle36_1140_">
					<path class="st2" d="M386.5,274.9C386.5,274.9,386.5,274.9,386.5,274.9l-79.8-37.2c-0.1,0-0.1-0.1-0.1-0.1c0-0.1,0-0.1,0-0.2
						l13.1-24.8c0-0.1,0.1-0.1,0.2-0.1c0.1,0,0.1,0,0.2,0.1l66.7,62c0.1,0.1,0.1,0.2,0,0.3C386.7,274.9,386.6,274.9,386.5,274.9z
						 M307.1,237.4l78.2,36.4l-65.3-60.8L307.1,237.4z"/>
				</g>
				<g id="triangle36_1139_">
					<path class="st2" d="M600.7,241.2l-27.6-10.3l27.7-15.9l0-0.5l-28.4,16.3c-0.1,0-0.1,0.1-0.1,0.2c0,0.1,0.1,0.2,0.2,0.2
						l28.2,10.5L600.7,241.2z"/>
				</g>
				<g id="triangle36_1460_">
					<path class="st2" d="M354.6,55.8c-0.1,0-0.1,0-0.2-0.1c-0.1-0.1,0-0.3,0.1-0.3l54.2-36.2c0.1-0.1,0.3,0,0.3,0.1
						c0.1,0.1,0,0.3-0.1,0.3l-54.2,36.2C354.7,55.8,354.7,55.8,354.6,55.8z"/>
				</g>
				<g id="triangle36_1126_">
					<path class="st2" d="M408.9,72.2C408.8,72.2,408.8,72.2,408.9,72.2l-54.3-16.3c-0.1,0-0.2-0.1-0.2-0.2c0-0.1,0-0.2,0.1-0.2
						l54.2-36.2c0.1,0,0.2-0.1,0.2,0c0.1,0,0.1,0.1,0.1,0.2l0,52.6c0,0.1,0,0.1-0.1,0.2C409,72.2,408.9,72.2,408.9,72.2z
						 M355.2,55.5l53.5,16.1l0-51.8L355.2,55.5z"/>
				</g>
				<g id="triangle36_1121_">
					<path class="st2" d="M408.9,72.2c0,0-0.1,0-0.1,0c-0.1,0-0.1-0.1-0.1-0.2l0-52.6c0-0.1,0-0.2,0.1-0.2c0.1,0,0.2,0,0.2,0
						l53.9,28.4c0.1,0,0.1,0.1,0.1,0.2c0,0.1-0.1,0.2-0.1,0.2L408.9,72.2C408.9,72.2,408.9,72.2,408.9,72.2z M409,19.8l0,51.8
						l53.1-23.8L409,19.8z"/>
				</g>
				<g id="triangle36_1117_">
					<path class="st2" d="M462.7,48c0,0-0.1,0-0.1,0l-53.9-28.4c-0.1-0.1-0.2-0.2-0.1-0.3L436.8-59c0-0.1,0.1-0.2,0.2-0.2
						c0.1,0,0.2,0.1,0.2,0.2l25.7,106.7c0,0.1,0,0.2-0.1,0.2C462.8,48,462.7,48,462.7,48z M409.1,19.3l53.2,28.1L436.9-58.1
						L409.1,19.3z"/>
				</g>
				<g id="triangle36_1116_">
					<path class="st2" d="M600.5,273.7l-51.7,34.9l23.8-77.2l27.9,35.9l0-0.8l-27.8-35.8c-0.1-0.1-0.1-0.1-0.2-0.1
						c-0.1,0-0.2,0.1-0.2,0.2l-24.2,78.3c0,0.1,0,0.2,0.1,0.3c0,0,0.1,0,0.1,0c0,0,0.1,0,0.1,0l52-35.1L600.5,273.7z"/>
				</g>
				<g id="triangle36_1115_">
					<path class="st2" d="M600.3,321.9l-51.3-12.8l51.6-34.8l0-0.6L548.2,309c-0.1,0.1-0.1,0.1-0.1,0.2c0,0.1,0.1,0.2,0.2,0.2
						l52,12.9L600.3,321.9z"/>
				</g>
				<g id="triangle36_1114_">
					<path class="st2" d="M600.6,266.6l-27.3-35.2l27.5,10.2l0-0.5l-28.1-10.5c-0.1,0-0.2,0-0.3,0.1c-0.1,0.1-0.1,0.2,0,0.3
						l28.2,36.3L600.6,266.6z"/>
				</g>
			</g>
			<g>
				<g>
					<path class="st2" d="M561.2-96.7c-1.4,0-2.5,1.1-2.5,2.4c0,1.4,1.1,2.5,2.4,2.5c1.4,0,2.5-1.1,2.5-2.4
						C563.7-95.6,562.6-96.7,561.2-96.7z"/>
					<path class="st2" d="M561.2-96.7c1.4,0,2.4,1.1,2.4,2.5c0,1.4-1.1,2.4-2.5,2.4c-1.4,0-2.4-1.1-2.4-2.5
						C558.8-95.7,559.9-96.7,561.2-96.7 M561.2-97.7c-1.9,0-3.4,1.5-3.4,3.4c0,1.9,1.5,3.4,3.4,3.4c1.9,0,3.4-1.5,3.4-3.4
						C564.6-96.1,563.1-97.7,561.2-97.7L561.2-97.7z"/>
				</g>
				<g>
					<path class="st2" d="M177.1,302.8c-0.8,0-1.5,0.7-1.5,1.5c0,0.8,0.7,1.5,1.5,1.5c0.8,0,1.5-0.7,1.5-1.5
						C178.7,303.5,178,302.8,177.1,302.8z"/>
					<path class="st2" d="M177.1,302.8c0.8,0,1.5,0.7,1.5,1.5c0,0.8-0.7,1.5-1.5,1.5c-0.8,0-1.5-0.7-1.5-1.5
						C175.6,303.4,176.3,302.8,177.1,302.8 M177.2,301.8c-1.3,0-2.5,1.1-2.5,2.4s1.1,2.5,2.4,2.5c1.4,0,2.5-1.1,2.5-2.4
						S178.5,301.8,177.2,301.8L177.2,301.8z"/>
				</g>
				<g>
					<path class="st2" d="M205.4,320.3c-1.2,0-2.1,0.9-2.1,2.1c0,1.2,0.9,2.1,2.1,2.1c1.2,0,2.1-0.9,2.1-2.1
						C207.5,321.2,206.6,320.3,205.4,320.3z"/>
					<path class="st2" d="M205.4,320.3c1.2,0,2.1,0.9,2.1,2.1c0,1.2-0.9,2.1-2.1,2.1c-1.2,0-2.1-0.9-2.1-2.1
						C203.4,321.2,204.3,320.2,205.4,320.3 M205.5,319.3c-1.7,0-3,1.3-3,3c0,1.7,1.3,3,3,3c1.7,0,3-1.3,3-3
						C208.5,320.7,207.1,319.3,205.5,319.3L205.5,319.3z"/>
				</g>
				<g>
					<path class="st2" d="M590.9,72.5c-1,0-1.8,0.8-1.8,1.8c0,1,0.8,1.8,1.8,1.8c1,0,1.8-0.8,1.8-1.8
						C592.7,73.3,591.9,72.5,590.9,72.5z"/>
					<path class="st2" d="M590.9,72.5c1,0,1.8,0.8,1.8,1.8c0,1-0.8,1.8-1.8,1.8c-1,0-1.8-0.8-1.8-1.8
						C589.1,73.3,589.9,72.4,590.9,72.5 M590.9,71.5c-1.5,0-2.8,1.2-2.8,2.7c0,1.5,1.2,2.8,2.7,2.8c1.5,0,2.8-1.2,2.8-2.7
						C593.7,72.8,592.5,71.5,590.9,71.5L590.9,71.5z"/>
				</g>
				<g>
					<circle class="st2" cx="470.6" cy="120.2" r="3.1"/>
					<path class="st2" d="M470.7,117.1c1.7,0,3.1,1.4,3.1,3.1c0,1.7-1.4,3.1-3.1,3.1c-1.7,0-3.1-1.4-3.1-3.1
						C467.5,118.4,468.9,117.1,470.7,117.1 M470.7,116.1c-2.2,0-4.1,1.8-4.1,4c0,2.2,1.8,4.1,4,4.1c2.2,0,4.1-1.8,4.1-4
						C474.7,118,472.9,116.1,470.7,116.1L470.7,116.1z"/>
				</g>
				<g>
					<path class="st2" d="M513.1,101.8c0-0.7-0.6-1.3-1.3-1.3c-0.7,0-1.3,0.6-1.3,1.3c0,0.7,0.6,1.3,1.3,1.3
						C512.5,103.1,513.1,102.5,513.1,101.8z"/>
					<path class="st2" d="M511.8,100.4c0.7,0,1.3,0.6,1.3,1.3c0,0.7-0.6,1.3-1.3,1.3c-0.7,0-1.3-0.6-1.3-1.3
						C510.5,101,511,100.4,511.8,100.4 M511.8,99.5c-1.3,0-2.3,1-2.3,2.3c0,1.3,1,2.3,2.3,2.3c1.3,0,2.3-1,2.3-2.3
						C514.1,100.5,513,99.5,511.8,99.5L511.8,99.5z"/>
				</g>
				<g>
					<path class="st2" d="M545.9,72.2c1.7,0,3.1-1.4,3.1-3c0-1.7-1.4-3.1-3-3.1c-1.7,0-3.1,1.4-3.1,3
						C542.8,70.8,544.2,72.2,545.9,72.2z"/>
					<path class="st2" d="M545.9,66.1c1.7,0,3.1,1.4,3,3.1c0,1.7-1.4,3.1-3.1,3c-1.7,0-3.1-1.4-3-3.1
						C542.8,67.4,544.2,66.1,545.9,66.1 M545.9,65.1c-2.2,0-4,1.8-4,4c0,2.2,1.8,4,4,4c2.2,0,4-1.8,4-4
						C549.9,67,548.1,65.2,545.9,65.1L545.9,65.1z"/>
				</g>
				<g>
					<path class="st2" d="M547.6-80.4c0-1.1-0.8-1.9-1.9-1.9c-1.1,0-1.9,0.8-1.9,1.9c0,1.1,0.8,1.9,1.9,1.9
						C546.8-78.5,547.6-79.3,547.6-80.4z"/>
					<path class="st2" d="M545.7-82.3c1.1,0,1.9,0.9,1.9,1.9c0,1.1-0.9,1.9-1.9,1.9c-1.1,0-1.9-0.9-1.9-1.9
						C543.8-81.5,544.7-82.3,545.7-82.3 M545.7-83.3c-1.6,0-2.9,1.3-2.9,2.8c0,1.6,1.3,2.9,2.8,2.9c1.6,0,2.9-1.3,2.9-2.8
						C548.6-82,547.3-83.3,545.7-83.3L545.7-83.3z"/>
				</g>
				<g>
					<path class="st2" d="M406.7,193.1c-1.5,0-2.8,1.2-2.8,2.8c0,1.5,1.2,2.8,2.8,2.8s2.8-1.2,2.8-2.8
						C409.5,194.4,408.2,193.1,406.7,193.1z"/>
					<path class="st2" d="M406.7,193.1c1.5,0,2.8,1.3,2.8,2.8c0,1.5-1.3,2.8-2.8,2.8s-2.8-1.3-2.8-2.8
						C403.9,194.4,405.2,193.1,406.7,193.1 M406.7,192.2c-2,0-3.7,1.6-3.7,3.7c0,2,1.6,3.7,3.7,3.7c2,0,3.7-1.6,3.7-3.7
						C410.4,193.9,408.7,192.2,406.7,192.2L406.7,192.2z"/>
				</g>
				<g>
					<path class="st2" d="M449,302.6c-1.3,0-2.4,1.1-2.4,2.4c0,1.3,1.1,2.4,2.4,2.4c1.3,0,2.4-1.1,2.4-2.4
						C451.4,303.7,450.3,302.6,449,302.6z"/>
					<path class="st2" d="M449,302.6c1.3,0,2.4,1.1,2.4,2.4c0,1.3-1.1,2.4-2.4,2.4c-1.3,0-2.4-1.1-2.4-2.4
						C446.6,303.7,447.7,302.6,449,302.6 M449,301.7c-1.8,0-3.3,1.5-3.3,3.3c0,1.8,1.5,3.3,3.3,3.3c1.8,0,3.3-1.5,3.3-3.3
						C452.3,303.2,450.9,301.7,449,301.7L449,301.7z"/>
				</g>
				<g>
					<path class="st2" d="M478.3,312.3c-1.7,0-3.1,1.4-3.1,3.1c0,1.7,1.4,3.1,3.1,3.1c1.7,0,3.1-1.4,3.1-3.1
						C481.4,313.7,480,312.3,478.3,312.3z"/>
					<path class="st2" d="M478.3,312.3c1.7,0,3.1,1.4,3.1,3.1c0,1.7-1.4,3.1-3.1,3.1c-1.7,0-3.1-1.4-3.1-3.1
						C475.2,313.6,476.6,312.3,478.3,312.3 M478.3,311.3c-2.2,0-4,1.8-4,4c0,2.2,1.8,4,4,4c2.2,0,4-1.8,4-4
						C482.3,313.2,480.5,311.4,478.3,311.3L478.3,311.3z"/>
				</g>
				<g>
					<path class="st2" d="M492.2,253.2c-1,0-1.7,0.8-1.7,1.7c0,1,0.8,1.7,1.7,1.7c1,0,1.7-0.8,1.7-1.7
						C493.9,254,493.1,253.2,492.2,253.2z"/>
					<path class="st2" d="M492.2,253.2c1,0,1.7,0.8,1.7,1.7c0,1-0.8,1.7-1.7,1.7c-1,0-1.7-0.8-1.7-1.7
						C490.5,254,491.2,253.2,492.2,253.2 M492.2,252.3c-1.5,0-2.7,1.2-2.7,2.7c0,1.5,1.2,2.7,2.7,2.7c1.5,0,2.7-1.2,2.7-2.7
						C494.8,253.5,493.7,252.3,492.2,252.3L492.2,252.3z"/>
				</g>
				<g>
					<path class="st2" d="M550.4,221.7c-1.8,0-3.3,1.5-3.4,3.3c0,1.8,1.5,3.3,3.3,3.4c1.8,0,3.3-1.5,3.4-3.3
						C553.7,223.2,552.2,221.7,550.4,221.7z"/>
					<path class="st2" d="M550.4,221.7c1.8,0,3.3,1.5,3.3,3.4c0,1.8-1.5,3.3-3.4,3.3c-1.8,0-3.3-1.5-3.3-3.4
						C547,223.2,548.5,221.7,550.4,221.7 M550.4,220.7c-2.4,0-4.3,1.9-4.3,4.3c0,2.4,1.9,4.3,4.3,4.3c2.4,0,4.3-1.9,4.3-4.3
						C554.6,222.7,552.7,220.7,550.4,220.7L550.4,220.7z"/>
				</g>
				<g>
					<path class="st2" d="M145.2,283.4c-0.8,0-1.4,0.6-1.4,1.4c0,0.8,0.6,1.4,1.4,1.4c0.8,0,1.4-0.6,1.4-1.4
						C146.5,284.1,145.9,283.5,145.2,283.4z"/>
					<path class="st2" d="M145.2,283.4c0.8,0,1.4,0.6,1.4,1.4c0,0.8-0.6,1.4-1.4,1.4c-0.8,0-1.4-0.6-1.4-1.4
						C143.8,284.1,144.4,283.4,145.2,283.4 M145.2,282.5c-1.3,0-2.3,1-2.3,2.3c0,1.3,1,2.3,2.3,2.3s2.3-1,2.3-2.3
						C147.5,283.6,146.4,282.5,145.2,282.5L145.2,282.5z"/>
				</g>
				<g>
					<path class="st2" d="M211.7,243.6c-1.2,0-2.2,1-2.2,2.2c0,1.2,1,2.2,2.2,2.2c1.2,0,2.2-1,2.2-2.2
						C213.9,244.6,212.9,243.6,211.7,243.6z"/>
					<path class="st2" d="M211.7,243.6c1.2,0,2.2,1,2.2,2.2c0,1.2-1,2.2-2.2,2.2c-1.2,0-2.2-1-2.2-2.2
						C209.5,244.6,210.5,243.6,211.7,243.6 M211.7,242.7c-1.7,0-3.2,1.4-3.2,3.1c0,1.7,1.4,3.2,3.1,3.2s3.2-1.4,3.2-3.1
						C214.9,244.1,213.5,242.7,211.7,242.7L211.7,242.7z"/>
				</g>
				<g>
					<path class="st2" d="M341.7,104c-0.7,0-1.3,0.6-1.3,1.3c0,0.7,0.6,1.3,1.3,1.3c0.7,0,1.3-0.6,1.3-1.3
						C343.1,104.6,342.5,104,341.7,104z"/>
					<path class="st2" d="M341.7,104c0.7,0,1.3,0.6,1.3,1.3c0,0.7-0.6,1.3-1.3,1.3c-0.7,0-1.3-0.6-1.3-1.3
						C340.4,104.6,341,104,341.7,104 M341.7,103c-1.3,0-2.3,1-2.3,2.3c0,1.3,1,2.3,2.3,2.3c1.3,0,2.3-1,2.3-2.3
						C344,104.1,343,103.1,341.7,103L341.7,103z"/>
				</g>
				<g>
					<path class="st2" d="M420.4,158.5c-1.7,0-3.1,1.4-3.1,3c0,1.7,1.4,3.1,3,3.1c1.7,0,3.1-1.4,3.1-3
						C423.5,159.9,422.1,158.5,420.4,158.5z"/>
					<path class="st2" d="M420.4,158.5c1.7,0,3.1,1.4,3,3.1c0,1.7-1.4,3.1-3.1,3c-1.7,0-3.1-1.4-3-3.1
						C417.4,159.8,418.8,158.5,420.4,158.5 M420.5,157.6c-2.2,0-4,1.8-4,4c0,2.2,1.8,4,4,4c2.2,0,4-1.8,4-4
						C424.4,159.4,422.7,157.6,420.5,157.6L420.5,157.6z"/>
				</g>
				<g>
					<path class="st2" d="M360.8,170c0.8,0,1.5-0.7,1.5-1.5s-0.7-1.5-1.5-1.5c-0.8,0-1.5,0.7-1.5,1.5S360,170,360.8,170z"/>
					<path class="st2" d="M360.8,166.9c0.8,0,1.5,0.7,1.5,1.5s-0.7,1.5-1.5,1.5s-1.5-0.7-1.5-1.5S360,166.9,360.8,166.9 M360.8,166
						c-1.4,0-2.5,1.1-2.5,2.5c0,1.4,1.1,2.5,2.5,2.5c1.4,0,2.5-1.1,2.5-2.5C363.3,167.1,362.2,166,360.8,166L360.8,166z"/>
				</g>
				<g>
					<path class="st2" d="M363.3,178.4c-1,0-1.7,0.8-1.7,1.7c0,1,0.8,1.7,1.7,1.7c1,0,1.7-0.8,1.7-1.7
						C365,179.2,364.2,178.4,363.3,178.4z"/>
					<path class="st2" d="M363.3,178.4c1,0,1.7,0.8,1.7,1.7c0,1-0.8,1.7-1.7,1.7c-1,0-1.7-0.8-1.7-1.7
						C361.5,179.1,362.3,178.4,363.3,178.4 M363.3,177.4c-1.5,0-2.7,1.2-2.7,2.6c0,1.5,1.2,2.7,2.6,2.7c1.5,0,2.7-1.2,2.7-2.6
						C365.9,178.6,364.7,177.4,363.3,177.4L363.3,177.4z"/>
				</g>
				<g>
					<path class="st2" d="M390.6,199.4c-0.7,0-1.4,0.6-1.4,1.3c0,0.7,0.6,1.4,1.3,1.4c0.7,0,1.4-0.6,1.4-1.3
						C392,200,391.4,199.4,390.6,199.4z"/>
					<path class="st2" d="M390.6,199.4c0.7,0,1.3,0.6,1.3,1.4c0,0.7-0.6,1.3-1.4,1.3s-1.3-0.6-1.3-1.4
						C389.3,200,389.9,199.4,390.6,199.4 M390.6,198.4c-1.3,0-2.3,1-2.3,2.3c0,1.3,1,2.3,2.3,2.3c1.3,0,2.3-1,2.3-2.3
						C392.9,199.5,391.9,198.4,390.6,198.4L390.6,198.4z"/>
				</g>
				<g>
					<path class="st2" d="M519.6,199c-1.3,0-2.4,1-2.4,2.3s1,2.4,2.3,2.4c1.3,0,2.4-1,2.4-2.3C522,200.1,520.9,199,519.6,199z"/>
					<path class="st2" d="M519.6,199c1.3,0,2.3,1.1,2.3,2.4c0,1.3-1.1,2.3-2.4,2.3c-1.3,0-2.3-1.1-2.3-2.4
						C517.3,200.1,518.3,199,519.6,199 M519.6,198.1c-1.8,0-3.3,1.5-3.3,3.3c0,1.8,1.5,3.3,3.3,3.3c1.8,0,3.3-1.5,3.3-3.3
						C522.9,199.6,521.4,198.1,519.6,198.1L519.6,198.1z"/>
				</g>
				<g>
					<path class="st2" d="M546,98.8c-1.5,0-2.7,1.2-2.7,2.7c0,1.5,1.2,2.7,2.7,2.7c1.5,0,2.7-1.2,2.7-2.7
						C548.7,100,547.5,98.8,546,98.8z"/>
					<path class="st2" d="M546,98.8c1.5,0,2.7,1.2,2.7,2.7c0,1.5-1.2,2.7-2.7,2.7c-1.5,0-2.7-1.2-2.7-2.7
						C543.3,100,544.6,98.8,546,98.8 M546.1,97.8c-2,0-3.6,1.6-3.7,3.6s1.6,3.6,3.6,3.7c2,0,3.6-1.6,3.7-3.6
						C549.7,99.5,548.1,97.9,546.1,97.8L546.1,97.8z"/>
				</g>
				<g>
					<path class="st2" d="M225.5,267.4c-1.6,0-2.9,1.3-2.9,2.9c0,1.6,1.3,2.9,2.9,2.9c1.6,0,2.9-1.3,2.9-2.9
						C228.4,268.7,227.1,267.4,225.5,267.4z"/>
					<path class="st2" d="M225.5,267.4c1.6,0,2.9,1.3,2.9,2.9c0,1.6-1.3,2.9-2.9,2.9c-1.6,0-2.9-1.3-2.9-2.9
						C222.5,268.7,223.9,267.4,225.5,267.4 M225.5,266.5c-2.1,0-3.9,1.7-3.9,3.8c0,2.1,1.7,3.9,3.8,3.9c2.1,0,3.9-1.7,3.9-3.8
						C229.3,268.2,227.6,266.5,225.5,266.5L225.5,266.5z"/>
				</g>
				<g>
					<path class="st2" d="M254.5,237.7c0-0.9-0.7-1.7-1.7-1.7c-0.9,0-1.7,0.7-1.7,1.7c0,0.9,0.7,1.7,1.7,1.7
						C253.7,239.4,254.5,238.6,254.5,237.7z"/>
					<path class="st2" d="M252.8,236c0.9,0,1.7,0.8,1.7,1.7c0,0.9-0.8,1.7-1.7,1.7c-0.9,0-1.7-0.8-1.7-1.7
						C251.1,236.7,251.9,236,252.8,236 M252.8,235.1c-1.4,0-2.6,1.2-2.6,2.6c0,1.4,1.2,2.6,2.6,2.6c1.4,0,2.6-1.2,2.6-2.6
						C255.4,236.3,254.2,235.1,252.8,235.1L252.8,235.1z"/>
				</g>
				<g>
					<path class="st2" d="M291.2,321.1c-1.5,0-2.7,1.2-2.7,2.6c0,1.5,1.2,2.7,2.6,2.7c1.5,0,2.7-1.2,2.7-2.6
						C293.9,322.3,292.7,321.1,291.2,321.1z"/>
					<path class="st2" d="M291.2,321.1c1.5,0,2.6,1.2,2.6,2.7c0,1.5-1.2,2.6-2.7,2.6c-1.5,0-2.6-1.2-2.6-2.7
						C288.6,322.2,289.8,321.1,291.2,321.1 M291.2,320.1c-2,0-3.6,1.6-3.6,3.6c0,2,1.6,3.6,3.6,3.6c2,0,3.6-1.6,3.6-3.6
						C294.8,321.8,293.2,320.1,291.2,320.1L291.2,320.1z"/>
				</g>
				<g>
					<path class="st2" d="M306.8,234.7c-1.5,0-2.8,1.2-2.8,2.8c0,1.5,1.2,2.8,2.8,2.8c1.5,0,2.8-1.2,2.8-2.8
						C309.6,236,308.3,234.7,306.8,234.7z"/>
					<path class="st2" d="M306.8,234.7c1.5,0,2.8,1.3,2.8,2.8c0,1.5-1.3,2.8-2.8,2.8c-1.5,0-2.8-1.3-2.8-2.8
						C304,236,305.3,234.7,306.8,234.7 M306.8,233.8c-2,0-3.7,1.6-3.7,3.7c0,2,1.6,3.7,3.7,3.7c2,0,3.7-1.6,3.7-3.7
						C310.5,235.5,308.8,233.8,306.8,233.8L306.8,233.8z"/>
				</g>
				<g>
					<path class="st2" d="M386.5,272.2c-1.3,0-2.4,1.1-2.4,2.4c0,1.3,1.1,2.4,2.4,2.4c1.3,0,2.4-1.1,2.4-2.4
						C388.9,273.3,387.9,272.2,386.5,272.2z"/>
					<path class="st2" d="M386.5,272.2c1.3,0,2.4,1.1,2.4,2.4s-1.1,2.4-2.4,2.4c-1.3,0-2.4-1.1-2.4-2.4
						C384.1,273.3,385.2,272.2,386.5,272.2 M386.5,271.3c-1.8,0-3.4,1.5-3.4,3.3c0,1.8,1.5,3.4,3.3,3.4c1.8,0,3.4-1.5,3.4-3.3
						C389.9,272.8,388.4,271.3,386.5,271.3L386.5,271.3z"/>
				</g>
				<g>
					<path class="st2" d="M319.9,210.9c-1,0-1.8,0.8-1.8,1.8c0,1,0.8,1.8,1.8,1.8c1,0,1.8-0.8,1.8-1.8
						C321.7,211.7,320.9,210.9,319.9,210.9z"/>
					<path class="st2" d="M319.9,210.9c1,0,1.8,0.8,1.8,1.8c0,1-0.8,1.8-1.8,1.8c-1,0-1.8-0.8-1.8-1.8
						C318.1,211.7,318.9,210.9,319.9,210.9 M319.9,210c-1.5,0-2.7,1.2-2.7,2.7c0,1.5,1.2,2.7,2.7,2.7c1.5,0,2.7-1.2,2.7-2.7
						C322.6,211.2,321.4,210,319.9,210L319.9,210z"/>
				</g>
				<g>
					<path class="st2" d="M354.6,53.5c-1.2,0-2.1,0.9-2.1,2.1c0,1.2,0.9,2.1,2.1,2.1s2.1-0.9,2.1-2.1
						C356.7,54.5,355.8,53.5,354.6,53.5z"/>
					<path class="st2" d="M354.6,53.5c1.2,0,2.1,1,2.1,2.1c0,1.2-1,2.1-2.1,2.1s-2.1-1-2.1-2.1C352.5,54.4,353.5,53.5,354.6,53.5
						 M354.6,52.6c-1.7,0-3.1,1.4-3.1,3c0,1.7,1.4,3.1,3,3.1c1.7,0,3.1-1.4,3.1-3C357.7,53.9,356.3,52.6,354.6,52.6L354.6,52.6z"/>
				</g>
				<g>
					<path class="st2" d="M408.9,70.4c-0.9,0-1.6,0.7-1.6,1.6c0,0.9,0.7,1.6,1.6,1.6c0.9,0,1.6-0.7,1.6-1.6
						C410.4,71.1,409.7,70.4,408.9,70.4z"/>
					<path class="st2" d="M408.9,70.4c0.9,0,1.6,0.7,1.6,1.6c0,0.9-0.7,1.6-1.6,1.6c-0.9,0-1.6-0.7-1.6-1.6
						C407.3,71.1,408,70.4,408.9,70.4 M408.9,69.4c-1.4,0-2.5,1.1-2.5,2.5c0,1.4,1.1,2.5,2.5,2.5c1.4,0,2.5-1.1,2.5-2.5
						C411.4,70.6,410.3,69.4,408.9,69.4L408.9,69.4z"/>
				</g>
				<g>
					<path class="st2" d="M414.5-68.5c-1.4,0-2.5,1.1-2.5,2.5c0,1.4,1.1,2.5,2.5,2.5c1.4,0,2.5-1.1,2.5-2.5
						C417-67.3,415.9-68.5,414.5-68.5z"/>
					<path class="st2" d="M414.5-68.5c1.4,0,2.5,1.1,2.5,2.5c0,1.4-1.1,2.5-2.5,2.5c-1.4,0-2.5-1.1-2.5-2.5
						C412-67.4,413.1-68.5,414.5-68.5 M414.5-69.4c-1.9,0-3.4,1.5-3.5,3.4s1.5,3.4,3.4,3.5c1.9,0,3.4-1.5,3.5-3.4
						C417.9-67.8,416.4-69.4,414.5-69.4L414.5-69.4z"/>
				</g>
				<g>
					<path class="st2" d="M408.8,22.8c1.9,0,3.4-1.5,3.4-3.4c0-1.9-1.5-3.4-3.4-3.4c-1.9,0-3.4,1.5-3.4,3.4
						C405.4,21.2,406.9,22.8,408.8,22.8z"/>
					<path class="st2" d="M408.8,16c1.9,0,3.4,1.5,3.4,3.4c0,1.9-1.5,3.4-3.4,3.4c-1.9,0-3.4-1.5-3.4-3.4
						C405.4,17.5,407,16,408.8,16 M408.8,15c-2.4,0-4.3,1.9-4.3,4.3c0,2.4,1.9,4.3,4.3,4.3c2.4,0,4.3-1.9,4.3-4.3
						C413.2,17,411.2,15.1,408.8,15L408.8,15z"/>
				</g>
				<g>
					<path class="st2" d="M462.7,46.1c-1,0-1.7,0.8-1.7,1.7c0,1,0.8,1.7,1.7,1.7c1,0,1.7-0.8,1.7-1.7
						C464.4,46.8,463.6,46.1,462.7,46.1z"/>
					<path class="st2" d="M462.7,46.1c1,0,1.7,0.8,1.7,1.7c0,1-0.8,1.7-1.7,1.7c-1,0-1.7-0.8-1.7-1.7
						C461,46.8,461.7,46.1,462.7,46.1 M462.7,45.1c-1.5,0-2.7,1.2-2.7,2.7c0,1.5,1.2,2.7,2.7,2.7s2.7-1.2,2.7-2.7
						C465.4,46.3,464.2,45.1,462.7,45.1L462.7,45.1z"/>
				</g>
				<g>
					<path class="st2" d="M437-60.8c-1.1,0-1.9,0.9-1.9,1.9c0,1.1,0.9,1.9,1.9,1.9c1.1,0,1.9-0.9,1.9-1.9
						C438.9-59.9,438.1-60.8,437-60.8z"/>
					<path class="st2" d="M437-60.8c1.1,0,1.9,0.9,1.9,1.9c0,1.1-0.9,1.9-1.9,1.9c-1.1,0-1.9-0.9-1.9-1.9
						C435.1-59.9,435.9-60.8,437-60.8 M437-61.7c-1.6,0-2.9,1.3-2.9,2.8c0,1.6,1.3,2.9,2.8,2.9c1.6,0,2.9-1.3,2.9-2.8
						C439.9-60.4,438.6-61.7,437-61.7L437-61.7z"/>
				</g>
				<g>
					<path class="st2" d="M548.4,307.4c-1,0-1.8,0.8-1.8,1.8c0,1,0.8,1.8,1.8,1.8c1,0,1.8-0.8,1.8-1.8
						C550.2,308.2,549.4,307.4,548.4,307.4z"/>
					<path class="st2" d="M548.4,307.4c1,0,1.8,0.8,1.8,1.8c0,1-0.8,1.8-1.8,1.8c-1,0-1.8-0.8-1.8-1.8
						C546.6,308.2,547.4,307.4,548.4,307.4 M548.4,306.5c-1.5,0-2.7,1.2-2.7,2.7s1.2,2.7,2.7,2.7c1.5,0,2.7-1.2,2.7-2.7
						S549.9,306.5,548.4,306.5L548.4,306.5z"/>
				</g>
				<g>
					<circle class="st2" cx="572.5" cy="230.9" r="2.2"/>
					<path class="st2" d="M572.5,228.7c1.2,0,2.2,1,2.2,2.2c0,1.2-1,2.2-2.2,2.2c-1.2,0-2.2-1-2.2-2.2
						C570.3,229.7,571.3,228.7,572.5,228.7 M572.5,227.8c-1.8,0-3.2,1.4-3.2,3.2c0,1.8,1.4,3.2,3.2,3.2c1.8,0,3.2-1.4,3.2-3.2
						C575.7,229.2,574.3,227.8,572.5,227.8L572.5,227.8z"/>
				</g>
			</g>
		</g>
	</g>
</g>
<g>
	<g>
		<g id="triangle36_76_">
			<path class="st2" d="M-153.9,218l56,31l-15.1,13.5l-41-30.1l0,0.6l40.9,30.1c0.1,0.1,0.2,0.1,0.3,0l15.5-13.9
				c0.1-0.1,0.1-0.1,0.1-0.2c0-0.1-0.1-0.1-0.1-0.2l-56.6-31.3L-153.9,218z"/>
		</g>
		<g id="triangle36_75_">
			<path class="st2" d="M-153.7,175.6l55.4,72.6l-55.6-30.7l0,0.5l56.3,31.1c0.1,0.1,0.2,0,0.3-0.1c0.1-0.1,0.1-0.2,0-0.3
				l-56.4-73.9L-153.7,175.6z"/>
		</g>
		<g id="triangle36_74_">
			<path class="st2" d="M74.8-170.8l-75.4,34L-8-171.2l-0.5,0l7.5,34.8c0,0.1,0.1,0.1,0.1,0.2c0.1,0,0.1,0,0.2,0l76.6-34.5
				L74.8-170.8z"/>
		</g>
		<g id="triangle36_73_">
			<polygon class="st2" points="-152,-155.9 -102.6,-171.7 -104.1,-171.7 -152,-156.4 			"/>
		</g>
		<g id="triangle36_72_">
			<path class="st2" d="M-154,233l40.3,29.7l-40.5,1.3l0,0.5l41.2-1.4c0.1,0,0.2-0.1,0.2-0.2c0-0.1,0-0.2-0.1-0.3l-41.2-30.3
				L-154,233z"/>
		</g>
		<g id="triangle36_71_">
			<path class="st2" d="M-153.1,64l54.6,3.2L-142.7,94l-10.6-8.2l0,0.6l10.4,8.1c0.1,0.1,0.2,0.1,0.3,0l44.9-27.2
				c0.1-0.1,0.1-0.2,0.1-0.3c0-0.1-0.1-0.2-0.2-0.2l-55.4-3.3L-153.1,64z"/>
		</g>
		<g id="triangle36_70_">
			<path class="st2" d="M251.9-169.9l-9,15.3l-1.8-15.4l-0.5,0l1.9,16.1c0,0.1,0.1,0.2,0.2,0.2c0.1,0,0.2,0,0.3-0.1l9.5-16.2
				L251.9-169.9z"/>
		</g>
		<g id="triangle36_69_">
			<polygon class="st2" points="-152,-155.9 -102.6,-171.7 -104.1,-171.7 -152,-156.4 			"/>
			<path class="st2" d="M-152-153.3l51.9,12.9c0.1,0,0.3,0,0.3-0.2l7.8-31l-0.5,0l-7.8,30.7l-51.7-12.9L-152-153.3z"/>
		</g>
		<g id="triangle36_68_">
			<path class="st2" d="M-152.6-45.9l28.3-16.3l21.4,5.7l-49.8,19.1l0,0.5l50.6-19.4c0.1,0,0.2-0.1,0.2-0.2c0-0.1-0.1-0.2-0.2-0.2
				l-22.2-5.9c0,0,0,0-0.1,0c0,0-0.1,0-0.1,0l-28.2,16.2L-152.6-45.9z"/>
		</g>
		<g id="triangle36_67_">
			<path class="st2" d="M-8.5-171.2l7.4,34.4L-29.7-147l12.4-24.3l-0.5,0l-12.4,24.3c0,0.1,0,0.1,0,0.2c0,0.1,0.1,0.1,0.1,0.1
				l29.3,10.4c0.1,0,0.2,0,0.2,0c0.1-0.1,0.1-0.1,0.1-0.2L-8-171.2L-8.5-171.2z"/>
		</g>
		<g id="triangle36_66_">
			<path class="st2" d="M-17.9-171.2l-12.2,23.9l-15.2-24.1l-0.6,0l15.5,24.7c0,0.1,0.1,0.1,0.2,0.1c0.1,0,0.2-0.1,0.2-0.1
				l12.5-24.5L-17.9-171.2z"/>
		</g>
		<g id="triangle36_65_">
			<path class="st2" d="M-45.2-171.4l-0.6,0l15.1,24l-51.7-24.2l-1.1,0l53.3,25c0.1,0,0.2,0,0.3-0.1c0.1-0.1,0.1-0.2,0-0.3
				L-45.2-171.4z"/>
		</g>
		<g id="triangle36_64_">
			<path class="st2" d="M-29.9-147l-52.4-24.5l-1.1,0l52.5,24.6l-68.9,6l7.8-30.7l-0.5,0l-7.8,30.9c0,0.1,0,0.2,0,0.2
				c0,0.1,0.1,0.1,0.2,0.1l70.1-6.2c0.1,0,0.2-0.1,0.2-0.2C-29.8-146.9-29.8-147-29.9-147z"/>
		</g>
		<g id="triangle36_63_">
			<path class="st2" d="M240.7-169.9l1.8,15.6L218.1-170l-0.9,0l25.4,16.4c0.1,0,0.2,0.1,0.3,0c0.1,0,0.1-0.1,0.1-0.2l-1.9-16.1
				L240.7-169.9z"/>
		</g>
		<g id="triangle36_62_">
			<path class="st2" d="M85-11.8c0,0,0.1,0,0.1,0c0.1,0,0.1,0.1,0.1,0.2L87.6,0c0,0.1,0,0.1,0,0.2c0,0.1-0.1,0.1-0.2,0.1L27.8,7.2
				c-0.1,0-0.2-0.1-0.3-0.2c0-0.1,0-0.2,0.2-0.3L85-11.8C84.9-11.8,85-11.8,85-11.8z M87.1-0.1l-2.3-11.1L30.1,6.5L87.1-0.1z"/>
		</g>
		<g id="triangle36_61_">
			<path class="st2" d="M274-169.7l-3.1,33.6l-27.8-17.7l9.4-16l-0.5,0l-9.3,15.9c-0.1,0.1,0,0.2,0.1,0.3l28.3,18.1
				c0.1,0,0.2,0,0.2,0c0.1,0,0.1-0.1,0.1-0.2l3.1-34L274-169.7z"/>
		</g>
		<g id="triangle36_60_">
			<path class="st2" d="M242.8-154c0,0,0.1,0,0.1,0l28.3,18.1c0.1,0,0.1,0.1,0.1,0.2c0,0.1,0,0.2-0.1,0.2l-48.3,33.9
				c-0.1,0.1-0.2,0.1-0.3,0c-0.1-0.1-0.1-0.2-0.1-0.3l20-52C242.6-154,242.7-154,242.8-154C242.8-154,242.8-154,242.8-154z
				 M270.7-135.7l-27.8-17.7l-19.6,51L270.7-135.7z"/>
		</g>
		<g id="triangle36_59_">
			<path class="st2" d="M157-155.4C157-155.4,157-155.4,157-155.4l85.8,1.4c0.1,0,0.1,0,0.2,0.1c0,0.1,0.1,0.1,0,0.2l-20,52
				c0,0.1-0.1,0.1-0.2,0.1c-0.1,0-0.2,0-0.2,0L156.9-155c-0.1-0.1-0.1-0.2-0.1-0.3C156.8-155.3,156.9-155.4,157-155.4z M242.5-153.6
				l-84.8-1.4l65,52.7L242.5-153.6z"/>
		</g>
		<g id="triangle36_58_">
			<path class="st2" d="M218.1-170l-0.9,0l24.7,16l-84.1-1.3l26.9-14.8l-1,0l-26.9,14.8c-0.1,0.1-0.1,0.2-0.1,0.3
				c0,0.1,0.1,0.2,0.2,0.2l85.8,1.4h0c0.1,0,0.2-0.1,0.2-0.2c0-0.1,0-0.2-0.1-0.3L218.1-170z"/>
		</g>
		<g id="triangle36_57_">
			<path class="st2" d="M183.8-170.2l-26.1,14.4l8.9-14.5l-0.5,0l-9.2,15c-0.1,0.1,0,0.2,0,0.3c0.1,0.1,0.2,0.1,0.3,0l27.7-15.2
				L183.8-170.2z"/>
		</g>
		<g id="triangle36_56_">
			<path class="st2" d="M166-170.3l-9.1,14.9l-52-15.2l-1.7,0l53.7,15.7c0.1,0,0.2,0,0.3-0.1l9.4-15.2L166-170.3z"/>
		</g>
		<g id="triangle36_55_">
			<path class="st2" d="M-71.4-33.1C-71.3-33.1-71.3-33.1-71.4-33.1L27.9,6.8C28,6.8,28,6.9,28,7c0,0.1,0,0.2-0.1,0.2l-50.2,41.4
				c-0.1,0-0.1,0.1-0.2,0.1c-0.1,0-0.1-0.1-0.2-0.1l-49-81.2c-0.1-0.1,0-0.2,0-0.3C-71.5-33-71.4-33.1-71.4-33.1z M27.4,7.1
				l-98.2-39.4L-22.3,48L27.4,7.1z"/>
		</g>
		<g id="triangle36_54_">
			<path class="st2" d="M-71.4-33.1c0.1,0,0.2,0,0.2,0.1l49,81.2c0,0.1,0,0.1,0,0.2c0,0.1-0.1,0.1-0.1,0.1L-63.4,67
				c-0.1,0-0.1,0-0.2,0c-0.1,0-0.1-0.1-0.1-0.2l-7.8-99.6C-71.6-32.9-71.5-33-71.4-33.1C-71.4-33.1-71.4-33.1-71.4-33.1z
				 M-22.7,48.3L-71-31.9l7.7,98.3L-22.7,48.3z"/>
		</g>
		<g id="triangle36_53_">
			<path class="st2" d="M-71.4-33.1C-71.4-33.1-71.3-33.1-71.4-33.1c0.1,0,0.2,0.1,0.2,0.2l7.8,99.6c0,0.1,0,0.1-0.1,0.2
				c0,0-0.1,0.1-0.2,0.1l-34.3,0.3c0,0-0.1,0-0.2-0.1c0-0.1-0.1-0.1,0-0.2l26.4-99.9C-71.6-33-71.5-33.1-71.4-33.1z M-63.8,66.5
				l-7.7-98l-26,98.3L-63.8,66.5z"/>
		</g>
		<g id="triangle36_52_">
			<path class="st2" d="M-152.6-36.9l50.5-19.3L-72-33l-80.7,8.7l0,0.5l81.4-8.7c0.1,0,0.2-0.1,0.2-0.2c0-0.1,0-0.2-0.1-0.2
				L-102-56.7c0,0-0.1,0-0.1,0c0,0-0.1,0-0.1,0l-50.4,19.3L-152.6-36.9z"/>
		</g>
		<g id="triangle36_51_">
			<path class="st2" d="M-63.5,66.5c0.1,0,0.2,0.1,0.2,0.1c0,0.1,0,0.2-0.1,0.3l-34.1,32.6c-0.1,0.1-0.2,0.1-0.3,0
				c-0.1,0-0.1-0.1-0.1-0.2L-98,67.1c0-0.1,0.1-0.2,0.2-0.2L-63.5,66.5C-63.5,66.5-63.5,66.5-63.5,66.5z M-97.4,98.8L-64.1,67
				l-33.4,0.3L-97.4,98.8z"/>
		</g>
		<g id="triangle36_50_">
			<path class="st2" d="M-153.5,126.7l55.6-26.9l0.2,148.5l-56-73.4l0,0.8l56,73.5c0.1,0.1,0.2,0.1,0.3,0.1c0.1,0,0.2-0.1,0.2-0.2
				l-0.2-149.6c0-0.1,0-0.2-0.1-0.2c0,0-0.1,0-0.1,0c0,0-0.1,0-0.1,0l-55.7,27L-153.5,126.7z"/>
		</g>
		<g id="triangle36_49_">
			<path class="st2" d="M-97.8,66.8c0,0,0.1,0,0.1,0c0.1,0,0.1,0.1,0.1,0.2l0.1,32.3c0,0.1,0,0.1-0.1,0.2c-0.1,0-0.1,0.1-0.2,0.1
				l-45-5.1c-0.1,0-0.2-0.1-0.2-0.2c0-0.1,0-0.2,0.1-0.3l44.9-27.2C-97.9,66.8-97.8,66.8-97.8,66.8z M-97.9,99.1L-98,67.5L-142,94.1
				L-97.9,99.1z"/>
		</g>
		<g id="triangle36_48_">
			<path class="st2" d="M-153.4,107.3l10.8-12.8l44.1,5l-55,26.6l0,0.5l55.9-27.1c0.1,0,0.1-0.1,0.1-0.3c0-0.1-0.1-0.2-0.2-0.2
				l-45-5.1c0,0,0,0,0,0c-0.1,0-0.1,0-0.2,0.1l-10.5,12.5L-153.4,107.3z"/>
		</g>
		<g id="triangle36_47_">
			<path class="st2" d="M-153.3,89.3l10.2,5.1l-10.3,12.3l0,0.7l10.9-12.9c0-0.1,0.1-0.1,0.1-0.2c0-0.1-0.1-0.1-0.1-0.2l-10.7-5.3
				L-153.3,89.3z"/>
		</g>
		<g id="triangle36_46_">
			<path class="st2" d="M-153.3,86.3l8.6,6.7l-8.6-4.3l0,0.5l10.5,5.2c0.1,0.1,0.2,0,0.3-0.1c0.1-0.1,0-0.2-0.1-0.3l-10.7-8.3
				L-153.3,86.3z"/>
		</g>
		<g id="triangle36_45_">
			<path class="st2" d="M157.1-155.4L105-170.6l-1.7,0l53.1,15.5l-94.3,48.5l22.8-64.1l-0.5,0l-22.9,64.5c0,0.1,0,0.2,0.1,0.3
				c0.1,0.1,0.2,0.1,0.3,0l95.3-49.1c0.1,0,0.1-0.1,0.1-0.2C157.2-155.3,157.2-155.4,157.1-155.4z"/>
		</g>
		<g id="triangle36_44_">
			<path class="st2" d="M84.4-170.7l-22.8,64.3l-61.8-30l76.1-34.3l-1.1,0l-75.7,34.1c-0.1,0-0.1,0.1-0.1,0.2c0,0.1,0.1,0.2,0.1,0.2
				l62.5,30.3c0.1,0,0.1,0,0.2,0c0.1,0,0.1-0.1,0.1-0.1l23-64.7L84.4-170.7z"/>
		</g>
		<g id="triangle36_43_">
			<path class="st2" d="M57.6-32.4c0.1,0,0.1,0,0.1,0l27.4,20.6c0.1,0.1,0.1,0.2,0.1,0.3c-0.1,0.1-0.2,0.1-0.3,0.1L41.5-27.1
				c-0.1,0-0.2-0.1-0.2-0.2c0-0.1,0.1-0.2,0.2-0.2L57.6-32.4C57.6-32.4,57.6-32.4,57.6-32.4z M83.6-12.3l-26-19.6l-15.3,4.6
				L83.6-12.3z"/>
		</g>
		<g id="triangle36_42_">
			<path class="st2" d="M41.6-27.6C41.6-27.6,41.6-27.6,41.6-27.6l43.5,15.8c0.1,0,0.2,0.1,0.2,0.2c0,0.1-0.1,0.2-0.2,0.2L27.9,7.2
				c-0.1,0-0.2,0-0.2-0.1c-0.1-0.1-0.1-0.2,0-0.2l13.8-34.4C41.4-27.5,41.5-27.6,41.6-27.6z M84.3-11.6L41.7-27.1L28.2,6.6
				L84.3-11.6z"/>
		</g>
		<g id="triangle36_41_">
			<path class="st2" d="M61.7-106.3C61.7-106.3,61.7-106.3,61.7-106.3c0.2,0,0.2,0.1,0.2,0.2l-4.1,73.9c0,0.1-0.1,0.2-0.2,0.2
				l-16.1,4.8c-0.1,0-0.2,0-0.2-0.1c-0.1-0.1-0.1-0.1-0.1-0.2l20.2-78.7C61.5-106.3,61.6-106.3,61.7-106.3z M57.4-32.3l3.9-71.4
				l-19.5,76L57.4-32.3z"/>
		</g>
		<g id="triangle36_40_">
			<path class="st2" d="M-71.4-33.1C-71.4-33.1-71.4-33.1-71.4-33.1l112.9,5.5c0.1,0,0.1,0,0.2,0.1c0,0.1,0,0.1,0,0.2L28,7.1
				c0,0.1-0.1,0.1-0.1,0.1c-0.1,0-0.1,0-0.2,0l-99.2-39.8c-0.1,0-0.2-0.2-0.1-0.3C-71.6-33-71.5-33.1-71.4-33.1z M41.2-27.1
				L-70-32.5L27.7,6.7L41.2-27.1z"/>
		</g>
		<g id="triangle36_39_">
			<path class="st2" d="M27.8,6.8C27.8,6.8,27.9,6.8,27.8,6.8C28,6.8,28,6.9,28,7l11.6,89.6c0,0.1,0,0.2-0.1,0.2c-0.1,0-0.2,0-0.3,0
				l-61.8-48.2c-0.1,0-0.1-0.1-0.1-0.2c0-0.1,0-0.1,0.1-0.2L27.7,6.8C27.7,6.8,27.8,6.8,27.8,6.8z M39.1,96.1L27.6,7.4L-22,48.4
				L39.1,96.1z"/>
		</g>
		<g id="triangle36_38_">
			<path class="st2" d="M-22.4,48.1c0.1,0,0.1,0,0.1,0l61.8,48.2c0.1,0.1,0.1,0.1,0.1,0.2c0,0.1-0.1,0.2-0.1,0.2L-14.3,121
				c-0.1,0-0.1,0-0.2,0c-0.1,0-0.1-0.1-0.1-0.2l-8-72.4c0-0.1,0-0.2,0.1-0.2C-22.5,48.1-22.4,48.1-22.4,48.1z M38.9,96.5l-61-47.6
				l7.9,71.5L38.9,96.5z"/>
		</g>
		<g id="triangle36_37_">
			<path class="st2" d="M-14.4,120.5C-14.4,120.5-14.4,120.5-14.4,120.5c0.1,0,0.2,0.1,0.2,0.2l25.7,106.7c0,0.1,0,0.1,0,0.2
				c0,0.1-0.1,0.1-0.2,0.1l-108.7,21.5c-0.1,0-0.2,0-0.2-0.1c-0.1-0.1-0.1-0.2,0-0.3l83.1-128.2C-14.6,120.6-14.5,120.5-14.4,120.5z
				 M11,227.2l-25.5-105.9L-97,248.6L11,227.2z"/>
		</g>
		<g id="triangle36_36_">
			<path class="st2" d="M-22.4,48.1c0,0,0.1,0,0.1,0c0.1,0,0.1,0.1,0.1,0.2l8,72.4c0,0.1,0,0.2-0.1,0.2c-0.1,0-0.2,0-0.3-0.1
				l-49.1-54c-0.1-0.1-0.1-0.1-0.1-0.2c0-0.1,0.1-0.1,0.1-0.2L-22.4,48.1C-22.5,48.1-22.4,48.1-22.4,48.1z M-14.7,120.1l-7.8-71.3
				l-40.5,18.1L-14.7,120.1z"/>
		</g>
		<g id="triangle36_35_">
			<path class="st2" d="M-63.5,66.5C-63.5,66.5-63.5,66.5-63.5,66.5c0.1,0,0.1,0,0.2,0.1l49.1,54c0.1,0.1,0.1,0.2,0,0.3
				c-0.1,0.1-0.2,0.1-0.3,0.1l-83.2-21.4c-0.1,0-0.1-0.1-0.2-0.2c0-0.1,0-0.2,0.1-0.2l34.1-32.6C-63.7,66.6-63.6,66.5-63.5,66.5z
				 M-15.1,120.3l-48.4-53.2l-33.6,32.2L-15.1,120.3z"/>
		</g>
		<g id="triangle36_34_">
			<path class="st2" d="M-97.6,99.2C-97.6,99.2-97.6,99.2-97.6,99.2l83.3,21.4c0.1,0,0.1,0.1,0.2,0.1c0,0.1,0,0.1,0,0.2l-83.1,128.2
				c-0.1,0.1-0.2,0.1-0.3,0.1c-0.1,0-0.2-0.1-0.2-0.2l-0.2-149.6c0-0.1,0-0.1,0.1-0.2C-97.8,99.2-97.7,99.2-97.6,99.2z M-14.8,120.9
				l-82.6-21.2l0.2,148.5L-14.8,120.9z"/>
		</g>
		<g id="triangle36_33_">
			<path class="st2" d="M61.7-106.3c0.1,0,0.1,0,0.2,0.1c0.1,0.1,0.1,0.1,0.1,0.2L41.8-27.3c0,0.1-0.1,0.1-0.1,0.2
				c-0.1,0-0.2,0-0.2,0l-85.5-59.1c-0.1-0.1-0.1-0.1-0.1-0.2c0-0.1,0.1-0.2,0.2-0.2L61.7-106.3C61.7-106.3,61.7-106.3,61.7-106.3z
				 M41.4-27.7l20-78.1L-43.3-86.3L41.4-27.7z"/>
		</g>
		<g id="triangle36_32_">
			<path class="st2" d="M-0.8-136.7c0,0,0.1,0,0.1,0l62.5,30.3c0.1,0,0.1,0.1,0.1,0.2c0,0.1-0.1,0.2-0.2,0.2L-43.9-86.2
				c-0.1,0-0.2,0-0.2-0.1c0-0.1,0-0.2,0-0.3l43.2-50C-0.9-136.6-0.8-136.7-0.8-136.7z M61-106.2l-61.7-29.9l-42.6,49.4L61-106.2z"/>
		</g>
		<g id="triangle36_31_">
			<path class="st2" d="M-43.9-86.7c0,0,0.1,0,0.1,0l85.5,59.1c0.1,0.1,0.1,0.2,0.1,0.3c0,0.1-0.1,0.2-0.2,0.2l-112.9-5.5
				c-0.1,0-0.2,0-0.2-0.1c0-0.1,0-0.2,0-0.2l27.4-53.6C-44.1-86.6-44.1-86.6-43.9-86.7C-44-86.6-43.9-86.7-43.9-86.7z M40.8-27.6
				l-84.6-58.4L-71-33L40.8-27.6z"/>
		</g>
		<g id="triangle36_30_">
			<path class="st2" d="M-30-147.1C-30-147.1-30-147.1-30-147.1l29.3,10.4c0.1,0,0.1,0.1,0.1,0.2s0,0.2,0,0.2l-43.2,50
				c-0.1,0.1-0.2,0.1-0.3,0.1c-0.1,0-0.1-0.2-0.1-0.3l13.9-60.4c0-0.1,0.1-0.1,0.1-0.2C-30.1-147-30.1-147.1-30-147.1z M-1.2-136.3
				l-28.7-10.2l-13.6,59.2L-1.2-136.3z"/>
		</g>
		<g id="triangle36_29_">
			<path class="st2" d="M-30-147.1c0.1,0,0.1,0,0.2,0.1c0,0.1,0.1,0.1,0.1,0.2l-13.9,60.4c0,0.1-0.1,0.1-0.2,0.2
				c-0.1,0-0.2,0-0.2-0.1l-56.2-54.3c-0.1-0.1-0.1-0.2-0.1-0.2c0-0.1,0.1-0.1,0.2-0.2L-30-147.1C-30.1-147.1-30-147.1-30-147.1z
				 M-44.1-86.9l13.7-59.7l-69.3,6.1L-44.1-86.9z"/>
		</g>
		<g id="triangle36_28_">
			<path class="st2" d="M-43.9-86.7c0.1,0,0.1,0,0.2,0.1c0.1,0.1,0.1,0.2,0,0.3l-27.4,53.6c0,0.1-0.1,0.1-0.2,0.1
				c-0.1,0-0.1,0-0.2,0l-30.7-23.6c-0.1,0-0.1-0.1-0.1-0.2c0-0.1,0.1-0.2,0.1-0.2L-44-86.6C-44-86.6-44-86.7-43.9-86.7z M-71.4-33.2
				l27-52.7l-57.2,29.4L-71.4-33.2z"/>
		</g>
		<g id="triangle36_27_">
			<path class="st2" d="M-100.1-140.9c0.1,0,0.1,0,0.2,0.1l56.2,54.3c0.1,0.1,0.1,0.1,0.1,0.2c0,0.1-0.1,0.1-0.2,0.2l-80.4,24
				c-0.1,0-0.2,0-0.2-0.1c-0.1-0.1-0.1-0.2-0.1-0.2l24.2-78.3C-100.3-140.8-100.3-140.9-100.1-140.9
				C-100.2-140.9-100.1-140.9-100.1-140.9z M-44.4-86.5l-55.6-53.7l-23.9,77.5L-44.4-86.5z"/>
		</g>
		<g id="triangle36_26_">
			<path class="st2" d="M-43.9-86.7c0.1,0,0.2,0.1,0.2,0.1c0,0.1,0,0.2-0.1,0.3L-102-56.3c-0.1,0-0.1,0-0.2,0l-22.2-5.9
				c-0.1,0-0.2-0.1-0.2-0.2c0-0.1,0.1-0.2,0.2-0.2L-43.9-86.7C-44-86.6-43.9-86.7-43.9-86.7z M-102.1-56.7l55.8-28.7l-77.1,23.1
				L-102.1-56.7z"/>
		</g>
		<g id="triangle36_25_">
			<path class="st2" d="M303.1-116.5c0.1,0,0.2,0.1,0.2,0.2c0,0.1,0,0.2-0.1,0.3l-66.5,39c-0.1,0-0.1,0-0.2,0
				c-0.1,0-0.1-0.1-0.1-0.1l-13.8-24.5c0-0.1,0-0.1,0-0.2c0-0.1,0.1-0.1,0.2-0.1L303.1-116.5C303.1-116.5,303.1-116.5,303.1-116.5z
				 M236.6-77.6l65.2-38.2l-78.7,14.2L236.6-77.6z"/>
		</g>
		<g id="triangle36_24_">
			<path class="st2" d="M222.8-102C222.8-102,222.8-102,222.8-102c0.1,0,0.2,0.1,0.2,0.1l13.8,24.5c0,0.1,0,0.1,0,0.2
				c0,0.1-0.1,0.1-0.2,0.1l-41.1,8.2c-0.1,0-0.2,0-0.2-0.1c-0.1-0.1,0-0.2,0-0.3l27.3-32.7C222.7-102,222.7-102,222.8-102z
				 M236.2-77.5l-13.4-23.9l-26.7,31.9L236.2-77.5z"/>
		</g>
		<g id="triangle36_23_">
			<path class="st2" d="M106.5,63C106.5,63,106.6,63,106.5,63c0.2,0,0.3,0.2,0.2,0.3L93.8,113c0,0.1-0.2,0.2-0.3,0.2
				c-0.1,0-0.2-0.2-0.2-0.3l12.9-49.7C106.3,63.1,106.4,63,106.5,63z"/>
		</g>
		<g id="triangle36_22_">
			<path class="st2" d="M106.5,63c0.1,0,0.1,0,0.1,0.1c0.1,0.1,0.1,0.2,0.1,0.2L93.8,113c0,0.1-0.1,0.1-0.1,0.1c-0.1,0-0.1,0-0.2,0
				L39.3,96.8c-0.1,0-0.2-0.1-0.2-0.2c0-0.1,0-0.2,0.1-0.2L106.4,63C106.5,63,106.5,63,106.5,63z M93.5,112.6l12.7-49L40,96.5
				L93.5,112.6z"/>
		</g>
		<g id="triangle36_21_">
			<path class="st2" d="M87.4-0.1c0.1,0,0.2,0.1,0.2,0.2l19.1,63.1c0,0.1,0,0.2-0.1,0.3c-0.1,0.1-0.2,0.1-0.3,0L27.7,7.2
				c-0.1-0.1-0.1-0.2-0.1-0.2c0-0.1,0.1-0.2,0.2-0.2L87.4-0.1C87.4-0.1,87.4-0.1,87.4-0.1z M106.1,62.6L87.2,0.3L28.4,7.2
				L106.1,62.6z"/>
		</g>
		<g id="triangle36_20_">
			<path class="st2" d="M27.8,6.8c0,0,0.1,0,0.1,0L106.7,63c0.1,0,0.1,0.1,0.1,0.2c0,0.1-0.1,0.2-0.1,0.2L39.5,96.8
				c-0.1,0-0.1,0-0.2,0c-0.1,0-0.1-0.1-0.1-0.2L27.6,7c0-0.1,0-0.2,0.1-0.2C27.7,6.8,27.8,6.8,27.8,6.8z M106.1,63.2l-78-55.7
				l11.5,88.8L106.1,63.2z"/>
		</g>
		<g id="triangle36_19_">
			<path class="st2" d="M128.4-44.4c0.1,0,0.1,0,0.2,0.1c0.1,0.1,0.1,0.2,0,0.3l-41,44.2c-0.1,0.1-0.1,0.1-0.2,0.1
				c-0.1,0-0.1-0.1-0.2-0.2l-2.4-11.6c0-0.1,0-0.2,0.1-0.2l43.4-32.6C128.3-44.4,128.3-44.4,128.4-44.4z M87.5-0.4l38.9-42
				L85.3-11.5L87.5-0.4z"/>
		</g>
		<g id="triangle36_18_">
			<path class="st2" d="M128.4-44.4c0.1,0,0.2,0.1,0.2,0.1c0,0.1,0,0.2-0.1,0.3L85.1-11.4c-0.1,0.1-0.2,0.1-0.3,0L57.5-32
				c-0.1-0.1-0.1-0.2-0.1-0.2c0-0.1,0.1-0.2,0.2-0.2L128.4-44.4C128.3-44.4,128.4-44.4,128.4-44.4z M85-11.9l42.5-31.9L58.2-32
				L85-11.9z"/>
		</g>
		<g id="triangle36_17_">
			<path class="st2" d="M61.7-106.3c0.1,0,0.1,0,0.2,0.1l66.7,62c0.1,0.1,0.1,0.2,0.1,0.2c0,0.1-0.1,0.1-0.2,0.2l-70.7,12
				c-0.1,0-0.1,0-0.2-0.1c-0.1,0-0.1-0.1-0.1-0.2l4.1-73.9C61.5-106.2,61.5-106.3,61.7-106.3C61.7-106.3,61.7-106.3,61.7-106.3z
				 M127.9-44.3l-65.9-61.3l-4,73.2L127.9-44.3z"/>
		</g>
		<g id="triangle36_16_">
			<path class="st2" d="M-152.9,18.8l81.2-51.1l-26.2,99L-153,43.5l0,0.5l55.2,23.3c0.1,0,0.1,0,0.2,0c0.1,0,0.1-0.1,0.1-0.2
				l26.4-99.9c0-0.1,0-0.2-0.1-0.2c0,0-0.1,0-0.1,0c0,0-0.1,0-0.1,0l-81.4,51.3L-152.9,18.8z"/>
		</g>
		<g id="triangle36_15_">
			<path class="st2" d="M-152.7-23.9l80.4-8.6l-80.6,50.7l0,0.6l81.7-51.4c0.1-0.1,0.1-0.2,0.1-0.3c0-0.1-0.1-0.2-0.2-0.2
				c0,0,0,0,0,0l-81.3,8.7L-152.7-23.9z"/>
		</g>
		<g id="triangle36_14_">
			<path class="st2" d="M-153,44l53.9,22.8l-54-3.2l0,0.5l55.3,3.3c0.1,0,0.2-0.1,0.2-0.2c0-0.1,0-0.2-0.1-0.3L-153,43.5L-153,44z"
				/>
		</g>
		<g id="triangle36_13_">
			<path class="st2" d="M222.8-102c0.1,0,0.1,0,0.2,0.1c0.1,0.1,0.1,0.2,0,0.3L195.6-69c0,0.1-0.1,0.1-0.2,0.1l-54,0.2c0,0,0,0,0,0
				c-0.1,0-0.2-0.1-0.2-0.2c0-0.1,0-0.2,0.1-0.3L222.8-102C222.7-102,222.8-102,222.8-102z M195.4-69.4l26.7-31.9l-79.3,32
				L195.4-69.4z"/>
		</g>
		<g id="triangle36_12_">
			<path class="st2" d="M157-155.4c0.1,0,0.1,0,0.1,0.1l65.8,53.4c0.1,0.1,0.1,0.1,0.1,0.2c0,0.1-0.1,0.2-0.1,0.2l-81.3,32.8
				c-0.1,0-0.2,0-0.2,0c-0.1-0.1-0.1-0.1-0.1-0.2l15.6-86.2C156.8-155.3,156.9-155.4,157-155.4C157-155.4,157-155.4,157-155.4z
				 M222.3-101.9l-65.2-52.9l-15.4,85.4L222.3-101.9z"/>
		</g>
		<g id="triangle36_11_">
			<path class="st2" d="M195.5-69.4c0.1,0,0.2,0.1,0.2,0.2c0,0.1,0,0.2-0.1,0.3l-67.1,25c-0.1,0-0.2,0-0.3-0.1
				c-0.1-0.1-0.1-0.2,0-0.3l13.1-24.8c0-0.1,0.1-0.1,0.2-0.1L195.5-69.4C195.5-69.4,195.5-69.4,195.5-69.4z M128.9-44.6l65.3-24.3
				l-52.6,0.2L128.9-44.6z"/>
		</g>
		<g id="triangle36_10_">
			<path class="st2" d="M157-155.4c0,0,0.1,0,0.1,0c0.1,0.1,0.1,0.1,0.1,0.2l-15.6,86.2c0,0.1-0.1,0.1-0.1,0.2c-0.1,0-0.1,0-0.2,0
				l-79.7-37.2c-0.1,0-0.1-0.1-0.1-0.2c0-0.1,0-0.2,0.1-0.2l95.3-49.1C156.9-155.4,157-155.4,157-155.4z M141.3-69.3l15.4-85.4
				l-94.5,48.6L141.3-69.3z"/>
		</g>
		<g id="triangle36_9_">
			<path class="st2" d="M61.7-106.3C61.7-106.3,61.8-106.3,61.7-106.3l79.8,37.2c0.1,0,0.1,0.1,0.1,0.1c0,0.1,0,0.1,0,0.2L128.6-44
				c0,0.1-0.1,0.1-0.2,0.1c-0.1,0-0.1,0-0.2-0.1l-66.7-62c-0.1-0.1-0.1-0.2,0-0.3C61.6-106.3,61.6-106.3,61.7-106.3z M141.1-68.8
				L63-105.3l65.3,60.8L141.1-68.8z"/>
		</g>
		<g id="triangle36_8_">
			<path class="st2" d="M-152.4-72.6l27.6,10.3l-27.7,15.9l0,0.5l28.4-16.3c0.1,0,0.1-0.1,0.1-0.2c0-0.1-0.1-0.2-0.2-0.2l-28.2-10.5
				L-152.4-72.6z"/>
		</g>
		<g id="triangle36_7_">
			<path class="st2" d="M93.6,112.7c0.1,0,0.1,0,0.2,0.1c0.1,0.1,0,0.3-0.1,0.3l-54.2,36.2c-0.1,0.1-0.3,0-0.3-0.1s0-0.3,0.1-0.3
				l54.2-36.2C93.5,112.7,93.6,112.7,93.6,112.7z"/>
		</g>
		<g id="triangle36_6_">
			<path class="st2" d="M39.4,96.4C39.4,96.4,39.4,96.4,39.4,96.4l54.3,16.3c0.1,0,0.2,0.1,0.2,0.2c0,0.1,0,0.2-0.1,0.2l-54.2,36.2
				c-0.1,0-0.2,0.1-0.2,0c-0.1,0-0.1-0.1-0.1-0.2l0-52.6c0-0.1,0-0.1,0.1-0.2C39.3,96.4,39.3,96.4,39.4,96.4z M93.1,113L39.6,96.9
				l0,51.8L93.1,113z"/>
		</g>
		<g id="triangle36_5_">
			<path class="st2" d="M39.4,96.4c0,0,0.1,0,0.1,0c0.1,0,0.1,0.1,0.1,0.2l0,52.6c0,0.1,0,0.2-0.1,0.2c-0.1,0-0.2,0-0.2,0L-14.5,121
				c-0.1,0-0.1-0.1-0.1-0.2c0-0.1,0.1-0.2,0.1-0.2L39.4,96.4C39.3,96.4,39.4,96.4,39.4,96.4z M39.2,148.8l0-51.8l-53.1,23.8
				L39.2,148.8z"/>
		</g>
		<g id="triangle36_4_">
			<path class="st2" d="M-14.4,120.5c0,0,0.1,0,0.1,0L39.5,149c0.1,0.1,0.2,0.2,0.1,0.3l-28.2,78.2c0,0.1-0.1,0.2-0.2,0.2
				c-0.1,0-0.2-0.1-0.2-0.2l-25.7-106.7c0-0.1,0-0.2,0.1-0.2C-14.5,120.5-14.5,120.5-14.4,120.5z M39.1,149.3l-53.2-28.1l25.4,105.4
				L39.1,149.3z"/>
		</g>
		<g id="triangle36_3_">
			<path class="st2" d="M-152.3-105.2l51.7-34.9l-23.8,77.2l-27.9-35.9l0,0.8l27.8,35.8c0.1,0.1,0.1,0.1,0.2,0.1
				c0.1,0,0.2-0.1,0.2-0.2l24.2-78.3c0-0.1,0-0.2-0.1-0.3c0,0-0.1,0-0.1,0c0,0-0.1,0-0.1,0l-52,35.1L-152.3-105.2z"/>
		</g>
		<g id="triangle36_2_">
			<path class="st2" d="M-152-153.3l51.3,12.8l-51.6,34.8l0,0.6l52.3-35.3c0.1-0.1,0.1-0.1,0.1-0.2c0-0.1-0.1-0.2-0.2-0.2l-52-12.9
				L-152-153.3z"/>
		</g>
		<g id="triangle36_1_">
			<path class="st2" d="M-152.3-98.1l27.3,35.2l-27.5-10.2l0,0.5l28.1,10.5c0.1,0,0.2,0,0.3-0.1c0.1-0.1,0.1-0.2,0-0.3l-28.2-36.3
				L-152.3-98.1z"/>
		</g>
	</g>
	<g>
		<g>
			<path class="st2" d="M-113,265.3c1.4,0,2.5-1.1,2.5-2.4c0-1.4-1.1-2.5-2.4-2.5c-1.4,0-2.5,1.1-2.5,2.4
				C-115.4,264.2-114.4,265.3-113,265.3z"/>
			<path class="st2" d="M-113,265.3c-1.4,0-2.4-1.1-2.4-2.5c0-1.4,1.1-2.4,2.5-2.4c1.4,0,2.4,1.1,2.4,2.5
				C-110.5,264.2-111.6,265.3-113,265.3 M-113,266.2c1.9,0,3.4-1.5,3.4-3.4s-1.5-3.4-3.4-3.4c-1.9,0-3.4,1.5-3.4,3.4
				C-116.4,264.7-114.9,266.2-113,266.2L-113,266.2z"/>
		</g>
		<g>
			<path class="st2" d="M271.1-134.2c0.8,0,1.5-0.7,1.5-1.5c0-0.8-0.7-1.5-1.5-1.5c-0.8,0-1.5,0.7-1.5,1.5
				C269.6-134.9,270.3-134.2,271.1-134.2z"/>
			<path class="st2" d="M271.1-134.2c-0.8,0-1.5-0.7-1.5-1.5c0-0.8,0.7-1.5,1.5-1.5c0.8,0,1.5,0.7,1.5,1.5
				C272.6-134.9,271.9-134.2,271.1-134.2 M271.1-133.3c1.3,0,2.5-1.1,2.5-2.4c0-1.4-1.1-2.5-2.4-2.5c-1.4,0-2.5,1.1-2.5,2.4
				S269.7-133.3,271.1-133.3L271.1-133.3z"/>
		</g>
		<g>
			<path class="st2" d="M242.8-151.7c1.2,0,2.1-0.9,2.1-2.1c0-1.2-0.9-2.1-2.1-2.1s-2.1,0.9-2.1,2.1
				C240.7-152.7,241.6-151.7,242.8-151.7z"/>
			<path class="st2" d="M242.8-151.7c-1.2,0-2.1-0.9-2.1-2.1c0-1.2,0.9-2.1,2.1-2.1s2.1,0.9,2.1,2.1
				C244.9-152.6,243.9-151.7,242.8-151.7 M242.8-150.8c1.7,0,3-1.3,3-3c0-1.7-1.3-3-3-3c-1.7,0-3,1.3-3,3
				C239.8-152.1,241.1-150.8,242.8-150.8L242.8-150.8z"/>
		</g>
		<g>
			<path class="st2" d="M-142.7,96.1c1,0,1.8-0.8,1.8-1.8c0-1-0.8-1.8-1.8-1.8c-1,0-1.8,0.8-1.8,1.8
				C-144.5,95.3-143.7,96.1-142.7,96.1z"/>
			<path class="st2" d="M-142.7,96.1c-1,0-1.8-0.8-1.8-1.8c0-1,0.8-1.8,1.8-1.8c1,0,1.8,0.8,1.8,1.8
				C-140.9,95.3-141.7,96.1-142.7,96.1 M-142.7,97c1.5,0,2.8-1.2,2.8-2.7c0-1.5-1.2-2.8-2.7-2.8c-1.5,0-2.8,1.2-2.8,2.7
				C-145.4,95.8-144.2,97-142.7,97L-142.7,97z"/>
		</g>
		<g>
			<circle class="st2" cx="-22.4" cy="48.4" r="3.1"/>
			<path class="st2" d="M-22.4,51.5c-1.7,0-3.1-1.4-3.1-3.1c0-1.7,1.4-3.1,3.1-3.1c1.7,0,3.1,1.4,3.1,3.1
				C-19.3,50.1-20.7,51.5-22.4,51.5 M-22.4,52.4c2.2,0,4.1-1.8,4.1-4c0-2.2-1.8-4.1-4-4.1c-2.2,0-4.1,1.8-4.1,4
				C-26.5,50.6-24.6,52.4-22.4,52.4L-22.4,52.4z"/>
		</g>
		<g>
			<path class="st2" d="M-64.9,66.8c0,0.7,0.6,1.3,1.3,1.3c0.7,0,1.3-0.6,1.3-1.3c0-0.7-0.6-1.3-1.3-1.3
				C-64.3,65.4-64.9,66-64.9,66.8z"/>
			<path class="st2" d="M-63.5,68.1c-0.7,0-1.3-0.6-1.3-1.3c0-0.7,0.6-1.3,1.3-1.3c0.7,0,1.3,0.6,1.3,1.3
				C-62.2,67.5-62.8,68.1-63.5,68.1 M-63.5,69c1.3,0,2.3-1,2.3-2.3c0-1.3-1-2.3-2.3-2.3c-1.3,0-2.3,1-2.3,2.3
				C-65.8,68-64.8,69-63.5,69L-63.5,69z"/>
		</g>
		<g>
			<path class="st2" d="M-97.6,96.3c-1.7,0-3.1,1.4-3.1,3c0,1.7,1.4,3.1,3,3.1c1.7,0,3.1-1.4,3.1-3C-94.6,97.7-95.9,96.3-97.6,96.3z
				"/>
			<path class="st2" d="M-97.7,102.5c-1.7,0-3.1-1.4-3-3.1c0-1.7,1.4-3.1,3.1-3c1.7,0,3.1,1.4,3,3.1
				C-94.6,101.1-96,102.5-97.7,102.5 M-97.7,103.4c2.2,0,4-1.8,4-4c0-2.2-1.8-4-4-4c-2.2,0-4,1.8-4,4
				C-101.7,101.6-99.9,103.4-97.7,103.4L-97.7,103.4z"/>
		</g>
		<g>
			<path class="st2" d="M-99.4,248.9c0,1.1,0.8,1.9,1.9,1.9c1.1,0,1.9-0.8,1.9-1.9s-0.8-1.9-1.9-1.9
				C-98.5,247-99.4,247.9-99.4,248.9z"/>
			<path class="st2" d="M-97.5,250.9c-1.1,0-1.9-0.9-1.9-1.9s0.9-1.9,1.9-1.9c1.1,0,1.9,0.9,1.9,1.9
				C-95.6,250-96.4,250.9-97.5,250.9 M-97.5,251.8c1.6,0,2.9-1.3,2.9-2.8c0-1.6-1.3-2.9-2.8-2.9c-1.6,0-2.9,1.3-2.9,2.8
				C-100.3,250.5-99.1,251.8-97.5,251.8L-97.5,251.8z"/>
		</g>
		<g>
			<path class="st2" d="M41.5-24.6c1.5,0,2.8-1.2,2.8-2.8c0-1.5-1.2-2.8-2.8-2.8c-1.5,0-2.8,1.2-2.8,2.8
				C38.8-25.8,40-24.6,41.5-24.6z"/>
			<path class="st2" d="M41.5-24.6c-1.5,0-2.8-1.3-2.8-2.8c0-1.5,1.3-2.8,2.8-2.8c1.5,0,2.8,1.3,2.8,2.8
				C44.3-25.8,43.1-24.6,41.5-24.6 M41.5-23.7c2,0,3.7-1.6,3.7-3.7c0-2-1.6-3.7-3.7-3.7c-2,0-3.7,1.6-3.7,3.7
				C37.8-25.3,39.5-23.7,41.5-23.7L41.5-23.7z"/>
		</g>
		<g>
			<path class="st2" d="M-0.8-134.1c1.3,0,2.4-1.1,2.4-2.4s-1.1-2.4-2.4-2.4s-2.4,1.1-2.4,2.4C-3.2-135.1-2.1-134.1-0.8-134.1z"/>
			<path class="st2" d="M-0.8-134.1c-1.3,0-2.4-1.1-2.4-2.4c0-1.3,1.1-2.4,2.4-2.4c1.3,0,2.4,1.1,2.4,2.4S0.5-134.1-0.8-134.1
				 M-0.8-133.1c1.8,0,3.3-1.5,3.3-3.3c0-1.8-1.5-3.3-3.3-3.3c-1.8,0-3.3,1.5-3.3,3.3C-4.1-134.6-2.6-133.1-0.8-133.1L-0.8-133.1z"
				/>
		</g>
		<g>
			<path class="st2" d="M-30.1-143.7c1.7,0,3.1-1.4,3.1-3.1c0-1.7-1.4-3.1-3.1-3.1c-1.7,0-3.1,1.4-3.1,3.1
				C-33.1-145.1-31.8-143.7-30.1-143.7z"/>
			<path class="st2" d="M-30.1-143.7c-1.7,0-3.1-1.4-3.1-3.1c0-1.7,1.4-3.1,3.1-3.1c1.7,0,3.1,1.4,3.1,3.1
				C-27-145.1-28.4-143.7-30.1-143.7 M-30.1-142.8c2.2,0,4-1.8,4-4c0-2.2-1.8-4-4-4c-2.2,0-4,1.8-4,4
				C-34.1-144.6-32.3-142.8-30.1-142.8L-30.1-142.8z"/>
		</g>
		<g>
			<path class="st2" d="M-43.9-84.7c1,0,1.7-0.8,1.7-1.7c0-1-0.8-1.7-1.7-1.7c-1,0-1.7,0.8-1.7,1.7C-45.7-85.5-44.9-84.7-43.9-84.7z
				"/>
			<path class="st2" d="M-43.9-84.7c-1,0-1.7-0.8-1.7-1.7c0-1,0.8-1.7,1.7-1.7c1,0,1.7,0.8,1.7,1.7C-42.2-85.5-43-84.7-43.9-84.7
				 M-43.9-83.8c1.5,0,2.7-1.2,2.7-2.7c0-1.5-1.2-2.7-2.7-2.7c-1.5,0-2.7,1.2-2.7,2.7C-46.6-85-45.4-83.8-43.9-83.8L-43.9-83.8z"/>
		</g>
		<g>
			<path class="st2" d="M-102.1-53.1c1.8,0,3.3-1.5,3.4-3.3c0-1.8-1.5-3.3-3.3-3.4c-1.8,0-3.3,1.5-3.4,3.3
				C-105.4-54.6-104-53.1-102.1-53.1z"/>
			<path class="st2" d="M-102.1-53.1c-1.8,0-3.3-1.5-3.3-3.4c0-1.8,1.5-3.3,3.4-3.3c1.8,0,3.3,1.5,3.3,3.4
				C-98.8-54.6-100.3-53.1-102.1-53.1 M-102.1-52.2c2.4,0,4.3-1.9,4.3-4.3c0-2.4-1.9-4.3-4.3-4.3c-2.4,0-4.3,1.9-4.3,4.3
				C-106.4-54.1-104.5-52.2-102.1-52.2L-102.1-52.2z"/>
		</g>
		<g>
			<path class="st2" d="M303.1-114.9c0.8,0,1.4-0.6,1.4-1.4c0-0.8-0.6-1.4-1.4-1.4c-0.8,0-1.4,0.6-1.4,1.4
				C301.7-115.5,302.3-114.9,303.1-114.9z"/>
			<path class="st2" d="M303.1-114.9c-0.8,0-1.4-0.6-1.4-1.4c0-0.8,0.6-1.4,1.4-1.4s1.4,0.6,1.4,1.4
				C304.5-115.5,303.9-114.9,303.1-114.9 M303.1-114c1.3,0,2.3-1,2.3-2.3c0-1.3-1-2.3-2.3-2.3c-1.3,0-2.3,1-2.3,2.3
				C300.8-115,301.8-114,303.1-114L303.1-114z"/>
		</g>
		<g>
			<path class="st2" d="M236.5-75.1c1.2,0,2.2-1,2.2-2.2c0-1.2-1-2.2-2.2-2.2c-1.2,0-2.2,1-2.2,2.2
				C234.3-76.1,235.3-75.1,236.5-75.1z"/>
			<path class="st2" d="M236.5-75.1c-1.2,0-2.2-1-2.2-2.2c0-1.2,1-2.2,2.2-2.2c1.2,0,2.2,1,2.2,2.2
				C238.8-76.1,237.8-75.1,236.5-75.1 M236.5-74.1c1.7,0,3.2-1.4,3.2-3.1s-1.4-3.2-3.1-3.2c-1.7,0-3.2,1.4-3.2,3.1
				C233.4-75.6,234.8-74.2,236.5-74.1L236.5-74.1z"/>
		</g>
		<g>
			<path class="st2" d="M106.5,64.6c0.7,0,1.3-0.6,1.3-1.3c0-0.7-0.6-1.3-1.3-1.3c-0.7,0-1.3,0.6-1.3,1.3
				C105.2,64,105.8,64.6,106.5,64.6z"/>
			<path class="st2" d="M106.5,64.6c-0.7,0-1.3-0.6-1.3-1.3c0-0.7,0.6-1.3,1.3-1.3c0.7,0,1.3,0.6,1.3,1.3
				C107.9,64,107.3,64.6,106.5,64.6 M106.5,65.5c1.3,0,2.3-1,2.3-2.3c0-1.3-1-2.3-2.3-2.3c-1.3,0-2.3,1-2.3,2.3
				C104.2,64.5,105.3,65.5,106.5,65.5L106.5,65.5z"/>
		</g>
		<g>
			<path class="st2" d="M27.8,10c1.7,0,3.1-1.4,3.1-3c0-1.7-1.4-3.1-3-3.1c-1.7,0-3.1,1.4-3.1,3C24.7,8.7,26.1,10,27.8,10z"/>
			<path class="st2" d="M27.8,10c-1.7,0-3.1-1.4-3-3.1c0-1.7,1.4-3.1,3.1-3c1.7,0,3.1,1.4,3,3.1C30.9,8.7,29.5,10.1,27.8,10
				 M27.8,11c2.2,0,4-1.8,4-4c0-2.2-1.8-4-4-4c-2.2,0-4,1.8-4,4C23.8,9.2,25.6,11,27.8,11L27.8,11z"/>
		</g>
		<g>
			<path class="st2" d="M87.4-1.4c-0.8,0-1.5,0.7-1.5,1.5c0,0.8,0.7,1.5,1.5,1.5c0.8,0,1.5-0.7,1.5-1.5C88.9-0.7,88.3-1.4,87.4-1.4z
				"/>
			<path class="st2" d="M87.4,1.6c-0.8,0-1.5-0.7-1.5-1.5c0-0.8,0.7-1.5,1.5-1.5s1.5,0.7,1.5,1.5C88.9,0.9,88.2,1.6,87.4,1.6
				 M87.4,2.5c1.4,0,2.5-1.1,2.5-2.5c0-1.4-1.1-2.5-2.5-2.5c-1.4,0-2.5,1.1-2.5,2.5C84.9,1.4,86,2.5,87.4,2.5L87.4,2.5z"/>
		</g>
		<g>
			<path class="st2" d="M85-9.8c1,0,1.7-0.8,1.7-1.7c0-1-0.8-1.7-1.7-1.7c-1,0-1.7,0.8-1.7,1.7C83.3-10.6,84-9.8,85-9.8z"/>
			<path class="st2" d="M85-9.8c-1,0-1.7-0.8-1.7-1.7c0-1,0.8-1.7,1.7-1.7c1,0,1.7,0.8,1.7,1.7C86.7-10.6,85.9-9.8,85-9.8 M85-8.9
				c1.5,0,2.7-1.2,2.7-2.6s-1.2-2.7-2.6-2.7c-1.5,0-2.7,1.2-2.7,2.6S83.5-8.9,85-8.9L85-8.9z"/>
		</g>
		<g>
			<path class="st2" d="M57.6-30.8c0.7,0,1.4-0.6,1.4-1.3c0-0.7-0.6-1.4-1.3-1.4c-0.7,0-1.4,0.6-1.4,1.3
				C56.3-31.4,56.9-30.8,57.6-30.8z"/>
			<path class="st2" d="M57.6-30.8c-0.7,0-1.3-0.6-1.3-1.4c0-0.7,0.6-1.3,1.4-1.3s1.3,0.6,1.3,1.4C59-31.4,58.4-30.8,57.6-30.8
				 M57.6-29.9c1.3,0,2.3-1,2.3-2.3c0-1.3-1-2.3-2.3-2.3c-1.3,0-2.3,1-2.3,2.3C55.3-30.9,56.4-29.9,57.6-29.9L57.6-29.9z"/>
		</g>
		<g>
			<path class="st2" d="M-71.4-30.5c1.3,0,2.4-1,2.4-2.3c0-1.3-1-2.4-2.3-2.4c-1.3,0-2.4,1-2.4,2.3C-73.7-31.5-72.7-30.5-71.4-30.5z
				"/>
			<path class="st2" d="M-71.4-30.5c-1.3,0-2.3-1.1-2.3-2.4c0-1.3,1.1-2.3,2.4-2.3c1.3,0,2.3,1.1,2.3,2.4
				C-69-31.5-70.1-30.5-71.4-30.5 M-71.4-29.5c1.8,0,3.3-1.5,3.3-3.3c0-1.8-1.5-3.3-3.3-3.3c-1.8,0-3.3,1.5-3.3,3.3
				C-74.7-31-73.2-29.5-71.4-29.5L-71.4-29.5z"/>
		</g>
		<g>
			<path class="st2" d="M-97.8,69.8c1.5,0,2.7-1.2,2.7-2.7s-1.2-2.7-2.7-2.7c-1.5,0-2.7,1.2-2.7,2.7
				C-100.5,68.5-99.3,69.7-97.8,69.8z"/>
			<path class="st2" d="M-97.8,69.8c-1.5,0-2.7-1.2-2.7-2.7s1.2-2.7,2.7-2.7c1.5,0,2.7,1.2,2.7,2.7S-96.3,69.8-97.8,69.8
				 M-97.8,70.7c2,0,3.6-1.6,3.7-3.6c0-2-1.6-3.6-3.6-3.7c-2,0-3.6,1.6-3.7,3.6C-101.4,69-99.8,70.7-97.8,70.7L-97.8,70.7z"/>
		</g>
		<g>
			<path class="st2" d="M222.8-98.9c1.6,0,2.9-1.3,2.9-2.9c0-1.6-1.3-2.9-2.9-2.9c-1.6,0-2.9,1.3-2.9,2.9
				C219.9-100.2,221.2-98.9,222.8-98.9z"/>
			<path class="st2" d="M222.8-98.9c-1.6,0-2.9-1.3-2.9-2.9c0-1.6,1.3-2.9,2.9-2.9c1.6,0,2.9,1.3,2.9,2.9
				C225.7-100.2,224.4-98.9,222.8-98.9 M222.8-97.9c2.1,0,3.9-1.7,3.9-3.8c0-2.1-1.7-3.9-3.8-3.9c-2.1,0-3.9,1.7-3.9,3.8
				C218.9-99.7,220.6-97.9,222.8-97.9L222.8-97.9z"/>
		</g>
		<g>
			<path class="st2" d="M193.8-69.2c0,0.9,0.7,1.7,1.7,1.7c0.9,0,1.7-0.7,1.7-1.7c0-0.9-0.7-1.7-1.7-1.7
				C194.5-70.8,193.8-70.1,193.8-69.2z"/>
			<path class="st2" d="M195.5-67.5c-0.9,0-1.7-0.8-1.7-1.7c0-0.9,0.8-1.7,1.7-1.7c0.9,0,1.7,0.8,1.7,1.7
				C197.1-68.2,196.4-67.5,195.5-67.5 M195.4-66.5c1.4,0,2.6-1.2,2.6-2.6c0-1.4-1.2-2.6-2.6-2.6c-1.4,0-2.6,1.2-2.6,2.6
				C192.8-67.7,194-66.5,195.4-66.5L195.4-66.5z"/>
		</g>
		<g>
			<path class="st2" d="M157-152.5c1.5,0,2.7-1.2,2.7-2.6c0-1.5-1.2-2.7-2.6-2.7c-1.5,0-2.7,1.2-2.7,2.6
				C154.4-153.7,155.5-152.5,157-152.5z"/>
			<path class="st2" d="M157-152.5c-1.5,0-2.6-1.2-2.6-2.7c0-1.5,1.2-2.6,2.7-2.6c1.5,0,2.6,1.2,2.6,2.7
				C159.7-153.7,158.5-152.5,157-152.5 M157-151.6c2,0,3.6-1.6,3.6-3.6c0-2-1.6-3.6-3.6-3.6c-2,0-3.6,1.6-3.6,3.6
				C153.4-153.2,155-151.6,157-151.6L157-151.6z"/>
		</g>
		<g>
			<path class="st2" d="M141.4-66.2c1.5,0,2.8-1.2,2.8-2.8c0-1.5-1.2-2.8-2.8-2.8c-1.5,0-2.8,1.2-2.8,2.8
				C138.7-67.4,139.9-66.2,141.4-66.2z"/>
			<path class="st2" d="M141.4-66.2c-1.5,0-2.8-1.3-2.8-2.8c0-1.5,1.3-2.8,2.8-2.8c1.5,0,2.8,1.3,2.8,2.8
				C144.2-67.4,143-66.2,141.4-66.2 M141.4-65.2c2,0,3.7-1.6,3.7-3.7c0-2-1.6-3.7-3.7-3.7s-3.7,1.6-3.7,3.7
				C137.7-66.9,139.4-65.3,141.4-65.2L141.4-65.2z"/>
		</g>
		<g>
			<path class="st2" d="M61.7-103.7c1.3,0,2.4-1.1,2.4-2.4c0-1.3-1.1-2.4-2.4-2.4c-1.3,0-2.4,1.1-2.4,2.4
				C59.3-104.8,60.4-103.7,61.7-103.7z"/>
			<path class="st2" d="M61.7-103.7c-1.3,0-2.4-1.1-2.4-2.4c0-1.3,1.1-2.4,2.4-2.4c1.3,0,2.4,1.1,2.4,2.4
				C64.1-104.8,63-103.7,61.7-103.7 M61.7-102.8c1.8,0,3.4-1.5,3.4-3.3c0-1.8-1.5-3.4-3.3-3.4c-1.8,0-3.4,1.5-3.4,3.3
				C58.4-104.3,59.9-102.8,61.7-102.8L61.7-102.8z"/>
		</g>
		<g>
			<path class="st2" d="M128.4-42.4c1,0,1.8-0.8,1.8-1.8c0-1-0.8-1.8-1.8-1.8s-1.8,0.8-1.8,1.8C126.6-43.2,127.4-42.4,128.4-42.4z"
				/>
			<path class="st2" d="M128.4-42.4c-1,0-1.8-0.8-1.8-1.8c0-1,0.8-1.8,1.8-1.8s1.8,0.8,1.8,1.8C130.1-43.1,129.3-42.4,128.4-42.4
				 M128.4-41.4c1.5,0,2.7-1.2,2.7-2.7c0-1.5-1.2-2.7-2.7-2.7c-1.5,0-2.7,1.2-2.7,2.7C125.6-42.7,126.9-41.4,128.4-41.4L128.4-41.4z
				"/>
		</g>
		<g>
			<path class="st2" d="M93.6,115c1.2,0,2.1-0.9,2.1-2.1c0-1.2-0.9-2.1-2.1-2.1c-1.2,0-2.1,0.9-2.1,2.1
				C91.5,114.1,92.4,115,93.6,115z"/>
			<path class="st2" d="M93.6,115c-1.2,0-2.1-1-2.1-2.1c0-1.2,1-2.1,2.1-2.1c1.2,0,2.1,1,2.1,2.1C95.7,114.1,94.8,115.1,93.6,115
				 M93.6,116c1.7,0,3.1-1.4,3.1-3c0-1.7-1.4-3.1-3-3.1c-1.7,0-3.1,1.4-3.1,3C90.6,114.6,91.9,116,93.6,116L93.6,116z"/>
		</g>
		<g>
			<path class="st2" d="M39.4,98.2c0.9,0,1.6-0.7,1.6-1.6c0-0.9-0.7-1.6-1.6-1.6c-0.9,0-1.6,0.7-1.6,1.6
				C37.8,97.5,38.5,98.2,39.4,98.2z"/>
			<path class="st2" d="M39.4,98.2c-0.9,0-1.6-0.7-1.6-1.6c0-0.9,0.7-1.6,1.6-1.6c0.9,0,1.6,0.7,1.6,1.6
				C41,97.5,40.2,98.2,39.4,98.2 M39.4,99.1c1.4,0,2.5-1.1,2.5-2.5c0-1.4-1.1-2.5-2.5-2.5c-1.4,0-2.5,1.1-2.5,2.5
				C36.9,98,38,99.1,39.4,99.1L39.4,99.1z"/>
		</g>
		<g>
			<path class="st2" d="M33.7,237c1.4,0,2.5-1.1,2.5-2.5c0-1.4-1.1-2.5-2.5-2.5c-1.4,0-2.5,1.1-2.5,2.5
				C31.2,235.9,32.4,237,33.7,237z"/>
			<path class="st2" d="M33.7,237c-1.4,0-2.5-1.1-2.5-2.5c0-1.4,1.1-2.5,2.5-2.5c1.4,0,2.5,1.1,2.5,2.5
				C36.2,235.9,35.1,237,33.7,237 M33.7,237.9c1.9,0,3.4-1.5,3.5-3.4c0-1.9-1.5-3.4-3.4-3.5c-1.9,0-3.4,1.5-3.5,3.4
				C30.3,236.4,31.8,237.9,33.7,237.9L33.7,237.9z"/>
		</g>
		<g>
			<path class="st2" d="M39.4,145.8c-1.9,0-3.4,1.5-3.4,3.4c0,1.9,1.5,3.4,3.4,3.4c1.9,0,3.4-1.5,3.4-3.4
				C42.8,147.3,41.3,145.8,39.4,145.8z"/>
			<path class="st2" d="M39.4,152.6c-1.9,0-3.4-1.5-3.4-3.4c0-1.9,1.5-3.4,3.4-3.4c1.9,0,3.4,1.5,3.4,3.4
				C42.8,151.1,41.3,152.6,39.4,152.6 M39.4,153.5c2.4,0,4.3-1.9,4.3-4.3c0-2.4-1.9-4.3-4.3-4.3c-2.4,0-4.3,1.9-4.3,4.3
				C35.1,151.5,37,153.5,39.4,153.5L39.4,153.5z"/>
		</g>
		<g>
			<path class="st2" d="M-14.4,122.5c1,0,1.7-0.8,1.7-1.7c0-1-0.8-1.7-1.7-1.7c-1,0-1.7,0.8-1.7,1.7
				C-16.2,121.7-15.4,122.5-14.4,122.5z"/>
			<path class="st2" d="M-14.4,122.5c-1,0-1.7-0.8-1.7-1.7c0-1,0.8-1.7,1.7-1.7c1,0,1.7,0.8,1.7,1.7
				C-12.7,121.7-13.5,122.5-14.4,122.5 M-14.4,123.4c1.5,0,2.7-1.2,2.7-2.7s-1.2-2.7-2.7-2.7s-2.7,1.2-2.7,2.7
				C-17.1,122.2-15.9,123.4-14.4,123.4L-14.4,123.4z"/>
		</g>
		<g>
			<path class="st2" d="M11.2,229.3c1.1,0,1.9-0.9,1.9-1.9c0-1.1-0.9-1.9-1.9-1.9c-1.1,0-1.9,0.9-1.9,1.9
				C9.3,228.5,10.2,229.3,11.2,229.3z"/>
			<path class="st2" d="M11.2,229.3c-1.1,0-1.9-0.9-1.9-1.9c0-1.1,0.9-1.9,1.9-1.9c1.1,0,1.9,0.9,1.9,1.9
				C13.2,228.5,12.3,229.3,11.2,229.3 M11.2,230.3c1.6,0,2.9-1.3,2.9-2.8c0-1.6-1.3-2.9-2.8-2.9c-1.6,0-2.9,1.3-2.9,2.8
				C8.4,229,9.7,230.3,11.2,230.3L11.2,230.3z"/>
		</g>
		<g>
			<path class="st2" d="M-100.1-138.9c1,0,1.8-0.8,1.8-1.8c0-1-0.8-1.8-1.8-1.8c-1,0-1.8,0.8-1.8,1.8
				C-101.9-139.7-101.1-138.9-100.1-138.9z"/>
			<path class="st2" d="M-100.1-138.9c-1,0-1.8-0.8-1.8-1.8c0-1,0.8-1.8,1.8-1.8c1,0,1.8,0.8,1.8,1.8
				C-98.3-139.7-99.1-138.9-100.1-138.9 M-100.1-137.9c1.5,0,2.7-1.2,2.7-2.7c0-1.5-1.2-2.7-2.7-2.7c-1.5,0-2.7,1.2-2.7,2.7
				C-102.9-139.2-101.6-137.9-100.1-137.9L-100.1-137.9z"/>
		</g>
		<g>
			<circle class="st2" cx="-124.3" cy="-62.4" r="2.2"/>
			<path class="st2" d="M-124.3-60.2c-1.2,0-2.2-1-2.2-2.2s1-2.2,2.2-2.2c1.2,0,2.2,1,2.2,2.2C-122.1-61.2-123.1-60.2-124.3-60.2
				 M-124.3-59.2c1.8,0,3.2-1.4,3.2-3.2c0-1.8-1.4-3.2-3.2-3.2c-1.8,0-3.2,1.4-3.2,3.2C-127.5-60.7-126.1-59.2-124.3-59.2
				L-124.3-59.2z"/>
		</g>
	</g>
</g>
</svg>
