<?xml version="1.0" encoding="utf-8"?>
<!-- Generator: Adobe Illustrator 23.0.1, SVG Export Plug-In . SVG Version: 6.00 Build 0)  -->
<svg version="1.1" id="Layer_1" xmlns="http://www.w3.org/2000/svg" xmlns:xlink="http://www.w3.org/1999/xlink" x="0px" y="0px"
	 viewBox="0 0 50 50" style="enable-background:new 0 0 50 50;" xml:space="preserve">
<style type="text/css">
	.st0{fill:#008B3A;}
</style>
<path class="st0" d="M38.5,9.87L34.84,6.2L28.64,0H6.42v50H44.7V16.07L38.5,9.87z M38.5,43.8H12.62V6.2h12.94v12.94H38.5V43.8z"/>
<g>
	<path class="st0" d="M29.92,30.5l-8.21,8.21c-0.2,0.2-0.47,0.31-0.73,0.33l-0.01,0l-0.12,0l-3.14-0.07l-0.07-3.14l0-0.12
		c0,0,0-0.01,0-0.01c0.01-0.27,0.12-0.53,0.33-0.73l8.21-8.21L29.92,30.5z"/>
	<path class="st0" d="M32.12,28.3l-1.27,1.27l-3.75-3.75l1.27-1.27c0.34-0.34,0.88-0.34,1.22,0l2.53,2.53
		C32.46,27.42,32.46,27.96,32.12,28.3z"/>
</g>
</svg>
