<?xml version="1.0" encoding="utf-8"?>
<!-- Generator: Adobe Illustrator 23.0.1, SVG Export Plug-In . SVG Version: 6.00 Build 0)  -->
<svg version="1.1" id="Capa_1" xmlns="http://www.w3.org/2000/svg" xmlns:xlink="http://www.w3.org/1999/xlink" x="0px" y="0px"
	 viewBox="0 0 374 342" style="enable-background:new 0 0 374 342;" xml:space="preserve">
<style type="text/css">
	.st0{fill:#FFFFFF;}
	.st1{fill:#4D4D4D;}
	.st2{fill:#00941F;}
	.st3{fill:none;}
</style>
<path class="st0" d="M115.8,127.8c-0.1,0.3-0.1,0.6-0.1,0.9c0,0.3-0.1,0.6-0.1,0.9L98.8,249.3h42.9l-10,70.9H17.9l28.9-205.8
	c1-7.3,2.8-14.3,5.4-21.1c12.7-33.8,43.1-60.5,78.1-68.4c7-1.6,14.2-2.4,21.4-2.4h205.8l-10,70.9H156.9c-0.3,0-0.6,0-0.9,0
	c-0.3,0-0.6,0-0.9,0H155C136.2,93.9,118.9,109,115.8,127.8z"/>
<path class="st0" d="M146,93.4h-1.8c0.3,0,0.6,0,0.9,0C145.4,93.4,145.7,93.4,146,93.4z"/>
<path class="st0" d="M341.5,136l-13,92.3c-1,7.3-2.9,14.3-5.4,21.1c-12.7,33.9-43.1,60.5-78.1,68.4c-7,1.6-14.1,2.4-21.4,2.4h-49
	l10-70.9h48.8c11.4,0,21.9-8.9,24.1-20.2c0.1-0.4,0.1-0.7,0.2-1.1s0.1-0.7,0.1-1.1l2.8-20.2h-113l7.9-56.6
	c1.1-7.9,8.4-14.3,16.3-14.3L341.5,136L341.5,136z"/>
<g>
	<g>
		<g>
			<path class="st1" d="M393,243.6c0.7-2.5-0.2-4.5-2.9-4.5c-4,0-4.9,2.5-5.3,4.4c-0.4,1.7,0.2,2.7,1.6,3.3c1.2,0.5,2.4,1,3.6,1.5
				c4.3,1.7,4.8,3.4,4.1,6.6c-1,4.6-4.5,7.4-9.2,7.4c-2.4,0-5.1-0.7-5.9-3.9c-0.3-1.2,0.2-3.2,0.4-4.5h2.7c-0.9,3.6-0.7,5.9,3.4,5.9
				c2.7,0,5-1.4,5.6-4.3c0.8-3.7-0.7-3.8-3-4.7c-1.2-0.5-3.2-1.2-4.4-1.9c-2.1-1.2-2.2-3.1-1.7-5.6c0.9-4,4.3-6.7,8.3-6.7
				c4.5,0,6.7,2.3,5.5,6.9L393,243.6L393,243.6z"/>
			<path class="st1" d="M416.8,237.2h2.7l-3.8,17.6c-0.4,1.9-0.8,5,3.6,5s5.3-3.1,5.7-5l3.8-17.6h2.7l-4,18.6
				c-0.9,4.4-4.3,6.5-8.7,6.5s-6.9-2.1-6-6.5L416.8,237.2z"/>
			<path class="st1" d="M446,261.7l5.2-24.5h12.3l-0.5,2.5h-9.5l-1.7,8.1h9l-0.5,2.5h-9l-1.9,9h9.6l-0.5,2.5L446,261.7L446,261.7z"
				/>
			<path class="st1" d="M477.4,261.7l5.2-24.5h2.7l-4.7,22.1h10l-0.5,2.5h-12.7V261.7z"/>
			<path class="st1" d="M521.1,236.7c7.2,0,6.6,6.6,5.4,12.2c-1.5,6.8-3.8,13.4-10.9,13.4s-6.6-6.6-5.2-13.4
				C511.6,243.3,513.8,236.7,521.1,236.7z M520.5,239.1c-4.2,0-6.2,4.4-7.3,9.8c-1.5,7.1-1.6,10.9,3,10.9s6-3.8,7.6-10.9
				C524.9,243.5,524.8,239.1,520.5,239.1z"/>
			<path class="st1" d="M557.3,243.6c0.7-2.5-0.2-4.5-2.9-4.5c-4,0-4.9,2.5-5.3,4.4c-0.4,1.7,0.2,2.7,1.6,3.3c1.2,0.5,2.4,1,3.6,1.5
				c4.3,1.7,4.8,3.4,4.1,6.6c-1,4.6-4.5,7.4-9.2,7.4c-2.4,0-5.2-0.7-5.9-3.9c-0.3-1.2,0.2-3.2,0.4-4.5h2.7c-0.9,3.6-0.7,5.9,3.4,5.9
				c2.7,0,5-1.4,5.6-4.3c0.8-3.7-0.7-3.8-3-4.7c-1.2-0.5-3.2-1.2-4.4-1.9c-2.1-1.2-2.2-3.1-1.7-5.6c0.9-4,4.3-6.7,8.3-6.7
				c4.5,0,6.7,2.3,5.5,6.9L557.3,243.6L557.3,243.6z"/>
			<path class="st1" d="M607.8,249.5l8.4-12.3h3l-10.6,15l-2,9.5h-2.7l2-9.5l-4.2-15h3L607.8,249.5z"/>
			<path class="st1" d="M654.5,261.7l5.2-24.5h2.7l-2.2,10.2h9.4l2.2-10.2h2.7l-5.2,24.5h-2.7l2.5-11.8h-9.4l-2.5,11.8H654.5z"/>
			<path class="st1" d="M702,236.7c7.2,0,6.6,6.6,5.4,12.2c-1.5,6.8-3.8,13.4-10.9,13.4s-6.6-6.6-5.2-13.4
				C692.5,243.3,694.7,236.7,702,236.7z M701.3,239.1c-4.2,0-6.2,4.4-7.3,9.8c-1.5,7.1-1.6,10.9,3,10.9s6-3.8,7.6-10.9
				C705.8,243.5,705.7,239.1,701.3,239.1z"/>
			<path class="st1" d="M726.8,261.7h-2.7l5.2-24.5h6.3c5.1,0,8.1,1.3,6.7,7c-0.7,2.9-2.9,4.9-5.8,5.3v0.1c3.1,0.3,3.7,1.3,3.4,4.6
				c-0.3,1.8-0.5,3.6-0.6,5.5c0,0.5,0,1.5,0.6,1.5l-0.1,0.5h-3.2c-0.3-1.6,0.1-4.6,0.5-6.2c0.5-2.5,0-4.5-3.2-4.5h-4.7L726.8,261.7z
				 M729.6,248.5h4.3c1.3,0,4.8-0.2,5.7-4.5c0.8-4.2-2.5-4.3-4.3-4.3h-3.8L729.6,248.5z"/>
			<path class="st1" d="M779.3,237.2h4.8l-5.2,24.5h-2.7l4.3-20.2c0.2-1,0.5-2.1,0.7-3.1h-0.1c-0.6,1.4-1,2.4-1.5,3.3l-9.4,20H767
				l-0.8-20.3c0-0.9-0.1-1.7-0.1-3H766c-0.2,1-0.4,2.1-0.6,3.2l-4.3,20.1h-2.7l5.2-24.5h4.8l0.7,19.1c0,1,0,2.1-0.3,3.6h0.1
				c0.4-1.2,0.8-2.5,1.4-3.7L779.3,237.2z"/>
			<path class="st1" d="M799.3,261.7l5.2-24.5h2.7l-5.2,24.5H799.3z"/>
			<path class="st1" d="M837.2,261.9h-2.1l0.8-3.8h-0.1c-1.3,2.8-3.8,4.2-6.5,4.2c-7.3,0-6.3-7.3-5.1-13s3.7-12.6,10.8-12.6
				c4.7,0,6.7,3,5.7,7.6H838c0.6-3-0.2-5.1-3.3-5.2c-5.3-0.1-6.7,6-7.6,10.2c-0.8,3.7-2.4,10.2,2.4,10.5c5,0.2,6.4-4.4,7.2-8.3h-5.5
				l0.5-2.5h8.2L837.2,261.9z"/>
			<path class="st1" d="M870,236.7c7.2,0,6.6,6.6,5.4,12.2c-1.5,6.8-3.8,13.4-10.9,13.4s-6.6-6.6-5.2-13.4
				C860.4,243.3,862.7,236.7,870,236.7z M869.3,239.1c-4.2,0-6.2,4.4-7.3,9.8c-1.5,7.1-1.6,10.9,3,10.9s6-3.8,7.6-10.9
				C873.7,243.5,873.6,239.1,869.3,239.1z"/>
			<path class="st1" d="M909.2,237.2h2.7l-5.2,24.5h-4.4l-2.7-19.6c-0.2-1.1-0.2-2.2-0.1-3.7h-0.1c-0.2,1.2-0.5,2.5-0.7,3.8
				l-4.2,19.5h-2.7l5.2-24.5h4.4l2.7,20.1c0.1,0.8,0.2,1.5,0.3,2.7h0.1c0.2-0.9,0.3-1.8,0.5-2.7L909.2,237.2z"/>
			<path class="st1" d="M926.3,261.7l5.2-24.5h12.3l-0.5,2.5h-9.5l-1.7,8.1h9l-0.5,2.5h-9l-1.9,9h9.6l-0.5,2.5L926.3,261.7
				L926.3,261.7z"/>
			<path class="st1" d="M971.9,243.6c0.7-2.5-0.2-4.5-2.9-4.5c-3.9,0-4.9,2.5-5.3,4.4c-0.4,1.7,0.2,2.7,1.6,3.3
				c1.2,0.5,2.4,1,3.6,1.5c4.3,1.7,4.8,3.4,4.1,6.6c-1,4.6-4.5,7.4-9.2,7.4c-2.4,0-5.2-0.7-5.9-3.9c-0.3-1.2,0.2-3.2,0.4-4.5h2.7
				c-0.9,3.6-0.7,5.9,3.4,5.9c2.7,0,5-1.4,5.6-4.3c0.8-3.7-0.7-3.8-3-4.7c-1.2-0.5-3.2-1.2-4.4-1.9c-2.1-1.2-2.2-3.1-1.7-5.6
				c0.9-4,4.3-6.7,8.3-6.7c4.5,0,6.7,2.3,5.5,6.9L971.9,243.6L971.9,243.6z"/>
		</g>
	</g>
	<g>
		<path class="st1" d="M446,106.3c0-0.4,1.9-11.7,1.9-18.1c0-9.4-7.2-11.3-10.8-11.3c-0.8,0-3.8,0.2-6.2,1.3
			c-7,3.4-7.9,9.8-8.9,17.2l-8.5,63.6c-0.4,3.8-0.9,7.2-0.9,11.1c0,2.1,0,3.8,0.9,5.7c1.7,3.4,6.2,5.7,10.2,5.7
			c1.1,0,3.2-0.2,5.5-1.7c7.2-4,9.1-14.3,10.9-30.6h-12.3l3.6-26.4h44.4c-1.1,4.9-1.9,10-2.5,14.9c-1.5,9.6-2.5,19.1-3.8,28.7
			l-5.1,37.6h-28.7l2.6-13.6c-3.4,4.7-11.1,16-27.6,16c-4.5,0-14.5-0.9-22.8-9.8c-8.5-9.1-8.7-19.6-8.7-24.2c0-6.6,0.9-13,1.5-19.4
			l2.5-20.4v-1.3l4-27.4c3.2-19.4,5.3-29.1,10.9-36.8c6-8.1,18.5-16.2,41.3-16.2c4.7,0,18.1,0,28.9,8.3c5.3,4.3,7.9,8.7,8.9,11.1
			c1.3,3,2.5,7.7,2.5,15.3c0,6.2-0.4,9.8-1.7,20.6L446,106.3L446,106.3z"/>
		<path class="st1" d="M587.4,54.4l-4,27.9h-43l-3.8,31.3h41.5l-3.6,27.6h-41.9l-4.7,35.1h44.5l-3.6,28.1h-78.5l20.2-149.9h76.9
			V54.4z"/>
		<path class="st1" d="M671.9,54.2l7.9,150.1h-34.5v-27h-24.9l-7.2,26.8h-33.6l45.5-149.9L671.9,54.2L671.9,54.2z M645.1,79.5
			l-17.9,71h17.9V79.5z"/>
		<path class="st1" d="M777.8,54l-4.3,27.9h-23.4l-16.4,122.3h-34l16.2-122.3h-26l4-27.9C694,54,777.8,54,777.8,54z"/>
		<path class="st1" d="M870.9,54.4l-4,27.9h-43l-3.8,31.3h41.5l-3.6,27.6h-42l-4.7,35.1h44.5l-3.6,28.1h-78.5l20.2-149.9h77V54.4z"
			/>
		<path class="st1" d="M939.4,109.1c0.6-4.7,1.3-9.4,2.1-14.3c0.2-2.8,0.8-5.7,0.8-8.5c0-0.9,0-2.6-0.6-4.3
			c-1.5-3.8-5.1-6.2-9.1-6.2c-2.3,0-4.7,0.6-6.6,1.9c-4.7,3-6.2,7.7-7.4,18.1l-9.1,67c-0.6,3.6-0.6,5.3-0.6,7c0,2.3,0.2,3.2,0.6,4.3
			c0.4,1.5,3.2,7.2,9.4,7.2c1.1,0,3.8-0.4,6.4-1.9c4.3-2.6,5.1-7.2,6.2-12.1l3.6-23l32.5,0.2c-1.3,9.1-3,21.7-5.5,30.4
			c-1.1,3.2-4.7,15.7-14.7,23.6c-10.4,8.3-26.6,8.5-30.2,8.5c-12.3,0-27.2-3.8-34.9-13.6c-6.8-8.7-7-20-7-23.4s0.2-6.8,0.6-10.4
			c1.5-14,3.2-28.1,5.3-41.9c0.8-6.6,1.9-13.2,3-19.8c2.1-11.3,4.9-25.9,12.8-34.7c5.1-5.9,16.6-12.8,35.7-12.8
			c3,0,18.9,0.2,29.4,7.4c12.1,8.5,12.3,22.5,12.3,27.4c0,8.1-1.3,15.9-2.6,23.6L939.4,109.1L939.4,109.1z"/>
	</g>
</g>
<path class="st2" d="M479.7,590.6c-0.1,0.3-0.1,0.6-0.2,0.9c0,0.3-0.1,0.6-0.1,0.9l-16.8,119.7h43l-10,70.9H381.7l28.9-205.8
	c1-7.3,2.9-14.3,5.4-21.1c12.7-33.8,43.1-60.5,78-68.4c7-1.6,14.2-2.4,21.4-2.4h205.8l-10,70.9H520.8c-0.3,0-0.6,0-0.9,0
	c-0.3,0-0.6,0-0.9,0l0,0C500,556.6,482.8,571.7,479.7,590.6z"/>
<path class="st3" d="M509.8,556.1H508c0.3,0,0.6,0,0.9,0C509.2,556.1,509.5,556.1,509.8,556.1z"/>
<path class="st2" d="M705.3,598.7l-13,92.3c-1,7.3-2.8,14.3-5.4,21.1c-12.7,33.9-43.1,60.5-78.1,68.4c-7,1.6-14.2,2.4-21.4,2.4h-49
	l10-70.9h48.8c11.4,0,21.9-8.9,24.1-20.2c0.1-0.4,0.1-0.7,0.2-1.1c0-0.4,0.1-0.7,0.1-1.1l2.8-20.2h-113l8-56.5
	c1.1-7.9,8.4-14.3,16.3-14.3L705.3,598.7L705.3,598.7z"/>
<g>
	<g>
		<g>
			<path class="st1" d="M267.9,1014.5c0.7-2.6-0.2-4.5-2.9-4.5c-4,0-4.9,2.5-5.3,4.4c-0.4,1.7,0.2,2.7,1.6,3.3
				c1.2,0.5,2.4,1,3.6,1.5c4.3,1.7,4.8,3.4,4.1,6.6c-1,4.6-4.5,7.3-9.2,7.3c-2.4,0-5.1-0.7-5.9-3.9c-0.3-1.2,0.2-3.2,0.4-4.5h2.7
				c-0.9,3.6-0.7,5.9,3.4,5.9c2.7,0,5-1.4,5.6-4.3c0.8-3.7-0.7-3.8-3-4.7c-1.2-0.5-3.2-1.2-4.4-1.9c-2.1-1.2-2.2-3.1-1.7-5.6
				c0.9-4.1,4.3-6.7,8.3-6.7c4.5,0,6.7,2.3,5.5,6.9L267.9,1014.5L267.9,1014.5z"/>
			<path class="st1" d="M291.7,1008.1h2.7l-3.8,17.6c-0.4,1.9-0.8,5,3.6,5s5.3-3.1,5.7-5l3.8-17.6h2.7l-4,18.6
				c-0.9,4.4-4.3,6.5-8.7,6.5s-6.9-2.1-6-6.5L291.7,1008.1z"/>
			<path class="st1" d="M320.9,1032.6l5.2-24.5h12.3l-0.5,2.4h-9.5l-1.7,8.1h9l-0.5,2.4h-9l-1.9,9.1h9.6l-0.5,2.4L320.9,1032.6
				L320.9,1032.6z"/>
			<path class="st1" d="M352.3,1032.6l5.2-24.5h2.7l-4.7,22.1h10l-0.5,2.4H352.3z"/>
			<path class="st1" d="M396,1007.6c7.2,0,6.6,6.6,5.4,12.2c-1.5,6.8-3.8,13.4-10.9,13.4s-6.6-6.6-5.2-13.4
				C386.5,1014.2,388.7,1007.6,396,1007.6z M395.3,1010.1c-4.2,0-6.2,4.4-7.3,9.8c-1.5,7.1-1.6,10.8,3,10.8s6-3.8,7.6-10.8
				C399.8,1014.4,399.6,1010.1,395.3,1010.1z"/>
			<path class="st1" d="M432.2,1014.5c0.7-2.6-0.2-4.5-2.9-4.5c-4,0-4.9,2.5-5.3,4.4c-0.4,1.7,0.2,2.7,1.6,3.3
				c1.2,0.5,2.4,1,3.6,1.5c4.3,1.7,4.8,3.4,4.1,6.6c-1,4.6-4.5,7.3-9.2,7.3c-2.4,0-5.1-0.7-5.9-3.9c-0.3-1.2,0.2-3.2,0.4-4.5h2.7
				c-0.9,3.6-0.7,5.9,3.4,5.9c2.7,0,5-1.4,5.6-4.3c0.8-3.7-0.7-3.8-3-4.7c-1.2-0.5-3.2-1.2-4.4-1.9c-2.1-1.2-2.2-3.1-1.7-5.6
				c0.9-4.1,4.3-6.7,8.3-6.7c4.5,0,6.7,2.3,5.5,6.9L432.2,1014.5L432.2,1014.5z"/>
			<path class="st1" d="M482.7,1020.4l8.4-12.3h3l-10.6,15l-2,9.5h-2.7l2-9.5l-4.2-15h3L482.7,1020.4z"/>
			<path class="st1" d="M529.4,1032.6l5.2-24.5h2.7l-2.2,10.2h9.4l2.2-10.2h2.7l-5.2,24.5h-2.7l2.5-11.8h-9.4l-2.5,11.8H529.4z"/>
			<path class="st1" d="M576.9,1007.6c7.2,0,6.6,6.6,5.4,12.2c-1.5,6.8-3.8,13.4-10.9,13.4s-6.6-6.6-5.2-13.4
				C567.3,1014.2,569.6,1007.6,576.9,1007.6z M576.2,1010.1c-4.2,0-6.2,4.4-7.3,9.8c-1.5,7.1-1.6,10.8,3,10.8s6-3.8,7.6-10.8
				C580.7,1014.4,580.5,1010.1,576.2,1010.1z"/>
			<path class="st1" d="M601.7,1032.6H599l5.2-24.5h6.3c5.1,0,8.1,1.3,6.7,7c-0.7,2.9-2.9,4.9-5.8,5.3v0.1c3.1,0.3,3.7,1.3,3.4,4.6
				c-0.3,1.8-0.5,3.6-0.6,5.5c0,0.5,0,1.5,0.6,1.5l-0.1,0.6h-3.2c-0.3-1.6,0.1-4.6,0.5-6.2c0.5-2.4,0-4.5-3.2-4.5H604L601.7,1032.6z
				 M604.5,1019.4h4.3c1.3,0,4.8-0.2,5.7-4.5c0.8-4.2-2.5-4.3-4.3-4.3h-3.8L604.5,1019.4z"/>
			<path class="st1" d="M654.2,1008.1h4.8l-5.2,24.5h-2.7l4.3-20.2c0.2-1.1,0.5-2.1,0.7-3.1H656c-0.6,1.4-1,2.3-1.5,3.3l-9.4,20
				h-3.2l-0.8-20.3c0-0.8-0.1-1.7-0.1-3h-0.1c-0.2,1.1-0.4,2.1-0.6,3.2l-4.3,20.1h-2.7l5.2-24.5h4.8l0.7,19.1c0,1.1,0,2.1-0.3,3.6
				h0.1c0.4-1.2,0.8-2.4,1.4-3.7L654.2,1008.1z"/>
			<path class="st1" d="M674.2,1032.6l5.2-24.5h2.7l-5.2,24.5H674.2z"/>
			<path class="st1" d="M712.1,1032.8H710l0.8-3.8h-0.1c-1.3,2.8-3.8,4.2-6.5,4.2c-7.3,0-6.3-7.3-5.1-13s3.7-12.6,10.8-12.6
				c4.7,0,6.7,3,5.7,7.6h-2.7c0.6-3-0.2-5.1-3.3-5.2c-5.3-0.1-6.7,6-7.6,10.2c-0.8,3.7-2.4,10.2,2.4,10.5c5,0.2,6.4-4.4,7.2-8.3
				h-5.5l0.5-2.4h8.2L712.1,1032.8z"/>
			<path class="st1" d="M744.8,1007.6c7.2,0,6.6,6.6,5.4,12.2c-1.5,6.8-3.8,13.4-10.9,13.4s-6.6-6.6-5.2-13.4
				C735.3,1014.2,737.6,1007.6,744.8,1007.6z M744.2,1010.1c-4.2,0-6.2,4.4-7.3,9.8c-1.5,7.1-1.6,10.8,3,10.8s6-3.8,7.6-10.8
				C748.6,1014.4,748.5,1010.1,744.2,1010.1z"/>
			<path class="st1" d="M784.1,1008.1h2.7l-5.2,24.5h-4.4l-2.7-19.6c-0.2-1.1-0.2-2.2-0.1-3.7h-0.1c-0.2,1.2-0.5,2.5-0.7,3.8
				l-4.2,19.5h-2.7l5.2-24.5h4.4l2.7,20.1c0.1,0.8,0.2,1.5,0.3,2.7h0.1c0.2-0.9,0.3-1.8,0.5-2.7L784.1,1008.1z"/>
			<path class="st1" d="M801.2,1032.6l5.2-24.5h12.3l-0.5,2.4h-9.5l-1.7,8.1h9l-0.5,2.4h-9l-1.9,9.1h9.6l-0.5,2.4L801.2,1032.6
				L801.2,1032.6z"/>
			<path class="st1" d="M846.8,1014.5c0.7-2.6-0.2-4.5-2.9-4.5c-4,0-4.9,2.5-5.3,4.4c-0.4,1.7,0.2,2.7,1.6,3.3
				c1.2,0.5,2.4,1,3.6,1.5c4.3,1.7,4.8,3.4,4.1,6.6c-1,4.6-4.5,7.3-9.2,7.3c-2.4,0-5.2-0.7-5.9-3.9c-0.3-1.2,0.2-3.2,0.4-4.5h2.7
				c-0.9,3.6-0.7,5.9,3.4,5.9c2.7,0,5-1.4,5.6-4.3c0.8-3.7-0.7-3.8-3-4.7c-1.2-0.5-3.2-1.2-4.4-1.9c-2.1-1.2-2.2-3.1-1.7-5.6
				c0.9-4.1,4.3-6.7,8.3-6.7c4.5,0,6.7,2.3,5.5,6.9L846.8,1014.5L846.8,1014.5z"/>
		</g>
	</g>
	<g>
		<path class="st1" d="M320.9,877.6c0-0.4,1.9-11.7,1.9-18.1c0-9.4-7.2-11.3-10.9-11.3c-0.9,0-3.8,0.2-6.2,1.3
			c-7,3.4-7.9,9.8-8.9,17.2l-8.5,63.6c-0.4,3.8-0.9,7.2-0.9,11.1c0,2.1,0,3.8,0.9,5.7c1.7,3.4,6.2,5.7,10.2,5.7
			c1.1,0,3.2-0.2,5.5-1.7c7.2-4,9.1-14.3,10.9-30.6h-12.3l3.6-26.4h44.5c-1.1,4.9-1.9,10-2.5,14.9c-1.5,9.6-2.5,19.1-3.8,28.7
			l-5.1,37.6h-28.7l2.5-13.6c-3.4,4.7-11.1,15.9-27.6,15.9c-4.5,0-14.5-0.8-22.8-9.8c-8.5-9.1-8.7-19.6-8.7-24.2
			c0-6.6,0.9-13,1.5-19.3l2.5-20.4v-1.3l4-27.4c3.2-19.3,5.3-29.1,10.9-36.8c6-8.1,18.5-16.2,41.3-16.2c4.7,0,18.1,0,28.9,8.3
			c5.3,4.3,7.9,8.7,8.9,11.1c1.3,3,2.5,7.7,2.5,15.3c0,6.2-0.4,9.8-1.7,20.6L320.9,877.6L320.9,877.6z"/>
		<path class="st1" d="M462.3,825.7l-4,27.9h-43l-3.8,31.3H453l-3.6,27.7h-41.9l-4.7,35.1h44.5l-3.6,28.1h-78.5l20.2-149.9h76.9
			V825.7z"/>
		<path class="st1" d="M546.7,825.5l7.9,150.1h-34.5v-27h-24.9l-7.2,26.8h-33.6L500,825.5H546.7z M520,850.8l-17.9,71H520V850.8z"/>
		<path class="st1" d="M652.7,825.3l-4.3,27.9H625l-16.4,122.3h-34l16.2-122.3h-26l4-27.9H652.7z"/>
		<path class="st1" d="M745.8,825.7l-4,27.9h-43l-3.8,31.3h41.5l-3.6,27.7H691l-4.7,35.1h44.5l-3.6,28.1h-78.5l20.2-149.9h76.9
			V825.7z"/>
		<path class="st1" d="M814.3,880.3c0.6-4.7,1.3-9.4,2.1-14.3c0.2-2.8,0.8-5.7,0.8-8.5c0-0.8,0-2.5-0.6-4.3
			c-1.5-3.8-5.1-6.2-9.1-6.2c-2.3,0-4.7,0.6-6.6,1.9c-4.7,3-6.2,7.7-7.4,18.1l-9.1,67c-0.6,3.6-0.6,5.3-0.6,7c0,2.3,0.2,3.2,0.6,4.3
			c0.4,1.5,3.2,7.2,9.4,7.2c1.1,0,3.8-0.4,6.4-1.9c4.3-2.5,5.1-7.2,6.2-12.1l3.6-23l32.5,0.2c-1.3,9.2-3,21.7-5.5,30.4
			c-1.1,3.2-4.7,15.7-14.7,23.6c-10.4,8.3-26.6,8.5-30.2,8.5c-12.3,0-27.2-3.8-34.9-13.6c-6.8-8.7-7-20-7-23.4s0.2-6.8,0.6-10.4
			c1.5-14,3.2-28.1,5.3-41.9c0.8-6.6,1.9-13.2,3-19.8c2.1-11.3,4.9-25.9,12.8-34.7c5.1-6,16.6-12.8,35.7-12.8c3,0,18.9,0.2,29.3,7.4
			c12.1,8.5,12.3,22.5,12.3,27.4c0,8.1-1.3,16-2.5,23.6L814.3,880.3L814.3,880.3z"/>
	</g>
</g>
</svg>
