<?xml version="1.0" encoding="utf-8"?>
<!-- Generator: Adobe Illustrator 23.0.1, SVG Export Plug-In . SVG Version: 6.00 Build 0)  -->
<svg version="1.1" id="Layer_1" xmlns="http://www.w3.org/2000/svg" xmlns:xlink="http://www.w3.org/1999/xlink" x="0px" y="0px"
	 viewBox="0 0 512 512" style="enable-background:new 0 0 512 512;" xml:space="preserve">
<style type="text/css">
	.st0{fill:#FFFFFF;}
</style>
<path class="st0" d="M241,509.4V400.5c-27.3,1-54.3,4.9-79.9,11.3c4.1,10,8.7,19.6,13.6,28.6C194.2,476.4,218.5,501.4,241,509.4z"/>
<path class="st0" d="M337.4,440.4c4.9-9,9.4-18.6,13.6-28.6c-25.7-6.4-52.7-10.2-79.9-11.3v108.8
	C293.5,501.4,317.8,476.4,337.4,440.4z"/>
<path class="st0" d="M241,370.5v-99.8H131.6c1.4,39,8,77.7,19.1,112.8C179.7,376,210.3,371.6,241,370.5z"/>
<path class="st0" d="M241,240.7v-99.8c-30.7-1.1-61.3-5.5-90.2-13c-11.1,35.1-17.8,73.8-19.1,112.8H241z"/>
<path class="st0" d="M380,91.1c18.2-6.2,35.5-13.6,51.4-22.3c-27.9-26.2-61.7-46.3-99.2-58c11.2,12.7,21.8,28.1,31.5,45.9
	C369.7,67.6,375.1,79.1,380,91.1z"/>
<path class="st0" d="M174.6,71c-4.9,9-9.4,18.6-13.6,28.6c25.7,6.4,52.7,10.2,79.9,11.3V2C218.5,10,194.2,34.9,174.6,71z"/>
<path class="st0" d="M271,270.7v99.8c30.8,1.1,61.3,5.5,90.2,13c11.1-35.1,17.8-73.8,19.2-112.8H271z"/>
<path class="st0" d="M271,140.9v99.8h109.4c-1.4-39-8-77.7-19.1-112.8C332.3,135.3,301.8,139.8,271,140.9z"/>
<path class="st0" d="M121.9,392c-12-37.8-19-79.1-20.3-121.4H0c3.3,56.7,25.1,108.5,59.4,149.4C78.5,409,99.5,399.6,121.9,392z"/>
<path class="st0" d="M380,420.2c-4.9,12-10.3,23.5-16.2,34.5c-9.7,17.8-20.3,33.2-31.5,45.9c37.5-11.7,71.2-31.8,99.2-58
	C415.5,433.9,398.2,426.4,380,420.2z"/>
<path class="st0" d="M132,420.2c-18.2,6.2-35.5,13.6-51.4,22.3c27.9,26.2,61.7,46.3,99.2,58c-11.2-12.7-21.8-28.1-31.5-45.9
	C142.3,443.7,136.9,432.2,132,420.2z"/>
<path class="st0" d="M390.1,119.3c12,37.8,19,79.1,20.3,121.4H512c-3.3-56.7-25.1-108.5-59.4-149.4
	C433.5,102.3,412.5,111.8,390.1,119.3z"/>
<path class="st0" d="M390.1,392c22.3,7.6,43.4,17,62.5,28.1c34.3-41,56.1-92.8,59.4-149.4H410.4C409.1,313,402.1,354.3,390.1,392z"
	/>
<path class="st0" d="M271,2v108.8c27.3-1,54.3-4.9,79.9-11.3c-4.1-10-8.7-19.6-13.6-28.6C317.8,34.9,293.5,10,271,2z"/>
<path class="st0" d="M121.9,119.3c-22.3-7.6-43.4-17-62.5-28.1C25.1,132.2,3.3,184,0,240.7h101.6
	C102.9,198.4,109.9,157.1,121.9,119.3z"/>
<path class="st0" d="M132,91.1c4.9-12,10.3-23.5,16.2-34.5c9.7-17.8,20.3-33.2,31.5-45.9c-37.5,11.7-71.2,31.8-99.2,58
	C96.5,77.5,113.8,85,132,91.1z"/>
</svg>
