<?xml version="1.0" encoding="utf-8"?>
<!-- Generator: Adobe Illustrator 23.0.1, SVG Export Plug-In . SVG Version: 6.00 Build 0)  -->
<svg version="1.1" id="Layer_1" xmlns="http://www.w3.org/2000/svg" xmlns:xlink="http://www.w3.org/1999/xlink" x="0px" y="0px"
	 viewBox="0 0 50 50" style="enable-background:new 0 0 50 50;" xml:space="preserve">
<style type="text/css">
	.st0{fill:#008B3A;}
</style>
<path class="st0" d="M38.5,9.87L34.84,6.2L28.64,0H6.42v50H44.7V16.07L38.5,9.87z M38.5,43.8H12.62V6.2h12.94v12.94H38.5V43.8z"/>
<path class="st0" d="M23.42,34.67c-0.11-0.14-0.18-0.22-0.24-0.31c-0.62-0.84-1.23-1.7-1.87-2.52c-0.15-0.19-0.41-0.38-0.64-0.42
	c-0.75-0.14-1.44,0.09-2,0.6c-0.32,0.29-0.33,0.61-0.08,0.95c1.2,1.65,2.4,3.29,3.62,4.93c0.12,0.16,0.3,0.31,0.49,0.38
	c0.67,0.26,2.06-0.16,2.42-1.04c1.14-2.74,2.44-5.4,3.95-7.95c0.99-1.67,2.07-3.27,3.29-4.79c0.19-0.24,0.41-0.49,0.26-0.81
	c-0.15-0.33-0.5-0.39-0.82-0.42c-0.89-0.08-1.56,0.22-2.13,0.96c-2.34,3.03-4.25,6.32-5.9,9.76C23.66,34.19,23.55,34.4,23.42,34.67z
	"/>
</svg>
