<?xml version="1.0" encoding="utf-8"?>
<!-- Generator: Adobe Illustrator 23.0.1, SVG Export Plug-In . SVG Version: 6.00 Build 0)  -->
<svg version="1.1" id="Layer_1" xmlns="http://www.w3.org/2000/svg" xmlns:xlink="http://www.w3.org/1999/xlink" x="0px" y="0px"
	 viewBox="0 0 112.8 56.9" style="enable-background:new 0 0 112.8 56.9;" xml:space="preserve">
<style type="text/css">
	.st0{fill:#4D4D4D;}
</style>
<g>
	<path class="st0" d="M57.8,21c0.2-1,0.2-1,1.1-1c0.8,0,1.5,0,2.3,0c0.3,0,0.5,0.1,0.5,0.5c0,1.7,0,3.5,0,5.2c0,0.3-0.1,0.5-0.4,0.5
		c-1,0-1.9,0-2.9,0c-0.2,0-0.4-0.1-0.5-0.3c-1.2-1.5-2.7-2-4.5-2.2c-0.5,0-1.1,0-1.6,0c-0.4,0-0.7,0.2-0.7,0.6
		c0,0.4,0.3,0.6,0.7,0.7c0.8,0.3,1.6,0.5,2.4,0.7c1.3,0.4,2.6,0.7,3.8,1.1c2.1,0.7,3.6,2,4.2,4.1c0.7,2.6-0.7,5.2-3.2,6.2
		c-3,1.2-5.8,0.8-8.6-0.6c-0.2-0.1-0.3-0.2-0.5-0.3c0,0.1-0.1,0.2-0.1,0.2c-0.1,0.9-0.1,0.9-1,0.9c-0.8,0-1.7,0-2.5,0
		c-0.4,0-0.5-0.1-0.5-0.5c0-1.9,0-3.7,0-5.6c0-0.4,0.1-0.5,0.5-0.5c0.9,0,1.8,0,2.7,0c0.2,0,0.5,0.2,0.6,0.3
		c1.1,1.6,2.7,2.2,4.5,2.4c0.7,0,1.5-0.1,2.2-0.2c0.2,0,0.5-0.3,0.5-0.4c0-0.2-0.2-0.5-0.4-0.6c-1.3-0.5-2.6-0.8-3.9-1.3
		c-1.4-0.5-2.9-0.7-4.2-1.5c-2.8-1.8-3.5-5.5-1.4-8c1-1.1,2.3-1.7,3.8-1.9c2.4-0.4,4.8-0.2,6.9,1.1C57.5,20.9,57.6,20.9,57.8,21z"/>
	<path class="st0" d="M81.7,28.7c-0.1,1.5-0.3,3-0.9,4.4c-0.7,1.9-2.1,3.2-3.9,3.9c-3.2,1.2-6.3,1.3-9.5-0.1
		c-2.8-1.2-4.2-3.4-4.6-6.3c-0.2-1.5-0.1-3,0.1-4.4c0.5-2.8,2.1-4.8,4.8-5.8c3.2-1.2,6.4-1.1,9.6,0.4c2.4,1.1,3.7,3.1,4.1,5.7
		C81.5,27.2,81.6,27.9,81.7,28.7z M75.1,28.5c-0.1-0.7-0.1-1.7-0.3-2.7c-0.2-1-0.8-1.6-1.9-1.8c-0.5-0.1-1-0.1-1.4,0
		c-1.3,0.2-1.9,0.8-2,2c-0.1,1.6-0.2,3.2-0.1,4.8c0.1,1.6,0.8,2.3,2.1,2.5c0.6,0.1,1.1,0,1.7-0.1c1.1-0.2,1.6-0.8,1.7-1.9
		C75,30.5,75,29.7,75.1,28.5z"/>
	<path class="st0" d="M39.1,19.7c1.7,0,3.4,0,5.1,0c0.4,0,0.5,0.1,0.5,0.5c0,1.2,0,2.3,0,3.5c0,0.3-0.1,0.4-0.4,0.4
		c-0.6,0-1.1,0-1.7,0c-0.3,0-0.5,0.1-0.5,0.5c0,2.7,0,5.4,0,8.1c0,0.3,0.1,0.5,0.5,0.5c0.5,0,1.1,0,1.6,0c0.3,0,0.5,0.1,0.5,0.5
		c0,1.2,0,2.3,0,3.5c0,0.5-0.3,0.5-0.6,0.5c-3.2,0-6.3,0-9.4,0c-1.3,0-1.3,0-1.3-1.3c0-0.8,0-1.7,0-2.6c0-0.4,0.1-0.5,0.5-0.5
		c0.5,0,1.1,0,1.6,0c0.4,0,0.5-0.1,0.5-0.5c0-2.7,0-5.4,0-8.1c0-0.4-0.2-0.5-0.5-0.5c-0.5,0-1.1,0-1.7,0c-0.3,0-0.5-0.1-0.5-0.5
		c0-1.1,0-2.3,0-3.5c0-0.4,0.2-0.5,0.5-0.5C35.6,19.7,37.3,19.7,39.1,19.7z"/>
	<path class="st0" d="M73.6,17.8c-0.5,0.1-0.8,0-1.1-0.4c-0.9-1.4-2.1-2.5-3.3-3.5c-0.3-0.2-0.5-0.3-0.8-0.1
		c-0.3,0.2-0.7,0.5-1.1,0.6c-0.4,0.2-0.4,0.4-0.1,0.7c0.6,0.7,1.1,1.5,1.6,2.2c0.1,0.1,0.1,0.2,0.2,0.4c-0.4,0.2-0.7,0.2-1-0.2
		c-0.6-0.7-1.1-1.4-1.7-2.1c-0.2-0.3-0.4-0.3-0.7-0.2c-0.9,0.4-1.9,0.7-2.9,1.1c0.2,0.5,0.4,1,0.5,1.4c-0.6,0.2-0.7,0.2-1-0.3
		c-0.4-0.9-0.4-0.9-1.4-0.7c-1,0.1-2,0.3-3.1,0.4c-0.3,0-0.5,0.1-0.5,0.5c0,0.1-0.3,0.3-0.4,0.3c-0.2,0-0.4-0.2-0.4-0.3
		c0-0.4-0.2-0.4-0.5-0.5c-1.3-0.1-2.5-0.3-3.8-0.4c-0.2,0-0.4,0.1-0.5,0.3c-0.1,0.2-0.2,0.4-0.3,0.6c-0.2,0.5-0.5,0.5-1,0.4
		c0.2-0.4,0.3-0.7,0.5-1c0.1-0.3,0.1-0.5-0.2-0.6c-0.8-0.3-1.7-0.6-2.5-0.9c-0.3-0.1-0.6-0.1-0.8,0.2c-0.5,0.7-1,1.3-1.5,2
		c-0.3,0.4-0.5,0.5-1.1,0.3c0.7-1,1.4-2,2.2-3.1c-0.6-0.4-1.2-0.7-1.8-1.1c-0.1-0.1-0.3,0.1-0.5,0.2c-1.3,1-2.4,2.2-3.4,3.6
		c-0.3,0.4-0.6,0.5-1.1,0.3c0.9-1.4,1.9-2.6,3-3.7c3.3-3.1,7.1-4.9,11.6-5.4C63.7,7.8,70.6,12.9,73.6,17.8z M56.3,14.2
		C56.4,14.2,56.4,14.2,56.3,14.2c0-0.3,0-0.5,0-0.8c0-1.4,0-1.4-1.4-1.5c-0.1,0-0.3,0.1-0.4,0.2c-0.8,1.1-1.5,2.2-2.3,3.4
		c-0.2,0.2-0.1,0.4,0.2,0.5c1.1,0.1,2.3,0.3,3.4,0.4c0.3,0,0.4-0.1,0.4-0.4C56.3,15.3,56.3,14.7,56.3,14.2z M61.2,15.8
		c0-0.2,0-0.2,0-0.2c-0.8-1.2-1.5-2.4-2.3-3.6c-0.2-0.2-1.5-0.1-1.6,0.2c0,0.1,0,0.2,0,0.3c0,1.1,0,2.2,0,3.4c0,0.3,0.1,0.5,0.5,0.5
		c0.5,0,0.9,0,1.3-0.1C59.8,16.1,60.5,15.9,61.2,15.8z M65.3,14.6c0-0.1,0-0.1,0-0.2c-1.2-1.2-2.5-2.2-3.9-3c-0.6-0.4-1-0.3-1.6,0.2
		c0.8,1.2,1.5,2.5,2.3,3.7c0.1,0.1,0.3,0.2,0.4,0.2C63.4,15.2,64.3,14.9,65.3,14.6z M48.2,14.3c0,0.1,0.1,0.2,0.1,0.3
		c0.9,0.3,1.9,0.6,2.8,0.9c0.1,0,0.3-0.1,0.3-0.2c0.7-1.1,1.5-2.3,2.2-3.4c0.1-0.1,0-0.3,0-0.4c-0.3-0.3-0.9-0.4-1.3-0.1
		c-1.2,0.8-2.3,1.7-3.5,2.6C48.6,14.1,48.4,14.2,48.2,14.3z M60.9,9.9c-2.8-0.6-5.6-0.6-8.3,0C54.3,11.6,58.9,11.7,60.9,9.9z
		 M45.6,13c0,0.1,0,0.1,0,0.2c0.5,0.3,1.1,0.6,1.6,0.9c0.1,0.1,0.3-0.1,0.5-0.1c1.3-1,2.6-2,3.9-3c0.1-0.1,0.2-0.3,0.2-0.3
		c-0.1-0.1-0.2-0.3-0.4-0.3s-0.3,0-0.5,0.1c-1.1,0.4-2.2,0.9-3.3,1.4C46.9,12.1,46.3,12.5,45.6,13z M68,13.1
		c-0.2-0.1-0.2-0.2-0.3-0.3c-1.6-1.1-3.3-2-5.2-2.5c-0.2,0-0.3-0.1-0.5-0.1c-0.1,0-0.2,0.1-0.3,0.3c0,0.1,0.1,0.2,0.2,0.3
		c1.5,0.9,2.8,1.9,4,3.1C66,14,66.2,14,66.3,14C66.9,13.7,67.4,13.4,68,13.1z"/>
	<path class="st0" d="M63.4,39.4c-0.2,0.4-0.3,0.7-0.4,1.1c-0.1,0.3-0.1,0.4,0.2,0.5c0.9,0.3,1.8,0.6,2.6,1c0.3,0.1,0.4,0,0.6-0.2
		c0.5-0.7,1.1-1.4,1.6-2.1c0.3-0.4,0.6-0.4,1.1-0.3c-0.7,1-1.4,2-2.2,3.1c0.6,0.4,1.2,0.7,1.9,1c0.1,0,0.4-0.1,0.5-0.2
		c1.3-1,2.4-2.3,3.3-3.6c0.3-0.4,0.6-0.5,1.1-0.3c-1.3,2-2.8,3.7-4.6,5.1c-3,2.3-6.5,3.7-10.3,4c-9.1,0.9-15.9-4.4-18.8-9.1
		c0.4-0.2,0.7-0.2,1,0.3c1,1.4,2.1,2.6,3.4,3.7c0.3,0.3,0.5,0.3,0.9,0.1c0.4-0.3,0.8-0.5,1.2-0.7c0.3-0.2,0.3-0.3,0.1-0.6
		c-0.6-0.8-1.1-1.5-1.7-2.3c-0.1-0.1-0.2-0.3-0.2-0.5c0.4-0.2,0.7-0.1,1,0.2c0.5,0.7,1.1,1.5,1.7,2.2c0.1,0.1,0.4,0.2,0.5,0.2
		c1-0.3,2-0.7,2.9-1c0.1,0,0.1-0.1,0.2-0.1c-0.2-0.5-0.4-0.9-0.6-1.4c0.5-0.2,0.8-0.2,1,0.3c0.5,1,0.5,0.9,1.5,0.8
		c1-0.1,2-0.3,3-0.3c0.3,0,0.5-0.1,0.5-0.5c0-0.1,0.2-0.3,0.3-0.3c0.2,0,0.5,0.2,0.5,0.3c0,0.4,0.2,0.4,0.5,0.5
		c1.2,0.1,2.5,0.3,3.7,0.5c0.3,0,0.5,0,0.6-0.3c0.1-0.2,0.2-0.4,0.3-0.6C62.6,39.3,62.9,39.2,63.4,39.4z M61.6,41.6
		c-0.2-0.1-0.2-0.2-0.3-0.2c-1.2-0.2-2.4-0.3-3.7-0.5c-0.3,0-0.3,0.2-0.3,0.4c0,0.9,0,1.8,0,2.7c0,1.6-0.2,1.1,1.3,1.4
		c0.1,0,0.4,0,0.4-0.2C59.9,44,60.7,42.8,61.6,41.6z M52.3,41.4c0,0.1-0.1,0.1-0.1,0.2c0.8,1.2,1.7,2.4,2.5,3.6
		c0.2,0.2,1.5,0.1,1.7-0.1c0-0.1,0-0.2,0-0.3c0-1.2,0-2.3,0-3.5c0-0.3-0.2-0.4-0.5-0.4c-0.5,0-0.9,0-1.3,0.1
		C53.9,41.1,53.1,41.3,52.3,41.4z M53.9,45.7c-0.8-1.3-1.6-2.6-2.4-3.8c0-0.1-0.2-0.1-0.3-0.1c-1,0.3-1.9,0.6-3,1
		c0.2,0.3,0.3,0.4,0.4,0.5c1.1,0.9,2.3,1.7,3.4,2.6C52.7,46.3,53.3,46.1,53.9,45.7z M59.9,45.7c0.6,0.4,1.1,0.6,1.7,0.1
		c1.1-0.9,2.3-1.7,3.4-2.6c0.1-0.1,0.2-0.3,0.4-0.5c-1-0.3-1.9-0.6-2.8-0.9c-0.1,0-0.4,0.1-0.5,0.2c-0.8,1.1-1.5,2.3-2.2,3.5
		C59.9,45.5,59.9,45.6,59.9,45.7z M52.7,47.4c2.8,0.6,5.6,0.6,8.4,0C59,45.6,54.6,45.7,52.7,47.4z M61.8,46.6
		c0.2,0.4,0.5,0.4,0.8,0.3c1.9-0.5,3.6-1.4,5.2-2.5c0.1-0.1,0.3-0.1,0.5-0.2c-0.6-0.5-1-0.7-1.4-1c-0.4-0.3-0.6-0.2-1,0.1
		c-1,0.8-2,1.7-3,2.5C62.5,46.2,62.2,46.4,61.8,46.6z M51.5,47c0.1-0.1,0.2-0.2,0.4-0.3c-0.1-0.1-0.2-0.3-0.3-0.3
		c-1-0.8-2.1-1.5-3.1-2.4c-1.2-1-1.1-1-2.4-0.2c-0.4,0.3-0.4,0.4,0,0.7c1.5,1.1,3.2,1.9,5,2.4C51.2,47,51.3,47,51.5,47z"/>
</g>
</svg>
