<?xml version="1.0" encoding="utf-8"?>
<!-- Generator: Adobe Illustrator 23.0.1, SVG Export Plug-In . SVG Version: 6.00 Build 0)  -->
<svg version="1.1" id="Layer_1" xmlns="http://www.w3.org/2000/svg" xmlns:xlink="http://www.w3.org/1999/xlink" x="0px" y="0px"
	 viewBox="0 0 296 173" style="enable-background:new 0 0 296 173;" xml:space="preserve">
<style type="text/css">
	.st0{fill:none;}
	.st1{fill:#555555;}
	.st2{fill:#FCFCFC;}
	.st3{fill:#B0B0B0;}
	.st4{fill:#F9F9F9;}
	.st5{fill:#F8F8F8;}
	.st6{fill:#8D8D8D;}
	.st7{fill:#8B8B8B;}
	.st8{fill:#8E8E8E;}
	.st9{fill:#8C8C8C;}
	.st10{fill:#929292;}
	.st11{fill:#FFFFFF;}
	.st12{fill:#8A8A8A;}
</style>
<g>
	<path class="st0" d="M82.9,124.2c1-0.6,2.1-1.2,3.1-1.7c0-1.2,0-2.3,0-3.5c0,1.2,0,2.3,0,3.5C84.9,123,83.9,123.6,82.9,124.2z"/>
	<path class="st1" d="M300,87.5C300,87.5,300,87.5,300,87.5l-78.6,0L300,87.5z"/>
	<path class="st2" d="M247.5,0L148,59.3v0l0,0l0,49.3c0,0.9,0,1.9,0,2.8c0,0.8,0,1.6-0.1,2.3l0.1,0v0l11.3,6.8
		c3.8-2.1,7.6-4.2,11.4-6.3c0,4.3,0,8.6,0,13.2l12.3,7.3c3.2-1.8,6.4-3.6,9.7-5.5c0,3.5,0,7.2,0,11.1c-0.3-0.1-0.5-0.1-0.8-0.2
		l6.6,3.9V90c0-0.3-0.1-0.6-0.1-1c0,0,0.1,0,0.1,0v-1.5h0l49.6-30.8c0,0,0,0,0,0c-0.1-0.1-0.2-0.3-0.2-0.4c0-18.7,0-37.5,0-56.2
		c-0.7,0-1.3,0-2,0c0,0,0,0,0,0H247.5z M159,66.2c3.8-2.3,7.7-4.6,11.9-7c0,4.6,0,9,0,14c-3.6,2.2-7.4,4.5-11.6,7
		C158.6,75.5,159.2,70.9,159,66.2z M171,100.7c-3.8,2.2-7.6,4.3-11.9,6.8c0-5.3,0-9.7,0-14.1c3.8-2.2,7.5-4.3,11.3-6.5
		c0.3,0.3,0.6,0.6,0.6,0.8C171,92,171,96.3,171,100.7z M192.8,115.6c-3.6,2.1-7.3,4.2-11.4,6.7c-0.9-4.7-0.1-9.2-0.5-14
		c4.1-2.3,7.8-4.4,11.9-6.7C192.8,106.6,192.8,111,192.8,115.6z M192.8,88.1c-3.5,2.1-7.5,4.4-11.7,6.9c0-4.6,0-9,0-14.1
		c3.5-2.1,7.5-4.4,11.7-6.9C192.8,78.6,192.8,83,192.8,88.1z M193,60.5c-3.9,2.3-7.6,4.5-11.9,7.1c0-5.4,0-9.8,0-14.2
		c3.8-2.2,7.5-4.3,11.3-6.5c0.3,0.3,0.6,0.6,0.6,0.8C193,52,193,56.3,193,60.5z M203,41.5c3-3.5,8-4.3,11.7-7.7c0,4.8,0,9.4,0,14.1
		c-3.7,2.3-7.5,4.7-11.7,7.3C203,50.3,203,46,203,41.5z M215,75.6c-3.9,2.3-7.7,4.4-11.9,6.8c0-5.2,0-9.6,0-14.2
		c3.8-2.1,7.5-4.3,11.3-6.4c0.3,0.5,0.6,0.7,0.6,1C215,67.1,215,71.4,215,75.6z M225,28.2c3.7-2.1,7.5-4.3,11.8-6.8
		c0,5.1,0,9.5,0,14.1c-3.6,2-7.5,4.2-11.8,6.6C225,37.2,225,32.9,225,28.2z M236.8,62.8c-3.5,2.1-7.2,4.6-11.7,6.5
		c0-4.9,0-9.4,0-13.9c4-2.2,7.7-4.3,11.7-6.5C236.8,53.6,236.8,58,236.8,62.8z"/>
	<path class="st1" d="M148,0C148,0,148,0,148,0l0,50.9L148,0z"/>
	<path class="st1" d="M246,0C246,0,246,0,246,0c-0.1,0-0.2,0-0.4,0l0,0H246z"/>
	<path class="st1" d="M148,173C148,173,148,173,148,173l0-50.8L148,173z"/>
	<path class="st1" d="M0,87.5C0,87.5,0,87.5,0,87.5l74,0L0,87.5z"/>
	<path class="st2" d="M97.2,143.7c-0.1-0.1-0.2-0.3-0.2-0.4c0-18.6,0-37.2,0-55.7l-0.1-0.1L0,147.7c0,8.4,0,16.9,0,25.3
		c9.7,0,19.3,0,29,0c0-1.5,0-3,0-4.5c4.1-2.4,8.1-4.9,13-7.3c0,4.5,0,8.1,0,11.8c2.2,0,4.4,0,6.6,0l48.8-29.1
		C97.3,143.8,97.2,143.7,97.2,143.7z M17.9,161.6c-3.3,1.9-6.7,3.7-10.5,5.8c-0.9-4.5-0.2-8.7-0.5-12.8c3.5-3.6,8-5.4,12.6-7.9
		c0.8,4.4,0.2,8.6,0.5,12.8C19.3,160.2,18.7,161.1,17.9,161.6z M41.8,147.6c-3.9,2.3-8.1,4.8-12.7,7.5c0-5,0-9.4,0-14.1
		c4.1-2.4,8.2-4.8,12.7-7.4C41.8,138.5,41.8,142.9,41.8,147.6z M51.2,128.4c4-2.3,8.2-4.8,12.7-7.4c0,4.5,0,9,0,13.8
		c-4.1,2.5-8,5.3-12.7,7.4C51.2,137.4,51.2,133,51.2,128.4z M51.2,169.4c0-4.7,0-8.8,0-13.5c3.7-2.2,7.8-4.6,12.4-7.3
		c0.9,4.9,0.1,9.4,0.5,14C59.6,164.9,55.8,167.6,51.2,169.4z M85.8,149.8c-3.6,2.2-7.6,4.6-11.6,7c-0.2-0.2-0.6-0.6-1.1-1.1
		c0-3.9,0-8,0-12.5c4.2-2.4,8.3-4.7,12.7-7.1C85.8,140.5,85.8,145,85.8,149.8z M86,115.5c0.1,1.2,0.1,2.3,0.1,3.5c0,1.2,0,2.3,0,3.5
		c-1.1,0.5-2.1,1.1-3.1,1.7c-3.1,1.8-6.1,3.8-9.7,5c0-4.5,0-8.6,0-13.3c3.7-2.2,7.8-4.7,12.3-7.4C86.4,111.1,85.9,113.3,86,115.5z"
		/>
	<path class="st2" d="M94.5,86l2.4,1.5h0L94.5,86C94.5,86,94.5,86,94.5,86z"/>
	<path class="st3" d="M198.6,90v-1c0,0-0.1,0-0.1,0C198.5,89.3,198.5,89.7,198.6,90z"/>
	<path class="st2" d="M19.5,28.5c0.8,2.5,0.4,4.6,0.5,6.6c0.1,1.5,0,3,0,4.6l13.2,8.2c1.1-0.6,2.2-1.3,3.3-1.9
		c1.6-0.9,3.2-1.6,5.3-2.6c0,3.5,0,6.6,0,9.8l8.3,5.2c0,0,0,0,0,0l-0.1,0l0.1-57.4L48.5,0c-2.2,0-4.4,0-6.5,0
		c0.4,2.1-1.3,3.1-2.5,3.9c-3.1,2-6.5,3.5-9.9,5.4C28.5,7.6,29.1,6,29,4.5c-0.1-1.5,0-3,0-4.5C19.3,0,9.7,0,0,0c0,9.1,0,18.2,0,27.3
		l10.4,6.4C13.2,32.1,16.3,30.4,19.5,28.5z M29.2,23c4-2.3,8-4.7,12.5-7.3c0.8,4.7,0.1,9.2,0.4,14c-4.2,2.4-8.4,4.8-12.9,7.3
		C29.2,32.4,29.2,28,29.2,23z M7.2,8.1c4.2-2.4,8.3-4.7,12.7-7.2c0,4.7,0,9.1,0,14c-4,2.2-8.2,4.7-12.7,7.2C7.2,17.4,7.2,13,7.2,8.1
		z"/>
	<path class="st3" d="M248.2,56.6C248.2,56.7,248.2,56.7,248.2,56.6l3.8-2.4c0-3.3,0-6.7,0-10.3c4.1,0,6.3,3.8,9.8,4.2l12.2-7.6
		c0-3.8,0-7.7,0-12c3.7,2,7.4,3.1,10.3,5.6l11.7-7.3c0-8.9,0-17.9,0-26.9c-10.3,0-20.7,0-31,0c0,2.9,0,5.9,0,9.4
		c-1.1-0.6-1.7-0.9-2.4-1.2c-2.7-1.4-5.6-2.6-8.1-4.3c-1.2-0.8-2.9-1.8-2.5-3.9c-1.3,0-2.7,0-4,0c0,18.7,0,37.5,0,56.2
		C248,56.4,248.1,56.5,248.2,56.6z M274.2,1.9c5.1,0.4,8.2,4.5,12.6,5.9c0,4.8,0,9.3,0,14.4c-4.4-2.6-8.4-5-12.6-7.4
		C274.2,10.6,274.2,6.4,274.2,1.9z M252.2,15.6c4.5,2.6,8.6,5,12.6,7.3c0,4.8,0,9.3,0,14c-4.3-2.4-8.5-4.8-12.6-7.1
		C252.2,25.2,252.2,20.7,252.2,15.6z"/>
	<path class="st6" d="M29,168.5c0,1.5,0,3,0,4.5c4.3,0,8.7,0,13,0c0-3.6,0-7.2,0-11.8C37.1,163.6,33.1,166.1,29,168.5z"/>
	<path class="st7" d="M254.5,3.9c2.6,1.7,5.4,2.9,8.1,4.3c0.6,0.3,1.3,0.7,2.4,1.2c0-3.5,0-6.4,0-9.4c-4.3,0-8.7,0-13,0
		C251.6,2.1,253.3,3.1,254.5,3.9z"/>
	<path class="st8" d="M29,4.5c0.1,1.5-0.5,3.2,0.6,4.8c3.5-1.8,6.8-3.4,9.9-5.4C40.7,3.1,42.4,2.1,42,0c-4.3,0-8.7,0-13,0
		C29,1.5,28.9,3,29,4.5z"/>
	<path class="st9" d="M274,28.6c0,4.3,0,8.2,0,12l10.3-6.4C281.4,31.7,277.7,30.6,274,28.6z"/>
	<path class="st6" d="M252,44c0,3.6,0,7,0,10.3l9.8-6.1C258.3,47.7,256.1,44,252,44z"/>
	<path class="st3" d="M94.5,86L50.1,58.4c0,0,0,0,0,0L94.5,86C94.5,86,94.5,86,94.5,86z"/>
	<path class="st3" d="M104.1,139.7c0-3.5,0-6.9,0-10.8c3.1,2.2,6.4,3.5,9.2,5.6l13.2-7.9c-0.2-0.5-0.4-1.1-0.4-1.6
		c-0.1-3.5,0-7,0-10.7c3.7,2,7.3,4,11,6l10.9-6.5c0.1-0.8,0.1-1.5,0.1-2.3c0-0.9,0-1.9,0-2.8l0,1.9l-7.5,2.3L97,87.6
		c0,18.5,0,37.1,0,55.7c0,0.1,0.1,0.3,0.2,0.4c0.1,0.1,0.1,0.1,0.2,0.2l6.8-4.1C104.2,139.8,104.1,139.7,104.1,139.7z M104.1,101.8
		c4.4,1.6,7.8,4.6,11.8,6.1c0,4.8,0,9.3,0,14.2c-4.5-1.5-7.7-4.8-11.8-6C104.1,111.2,104.1,106.8,104.1,101.8z"/>
	<path class="st7" d="M181.2,95c4.2-2.5,8.1-4.8,11.7-6.9c0-5.1,0-9.5,0-14.1c-4.2,2.5-8.1,4.8-11.7,6.9
		C181.2,86,181.2,90.4,181.2,95z"/>
	<path class="st7" d="M170.4,86.9c-3.7,2.1-7.5,4.3-11.3,6.5c0,4.4,0,8.9,0,14.1c4.3-2.5,8.1-4.6,11.9-6.8c0-4.4,0-8.7,0-13
		C171,87.5,170.6,87.2,170.4,86.9z"/>
	<path class="st7" d="M214.4,61.8c-3.8,2.1-7.5,4.3-11.3,6.4c0,4.6,0,9,0,14.2c4.2-2.4,8-4.6,11.9-6.8c0-4.2,0-8.5,0-12.8
		C215,62.5,214.7,62.3,214.4,61.8z"/>
	<path class="st7" d="M181.4,122.3c4.1-2.4,7.9-4.6,11.4-6.7c0-4.6,0-9,0-14c-4.1,2.3-7.8,4.4-11.9,6.7
		C181.3,113,180.5,117.6,181.4,122.3z"/>
	<path class="st7" d="M225.2,69.3c4.4-2,8.1-4.4,11.7-6.5c0-4.8,0-9.2,0-13.9c-4,2.2-7.7,4.3-11.7,6.5
		C225.2,60,225.2,64.4,225.2,69.3z"/>
	<path class="st7" d="M192.4,46.9c-3.7,2.1-7.5,4.3-11.3,6.5c0,4.4,0,8.9,0,14.2c4.3-2.6,8-4.8,11.9-7.1c0-4.2,0-8.5,0-12.8
		C193,47.5,192.6,47.2,192.4,46.9z"/>
	<path class="st7" d="M214.8,33.8c-3.7,3.4-8.8,4.1-11.7,7.7c0,4.5,0,8.8,0,13.7c4.2-2.6,8-5,11.7-7.3
		C214.8,43.1,214.8,38.6,214.8,33.8z"/>
	<path class="st7" d="M236.8,21.4c-4.3,2.5-8.1,4.7-11.8,6.8c0,4.7,0,9,0,14c4.3-2.4,8.1-4.6,11.8-6.6
		C236.8,31,236.8,26.5,236.8,21.4z"/>
	<path class="st7" d="M159.3,80.1c4.2-2.5,8-4.9,11.6-7c0-5,0-9.4,0-14c-4.2,2.5-8.1,4.8-11.9,7C159.2,70.9,158.6,75.5,159.3,80.1z"
		/>
	<path class="st8" d="M170.8,114.1c-3.9,2.2-7.6,4.2-11.4,6.3l11.4,6.8C170.8,122.8,170.8,118.4,170.8,114.1z"/>
	<path class="st9" d="M192.8,140.2c0-3.9,0-7.5,0-11.1c-3.3,1.9-6.5,3.7-9.7,5.5l8.9,5.3C192.2,140,192.5,140.1,192.8,140.2z"/>
	<path class="st7" d="M126,114.2c0,3.7-0.1,7.2,0,10.7c0,0.6,0.2,1.1,0.4,1.6l10.6-6.3C133.3,118.2,129.7,116.3,126,114.2z"/>
	<path class="st9" d="M104.1,128.9c0,3.9,0,7.3,0,10.8c0.1,0,0.1,0.1,0.2,0.1l9-5.4C110.4,132.4,107.1,131.1,104.1,128.9z"/>
	<path class="st6" d="M20,35.1c-0.1-2.1,0.4-4.2-0.5-6.6c-3.3,1.9-6.3,3.6-9.1,5.2l9.6,6C20,38.2,20,36.7,20,35.1z"/>
	<path class="st10" d="M41.8,43.4c-2.1,1-3.7,1.8-5.3,2.6c-1.1,0.6-2.2,1.2-3.3,1.9l8.6,5.3C41.8,50,41.8,46.9,41.8,43.4z"/>
	<path class="st9" d="M29.1,155.2c4.6-2.7,8.8-5.2,12.7-7.5c0-4.8,0-9.2,0-14c-4.5,2.6-8.6,5-12.7,7.4
		C29.1,145.7,29.1,150.2,29.1,155.2z"/>
	<path class="st9" d="M63.8,121c-4.4,2.6-8.6,5-12.7,7.4c0,4.6,0,9,0,13.9c4.7-2.1,8.5-4.9,12.7-7.4C63.8,130,63.8,125.6,63.8,121z"
		/>
	<path class="st9" d="M63.6,148.6c-4.6,2.7-8.7,5.1-12.4,7.3c0,4.8,0,8.9,0,13.5c4.7-1.8,8.4-4.6,12.9-6.9
		C63.7,158,64.5,153.4,63.6,148.6z"/>
	<path class="st9" d="M73.2,155.7c0.5,0.5,0.9,0.9,1.1,1.1c4-2.4,7.9-4.8,11.6-7c0-4.8,0-9.3,0-13.8c-4.3,2.4-8.5,4.8-12.7,7.1
		C73.2,147.7,73.2,151.8,73.2,155.7z"/>
	<path class="st9" d="M85.5,108.5c-4.5,2.7-8.6,5.2-12.3,7.4c0,4.8,0,8.9,0,13.3c3.6-1.2,6.6-3.3,9.7-5c1-0.6,2.1-1.2,3.1-1.7
		c0-1.2,0-2.3,0-3.5c0-1.2,0-2.3-0.1-3.5C85.9,113.3,86.4,111.1,85.5,108.5z"/>
	<path class="st9" d="M19.6,146.7c-4.6,2.5-9.2,4.2-12.6,7.9c0.3,4.1-0.4,8.3,0.5,12.8c3.8-2.1,7.2-3.9,10.5-5.8
		c0.8-0.5,1.4-1.3,2.2-2C19.7,155.3,20.4,151.1,19.6,146.7z"/>
	<path class="st9" d="M41.6,15.7c-4.5,2.6-8.5,4.9-12.5,7.3c0,5,0,9.4,0,14c4.5-2.5,8.7-4.9,12.9-7.3C41.7,24.9,42.4,20.4,41.6,15.7
		z"/>
	<path class="st9" d="M19.8,0.9c-4.4,2.5-8.5,4.8-12.7,7.2c0,4.9,0,9.3,0,14c4.5-2.5,8.7-4.9,12.7-7.2C19.8,10,19.8,5.6,19.8,0.9z"
		/>
	<path class="st7" d="M264.8,23c-4.1-2.4-8.2-4.8-12.6-7.3c0,5.1,0,9.6,0,14.2c4.2,2.4,8.3,4.7,12.6,7.1
		C264.8,32.3,264.8,27.8,264.8,23z"/>
	<path class="st7" d="M286.8,7.9c-4.4-1.4-7.5-5.6-12.6-5.9c0,4.5,0,8.7,0,12.9c4.2,2.5,8.3,4.9,12.6,7.4
		C286.8,17.2,286.8,12.7,286.8,7.9z"/>
	<path class="st7" d="M115.9,108c-4-1.5-7.4-4.5-11.8-6.1c0,4.9,0,9.4,0,14.3c4.1,1.3,7.3,4.6,11.8,6
		C115.9,117.2,115.9,112.8,115.9,108z"/>
	<path class="st11" d="M221.9,14.6c-2.3,1.3-4.7,2.4-7,3.7L148,58.2v0.1l0,0l0,0.6l0,0.4L247.5,0H246c-4.1,3-8.6,5.4-12.9,8
		C229.4,10.2,225.6,12.5,221.9,14.6z"/>
	<path class="st11" d="M221.9,14.6c3.8-2.2,7.5-4.4,11.3-6.6c4.3-2.6,8.8-5,12.9-8h-0.4l-30.8,18.4
		C217.2,17.1,219.6,15.9,221.9,14.6z"/>
	<path class="st11" d="M146.9,57.6c0.2,0.1,0.3,0.3,0.5,0.4l0.6,0.3v-0.1L146.9,57.6z"/>
	<polygon class="st11" points="148,59.3 148,59.3 148,59.3 148,59.3 	"/>
	<polygon class="st11" points="148,53 148,50.9 148,0 148,0 	"/>
	<path class="st11" d="M98.2,28.5L51.4,0.6c0.1,0.1,0.2,0.3,0.3,0.4l39.4,23.5C93.5,25.8,95.9,27.2,98.2,28.5z"/>
	<path class="st11" d="M50.1,0c-0.5,0-1,0-1.6,0l1.6,0.9L50.1,0z"/>
	<path class="st11" d="M51.4,0.6L50.4,0c-0.1,0-0.2,0-0.3,0l1.7,1C51.6,0.9,51.5,0.8,51.4,0.6z"/>
	<path class="st11" d="M147.5,58c-0.2-0.1-0.4-0.3-0.5-0.4l-48.7-29c-2.4-1.4-4.7-2.7-7.1-4.1L147.5,58z"/>
	<polygon class="st11" points="148,59.3 148,59.3 148,58.9 	"/>
	<polygon class="st11" points="148,58.2 148,58.2 148,58.3 148,58.3 148,58.2 148,58.2 	"/>
	<path class="st1" d="M148,54.1L148,0h97.6l0,0c-32.5,0-65.1,0-97.6,0l0,50.9L148,54.1z"/>
	<path class="st1" d="M214.9,18.4c-0.4,0.2-0.8,0.4-1.2,0.7c-6,3.6-12.2,6.9-18.1,10.8c-3.1,2-6.6,3.4-9.8,5.2
		c-5.3,3-10.4,6.2-15.7,9.3c-2.9,1.7-6,3.3-8.9,5c-3.9,2.2-7.8,4.4-11.8,6.7c-0.5,0-0.9,0-1.4,0l0,2.2L214.9,18.4z"/>
	<path class="st1" d="M149.4,56c4-2.3,7.9-4.5,11.8-6.7c3-1.7,6-3.2,8.9-5c5.2-3.1,10.4-6.3,15.7-9.3c3.2-1.8,6.7-3.2,9.8-5.2
		c5.9-3.9,12.1-7.2,18.1-10.8c0.4-0.2,0.8-0.4,1.2-0.7L245.6,0H148l0,54.1l0,1.9C148.5,56,149,56,149.4,56z"/>
	<polygon class="st1" points="148,56 148,56 148,56.3 	"/>
	<polygon class="st1" points="148,56 148,54.1 148,50.9 148,53 148,56 	"/>
	<polygon class="st1" points="148,58.2 148,58.2 148,56 148,56 148,56.3 	"/>
	<polygon class="st1" points="148,56 148,54.1 148,56 	"/>
	<path class="st1" d="M148,58.2L148,58.2L148,58.2l0-2.2c-1,0-2,0-3,0c0.6,0.5,1.2,1,1.9,1.6L148,58.2z"/>
	<path class="st1" d="M98.2,28.5c2.4,1.4,4.9,2.8,7.3,4.2c5.2,3,10.4,6.1,15.7,9.1c5.8,3.2,11.9,6.1,17.3,10.1
		c1.3,1,3.1,1.3,4.6,2.1c0.8,0.4,1.3,1.3,1.9,2c1,0,2,0,3,0l0-3l0-53c-32.3,0-64.7,0-97,0c0.2,0.2,0.3,0.4,0.4,0.6L98.2,28.5z"/>
	<path class="st1" d="M51,0c-0.2,0-0.4,0-0.6,0l1.1,0.6C51.3,0.4,51.2,0.2,51,0z"/>
	<path class="st1" d="M145,56c-0.6-0.7-1.1-1.5-1.9-2c-1.5-0.8-3.3-1.1-4.6-2.1c-5.4-4-11.5-6.9-17.3-10.1
		c-5.3-2.9-10.4-6.1-15.7-9.1c-2.4-1.4-4.9-2.8-7.3-4.2l48.7,29C146.2,57,145.6,56.5,145,56z"/>
	<polygon class="st1" points="148,58.2 148,58.2 148,58.2 148,58.2 	"/>
	<polygon class="st1" points="148,58.2 148,56.3 148,56 148,56 148,58.2 	"/>
	<polygon class="st1" points="148,56 148,53 148,56 	"/>
	<polygon class="st1" points="148,56.3 148,58.2 148,58.2 	"/>
	<path class="st3" d="M274.1,146.9c0,4.3,0,8.3,0,12.8c0,0,0,0,0.1,0.1L274.1,146.9C274.2,146.9,274.1,146.9,274.1,146.9z"/>
	<path class="st3" d="M208.2,122.5c3.7,2.1,7,4.4,10.9,6l-10.9-6.4C208.2,122.2,208.2,122.3,208.2,122.5z"/>
	<path class="st3" d="M220.8,129.2C220.8,129.2,220.8,129.2,220.8,129.2c0-4.4,0-8.5,0-13c0,0,0,0,0,0V129.2z"/>
	<path class="st3" d="M284.4,166c0.5,0.2,1.1,0.5,1.7,0.8l-11.6-6.8C277.4,162.5,280.8,164.4,284.4,166z"/>
	<path class="st3" d="M208.2,136c-0.1,0-0.1-0.1-0.2-0.1c0,4.8,0,9.2,0,13.6l0.2,0.1V136z"/>
	<path class="st3" d="M252.6,134.1l12.2,7.2V155c0,0,0.1,0,0.1,0.1c0-4.8,0-9.3,0-13.8c-2.1-1.4-4.1-2.8-6.3-4.1
		C256.8,136.1,254.8,135.2,252.6,134.1z"/>
	<path class="st3" d="M230,122c0,4.4,0,8.4,0,12.7c0.1,0.1,0.1,0.1,0.2,0.1V122C230.1,122,230.1,122,230,122z"/>
	<path class="st3" d="M286.8,153.4v13.8c0,0,0,0,0.1,0C286.9,162.3,286.9,157.8,286.8,153.4c-0.2-0.1-0.4-0.2-0.6-0.4L286.8,153.4z"
		/>
	<path class="st3" d="M242.8,142.5c0-0.1,0-0.2,0-0.2l-12.4-7.3C234,138,238.5,139.7,242.8,142.5z"/>
	<path class="st3" d="M233,122.6c-0.1-0.1-0.3-0.1-0.4-0.1l9.1,5.3C238.7,126,235.9,124.2,233,122.6z"/>
	<path class="st3" d="M220.8,156C220.9,156,220.9,156,220.8,156c0.1-4.4,0.1-8.5,0.1-12.8c-2.4-1.4-4.9-2.8-7.4-4.2l7.3,4.3V156z"/>
	<path class="st3" d="M252.2,133.8C252.1,133.8,252.1,133.8,252.2,133.8c-0.1,4.9-0.1,9.4-0.1,14c3.4,1.9,6.9,3.9,10.5,5.9
		l-10.4-6.1V133.8z"/>
	<path class="st3" d="M200,89c4.5,2.3,8.9,5,13.3,7.6l-13.3-8.3C199.9,88.5,199.9,88.7,200,89z"/>
	<path class="st3" d="M200.6,145.1c-0.4-0.5-1-1-1.6-1.6c0-6,0-12.3,0-18.6c0-10.3,0-20.6,0-31c0-1.2-0.2-2.5-0.4-3.9v53.9
		L200.6,145.1z"/>
	<path class="st3" d="M199.9,88.3l-1.3-0.8V89c0.3,0,0.9,0,1.4,0C199.9,88.7,199.9,88.5,199.9,88.3z"/>
	<path class="st3" d="M243.5,170.6c-0.2-0.2-0.3-0.4-0.5-0.6c-0.2,0-0.3,0.1-0.5,0.1L243.5,170.6z"/>
	<path class="st3" d="M239.7,168.3c-1.1-0.7-2.3-1.3-3.5-1.9l4.1,2.5C240.2,168.6,240,168.4,239.7,168.3z"/>
	<path class="st3" d="M213.3,96.6c-4.4-2.6-8.7-5.3-13.3-7.6c-0.6,0-1.1,0-1.4,0v1c0.2,1.4,0.4,2.7,0.4,3.9c0,10.3,0,20.6,0,31
		c0,6.3,0,12.6,0,18.6c0.5,0.6,1.2,1.1,1.6,1.6l7.4,4.4c0-4.4,0-8.8,0-13.6c0.1,0,0.1,0.1,0.2,0.1v-0.1l5.3,3.1
		c2.5,1.4,5,2.8,7.4,4.2c0,4.3,0,8.4,0,12.8c0,0-0.1,0-0.1,0v1.1l-1.5-0.9l10.7,6.4c0-4.5,0-9,0-13.9c4.8,2.1,8.7,4.9,13,7.6
		c0,4.5,0,9.1,0,13.8c0.2,0.2,0.3,0.4,0.5,0.6l3.9,2.4c1.5,0,3.1,0,4.6,0c0-3.6,0-7.2,0-11.5c4.8,1.8,8.6,4.6,13,6.9
		c0,1.3,0,3,0,4.6c10.3,0,20.7,0,31,0c0-8.3,0-16.6,0-25L213.3,96.6z M220.8,129.2C220.8,129.2,220.8,129.2,220.8,129.2l0,0.3
		l-1.7-1c-3.8-1.6-7.1-4-10.9-6c0-0.1,0-0.2,0-0.3l0,0v-13.9l12.7,7.4v0.5c0,0,0,0,0,0C220.8,120.6,220.8,124.7,220.8,129.2z
		 M242.8,142.3L242.8,142.3c0,0.1,0,0.1,0,0.2c-4.4-2.8-8.9-4.5-12.4-7.5l-0.2-0.1v-0.1c-0.1-0.1-0.1-0.1-0.2-0.1
		c0-4.2,0-8.2,0-12.7c0.1,0,0.1,0,0.2,0v-1l2.5,1.4c0.1,0,0.3,0.1,0.4,0.1c2.9,1.6,5.7,3.4,8.7,5.2l1.1,0.7V142.3z M264.9,155.1
		C264.9,155,264.9,155,264.9,155.1L264.9,155.1l-2.4-1.3c-3.6-2-7-4-10.5-5.9c0-4.6,0-9,0-14c0,0,0.1,0,0.1,0v0l0.5,0.3
		c2.1,1.1,4.1,2,6,3.1c2.2,1.3,4.2,2.7,6.3,4.1C264.9,145.8,264.9,150.2,264.9,155.1z M286.9,167.2
		C286.9,167.2,286.9,167.2,286.9,167.2L286.9,167.2l-0.8-0.4c-0.6-0.3-1.2-0.6-1.7-0.8c-3.6-1.6-6.9-3.5-9.9-6l-0.3-0.2v-0.1
		c0,0,0,0-0.1-0.1c0-4.6,0-8.5,0-12.8c0,0,0,0,0.1,0V146l12.1,7.1c0.2,0.1,0.4,0.2,0.7,0.3C286.9,157.8,286.9,162.3,286.9,167.2z"/>
	<path class="st11" d="M228.9,70.5c-0.1,0.1-0.3,0.1-0.4,0.2c-5.3,2.9-10.3,6.3-15.7,9c-3.9,2-7.6,4.2-11.4,6.4
		c-0.6,0.3-1.1,0.8-1.3,1.3l1.5,0L228.9,70.5z"/>
	<path class="st11" d="M252,56c-0.7,0.3-1.3,0.7-2,1c-0.1,0.3-0.3,0.5-0.5,0.7l3.7-2.3C252.8,55.6,252.4,55.8,252,56z"/>
	<path class="st11" d="M201.4,86.1c3.7-2.2,7.5-4.4,11.4-6.4c5.4-2.7,10.4-6.1,15.7-9c0.1-0.1,0.3-0.1,0.4-0.2l20.7-12.8
		c0.2-0.2,0.3-0.4,0.5-0.7c-0.5,0-1,0-1.5,0c-0.1-0.1-0.2-0.2-0.3-0.3l-49.6,30.8l1.5,0C200.4,86.9,200.9,86.4,201.4,86.1z"/>
	<path class="st11" d="M285.5,35.4l10.5-6.5c0-0.6,0-1.2,0-1.9l-11.7,7.3C284.7,34.6,285.1,35,285.5,35.4z"/>
	<path class="st11" d="M262,49.9l12-7.5c0-0.6,0-1.2,0-1.9l-12.2,7.6c0.1,0,0.2,0,0.2,0C262,49,262,49.5,262,49.9z"/>
	<path class="st11" d="M248.5,57c0.5,0,1,0,1.5,0c0.7-0.3,1.3-0.7,2-1c0-0.6,0-1.1,0-1.7l-3.8,2.4C248.3,56.8,248.4,56.9,248.5,57z"
		/>
	<path class="st11" d="M285.5,35.4c-0.4-0.4-0.8-0.8-1.2-1.1L274,40.6c0,0.6,0,1.3,0,1.9L285.5,35.4z"/>
	<path class="st11" d="M253.2,55.4l8.8-5.4c0-0.5,0-1,0-1.7c-0.1,0-0.2,0-0.2,0l-9.8,6.1c0,0.6,0,1.1,0,1.7
		C252.4,55.8,252.8,55.6,253.2,55.4z"/>
	<polygon class="st11" points="215.7,87.5 300,87.5 300,87.5 221.4,87.5 	"/>
	<path class="st11" d="M236.6,110.1c5.7,3.2,11.3,6.5,17,9.7c0.1,0.1,0.3,0.2,0.4,0.2l-52.4-32.5l-1.5,0c-0.1,0.3-0.2,0.5-0.2,0.8
		l13.3,8.3c2.4,1.4,4.8,2.9,7.3,4.2C226,103.8,231.2,107,236.6,110.1z"/>
	<path class="st11" d="M200.1,87.5l-1.5,0l0,0h0l1.3,0.8C199.9,88,200,87.7,200.1,87.5z"/>
	<path class="st11" d="M253.6,119.8c-5.7-3.2-11.3-6.5-17-9.7c-5.4-3-10.6-6.3-16.1-9.3c-2.5-1.3-4.9-2.8-7.3-4.2L296,148
		c0-0.6,0-1.2,0-1.9L254,120C253.8,119.9,253.7,119.9,253.6,119.8z"/>
	<polygon class="st11" points="199.9,88.3 199.9,88.3 213.3,96.6 213.3,96.6 	"/>
	<polygon class="st11" points="199.9,88.3 198.6,87.5 199.9,88.3 	"/>
	<polygon class="st11" points="213.3,96.6 213.3,96.6 296,148 296,148 	"/>
	<polygon class="st11" points="201.6,87.5 201.6,87.5 201.6,87.5 200.1,87.5 200.1,87.5 201.6,87.5 	"/>
	<polygon class="st11" points="200.1,87.5 200.1,87.5 198.6,87.5 198.6,87.5 	"/>
	<polygon class="st1" points="212.9,87.5 221.4,87.5 300,87.5 300,87.5 	"/>
	<path class="st1" d="M293,32c-2.2,1.6-3.9,3.9-7,4c-1.7,1.2-3.2,2.8-5.1,3.5c-2.5,0.9-4.1,3.4-6.9,3.5c-1.7,1.2-3.2,2.8-5.1,3.5
		c-2.5,0.9-4.1,3.4-6.9,3.5c-2.7,2.1-5.7,3.9-8.8,5.4l-3.7,2.3c-0.7,1-1.7,1.7-2.9,2.4c-5.9,3.5-11.8,7.1-17.7,10.4l-27.3,16.9
		l11.3,0l87.1,0c0-18.2,0-36.3,0-54.5c-0.9-0.6-1.7-1.3-2.6-1.9C296,31.4,294.5,31.7,293,32z"/>
	<path class="st1" d="M249.5,57.7l-20.7,12.8c6-3.3,11.8-6.9,17.7-10.4C247.8,59.4,248.8,58.7,249.5,57.7z"/>
	<path class="st1" d="M286,36c3.1-0.1,4.8-2.4,7-4c0.9-0.8,1.8-1.5,3-2.5c0-0.2,0-0.5,0-0.7l-10.5,6.5C285.6,35.6,285.8,35.8,286,36
		z"/>
	<path class="st1" d="M268.9,46.5c1.9-0.7,3.4-2.3,5.1-3.5c0-0.2,0-0.3,0-0.5l-12,7.5c0,0,0,0,0,0.1
		C264.8,49.9,266.4,47.4,268.9,46.5z"/>
	<path class="st1" d="M293,32c1.5-0.3,3-0.6,4.4-0.9c0.8,0.6,1.7,1.3,2.6,1.9c0-2.2,0-4.4,0-6.7l-4,2.5c0,0.2,0,0.5,0,0.7
		C294.8,30.5,293.9,31.2,293,32z"/>
	<path class="st1" d="M280.9,39.5c1.9-0.7,3.4-2.3,5.1-3.5c-0.2-0.2-0.4-0.4-0.5-0.6L274,42.5c0,0.2,0,0.3,0,0.5
		C276.8,42.9,278.4,40.4,280.9,39.5z"/>
	<path class="st1" d="M262,49.9l-8.8,5.4C256.3,53.9,259.3,52.1,262,49.9C262,50,262,50,262,49.9z"/>
	<polygon class="st1" points="215.7,87.5 221.4,87.5 212.9,87.5 207.1,87.5 	"/>
	<polygon class="st1" points="201.6,87.5 207.1,87.5 212.9,87.5 201.6,87.5 	"/>
	<path class="st1" d="M201.6,87.5L201.6,87.5L254,120c5.1,2.9,10.2,5.9,15.3,8.8c8,4.5,16.4,8.5,23.8,14.2c1.3,0.2,2.7,0.5,4.4,0.8
		c0.6-0.4,1.6-1.1,2.6-1.8c0-18.2,0-36.4,0-54.5l-84.3,0L201.6,87.5L201.6,87.5z"/>
	<path class="st1" d="M293,143c-7.4-5.6-15.7-9.6-23.8-14.2c-5.1-2.9-10.2-5.9-15.3-8.8l42,26.1c0-0.2,0-0.4,0-0.7
		C295.1,144.7,294,143.8,293,143z"/>
	<path class="st1" d="M293,143c1,0.8,2.1,1.7,3,2.5c0,0.2,0,0.4,0,0.7l4,2.5c0-2.2,0-4.4,0-6.6c-1,0.7-2,1.4-2.6,1.8
		C295.7,143.5,294.3,143.2,293,143z"/>
	<polygon class="st1" points="201.6,87.5 201.6,87.5 201.6,87.5 201.6,87.5 	"/>
	<polygon class="st1" points="201.6,87.5 201.6,87.5 215.7,87.5 207.1,87.5 	"/>
	<polygon class="st1" points="207.1,87.5 201.6,87.5 201.6,87.5 	"/>
	<path class="st7" d="M265,168.4c-4.4-2.3-8.2-5.1-13-6.9c0,4.3,0,7.9,0,11.5c4.3,0,8.7,0,13,0C265,171.4,265,169.8,265,168.4z"/>
	<path class="st7" d="M239.7,168.3c0.2,0.1,0.5,0.3,0.7,0.5l2.1,1.3c0.2,0,0.3,0,0.5-0.1c0-4.6,0-9.2,0-13.8
		c-4.3-2.6-8.2-5.4-13-7.6c0,5,0,9.5,0,13.9l6.3,3.7C237.4,167,238.6,167.6,239.7,168.3z"/>
	<path class="st9" d="M208.2,108.6c0,5.1,0,9.5,0,13.6l10.9,6.4c0.6,0.2,1.1,0.5,1.7,0.7v-13C217.3,113.1,212.7,111.3,208.2,108.6z"
		/>
	<path class="st9" d="M220.8,116.1v-0.5l-12.7-7.4v13.9l0,0c0-4.1,0-8.5,0-13.6C212.7,111.3,217.3,113.1,220.8,116.1z"/>
	<path class="st9" d="M220.8,129.5v-0.3c-0.6-0.2-1.2-0.4-1.7-0.7L220.8,129.5z"/>
	<path class="st9" d="M218.9,156c0,0,0.1,0,0.1,0c0.6,0,1.2,0,1.8,0v-12.7l-7.3-4.3c-1.7-1-3.5-2-5.3-3v13.6L218.9,156z"/>
	<path class="st9" d="M219,156c0,0-0.1,0-0.1,0L219,156C219,156,219,156,219,156z"/>
	<path class="st9" d="M219,156.1l0.3,0.2l1.5,0.9V156C220.2,156,219.6,156,219,156.1C219,156,219,156,219,156.1z"/>
	<path class="st9" d="M208.2,135.9v0.1c1.8,1,3.6,2,5.3,3L208.2,135.9z"/>
	<path class="st11" d="M217.2,155.6c0.4,0.2,0.9,0.3,1.4,0.3l-10.6-6.2c0,0.1,0,0.2,0,0.3C211,151.9,214.1,153.8,217.2,155.6z"/>
	<path class="st11" d="M186.7,137.9l14.4,8.6c0-0.4-0.1-0.7-0.2-1l-2.3-1.3v-0.2l-6.6-3.9C190.1,139.3,188.6,137.8,186.7,137.9z"/>
	<path class="st11" d="M169,127c-0.2,0-0.4-0.1-0.6-0.1l14.6,8.7c0-0.4,0-0.8,0-1.1c0,0,0,0,0,0l-12.3-7.3c0,0.2,0,0.3,0,0.5
		C170.2,127.5,169.6,127.2,169,127z"/>
	<path class="st11" d="M159,121.4c0-0.3,0-0.5,0-0.7c0.1-0.1,0.2-0.1,0.4-0.2l-11.3-6.8l0,1.1L159,121.4z"/>
	<path class="st11" d="M183.5,136l2.3,1.4C185.3,136.4,184.5,136,183.5,136z"/>
	<path class="st11" d="M243.5,170.7l-1-0.6c-0.9,0-1.4-0.6-2-1.2l-5.4-3.2c-1.7-0.9-3.4-1.8-5.1-2.7c-2.9-1.7-5.7-3.5-8.7-4.9
		c-1-0.5-1.8-0.9-2.2-1.8l-0.5-0.3c-0.5-0.1-1-0.1-1.4-0.3c-3.1-1.8-6.1-3.7-9.2-5.6c-2.1-0.7-3.7-2.3-5.8-2.8l43.3,25.8
		c0.2,0,0.3,0,0.5,0c-0.8-0.7-1.5-1.3-2.3-2C243.7,170.9,243.6,170.8,243.5,170.7z"/>
	<path class="st11" d="M221.3,158.1c3,1.4,5.8,3.3,8.7,4.9c0-0.1,0-0.2,0-0.3l-10.9-6.5C219.5,157.2,220.3,157.6,221.3,158.1z"/>
	<path class="st11" d="M201.1,146.5l1.1,0.7c2.1,0.5,3.7,2.2,5.8,2.8c0-0.1,0-0.2,0-0.3l-7.2-4.2C201,145.8,201.1,146.1,201.1,146.5
		z"/>
	<path class="st11" d="M243.7,171c0.7,0.7,1.5,1.3,2.3,2c0.5,0,0.9,0,1.4,0l-3.9-2.3C243.6,170.8,243.7,170.9,243.7,171z"/>
	<path class="st11" d="M159,121.4l9.4,5.6c0.2,0,0.4,0,0.6,0.1c0.6,0.1,1.2,0.5,1.8,0.8c0-0.2,0-0.3,0-0.5l-11.4-6.8
		c-0.1,0.1-0.2,0.1-0.4,0.2C159,120.9,159,121.1,159,121.4z"/>
	<path class="st11" d="M183,135.7l0.5,0.3c1.1,0,1.9,0.4,2.3,1.4l0.9,0.5c1.9-0.1,3.4,1.4,5.3,2l-8.9-5.3c0,0,0,0,0,0
		C183,134.9,183,135.3,183,135.7z"/>
	<path class="st11" d="M218.6,155.9c0.1,0,0.2,0,0.3,0l-10.7-6.2v-0.1l-0.2-0.1c0,0.1,0,0.1,0,0.2L218.6,155.9z"/>
	<path class="st11" d="M198.6,144.1l2.3,1.3c-0.1-0.1-0.2-0.3-0.3-0.4l-2-1.2V144.1z"/>
	<path class="st11" d="M242.5,170.1l1,0.6c0,0,0,0,0,0L242.5,170.1C242.5,170.1,242.5,170.1,242.5,170.1z"/>
	<path class="st11" d="M240.4,168.8l-4.1-2.5c-0.4-0.2-0.8-0.4-1.1-0.6l5.4,3.2C240.5,168.9,240.4,168.8,240.4,168.8z"/>
	<path class="st11" d="M219,156.1l-0.2-0.1c-0.1,0-0.2,0-0.3,0l0.5,0.3C219.1,156.2,219,156.1,219,156.1z"/>
	<path class="st11" d="M219.1,156.3l10.9,6.5c0,0,0-0.1,0-0.1l-10.7-6.4l-0.3-0.2C219,156.1,219.1,156.2,219.1,156.3z"/>
	<path class="st11" d="M208,149.7c0-0.1,0-0.1,0-0.2l-7.4-4.4c0.1,0.1,0.2,0.3,0.3,0.4L208,149.7z"/>
	<path class="st11" d="M247.4,173C247.4,173,247.4,173,247.4,173l-3.9-2.4c0,0,0,0,0,0L247.4,173z"/>
	<path class="st11" d="M242.5,170.1l-2-1.2C241.1,169.5,241.6,170.1,242.5,170.1z"/>
	<path class="st11" d="M235.1,165.7l-5.1-3c0,0.1,0,0.2,0,0.3C231.7,163.9,233.4,164.8,235.1,165.7z"/>
	<path class="st11" d="M235.1,165.7c0.4,0.2,0.8,0.4,1.1,0.6l-6.3-3.7c0,0,0,0.1,0,0.1L235.1,165.7z"/>
	<path class="st11" d="M242.5,170.1C242.5,170.1,242.5,170.1,242.5,170.1l-2.1-1.3c0,0,0.1,0.1,0.1,0.1L242.5,170.1z"/>
	<polygon class="st11" points="208.2,149.6 208.2,149.7 218.9,156 218.9,156 	"/>
	<polygon class="st11" points="219,156.1 218.9,156 218.9,156 219,156.1 	"/>
	<polygon class="st11" points="219,156.1 219.3,156.2 219,156.1 	"/>
	<path class="st11" d="M148,114.8l0-1.1l0,0v0l-0.1,0c-0.1,0.5-0.2,0.9-0.4,1.3L148,114.8z"/>
	<path class="st11" d="M113.9,135.1l0.2-0.1c-0.1,0-0.1,0-0.2,0C114,135.1,114,135.1,113.9,135.1z"/>
	<polygon class="st11" points="148,120 148,173 148,173 148,122.2 	"/>
	<path class="st11" d="M102.6,141.9C102.6,141.9,102.5,141.9,102.6,141.9c-1.7,0.7-3.3,1.4-4.9,2.2c-0.1-0.1-0.2-0.2-0.3-0.2
		L48.6,173c0.6,0,1.2,0,1.9,0L102.6,141.9z"/>
	<path class="st11" d="M104.2,139.8l-6.8,4.1c0.1,0.1,0.2,0.1,0.3,0.2c1.6-0.7,3.2-1.5,4.8-2.3c0,0,0,0.1,0,0.1l2.6-1.5
		C104.8,140.2,104.5,140,104.2,139.8z"/>
	<path class="st11" d="M138,120.8l9.6-5.7c0.2-0.4,0.3-0.9,0.4-1.3l-10.9,6.5C137.3,120.4,137.7,120.6,138,120.8z"/>
	<path class="st11" d="M126.5,126.6l-13.2,7.9c0.2,0.2,0.5,0.4,0.7,0.6c0.1,0,0.1,0,0.2,0l12.6-7.5
		C126.7,127.2,126.6,126.9,126.5,126.6z"/>
	<path class="st11" d="M138,120.8c-0.3-0.2-0.6-0.4-1-0.5l-10.6,6.3c0.1,0.3,0.2,0.6,0.4,0.9L138,120.8z"/>
	<path class="st11" d="M113.3,134.4l-9,5.4c0.3,0.2,0.6,0.4,0.9,0.6l8.8-5.3c0-0.1,0-0.1,0.1-0.1
		C113.8,134.8,113.5,134.6,113.3,134.4z"/>
	<polygon class="st11" points="148,114.8 148,114.8 148,114.8 148,114.8 148,113.7 148,113.7 	"/>
	<polygon class="st1" points="148,118.9 148,122.2 148,173 148,173 	"/>
	<path class="st1" d="M186.7,137.9c-0.2,0-0.4,0-0.7,0.1c2.2,2.3,5.5,2.9,7.9,4.9c2.1,1.7,4.7,2.7,7.1,4.1c0.1-0.2,0.1-0.4,0.1-0.5
		L186.7,137.9z"/>
	<path class="st1" d="M148,114.8l0,1.7c3,1.7,6.1,3.4,9.1,5.1c0.5,0.3,1.2,0.3,1.8,0.4c0-0.2,0-0.4,0-0.6L148,114.8z"/>
	<path class="st1" d="M168.4,127c-0.4,0-0.9,0-1.4,0c0.2,0.4,0.4,1,0.7,1.2c4.8,2.3,9.4,4.8,13.9,7.8c0.3,0.2,1,0,1.4,0
		c0-0.1,0-0.2,0-0.3L168.4,127z"/>
	<path class="st1" d="M201,147c-2.4-1.3-5-2.4-7.1-4.1c-2.5-2-5.7-2.6-7.9-4.9c-0.1-0.2-0.1-0.5-0.2-0.6l-2.3-1.4
		c-0.2,0-0.3,0-0.5,0c-0.5,0-1.1,0.2-1.4,0c-4.4-3-9.1-5.5-13.9-7.8c-0.3-0.2-0.5-0.8-0.7-1.2c-1.8-1-2.8-3.1-5.4-3.1
		c-0.9,0-1.7-1.2-2.6-1.9c-0.6-0.1-1.3-0.1-1.8-0.4c-3.1-1.7-6.1-3.4-9.1-5.1l0,2.4l0,54.1c32.5,0,65,0,97.5,0l-43.3-25.8
		C201.8,147.1,201.4,147,201,147z"/>
	<path class="st1" d="M201,147c0.4,0,0.8,0.1,1.2,0.2l-1.1-0.7C201.1,146.6,201.1,146.8,201,147z"/>
	<path class="st1" d="M168.4,127l-9.4-5.6c0,0.2,0,0.4,0,0.6c0.9,0.7,1.8,1.9,2.6,1.9c2.5,0,3.6,2.1,5.4,3.1
		C167.4,127,167.9,127,168.4,127z"/>
	<path class="st1" d="M183,136c0.2,0,0.3,0,0.5,0l-0.5-0.3C183,135.8,183,135.9,183,136z"/>
	<path class="st1" d="M185.8,137.4c0.1,0.2,0.2,0.4,0.2,0.6c0.2-0.1,0.5-0.1,0.7-0.1L185.8,137.4z"/>
	<polygon class="st1" points="148,120 148,122.2 148,118.9 148,116.8 	"/>
	<polygon class="st1" points="148,114.8 148,116.6 148,116.6 148,114.8 	"/>
	<polygon class="st1" points="148,116.6 148,116.8 148,118.9 148,116.6 	"/>
	<path class="st1" d="M148,114.8L148,114.8l-0.4,0.3c-0.1,0.3-0.3,0.6-0.6,0.9c0.3,0.2,0.7,0.4,1,0.6L148,114.8L148,114.8z"/>
	<path class="st1" d="M147,116c-0.3,1.2-1.2,1.6-2.3,2.1c-2.3,1.1-4.5,2.6-6.7,3.9c-3.7,2-7.3,4-11,6c-3.8,2.3-7.7,4.7-11.5,7
		c-0.3,0.2-0.8,0.1-1.3,0l-0.2,0.1c-0.5,1.9-2.5,2-3.7,2.8c-1.5,1-3.6,1-4.2,3c-1,0.7-2,1.3-3,2c-6.1,3.7-12.3,7.2-18.5,10.7
		c-5.2,3-10.3,6.2-15.7,9c-5.3,2.8-10.4,6.1-15.8,8.8c-0.5,0.2-0.7,1-1.1,1.5c32,0,64,0,96,0l0-53l0-3.5
		C147.7,116.4,147.3,116.2,147,116z"/>
	<path class="st1" d="M53.1,171.5c5.4-2.7,10.4-6,15.8-8.8c5.3-2.8,10.4-6,15.7-9c6.2-3.5,12.4-7,18.5-10.7
		c-0.1-0.3-0.2-0.5-0.4-1.1L50.5,173c0.5,0,1,0,1.5,0C52.4,172.5,52.6,171.7,53.1,171.5z"/>
	<path class="st1" d="M106,141c-0.3-0.2-0.6-0.4-0.9-0.6l-2.6,1.5c0.2,0.5,0.3,0.8,0.4,1.1C104,142.3,105,141.7,106,141z"/>
	<path class="st1" d="M138,120.8C138,120.8,138,120.8,138,120.8c0,0.2,0,0.7,0,1.2c2.2-1.3,4.4-2.9,6.7-3.9c1.1-0.5,1.9-0.9,2.3-2.1
		c0.2-0.3,0.4-0.6,0.6-0.9L138,120.8z"/>
	<path class="st1" d="M114.2,135c0.5,0,1,0.2,1.3,0c3.9-2.3,7.7-4.6,11.5-7c-0.1-0.2-0.1-0.3-0.2-0.5L114.2,135z"/>
	<path class="st1" d="M138,120.8l-11.2,6.7c0.1,0.2,0.1,0.3,0.2,0.5c3.7-2,7.3-4,11-6C138,121.5,138,121,138,120.8
		C138,120.8,138,120.8,138,120.8z"/>
	<path class="st1" d="M106,141c0.7-2.1,2.8-2.1,4.2-3c1.3-0.9,3.2-0.9,3.7-2.8l-8.8,5.3C105.4,140.6,105.7,140.8,106,141z"/>
	<polygon class="st1" points="148,114.8 148,114.8 148,114.8 148,114.8 	"/>
	<polygon class="st1" points="148,114.8 148,116.6 148,116.6 148,114.8 	"/>
	<polygon class="st1" points="148,116.6 148,116.6 148,120 148,116.8 	"/>
	<polygon class="st1" points="148,114.8 148,116.6 148,116.6 148,114.8 	"/>
	<polygon class="st1" points="148,116.8 148,116.6 148,116.6 	"/>
	<path class="st9" d="M241.7,127.8l-9.1-5.3c-0.7-0.3-1.6-0.3-2.5-0.4v12.8c0.1,0.1,0.2,0.1,0.2,0.2l12.4,7.3c0-5.1,0-9.6,0-13.8
		C242.5,128.2,242.1,128,241.7,127.8z"/>
	<path class="st9" d="M242.8,128.5c0,4.2,0,8.7,0,13.8l0,0L242.8,128.5l-1.1-0.7C242.1,128,242.5,128.2,242.8,128.5z"/>
	<path class="st9" d="M230.2,134.9l0.2,0.1C230.3,134.9,230.3,134.9,230.2,134.9L230.2,134.9z"/>
	<path class="st9" d="M230.2,121v1c0.9,0.1,1.7,0.1,2.5,0.4L230.2,121z"/>
	<path class="st9" d="M252.6,134.1c-0.2-0.1-0.3-0.2-0.5-0.2v13.8l10.4,6.1c0.8,0.4,1.5,0.8,2.3,1.3v-13.8L252.6,134.1z"/>
	<path class="st9" d="M264.8,155.1L264.8,155.1c-0.8-0.5-1.5-0.9-2.3-1.3L264.8,155.1z"/>
	<path class="st9" d="M252.2,133.8L252.2,133.8c0.2,0.1,0.3,0.2,0.5,0.3L252.2,133.8z"/>
	<path class="st9" d="M286.2,153.1c-4-1.9-7.5-4.9-12.1-6.1v12.9c0.1,0.1,0.2,0.2,0.3,0.2l11.6,6.8c0.2,0.1,0.5,0.2,0.7,0.4v-13.8
		L286.2,153.1z"/>
	<path class="st9" d="M274.2,159.9l0.3,0.2C274.4,160,274.3,159.9,274.2,159.9L274.2,159.9z"/>
	<path class="st9" d="M286.8,167.3L286.8,167.3c-0.3-0.2-0.5-0.3-0.7-0.4L286.8,167.3z"/>
	<path class="st9" d="M274.2,146v0.9c4.6,1.2,8,4.3,12.1,6.1L274.2,146z"/>
	<path class="st11" d="M66.5,70.1c-1.6-1.1-3.3-1.9-5.1-2.8l32.5,20.2c-0.3-0.6-0.6-1.1-0.9-1.5c-1.9-1.7-4.4-2.7-6.5-4
		C80,77.7,72.8,74.6,66.5,70.1z"/>
	<path class="st11" d="M93,86c0.3,0.4,0.5,0.9,0.9,1.5l0,0l3,0L94.5,86C94,86,93.5,86,93,86z"/>
	<path class="st11" d="M41.6,55l12.3,7.7c-0.6-1.8-2.9-1.6-3.8-3.1c0-0.4,0-0.7,0-1.1l-8.3-5.2c0,0.6,0,1.2,0,1.7
		C41.7,55,41.6,55,41.6,55z"/>
	<path class="st11" d="M8.8,34.6c0.5-0.3,1-0.6,1.6-0.9L0,27.3c0,0.6,0,1.2,0,1.9L8.8,34.6z"/>
	<path class="st11" d="M32,49c-0.1-0.1-0.1-0.2-0.2-0.3c0.5-0.3,0.9-0.5,1.4-0.8L20,39.7c0,0.6,0,1.2,0,1.9L32,49z"/>
	<path class="st11" d="M53.9,62.7l7.5,4.6c1.8,0.8,3.5,1.7,5.1,2.8c6.4,4.5,13.5,7.6,20,11.9c2.1,1.4,4.5,2.3,6.5,4c0.5,0,1,0,1.5,0
		L50.1,58.4c0,0.4,0,0.7,0,1.1C51.1,61.1,53.4,60.9,53.9,62.7z"/>
	<path class="st11" d="M20,39.7l-9.6-6c-0.5,0.3-1.1,0.6-1.6,0.9l11.2,7C20,41,20,40.3,20,39.7z"/>
	<path class="st11" d="M32,49l9.6,6c0.1,0,0.1,0,0.2,0c0-0.6,0-1.2,0-1.7l-8.6-5.3c-0.5,0.3-0.9,0.5-1.4,0.8
		C31.9,48.8,31.9,48.9,32,49z"/>
	<polygon class="st11" points="79.8,87.5 74,87.5 0,87.5 0,87.5 	"/>
	<path class="st11" d="M86,92.5c1.1-0.6,2.3-0.9,3.4-1.5c1.6-1,3.2-2.1,4.7-3.2c-0.1-0.1-0.1-0.2-0.2-0.3l-12,7.4
		C83.3,94.1,84.6,93.3,86,92.5z"/>
	<path class="st11" d="M96.9,87.5L96.9,87.5l-3,0l0,0c0.1,0.1,0.1,0.2,0.2,0.3c-1.5,1-3.1,2.2-4.7,3.2c-1,0.6-2.3,0.9-3.4,1.5
		c-1.4,0.8-2.7,1.6-4.1,2.4L0,145.8c0,0.6,0,1.2,0,1.9L96.9,87.5L96.9,87.5z"/>
	<polygon class="st11" points="93.9,87.5 93.9,87.5 93.9,87.5 96.9,87.5 96.9,87.5 93.9,87.5 	"/>
	<polygon class="st1" points="82.8,87.5 0,87.5 0,87.5 74,87.5 	"/>
	<path class="st1" d="M93.9,87.5L61.4,67.3c-0.9-0.4-1.8-0.9-2.6-1.3c-1.6-0.9-3.2-2-4.7-3c-0.1,0.3-0.2,0.6-0.2,0.6
		c-4.6-2.5-9.3-5-14-7.6c-0.3-0.2-0.5-0.6-0.8-1c-1.7-1.8-4.2-2.4-6-4c-0.1,0.3-0.2,0.6-0.2,0.6c-4.6-2.5-9.3-5-14-7.6
		c-0.3-0.2-0.5-0.6-0.8-1c-0.3-0.5-0.6-1.3-1.1-1.5C14.3,40.4,12,38.4,9,38c-3-1.7-6-3.3-9-5c0,18.2,0,36.3,0,54.5l82.8,0L93.9,87.5
		C93.9,87.5,93.9,87.5,93.9,87.5z"/>
	<polygon class="st1" points="93.9,87.5 93.9,87.5 93.9,87.5 	"/>
	<path class="st1" d="M41.6,55c-0.8,0-1.7,0-2.6,0c0.3,0.3,0.4,0.8,0.8,1c4.7,2.6,9.3,5.1,14,7.6c0,0,0.1-0.3,0.2-0.6
		c0-0.1-0.1-0.2-0.1-0.3L41.6,55z"/>
	<path class="st1" d="M8.2,35c0.2-0.1,0.4-0.2,0.6-0.3L0,29.2c0,1.3,0,2.6,0,3.8c3,1.7,6,3.3,9,5C8.8,37.1,8.6,36.2,8.2,35z"/>
	<path class="st1" d="M20,41.6C20,41.6,20,41.6,20,41.6c-0.7,0.5-1.3,1-2,1.4c0.3,0.3,0.4,0.8,0.8,1c4.7,2.6,9.3,5.1,14,7.6
		c0,0,0.1-0.3,0.2-0.6c-0.3-0.6-0.6-1.2-1-2L20,41.6z"/>
	<path class="st1" d="M54,63c1.6,1,3.1,2.1,4.7,3c0.9,0.5,1.7,0.9,2.6,1.3l-7.5-4.6C53.9,62.8,54,62.9,54,63z"/>
	<path class="st1" d="M9,38c3,0.4,5.3,2.4,7.9,3.5c0.5,0.2,0.7,1,1.1,1.5c0.7-0.4,1.3-0.9,2-1.3c0,0,0,0,0-0.1l-11.2-7
		c-0.2,0.1-0.4,0.2-0.6,0.3C8.6,36.2,8.8,37.1,9,38z"/>
	<path class="st1" d="M32,49c0.4,0.8,0.7,1.4,1,2c1.8,1.6,4.3,2.2,6,4c0.9,0,1.7,0,2.6,0L32,49z"/>
	<polygon class="st1" points="82.8,87.5 74,87.5 79.8,87.5 88.6,87.5 	"/>
	<polygon class="st1" points="93.9,87.5 93.9,87.5 82.8,87.5 88.6,87.5 	"/>
	<polygon class="st1" points="93.9,87.5 93.9,87.5 93.9,87.5 93.9,87.5 	"/>
	<path class="st1" d="M79.8,87.5L0,87.5c0,18.2,0,36.3,0,54.5c8.5-4.8,17.2-9.3,25.4-14.8c3.3-2.2,7.2-3.6,10.6-5.8
		c5.7-3.5,11.7-6.5,17.3-10.1c4.9-3.2,10.3-5.7,15.4-8.6c4.4-2.5,8.8-5.2,13.2-7.8l12-7.4c0,0,0,0,0,0L79.8,87.5z"/>
	<polygon class="st1" points="93.9,87.5 93.9,87.5 93.9,87.5 93.9,87.5 93.9,87.5 	"/>
	<path class="st1" d="M53.3,111.3c-5.6,3.6-11.6,6.6-17.3,10.1c-3.4,2.1-7.3,3.5-10.6,5.8c-8.2,5.5-16.9,10-25.4,14.8
		c0,1.3,0,2.6,0,3.8l81.9-50.9c-4.4,2.6-8.8,5.3-13.2,7.8C63.6,105.7,58.2,108.1,53.3,111.3z"/>
	<polygon class="st1" points="93.9,87.5 93.9,87.5 93.9,87.5 93.9,87.5 	"/>
	<polygon class="st1" points="93.9,87.5 88.6,87.5 79.8,87.5 93.9,87.5 	"/>
	<polygon class="st1" points="93.9,87.5 93.9,87.5 93.9,87.5 93.9,87.5 	"/>
	<polygon class="st1" points="88.6,87.5 93.9,87.5 93.9,87.5 	"/>
	<polygon class="st1" points="93.9,87.5 93.9,87.5 93.9,87.5 93.9,87.5 	"/>
	<path class="st3" d="M148,71.1c0,12.5,0,25,0,37.5l0-49.3l0,0C148,63.1,148,67.1,148,71.1z"/>
	<path class="st3" d="M95.5,86c-0.3,0-0.7,0-1,0l2.4,1.5l0.1,0.1c0,0,0,0,0,0C96.4,86.9,96,86.5,95.5,86z"/>
	<path class="st3" d="M53.6,3.9c0.1-0.2,0.2-0.4,0.3-0.6l-3.8-2.3L50,58.3l0.1,0c0-18.6,0-37.3,0-56C52.1,1.1,52.3,3.7,53.6,3.9z"/>
	<path class="st3" d="M148,110.5l0-1.9c0-12.5,0-25,0-37.5c0-4,0-8,0-11.8L53.9,3.2c-0.1,0.2-0.2,0.4-0.3,0.6
		c-1.3-0.2-1.6-2.7-3.6-1.5c0,18.7,0,37.4,0,56L94.5,86c0.3,0,0.7,0,1,0c0.5,0.5,0.9,0.9,1.5,1.5c0,0,0,0,0,0l43.5,25.2L148,110.5z
		 M60.2,21.5c4.1,2.3,7.9,4.4,11.6,6.6c0,4.7,0,9.2,0,14c-4-2.2-7.7-4.3-11.6-6.5C60.2,31.3,60.2,26.7,60.2,21.5z M72,69.9
		c-4.1-2.4-8-4.6-11.9-6.9c0-4.6,0-9.1,0-14c3.9,2.2,7.7,4.3,11.9,6.6C72,60.2,72,64.9,72,69.9z M93.8,82.3c-4-2.3-7.8-4.5-11.7-6.7
		c0-4.4,0-8.9,0-13.9c4.3,1.8,7.7,4.5,11.7,6.7C93.8,72.7,93.8,77.3,93.8,82.3z M94,55c-4.1-2.4-8-4.7-11.9-6.9c0-4.8,0-9.2,0-14.1
		c4,2.3,7.9,4.6,11.9,6.9C94,45.9,94,50.2,94,55z M115.8,95.3c-3.7-3.4-8.7-4.2-11.7-7.5c0-4.8,0-9.2,0-14.1
		c3.7,3.5,8.7,4.2,11.7,7.6C115.8,86,115.8,90.4,115.8,95.3z M115.8,67.4c-4.1-2.3-7.8-4.4-11.7-6.5c0-4.6,0-9.2,0-14.2
		c4,2.3,7.8,4.5,11.7,6.7C115.8,57.7,115.8,62.3,115.8,67.4z M137.8,107.4c-4.1-2.3-7.8-4.3-11.7-6.5c0-4.6,0-9.2,0-14
		c3.9,2.2,7.7,4.3,11.7,6.5C137.8,97.7,137.8,102.3,137.8,107.4z M137.8,80c-3.9-2.2-7.6-4.3-11.7-6.5c0-4.5,0-9.4,0-14.3
		c3.9,2.3,7.8,4.6,11.7,6.8C137.8,70.7,137.8,75.3,137.8,80z"/>
	<polygon class="st3" points="148,58.3 148,58.3 148,58.9 	"/>
	<path class="st3" d="M148,59.3l0-1l-0.6-0.3c0.2,0.1,0.4,0.3,0.5,0.4C148,58.7,148,59,148,59.3L148,59.3L148,59.3L148,59.3z"/>
	<path class="st3" d="M88.2,22.8c1,0.6,2,1.1,3,1.7L51.7,1c0,0,0,0,0,0c0.7,0.7,1.5,1.3,2.3,2c6.1,3.8,12.4,7.1,18.5,10.7
		C77.7,16.8,82.9,19.9,88.2,22.8z"/>
	<path class="st3" d="M54,3c-0.8-0.7-1.5-1.3-2.3-2c0,0,0,0,0,0l-1.7-1l0,0.9l3.8,2.3C53.9,3.1,54,3.1,54,3z"/>
	<path class="st3" d="M147.5,58L91.2,24.5c-1-0.6-2-1.1-3-1.7c-5.3-2.9-10.5-6-15.7-9.1C66.4,10.1,60.1,6.8,54,3
		c0,0.1-0.1,0.1-0.1,0.2L148,59.3c0-0.3,0-0.6,0-0.9C147.8,58.3,147.6,58.2,147.5,58z"/>
	<polygon class="st3" points="148,59.3 148,59.3 148,58.9 148,58.3 148,58.3 	"/>
	<path class="st7" d="M126.2,73.5c4,2.2,7.7,4.3,11.7,6.5c0-4.7,0-9.3,0-14c-3.9-2.3-7.7-4.5-11.7-6.8
		C126.2,64.1,126.2,69,126.2,73.5z"/>
	<path class="st7" d="M104.2,60.9c3.8,2.1,7.6,4.2,11.7,6.5c0-5.2,0-9.7,0-14.1c-3.9-2.2-7.6-4.4-11.7-6.7
		C104.2,51.7,104.2,56.3,104.2,60.9z"/>
	<path class="st12" d="M104.2,73.7c0,4.9,0,9.3,0,14.1c3,3.3,7.9,4.1,11.7,7.5c0-4.9,0-9.3,0-14C112.9,77.9,107.9,77.2,104.2,73.7z"
		/>
	<path class="st7" d="M82.1,48.1C86,50.3,89.9,52.6,94,55c0-4.8,0-9.1,0-14.1c-3.9-2.3-7.8-4.6-11.9-6.9
		C82.1,38.9,82.1,43.3,82.1,48.1z"/>
	<path class="st7" d="M60.1,63c3.9,2.3,7.8,4.5,11.9,6.9c0-5,0-9.7,0-14.3c-4.2-2.3-8-4.4-11.9-6.6C60.1,53.9,60.1,58.3,60.1,63z"/>
	<path class="st7" d="M82.2,75.6c3.9,2.2,7.6,4.4,11.7,6.7c0-5.1,0-9.6,0-13.9c-3.9-2.2-7.4-4.9-11.7-6.7
		C82.2,66.7,82.2,71.3,82.2,75.6z"/>
	<path class="st7" d="M71.8,28c-3.8-2.1-7.5-4.2-11.6-6.6c0,5.2,0,9.8,0,14.1c4,2.2,7.7,4.3,11.6,6.5C71.8,37.3,71.8,32.7,71.8,28z"
		/>
	<path class="st7" d="M126.2,100.9c3.8,2.1,7.6,4.2,11.7,6.5c0-5.1,0-9.7,0-14c-4-2.2-7.7-4.3-11.7-6.5
		C126.2,91.7,126.2,96.3,126.2,100.9z"/>
</g>
</svg>
