<?xml version="1.0" encoding="utf-8"?>
<!-- Generator: Adobe Illustrator 23.0.1, SVG Export Plug-In . SVG Version: 6.00 Build 0)  -->
<svg version="1.1" id="Layer_1" xmlns="http://www.w3.org/2000/svg" xmlns:xlink="http://www.w3.org/1999/xlink" x="0px" y="0px"
	 viewBox="0 0 50 50" style="enable-background:new 0 0 50 50;" xml:space="preserve">
<style type="text/css">
	.st0{fill:#008B3A;}
</style>
<g>
	<path class="st0" d="M35.57,14.71c2.78,0,5.03-2.25,5.03-5.03c0-2.78-2.25-5.03-5.03-5.03c-2.78,0-5.03,2.25-5.03,5.03
		c0,0.88,0.23,1.7,0.62,2.42l-9.15,8.99c-1.22-0.85-2.69-1.36-4.29-1.36c-2.77,0-5.18,1.5-6.47,3.73L5.21,21.5
		c-0.27-1.17-1.32-2.04-2.57-2.04C1.18,19.46,0,20.64,0,22.1s1.18,2.64,2.64,2.64c0.66,0,1.26-0.25,1.72-0.65l5.97,1.94
		c-0.06,0.39-0.1,0.78-0.1,1.18c0,4.14,3.35,7.49,7.49,7.49c2.12,0,4.03-0.89,5.39-2.3l7.72,5.51c-0.19,0.53-0.3,1.1-0.3,1.7
		c0,2.78,2.25,5.03,5.03,5.03c2.78,0,5.03-2.25,5.03-5.03c0-2.78-2.25-5.03-5.03-5.03c-1.19,0-2.29,0.42-3.15,1.11l-7.8-5.56
		c0.38-0.89,0.59-1.88,0.59-2.91c0-1.55-0.47-2.99-1.28-4.19l9.14-8.98C33.81,14.47,34.66,14.71,35.57,14.71z"/>
	<circle class="st0" cx="46.4" cy="23.92" r="3.71"/>
	<circle class="st0" cx="6.04" cy="40.18" r="3.71"/>
	<circle class="st0" cx="15.55" cy="13.75" r="2.64"/>
</g>
</svg>
