<?xml version="1.0" encoding="utf-8"?>
<!-- Generator: Adobe Illustrator 23.0.1, SVG Export Plug-In . SVG Version: 6.00 Build 0)  -->
<svg version="1.1" id="Capa_1" xmlns="http://www.w3.org/2000/svg" xmlns:xlink="http://www.w3.org/1999/xlink" x="0px" y="0px"
	 viewBox="0 0 1142.9 477.1" style="enable-background:new 0 0 1142.9 477.1;" xml:space="preserve">
<style type="text/css">
	.st0{fill:#00941F;}
	.st1{fill:none;}
	.st2{fill:#4D4D4D;}
</style>
<path class="st0" d="M191.8,196.8c-0.1,0.3-0.1,0.6-0.1,0.9c0,0.3-0.1,0.6-0.1,0.9l-16.8,119.7h42.9l-10,70.9H93.9l28.9-205.8
	c1-7.3,2.8-14.3,5.4-21.1c12.7-33.8,43.1-60.5,78.1-68.4c7-1.6,14.2-2.4,21.4-2.4h205.8l-10,70.9H232.9c-0.3,0-0.6,0-0.9,0
	c-0.3,0-0.6,0-0.9,0h-0.1C212.2,162.9,194.9,178,191.8,196.8z"/>
<path class="st1" d="M222,162.4h-1.8c0.3,0,0.6,0,0.9,0C221.4,162.4,221.7,162.4,222,162.4z"/>
<path class="st0" d="M417.5,205l-13,92.3c-1,7.3-2.9,14.3-5.4,21.1c-12.7,33.9-43.1,60.5-78.1,68.4c-7,1.6-14.1,2.4-21.4,2.4h-49
	l10-70.9h48.8c11.4,0,21.9-8.9,24.1-20.2c0.1-0.4,0.1-0.7,0.2-1.1s0.1-0.7,0.1-1.1l2.8-20.2h-113l7.9-56.6
	c1.1-7.9,8.4-14.3,16.3-14.3L417.5,205L417.5,205z"/>
<g>
	<g>
		<g>
			<path class="st2" d="M469,312.6c0.7-2.5-0.2-4.5-2.9-4.5c-4,0-4.9,2.5-5.3,4.4c-0.4,1.7,0.2,2.7,1.6,3.3c1.2,0.5,2.4,1,3.6,1.5
				c4.3,1.7,4.8,3.4,4.1,6.6c-1,4.6-4.5,7.4-9.2,7.4c-2.4,0-5.1-0.7-5.9-3.9c-0.3-1.2,0.2-3.2,0.4-4.5h2.7c-0.9,3.6-0.7,5.9,3.4,5.9
				c2.7,0,5-1.4,5.6-4.3c0.8-3.7-0.7-3.8-3-4.7c-1.2-0.5-3.2-1.2-4.4-1.9c-2.1-1.2-2.2-3.1-1.7-5.6c0.9-4,4.3-6.7,8.3-6.7
				c4.5,0,6.7,2.3,5.5,6.9L469,312.6L469,312.6z"/>
			<path class="st2" d="M492.8,306.2h2.7l-3.8,17.6c-0.4,1.9-0.8,5,3.6,5s5.3-3.1,5.7-5l3.8-17.6h2.7l-4,18.6
				c-0.9,4.4-4.3,6.5-8.7,6.5s-6.9-2.1-6-6.5L492.8,306.2z"/>
			<path class="st2" d="M522,330.7l5.2-24.5h12.3l-0.5,2.5h-9.5l-1.7,8.1h9l-0.5,2.5h-9l-1.9,9h9.6l-0.5,2.5L522,330.7L522,330.7z"
				/>
			<path class="st2" d="M553.4,330.7l5.2-24.5h2.7l-4.7,22.1h10l-0.5,2.5H553.4z"/>
			<path class="st2" d="M597.1,305.7c7.2,0,6.6,6.6,5.4,12.2c-1.5,6.8-3.8,13.4-10.9,13.4s-6.6-6.6-5.2-13.4
				C587.6,312.3,589.8,305.7,597.1,305.7z M596.5,308.1c-4.2,0-6.2,4.4-7.3,9.8c-1.5,7.1-1.6,10.9,3,10.9s6-3.8,7.6-10.9
				C600.9,312.5,600.8,308.1,596.5,308.1z"/>
			<path class="st2" d="M633.3,312.6c0.7-2.5-0.2-4.5-2.9-4.5c-4,0-4.9,2.5-5.3,4.4c-0.4,1.7,0.2,2.7,1.6,3.3c1.2,0.5,2.4,1,3.6,1.5
				c4.3,1.7,4.8,3.4,4.1,6.6c-1,4.6-4.5,7.4-9.2,7.4c-2.4,0-5.2-0.7-5.9-3.9c-0.3-1.2,0.2-3.2,0.4-4.5h2.7c-0.9,3.6-0.7,5.9,3.4,5.9
				c2.7,0,5-1.4,5.6-4.3c0.8-3.7-0.7-3.8-3-4.7c-1.2-0.5-3.2-1.2-4.4-1.9c-2.1-1.2-2.2-3.1-1.7-5.6c0.9-4,4.3-6.7,8.3-6.7
				c4.5,0,6.7,2.3,5.5,6.9L633.3,312.6L633.3,312.6z"/>
			<path class="st2" d="M683.8,318.5l8.4-12.3h3l-10.6,15l-2,9.5h-2.7l2-9.5l-4.2-15h3L683.8,318.5z"/>
			<path class="st2" d="M730.5,330.7l5.2-24.5h2.7l-2.2,10.2h9.4l2.2-10.2h2.7l-5.2,24.5h-2.7l2.5-11.8h-9.4l-2.5,11.8H730.5z"/>
			<path class="st2" d="M778,305.7c7.2,0,6.6,6.6,5.4,12.2c-1.5,6.8-3.8,13.4-10.9,13.4s-6.6-6.6-5.2-13.4
				C768.5,312.3,770.7,305.7,778,305.7z M777.3,308.1c-4.2,0-6.2,4.4-7.3,9.8c-1.5,7.1-1.6,10.9,3,10.9s6-3.8,7.6-10.9
				C781.8,312.5,781.7,308.1,777.3,308.1z"/>
			<path class="st2" d="M802.8,330.7h-2.7l5.2-24.5h6.3c5.1,0,8.1,1.3,6.7,7c-0.7,2.9-2.9,4.9-5.8,5.3l0,0.1
				c3.1,0.3,3.7,1.3,3.4,4.6c-0.3,1.8-0.5,3.6-0.6,5.5c0,0.5,0,1.5,0.6,1.5l-0.1,0.5h-3.2c-0.3-1.6,0.1-4.6,0.5-6.2
				c0.5-2.5,0-4.5-3.2-4.5h-4.7L802.8,330.7z M805.6,317.5h4.3c1.3,0,4.8-0.2,5.7-4.5c0.8-4.2-2.5-4.3-4.3-4.3h-3.8L805.6,317.5z"/>
			<path class="st2" d="M855.3,306.2h4.8l-5.2,24.5h-2.7l4.3-20.2c0.2-1,0.5-2.1,0.7-3.1h-0.1c-0.6,1.4-1,2.4-1.5,3.3l-9.4,20H843
				l-0.8-20.3c0-0.9-0.1-1.7-0.1-3H842c-0.2,1-0.4,2.1-0.6,3.2l-4.3,20.1h-2.7l5.2-24.5h4.8l0.7,19.1c0,1,0,2.1-0.3,3.6h0.1
				c0.4-1.2,0.8-2.5,1.4-3.7L855.3,306.2z"/>
			<path class="st2" d="M875.3,330.7l5.2-24.5h2.7l-5.2,24.5H875.3z"/>
			<path class="st2" d="M913.2,330.9h-2.1l0.8-3.8h-0.1c-1.3,2.8-3.8,4.2-6.5,4.2c-7.3,0-6.3-7.3-5.1-13c1.2-5.7,3.7-12.6,10.8-12.6
				c4.7,0,6.7,3,5.7,7.6H914c0.6-3-0.2-5.1-3.3-5.2c-5.3-0.1-6.7,6-7.6,10.2c-0.8,3.7-2.4,10.2,2.4,10.5c5,0.2,6.4-4.4,7.2-8.3h-5.5
				l0.5-2.5h8.2L913.2,330.9z"/>
			<path class="st2" d="M946,305.7c7.2,0,6.6,6.6,5.4,12.2c-1.5,6.8-3.8,13.4-10.9,13.4s-6.6-6.6-5.2-13.4
				C936.4,312.3,938.7,305.7,946,305.7z M945.3,308.1c-4.2,0-6.2,4.4-7.3,9.8c-1.5,7.1-1.6,10.9,3,10.9s6-3.8,7.6-10.9
				C949.7,312.5,949.6,308.1,945.3,308.1z"/>
			<path class="st2" d="M985.2,306.2h2.7l-5.2,24.5h-4.4l-2.7-19.6c-0.2-1.1-0.2-2.2-0.1-3.7h-0.1c-0.2,1.2-0.5,2.5-0.7,3.8
				l-4.2,19.5h-2.7l5.2-24.5h4.4l2.7,20.1c0.1,0.8,0.2,1.5,0.3,2.7h0.1c0.2-0.9,0.3-1.8,0.5-2.7L985.2,306.2z"/>
			<path class="st2" d="M1002.3,330.7l5.2-24.5h12.3l-0.5,2.5h-9.5l-1.7,8.1h9l-0.5,2.5h-9l-1.9,9h9.6l-0.5,2.5L1002.3,330.7
				L1002.3,330.7z"/>
			<path class="st2" d="M1047.9,312.6c0.7-2.5-0.2-4.5-2.9-4.5c-3.9,0-4.9,2.5-5.3,4.4c-0.4,1.7,0.2,2.7,1.6,3.3
				c1.2,0.5,2.4,1,3.6,1.5c4.3,1.7,4.8,3.4,4.1,6.6c-1,4.6-4.5,7.4-9.2,7.4c-2.4,0-5.2-0.7-5.9-3.9c-0.3-1.2,0.2-3.2,0.4-4.5h2.7
				c-0.9,3.6-0.7,5.9,3.4,5.9c2.7,0,5-1.4,5.6-4.3c0.8-3.7-0.7-3.8-3-4.7c-1.2-0.5-3.2-1.2-4.4-1.9c-2.1-1.2-2.2-3.1-1.7-5.6
				c0.9-4,4.3-6.7,8.3-6.7c4.5,0,6.7,2.3,5.5,6.9L1047.9,312.6L1047.9,312.6z"/>
		</g>
	</g>
	<g>
		<path class="st2" d="M522,175.3c0-0.4,1.9-11.7,1.9-18.1c0-9.4-7.2-11.3-10.8-11.3c-0.8,0-3.8,0.2-6.2,1.3
			c-7,3.4-7.9,9.8-8.9,17.2l-8.5,63.6c-0.4,3.8-0.9,7.2-0.9,11.1c0,2.1,0,3.8,0.9,5.7c1.7,3.4,6.2,5.7,10.2,5.7
			c1.1,0,3.2-0.2,5.5-1.7c7.2-4,9.1-14.3,10.9-30.6h-12.3l3.6-26.4h44.4c-1.1,4.9-1.9,10-2.5,14.9c-1.5,9.6-2.5,19.1-3.8,28.7
			l-5.1,37.6h-28.7l2.6-13.6c-3.4,4.7-11.1,16-27.6,16c-4.5,0-14.5-0.9-22.8-9.8c-8.5-9.1-8.7-19.6-8.7-24.2c0-6.6,0.9-13,1.5-19.4
			l2.5-20.4v-1.3l4-27.4c3.2-19.4,5.3-29.1,10.9-36.8c6-8.1,18.5-16.2,41.3-16.2c4.7,0,18.1,0,28.9,8.3c5.3,4.3,7.9,8.7,8.9,11.1
			c1.3,3,2.5,7.7,2.5,15.3c0,6.2-0.4,9.8-1.7,20.6L522,175.3L522,175.3z"/>
		<path class="st2" d="M663.4,123.4l-4,27.9h-43l-3.8,31.3h41.5l-3.6,27.6h-41.9l-4.7,35.1h44.5l-3.6,28.1h-78.5l20.2-149.9H663.4z"
			/>
		<path class="st2" d="M747.9,123.2l7.9,150.1h-34.5v-27h-24.9l-7.2,26.8h-33.6l45.5-149.9L747.9,123.2L747.9,123.2z M721.1,148.5
			l-17.9,71h17.9V148.5z"/>
		<path class="st2" d="M853.8,123l-4.3,27.9h-23.4l-16.4,122.3h-34l16.2-122.3h-26l4-27.9C770,123,853.8,123,853.8,123z"/>
		<path class="st2" d="M946.9,123.4l-4,27.9h-43l-3.8,31.3h41.5l-3.6,27.6H892l-4.7,35.1h44.5l-3.6,28.1h-78.5l20.2-149.9H946.9z"/>
		<path class="st2" d="M1015.4,178.1c0.6-4.7,1.3-9.4,2.1-14.3c0.2-2.8,0.8-5.7,0.8-8.5c0-0.9,0-2.6-0.6-4.3
			c-1.5-3.8-5.1-6.2-9.1-6.2c-2.3,0-4.7,0.6-6.6,1.9c-4.7,3-6.2,7.7-7.4,18.1l-9.1,67c-0.6,3.6-0.6,5.3-0.6,7c0,2.3,0.2,3.2,0.6,4.3
			c0.4,1.5,3.2,7.2,9.4,7.2c1.1,0,3.8-0.4,6.4-1.9c4.3-2.6,5.1-7.2,6.2-12.1l3.6-23l32.5,0.2c-1.3,9.1-3,21.7-5.5,30.4
			c-1.1,3.2-4.7,15.7-14.7,23.6c-10.4,8.3-26.6,8.5-30.2,8.5c-12.3,0-27.2-3.8-34.9-13.6c-6.8-8.7-7-20-7-23.4s0.2-6.8,0.6-10.4
			c1.5-14,3.2-28.1,5.3-41.9c0.8-6.6,1.9-13.2,3-19.8c2.1-11.3,4.9-25.9,12.8-34.7c5.1-5.9,16.6-12.8,35.7-12.8
			c3,0,18.9,0.2,29.4,7.4c12.1,8.5,12.3,22.5,12.3,27.4c0,8.1-1.3,15.9-2.6,23.6L1015.4,178.1L1015.4,178.1z"/>
	</g>
</g>
<path class="st0" d="M555.7,659.6c-0.1,0.3-0.1,0.6-0.2,0.9c0,0.3-0.1,0.6-0.1,0.9l-16.8,119.7h43l-10,70.9H457.7l28.9-205.8
	c1-7.3,2.9-14.3,5.4-21.1c12.7-33.8,43.1-60.5,78-68.4c7-1.6,14.2-2.4,21.4-2.4h205.8l-10,70.9H596.8c-0.3,0-0.6,0-0.9,0
	c-0.3,0-0.6,0-0.9,0h0C576,625.6,558.8,640.7,555.7,659.6z"/>
<path class="st1" d="M585.8,625.1H584c0.3,0,0.6,0,0.9,0C585.2,625.1,585.5,625.1,585.8,625.1z"/>
<path class="st0" d="M781.3,667.7l-13,92.3c-1,7.3-2.8,14.3-5.4,21.1c-12.7,33.9-43.1,60.5-78.1,68.4c-7,1.6-14.2,2.4-21.4,2.4h-49
	l10-70.9h48.8c11.4,0,21.9-8.9,24.1-20.2c0.1-0.4,0.1-0.7,0.2-1.1c0-0.4,0.1-0.7,0.1-1.1l2.8-20.2h-113l8-56.5
	c1.1-7.9,8.4-14.3,16.3-14.3L781.3,667.7L781.3,667.7z"/>
<g>
	<g>
		<g>
			<path class="st2" d="M343.9,1083.5c0.7-2.6-0.2-4.5-2.9-4.5c-4,0-4.9,2.5-5.3,4.4c-0.4,1.7,0.2,2.7,1.6,3.3
				c1.2,0.5,2.4,1,3.6,1.5c4.3,1.7,4.8,3.4,4.1,6.6c-1,4.6-4.5,7.3-9.2,7.3c-2.4,0-5.1-0.7-5.9-3.9c-0.3-1.2,0.2-3.2,0.4-4.5h2.7
				c-0.9,3.6-0.7,5.9,3.4,5.9c2.7,0,5-1.4,5.6-4.3c0.8-3.7-0.7-3.8-3-4.7c-1.2-0.5-3.2-1.2-4.4-1.9c-2.1-1.2-2.2-3.1-1.7-5.6
				c0.9-4.1,4.3-6.7,8.3-6.7c4.5,0,6.7,2.3,5.5,6.9L343.9,1083.5L343.9,1083.5z"/>
			<path class="st2" d="M367.7,1077.1h2.7l-3.8,17.6c-0.4,1.9-0.8,5,3.6,5s5.3-3.1,5.7-5l3.8-17.6h2.7l-4,18.6
				c-0.9,4.4-4.3,6.5-8.7,6.5s-6.9-2.1-6-6.5L367.7,1077.1z"/>
			<path class="st2" d="M396.9,1101.6l5.2-24.5h12.3l-0.5,2.4h-9.5l-1.7,8.1h9l-0.5,2.4h-9l-1.9,9.1h9.6l-0.5,2.4L396.9,1101.6
				L396.9,1101.6z"/>
			<path class="st2" d="M428.3,1101.6l5.2-24.5h2.7l-4.7,22.1h10l-0.5,2.4H428.3z"/>
			<path class="st2" d="M472,1076.6c7.2,0,6.6,6.6,5.4,12.2c-1.5,6.8-3.8,13.4-10.9,13.4s-6.6-6.6-5.2-13.4
				C462.5,1083.2,464.7,1076.6,472,1076.6z M471.3,1079.1c-4.2,0-6.2,4.4-7.3,9.8c-1.5,7.1-1.6,10.8,3,10.8s6-3.8,7.6-10.8
				C475.8,1083.4,475.6,1079.1,471.3,1079.1z"/>
			<path class="st2" d="M508.2,1083.5c0.7-2.6-0.2-4.5-2.9-4.5c-4,0-4.9,2.5-5.3,4.4c-0.4,1.7,0.2,2.7,1.6,3.3
				c1.2,0.5,2.4,1,3.6,1.5c4.3,1.7,4.8,3.4,4.1,6.6c-1,4.6-4.5,7.3-9.2,7.3c-2.4,0-5.1-0.7-5.9-3.9c-0.3-1.2,0.2-3.2,0.4-4.5h2.7
				c-0.9,3.6-0.7,5.9,3.4,5.9c2.7,0,5-1.4,5.6-4.3c0.8-3.7-0.7-3.8-3-4.7c-1.2-0.5-3.2-1.2-4.4-1.9c-2.1-1.2-2.2-3.1-1.7-5.6
				c0.9-4.1,4.3-6.7,8.3-6.7c4.5,0,6.7,2.3,5.5,6.9L508.2,1083.5L508.2,1083.5z"/>
			<path class="st2" d="M558.7,1089.4l8.4-12.3h3l-10.6,15l-2,9.5h-2.7l2-9.5l-4.2-15h3L558.7,1089.4z"/>
			<path class="st2" d="M605.4,1101.6l5.2-24.5h2.7l-2.2,10.2h9.4l2.2-10.2h2.7l-5.2,24.5h-2.7l2.5-11.8h-9.4l-2.5,11.8H605.4z"/>
			<path class="st2" d="M652.9,1076.6c7.2,0,6.6,6.6,5.4,12.2c-1.5,6.8-3.8,13.4-10.9,13.4s-6.6-6.6-5.2-13.4
				C643.3,1083.2,645.6,1076.6,652.9,1076.6z M652.2,1079.1c-4.2,0-6.2,4.4-7.3,9.8c-1.5,7.1-1.6,10.8,3,10.8s6-3.8,7.6-10.8
				C656.7,1083.4,656.5,1079.1,652.2,1079.1z"/>
			<path class="st2" d="M677.7,1101.6H675l5.2-24.5h6.3c5.1,0,8.1,1.3,6.7,7c-0.7,2.9-2.9,4.9-5.8,5.3l0,0.1
				c3.1,0.3,3.7,1.3,3.4,4.6c-0.3,1.8-0.5,3.6-0.6,5.5c0,0.5,0,1.5,0.6,1.5l-0.1,0.6h-3.2c-0.3-1.6,0.1-4.6,0.5-6.2
				c0.5-2.4,0-4.5-3.2-4.5H680L677.7,1101.6z M680.5,1088.4h4.3c1.3,0,4.8-0.2,5.7-4.5c0.8-4.2-2.5-4.3-4.3-4.3h-3.8L680.5,1088.4z"
				/>
			<path class="st2" d="M730.2,1077.1h4.8l-5.2,24.5h-2.7l4.3-20.2c0.2-1.1,0.5-2.1,0.7-3.1H732c-0.6,1.4-1,2.3-1.5,3.3l-9.4,20
				h-3.2l-0.8-20.3c0-0.8-0.1-1.7-0.1-3h-0.1c-0.2,1.1-0.4,2.1-0.6,3.2l-4.3,20.1h-2.7l5.2-24.5h4.8l0.7,19.1c0,1.1,0,2.1-0.3,3.6
				h0.1c0.4-1.2,0.8-2.4,1.4-3.7L730.2,1077.1z"/>
			<path class="st2" d="M750.2,1101.6l5.2-24.5h2.7l-5.2,24.5H750.2z"/>
			<path class="st2" d="M788.1,1101.8H786l0.8-3.8h-0.1c-1.3,2.8-3.8,4.2-6.5,4.2c-7.3,0-6.3-7.3-5.1-13c1.2-5.7,3.7-12.6,10.8-12.6
				c4.7,0,6.7,3,5.7,7.6h-2.7c0.6-3-0.2-5.1-3.3-5.2c-5.3-0.1-6.7,6-7.6,10.2c-0.8,3.7-2.4,10.2,2.4,10.5c5,0.2,6.4-4.4,7.2-8.3
				h-5.5l0.5-2.4h8.2L788.1,1101.8z"/>
			<path class="st2" d="M820.8,1076.6c7.2,0,6.6,6.6,5.4,12.2c-1.5,6.8-3.8,13.4-10.9,13.4s-6.6-6.6-5.2-13.4
				C811.3,1083.2,813.6,1076.6,820.8,1076.6z M820.2,1079.1c-4.2,0-6.2,4.4-7.3,9.8c-1.5,7.1-1.6,10.8,3,10.8s6-3.8,7.6-10.8
				C824.6,1083.4,824.5,1079.1,820.2,1079.1z"/>
			<path class="st2" d="M860.1,1077.1h2.7l-5.2,24.5h-4.4l-2.7-19.6c-0.2-1.1-0.2-2.2-0.1-3.7h-0.1c-0.2,1.2-0.5,2.5-0.7,3.8
				l-4.2,19.5h-2.7l5.2-24.5h4.4l2.7,20.1c0.1,0.8,0.2,1.5,0.3,2.7h0.1c0.2-0.9,0.3-1.8,0.5-2.7L860.1,1077.1z"/>
			<path class="st2" d="M877.2,1101.6l5.2-24.5h12.3l-0.5,2.4h-9.5l-1.7,8.1h9l-0.5,2.4h-9l-1.9,9.1h9.6l-0.5,2.4L877.2,1101.6
				L877.2,1101.6z"/>
			<path class="st2" d="M922.8,1083.5c0.7-2.6-0.2-4.5-2.9-4.5c-4,0-4.9,2.5-5.3,4.4c-0.4,1.7,0.2,2.7,1.6,3.3
				c1.2,0.5,2.4,1,3.6,1.5c4.3,1.7,4.8,3.4,4.1,6.6c-1,4.6-4.5,7.3-9.2,7.3c-2.4,0-5.2-0.7-5.9-3.9c-0.3-1.2,0.2-3.2,0.4-4.5h2.7
				c-0.9,3.6-0.7,5.9,3.4,5.9c2.7,0,5-1.4,5.6-4.3c0.8-3.7-0.7-3.8-3-4.7c-1.2-0.5-3.2-1.2-4.4-1.9c-2.1-1.2-2.2-3.1-1.7-5.6
				c0.9-4.1,4.3-6.7,8.3-6.7c4.5,0,6.7,2.3,5.5,6.9L922.8,1083.5L922.8,1083.5z"/>
		</g>
	</g>
	<g>
		<path class="st2" d="M396.9,946.6c0-0.4,1.9-11.7,1.9-18.1c0-9.4-7.2-11.3-10.9-11.3c-0.9,0-3.8,0.2-6.2,1.3
			c-7,3.4-7.9,9.8-8.9,17.2l-8.5,63.6c-0.4,3.8-0.9,7.2-0.9,11.1c0,2.1,0,3.8,0.9,5.7c1.7,3.4,6.2,5.7,10.2,5.7
			c1.1,0,3.2-0.2,5.5-1.7c7.2-4,9.1-14.3,10.9-30.6h-12.3l3.6-26.4h44.5c-1.1,4.9-1.9,10-2.5,14.9c-1.5,9.6-2.5,19.1-3.8,28.7
			l-5.1,37.6h-28.7l2.5-13.6c-3.4,4.7-11.1,15.9-27.6,15.9c-4.5,0-14.5-0.8-22.8-9.8c-8.5-9.1-8.7-19.6-8.7-24.2
			c0-6.6,0.9-13,1.5-19.3l2.5-20.4v-1.3l4-27.4c3.2-19.3,5.3-29.1,10.9-36.8c6-8.1,18.5-16.2,41.3-16.2c4.7,0,18.1,0,28.9,8.3
			c5.3,4.3,7.9,8.7,8.9,11.1c1.3,3,2.5,7.7,2.5,15.3c0,6.2-0.4,9.8-1.7,20.6L396.9,946.6L396.9,946.6z"/>
		<path class="st2" d="M538.3,894.7l-4,27.9h-43l-3.8,31.3H529l-3.6,27.7h-41.9l-4.7,35.1h44.5l-3.6,28.1h-78.5l20.2-149.9H538.3z"
			/>
		<path class="st2" d="M622.7,894.5l7.9,150.1h-34.5v-27h-24.9l-7.2,26.8h-33.6L576,894.5H622.7z M596,919.8l-17.9,71H596V919.8z"/>
		<path class="st2" d="M728.7,894.3l-4.3,27.9H701l-16.4,122.3h-34l16.2-122.3h-26l4-27.9H728.7z"/>
		<path class="st2" d="M821.8,894.7l-4,27.9h-43l-3.8,31.3h41.5l-3.6,27.7h-41.9l-4.7,35.1h44.5l-3.6,28.1h-78.5l20.2-149.9H821.8z"
			/>
		<path class="st2" d="M890.3,949.3c0.6-4.7,1.3-9.4,2.1-14.3c0.2-2.8,0.8-5.7,0.8-8.5c0-0.8,0-2.5-0.6-4.3
			c-1.5-3.8-5.1-6.2-9.1-6.2c-2.3,0-4.7,0.6-6.6,1.9c-4.7,3-6.2,7.7-7.4,18.1l-9.1,67c-0.6,3.6-0.6,5.3-0.6,7c0,2.3,0.2,3.2,0.6,4.3
			c0.4,1.5,3.2,7.2,9.4,7.2c1.1,0,3.8-0.4,6.4-1.9c4.3-2.5,5.1-7.2,6.2-12.1l3.6-23l32.5,0.2c-1.3,9.2-3,21.7-5.5,30.4
			c-1.1,3.2-4.7,15.7-14.7,23.6c-10.4,8.3-26.6,8.5-30.2,8.5c-12.3,0-27.2-3.8-34.9-13.6c-6.8-8.7-7-20-7-23.4s0.2-6.8,0.6-10.4
			c1.5-14,3.2-28.1,5.3-41.9c0.8-6.6,1.9-13.2,3-19.8c2.1-11.3,4.9-25.9,12.8-34.7c5.1-6,16.6-12.8,35.7-12.8c3,0,18.9,0.2,29.3,7.4
			c12.1,8.5,12.3,22.5,12.3,27.4c0,8.1-1.3,16-2.5,23.6L890.3,949.3L890.3,949.3z"/>
	</g>
</g>
</svg>
