<?xml version="1.0" encoding="utf-8"?>
<!-- Generator: Adobe Illustrator 23.0.1, SVG Export Plug-In . SVG Version: 6.00 Build 0)  -->
<svg version="1.1" id="Layer_1" xmlns="http://www.w3.org/2000/svg" xmlns:xlink="http://www.w3.org/1999/xlink" x="0px" y="0px"
	 viewBox="0 0 112.8 56.9" style="enable-background:new 0 0 112.8 56.9;" xml:space="preserve">
<style type="text/css">
	.st0{fill:#4D4D4D;}
</style>
<g>
	<g>
		<path class="st0" d="M40,25c0-4.4,0-8.8,0-13.3c1.5,0,2.8,0,4.3,0c0,7,0,13.9,0,20.9c-1.4,0-2.8,0.1-4.1,0c-0.4,0-0.9-0.6-1.2-1.1
			c-2.4-3.8-4.7-7.6-7.1-11.3c-0.2-0.4-0.5-0.7-1-1c0,4.4,0,8.8,0,13.4c-1.5,0-2.8,0-4.2,0c0-6.9,0-13.8,0-20.9c1.4,0,2.8-0.1,4.1,0
			c0.3,0,0.7,0.5,0.9,0.8c2.6,4,5.1,8.1,7.6,12.1c0.1,0.1,0.2,0.3,0.3,0.4C39.8,25,39.9,25,40,25z"/>
		<path class="st0" d="M48.5,11.6c5.2,0,10.4,0,15.7,0c0,1.1,0.1,2.1-0.1,3.2c0,0.3-0.7,0.7-1.1,0.7c-2.6,0.1-5.3,0-7.9,0
			c-0.6,0-1.2,0-1.9,0c0,1.4,0,2.8,0,4.3c3.3,0,6.5,0,10,0c0,1.3,0,2.4,0,3.7c-3.3,0-6.5,0-10,0c0,1.7,0,3.3,0,5.1
			c3.2,0,6.3,0,9.5,0c1.7,0,1.7,0,1.6,1.6c0,0.7,0,1.3-0.1,2c0,0.1-0.1,0.2-0.2,0.3c-5.1,0-10.3,0-15.7,0
			C48.5,25.6,48.5,18.7,48.5,11.6z"/>
		<path class="st0" d="M85.9,18.7c-1.4,0-2.7,0-3.9,0c-0.3,0-0.7-0.4-0.9-0.8c-1.1-2.1-2.7-2.9-5.2-2.7c-1.9,0.2-3.6,1.7-4.2,3.7
			c-0.8,3.1-0.9,6,1.3,8.6c1.3,1.5,3,1.9,4.8,1.5c1.8-0.4,3-1.5,3.4-3.3c0.2-1.1,0.8-1.4,1.8-1.4c1,0.1,1.9,0,2.9,0
			c0.4,2.6-1.7,6.5-4.8,7.8c-7.1,3.1-14.8-2-14.6-9.8c0.1-2.9,0.6-5.6,2.5-7.9c3.7-4.5,11.2-4.7,15-0.5
			C85.1,15.3,85.7,16.9,85.9,18.7z"/>
	</g>
	<g>
		<path class="st0" d="M27,36L27,36l0,3.5h-0.4v-4H27l2.3,3.5h0v-3.5h0.4v4h-0.4L27,36z"/>
		<path class="st0" d="M32.2,35.4c1.2,0,1.9,0.9,1.9,2.1c0,1.1-0.6,2.1-1.8,2.1c-1.2,0-1.8-0.9-1.8-2.1C30.4,36.3,31,35.4,32.2,35.4
			z M33.7,37.5c0-1.1-0.6-1.8-1.5-1.8c-1,0-1.5,0.8-1.5,1.8c0,0.9,0.4,1.8,1.5,1.8C33.3,39.3,33.7,38.4,33.7,37.5z"/>
		<path class="st0" d="M35.2,37.7v1.8h-0.4v-4h1.5c0.9,0,1.3,0.3,1.3,1c0,0.5-0.2,0.8-0.6,1c0.5,0.2,0.5,0.7,0.5,1.1
			c0,0.6,0.1,0.8,0.2,0.8v0h-0.4c-0.2-0.3-0.1-1-0.2-1.3c-0.1-0.4-0.4-0.5-0.8-0.5L35.2,37.7L35.2,37.7z M36.4,37.3
			c0.5,0,1-0.2,1-0.8c0-0.6-0.5-0.7-1-0.7h-1.2v1.5L36.4,37.3L36.4,37.3z"/>
		<path class="st0" d="M38.5,39.5v-4H39l1.3,3.5h0l1.3-3.5h0.6v4h-0.4v-3.5h0l-1.3,3.5h-0.3l-1.3-3.5h0v3.5L38.5,39.5L38.5,39.5z"/>
		<path class="st0" d="M42.7,39.5l1.5-4h0.4l1.5,4h-0.4l-0.5-1.2h-1.8l-0.5,1.2H42.7z M43.7,37.9h1.5l-0.8-2.1L43.7,37.9z"/>
		<path class="st0" d="M48.3,39.5v-4h2.6v0.3h-2.3v1.4h2v0.3h-2v1.6h2.3v0.3H48.3z"/>
		<path class="st0" d="M54.4,36.7c-0.2-0.7-0.6-0.9-1.3-0.9c-1,0-1.4,0.8-1.4,1.8c0,0.9,0.3,1.8,1.4,1.8c0.7,0,1.1-0.5,1.3-1.1h0.4
			c-0.2,0.8-0.7,1.4-1.7,1.4c-1.2,0-1.7-1-1.7-2.1c0-1.5,0.8-2.1,1.8-2.1c0.8,0,1.4,0.4,1.5,1.3H54.4z"/>
		<path class="st0" d="M55.6,35.5H56v2.4c0,1,0.3,1.4,1.2,1.4c0.8,0,1.2-0.5,1.2-1.4v-2.4h0.4V38c0,1-0.5,1.6-1.5,1.6
			c-1,0-1.5-0.6-1.5-1.6V35.5z"/>
		<path class="st0" d="M59.2,39.5l1.5-4h0.4l1.5,4h-0.4l-0.5-1.2H60l-0.5,1.2H59.2z M60.2,37.9h1.5l-0.8-2.1L60.2,37.9z"/>
		<path class="st0" d="M62.3,35.5h2.9v0.3H64v3.6h-0.4v-3.6h-1.3V35.5z"/>
		<path class="st0" d="M67.4,35.4c1.2,0,1.9,0.9,1.9,2.1c0,1.1-0.6,2.1-1.8,2.1s-1.8-0.9-1.8-2.1C65.6,36.3,66.3,35.4,67.4,35.4z
			 M68.9,37.5c0-1.1-0.6-1.8-1.5-1.8c-1,0-1.5,0.8-1.5,1.8c0,0.9,0.4,1.8,1.5,1.8C68.5,39.3,68.9,38.4,68.9,37.5z"/>
		<path class="st0" d="M70.4,37.7v1.8H70v-4h1.6c0.9,0,1.3,0.3,1.3,1c0,0.5-0.2,0.8-0.6,1c0.5,0.2,0.5,0.7,0.5,1.1
			c0,0.6,0.1,0.8,0.2,0.8v0h-0.4c-0.2-0.3-0.1-1-0.2-1.3c-0.1-0.4-0.4-0.5-0.8-0.5L70.4,37.7L70.4,37.7z M71.6,37.3
			c0.6,0,1-0.2,1-0.8c0-0.6-0.5-0.7-1-0.7h-1.2v1.5L71.6,37.3L71.6,37.3z"/>
		<path class="st0" d="M73.8,39.5v-4h0.4v4L73.8,39.5L73.8,39.5z"/>
		<path class="st0" d="M74.9,39.5l1.6-4h0.4l1.5,4H78l-0.5-1.2h-1.8l-0.5,1.2H74.9z M75.8,37.9h1.6l-0.8-2.1L75.8,37.9z"/>
		<path class="st0" d="M79.3,36L79.3,36l0,3.5h-0.4v-4h0.4l2.3,3.5h0v-3.5H82v4h-0.4L79.3,36z"/>
		<path class="st0" d="M82.5,39.5l1.6-4h0.4l1.5,4h-0.4l-0.5-1.2h-1.8l-0.5,1.2H82.5z M83.5,37.9H85l-0.8-2.1L83.5,37.9z"/>
	</g>
	<g>
		<path class="st0" d="M26.6,46v-3.9h1.3c0.4,0,0.8,0,1.2,0.3c0.5,0.4,0.6,1.1,0.6,1.7s-0.1,1.1-0.5,1.5c-0.4,0.4-0.9,0.5-1.4,0.5
			L26.6,46L26.6,46z M26.9,45.7h0.9c0.3,0,0.6,0,0.9-0.2c0.5-0.3,0.6-0.9,0.6-1.5c0-0.6-0.1-1.2-0.7-1.5c-0.2-0.1-0.6-0.2-0.9-0.2
			h-0.9V45.7z"/>
		<path class="st0" d="M30.5,46v-3.9h2.6v0.3h-2.2v1.4h2v0.3h-2v1.5h2.3V46L30.5,46L30.5,46z"/>
		<path class="st0" d="M35.3,46v-3.9h0.4v3.6h2.1V46L35.3,46L35.3,46z"/>
		<path class="st0" d="M38,46l1.5-3.9h0.4l1.5,3.9H41l-0.5-1.2h-1.8L38.3,46H38z M38.9,44.5h1.5l-0.8-2L38.9,44.5z"/>
		<path class="st0" d="M46.2,43.2c-0.2-0.7-0.6-0.9-1.2-0.9c-0.9,0-1.3,0.8-1.3,1.7c0,0.9,0.3,1.8,1.4,1.8c0.7,0,1.1-0.5,1.2-1.1
			h0.4c-0.2,0.8-0.7,1.4-1.7,1.4c-1.2,0-1.7-1-1.7-2.1c0-1.5,0.8-2.1,1.8-2.1c0.8,0,1.4,0.4,1.5,1.2H46.2z"/>
		<path class="st0" d="M49,42c1.2,0,1.8,0.9,1.8,2.1c0,1.1-0.6,2-1.8,2s-1.8-0.9-1.8-2C47.2,42.9,47.8,42,49,42z M50.5,44
			c0-1.1-0.6-1.8-1.5-1.8c-1,0-1.4,0.8-1.4,1.8c0,0.9,0.4,1.7,1.5,1.7C50,45.8,50.5,45,50.5,44z"/>
		<path class="st0" d="M52,42.6L52,42.6l0,3.4h-0.4v-3.9H52l2.3,3.4h0v-3.4h0.4V46h-0.4L52,42.6z"/>
		<path class="st0" d="M55.7,44.8c0.1,0.7,0.5,1,1.1,1c0.7,0,1-0.4,1-0.8c0-1.2-2.4-0.4-2.4-1.9c0-0.5,0.5-1,1.3-1
			c0.9,0,1.3,0.5,1.3,1.2h-0.3c0-0.6-0.5-0.8-1-0.8c-0.8,0-1,0.5-1,0.9c0.2,1,2.4,0.3,2.4,1.8c0,0.7-0.5,1.1-1.4,1.1
			c-0.8,0-1.4-0.4-1.4-1.3H55.7z"/>
		<path class="st0" d="M58.5,42.1h2.8v0.3h-1.2V46h-0.4v-3.6h-1.2L58.5,42.1L58.5,42.1z"/>
		<path class="st0" d="M62.2,44.2V46h-0.4v-3.9h1.5c0.9,0,1.3,0.3,1.3,1c0,0.5-0.2,0.8-0.6,1c0.5,0.2,0.5,0.7,0.5,1.1
			c0,0.6,0.1,0.8,0.2,0.8v0h-0.4c-0.2-0.3-0.1-1-0.2-1.3c-0.1-0.4-0.4-0.5-0.8-0.5L62.2,44.2L62.2,44.2z M63.3,43.9
			c0.5,0,1-0.2,1-0.8c0-0.6-0.5-0.7-1-0.7h-1.2v1.5L63.3,43.9L63.3,43.9z"/>
		<path class="st0" d="M65.5,42.1h0.4v2.3c0,1,0.3,1.4,1.1,1.4c0.8,0,1.1-0.4,1.1-1.4v-2.3h0.4v2.4c0,1-0.5,1.6-1.5,1.6
			c-1,0-1.5-0.6-1.5-1.6V42.1z"/>
		<path class="st0" d="M72.1,43.2c-0.2-0.7-0.6-0.9-1.2-0.9c-0.9,0-1.3,0.8-1.3,1.7c0,0.9,0.3,1.8,1.4,1.8c0.7,0,1.1-0.5,1.2-1.1
			h0.4c-0.2,0.8-0.7,1.4-1.7,1.4c-1.2,0-1.7-1-1.7-2.1c0-1.5,0.8-2.1,1.8-2.1c0.8,0,1.4,0.4,1.5,1.2H72.1z"/>
		<path class="st0" d="M76.1,43.2c-0.2-0.7-0.6-0.9-1.2-0.9c-0.9,0-1.3,0.8-1.3,1.7c0,0.9,0.3,1.8,1.4,1.8c0.7,0,1.1-0.5,1.2-1.1
			h0.4c-0.2,0.8-0.7,1.4-1.7,1.4c-1.2,0-1.7-1-1.7-2.1c0-1.5,0.8-2.1,1.8-2.1c0.8,0,1.4,0.4,1.5,1.2H76.1z"/>
		<path class="st0" d="M77.3,46v-3.9h0.4V46H77.3z"/>
		<path class="st0" d="M80.4,42c1.2,0,1.8,0.9,1.8,2.1c0,1.1-0.6,2-1.8,2s-1.8-0.9-1.8-2C78.6,42.9,79.2,42,80.4,42z M81.8,44
			c0-1.1-0.6-1.8-1.5-1.8c-1,0-1.4,0.8-1.4,1.8c0,0.9,0.4,1.7,1.4,1.7C81.4,45.8,81.8,45,81.8,44z M80.1,41.8l0.6-0.8h0.4l-0.7,0.8
			H80.1z"/>
		<path class="st0" d="M83.3,42.6L83.3,42.6l0,3.4h-0.4v-3.9h0.4l2.3,3.4h0v-3.4H86V46h-0.4L83.3,42.6z"/>
	</g>
</g>
</svg>
