<svg width="724" height="345" viewBox="0 0 724 345" fill="none" xmlns="http://www.w3.org/2000/svg">
<path d="M723 0.14563H0V344.812H723V0.14563Z" fill="url(#paint0_linear)"/>
<path d="M722.986 0.14563H60.2354V344.812H722.986V0.14563Z" fill="url(#paint1_linear)"/>
<path d="M723.015 0.14563H120.515V344.812H723.015V0.14563Z" fill="url(#paint2_linear)"/>
<path d="M723 0.14563H180.75V344.812H723V0.14563Z" fill="url(#paint3_linear)"/>
<path d="M722.986 0.14563H240.985V344.812H722.986V0.14563Z" fill="url(#paint4_linear)"/>
<path d="M723.015 0.14563H301.265V344.812H723.015V0.14563Z" fill="url(#paint5_linear)"/>
<path d="M723 0.14563H361.5V344.812H723V0.14563Z" fill="url(#paint6_linear)"/>
<path d="M722.986 0.14563H421.736V344.812H722.986V0.14563Z" fill="url(#paint7_linear)"/>
<path d="M723.015 0.14563H482.015V344.812H723.015V0.14563Z" fill="url(#paint8_linear)"/>
<path d="M723 0.14563H542.25V344.812H723V0.14563Z" fill="url(#paint9_linear)"/>
<path d="M722.986 0.14563H602.486V344.812H722.986V0.14563Z" fill="url(#paint10_linear)"/>
<path d="M723.015 0.14563H662.765V344.812H723.015V0.14563Z" fill="url(#paint11_linear)"/>
<defs>
<linearGradient id="paint0_linear" x1="361.5" y1="10.9165" x2="361.5" y2="334.903" gradientUnits="userSpaceOnUse">
<stop stop-color="#00941F"/>
<stop offset="1" stop-color="#0DAB76"/>
</linearGradient>
<linearGradient id="paint1_linear" x1="391.611" y1="10.9165" x2="391.611" y2="334.903" gradientUnits="userSpaceOnUse">
<stop stop-color="#019626"/>
<stop offset="1" stop-color="#14A172"/>
</linearGradient>
<linearGradient id="paint2_linear" x1="421.765" y1="10.9165" x2="421.765" y2="334.903" gradientUnits="userSpaceOnUse">
<stop stop-color="#02992E"/>
<stop offset="1" stop-color="#1B986E"/>
</linearGradient>
<linearGradient id="paint3_linear" x1="451.875" y1="10.9165" x2="451.875" y2="334.903" gradientUnits="userSpaceOnUse">
<stop stop-color="#039B36"/>
<stop offset="1" stop-color="#218F6A"/>
</linearGradient>
<linearGradient id="paint4_linear" x1="481.986" y1="10.9165" x2="481.986" y2="334.903" gradientUnits="userSpaceOnUse">
<stop stop-color="#049D3D"/>
<stop offset="1" stop-color="#278666"/>
</linearGradient>
<linearGradient id="paint5_linear" x1="512.14" y1="10.9165" x2="512.14" y2="334.903" gradientUnits="userSpaceOnUse">
<stop stop-color="#059F45"/>
<stop offset="1" stop-color="#2D7D62"/>
</linearGradient>
<linearGradient id="paint6_linear" x1="542.25" y1="10.9165" x2="542.25" y2="334.903" gradientUnits="userSpaceOnUse">
<stop stop-color="#06A14D"/>
<stop offset="1" stop-color="#33755F"/>
</linearGradient>
<linearGradient id="paint7_linear" x1="572.361" y1="10.9165" x2="572.361" y2="334.903" gradientUnits="userSpaceOnUse">
<stop stop-color="#08A355"/>
<stop offset="1" stop-color="#396C5B"/>
</linearGradient>
<linearGradient id="paint8_linear" x1="602.515" y1="10.9165" x2="602.515" y2="334.903" gradientUnits="userSpaceOnUse">
<stop stop-color="#09A55D"/>
<stop offset="1" stop-color="#3E6457"/>
</linearGradient>
<linearGradient id="paint9_linear" x1="632.625" y1="10.9165" x2="632.625" y2="334.903" gradientUnits="userSpaceOnUse">
<stop stop-color="#0AA766"/>
<stop offset="1" stop-color="#435C54"/>
</linearGradient>
<linearGradient id="paint10_linear" x1="662.736" y1="10.9165" x2="662.736" y2="334.903" gradientUnits="userSpaceOnUse">
<stop stop-color="#0CA96E"/>
<stop offset="1" stop-color="#485450"/>
</linearGradient>
<linearGradient id="paint11_linear" x1="692.89" y1="10.9165" x2="692.89" y2="334.903" gradientUnits="userSpaceOnUse">
<stop stop-color="#0DAB76"/>
<stop offset="1" stop-color="#4D4D4D"/>
</linearGradient>
</defs>
</svg>
