<svg width="19" height="19" viewBox="0 0 19 19" fill="none" xmlns="http://www.w3.org/2000/svg">
<path d="M17.1219 7.38169V7.22775C17.1276 5.68736 16.6144 4.18582 15.6575 2.94379C14.7007 1.70175 13.3507 0.784725 11.8059 0.327458H11.7488C10.951 0.0958486 10.1197 -0.014176 9.2858 0.00146021C7.29999 0.105229 5.43062 0.926704 4.05921 2.29823C2.6878 3.66975 1.91775 5.48793 1.9062 7.38169C1.34894 7.56836 0.866266 7.91515 0.524823 8.37419C0.183379 8.83323 0 9.38188 0 9.9444C0 10.5069 0.183379 11.0556 0.524823 11.5146C0.866266 11.9736 1.34894 12.3204 1.9062 12.5071C2.10207 14.2954 2.98929 15.9504 4.39537 17.1504C5.80144 18.3504 7.6259 19.0096 9.51403 18.9999H9.73276C11.5586 18.9157 13.2941 18.2183 14.6311 17.0313C15.9682 15.8443 16.8203 14.2446 17.0363 12.5162C17.6001 12.34 18.0922 12.0009 18.4441 11.546C18.796 11.091 18.9902 10.5429 18.9996 9.97795C19.0091 9.41299 18.8332 8.85929 18.4967 8.39394C18.1601 7.92859 17.6795 7.57475 17.1219 7.38169ZM9.68521 17.1888C8.30857 17.2267 6.96398 16.7892 5.89956 15.9571C4.83513 15.1249 4.12271 13.9542 3.89375 12.661H15.0868C14.8547 13.8853 14.1947 14.9988 13.2141 15.8207C12.2335 16.6427 10.9899 17.1248 9.68521 17.1888ZM16.1709 10.8499H2.85718C2.60496 10.8499 2.36308 10.7545 2.18474 10.5847C2.00639 10.4149 1.9062 10.1846 1.9062 9.9444C1.9062 9.70423 2.00639 9.4739 2.18474 9.30408C2.36308 9.13425 2.60496 9.03885 2.85718 9.03885H4.75914C5.01135 9.03885 5.25324 8.94344 5.43158 8.77362C5.60992 8.60379 5.71012 8.37346 5.71012 8.1333C5.71012 7.89313 5.60992 7.6628 5.43158 7.49298C5.25324 7.32315 5.01135 7.22775 4.75914 7.22775H3.80816C3.85073 6.28834 4.13269 5.3729 4.62973 4.56042C5.12676 3.74794 5.82394 3.06282 6.6611 2.56417V5.41665C6.6611 5.65681 6.76129 5.88714 6.93963 6.05697C7.11797 6.22679 7.35986 6.3222 7.61208 6.3222C7.86429 6.3222 8.10618 6.22679 8.28452 6.05697C8.46286 5.88714 8.56306 5.65681 8.56306 5.41665V1.87595C8.82118 1.83488 9.08152 1.80767 9.34286 1.79445H9.51403C9.83273 1.79872 10.1506 1.82597 10.465 1.87595V5.41665C10.465 5.65681 10.5652 5.88714 10.7435 6.05697C10.9219 6.22679 11.1638 6.3222 11.416 6.3222C11.6682 6.3222 11.9101 6.22679 12.0884 6.05697C12.2668 5.88714 12.367 5.65681 12.367 5.41665V2.537C12.7704 2.75942 13.1467 3.02364 13.4891 3.32483C14.0374 3.83184 14.4732 4.43858 14.7705 5.10903C15.0678 5.77948 15.2206 6.49997 15.2199 7.22775H14.2689C14.0167 7.22775 13.7748 7.32315 13.5965 7.49298C13.4181 7.6628 13.318 7.89313 13.318 8.1333C13.318 8.37346 13.4181 8.60379 13.5965 8.77362C13.7748 8.94344 14.0167 9.03885 14.2689 9.03885H16.1709C16.4231 9.03885 16.665 9.13425 16.8433 9.30408C17.0217 9.4739 17.1219 9.70423 17.1219 9.9444C17.1219 10.1846 17.0217 10.4149 16.8433 10.5847C16.665 10.7545 16.4231 10.8499 16.1709 10.8499Z" fill="white"/>
</svg>
