<?xml version="1.0" encoding="utf-8"?>
<!-- Generator: Adobe Illustrator 23.0.1, SVG Export Plug-In . SVG Version: 6.00 Build 0)  -->
<svg version="1.1" id="Layer_1" xmlns="http://www.w3.org/2000/svg" xmlns:xlink="http://www.w3.org/1999/xlink" x="0px" y="0px"
	 viewBox="0 0 112.8 56.9" style="enable-background:new 0 0 112.8 56.9;" xml:space="preserve">
<style type="text/css">
	.st0{fill:#4D4D4D;}
</style>
<g>
	<path class="st0" d="M84.9,41.5c0-0.2,0-0.5,0-0.7c0-7,0-14,0-21c0-0.2,0-0.5,0-0.8c-0.3,0-0.6,0-0.9,0c-27.7,0-55.3,0-83,0
		c-0.3,0-0.5,0-0.8,0c0-1.3,0-2.6,0-3.9c0.2,0,0.4,0,0.7,0c37.1,0,74.2,0,111.4,0c0.2,0,0.4,0,0.7,0c0,1.3,0,2.6,0,3.9
		c-0.3,0-0.5,0-0.8,0c-7.7,0-15.3,0-23,0c-0.2,0-0.5,0-0.8,0c0,0.3,0,0.6,0,0.8c0,7.2,0,14.5,0,21.7C87.1,41.5,86,41.5,84.9,41.5z"
		/>
	<path class="st0" d="M57.5,25.9c0-0.7,0-1.3,0-1.9c-3.1,0-6.1,0-9.2,0c0,1.2,0,2.4,0,3.6c0.2,0,0.4,0,0.6,0c2.6,0,5.1,0,7.7,0
		c2.1,0,2.8,0.7,2.9,2.8c0,1,0,2-0.1,3c-0.1,1.1-0.7,1.6-1.7,1.8c-0.4,0.1-0.9,0.1-1.4,0.1c-2.4,0-4.9,0-7.3,0c-0.5,0-1.1,0-1.6-0.1
		c-0.8-0.2-1.3-0.7-1.5-1.5c-0.4-1.6-0.3-1.8,1.3-2.2c0.2,0,0.4-0.1,0.6-0.1c0,0.7,0,1.3,0,2c3.3,0,6.4,0,9.7,0c0-1.2,0-2.4,0-3.6
		c0-0.4-0.3-0.3-0.5-0.3c-2.6,0-5.2,0-7.8,0c-0.4,0-0.8,0-1.3-0.1c-0.8-0.2-1.4-0.7-1.5-1.5c-0.1-1.3-0.1-2.7,0-4
		c0.1-0.8,0.7-1.3,1.5-1.5c0.4-0.1,0.9-0.1,1.3-0.1c2.4,0,4.7,0,7.1,0c0.3,0,0.5,0,0.8,0.1c1.7,0.2,2.2,1.2,2.2,2.8
		c0,0.1-0.1,0.3-0.2,0.3C58.6,25.6,58.1,25.7,57.5,25.9z"/>
	<path class="st0" d="M67.3,29.4c0,2,0,3.9,0,5.8c-0.7,0-1.4,0-2.1,0c0-0.2,0-0.4,0-0.6c0-3.9,0-7.9,0-11.8c0-0.5,0.2-0.7,0.7-0.6
		c0.5,0,1,0,1.5,0c0,1.8,0,3.5,0,5.3c0.2,0,0.4,0,0.6,0c3,0,6.1,0,9.1,0c0.5,0,0.6-0.1,0.6-0.6c0-1.4,0-2.8,0-4.2
		c0-0.4,0.1-0.6,0.6-0.5c0.5,0,1,0,1.6,0c0,4.4,0,8.7,0,13c-0.7,0-1.4,0-2.1,0c0-1.9,0-3.9,0-5.8C74.2,29.4,70.8,29.4,67.3,29.4z"/>
	<path class="st0" d="M21.4,35.3c-0.8,0-1.5,0-2.1,0c-0.1,0-0.3-0.2-0.4-0.4c-0.4-0.8-0.9-1.7-1.3-2.5c-0.1-0.2-0.4-0.4-0.6-0.4
		c-2.7,0-5.3,0-8,0c-0.3,0-0.5,0.1-0.6,0.4c-0.4,0.8-0.8,1.6-1.3,2.4c-0.1,0.3-0.3,0.4-0.6,0.4c-0.5,0-1.1,0-1.7,0
		C4.8,35.1,4.9,35,5,34.8c2.2-4.1,4.4-8.1,6.6-12.2c0.2-0.3,0.4-0.4,0.7-0.4c1.4-0.2,2.1,0.4,2.8,1.6c1.9,3.7,4,7.3,6,10.9
		C21.2,34.9,21.3,35,21.4,35.3z M9.5,30.4c2.4,0,4.6,0,7,0c-1.2-2.2-2.3-4.4-3.5-6.6C11.8,26,10.6,28.2,9.5,30.4z"/>
	<path class="st0" d="M41.2,35.3c-0.8,0-1.5,0-2.1,0c-0.1,0-0.3-0.2-0.4-0.4c-0.4-0.8-0.9-1.7-1.3-2.5c-0.1-0.2-0.4-0.4-0.6-0.4
		c-2.7,0-5.3,0-8,0c-0.3,0-0.5,0.1-0.6,0.4c-0.4,0.8-0.8,1.7-1.3,2.5c-0.1,0.2-0.4,0.3-0.6,0.4c-0.5,0-1.1,0-1.7,0
		c0.1-0.2,0.2-0.4,0.3-0.5c2.2-4,4.4-8,6.6-12.1c0.2-0.4,0.4-0.4,0.8-0.5c1.3-0.2,2,0.3,2.6,1.5c1.9,3.7,4,7.3,6.1,11
		C41,34.9,41.1,35,41.2,35.3z M29.3,30.4c2.4,0,4.6,0,7,0c-1.2-2.2-2.3-4.4-3.5-6.6C31.6,26,30.4,28.2,29.3,30.4z"/>
	<path class="st0" d="M25.9,38.2c0.4,0,0.8,0,1.2,0c0.4,0,0.6,0.2,0.6,0.6c0,0.7,0,1.4,0,2.1c0,0.3-0.2,0.5-0.6,0.5
		c-0.8,0-1.6,0-2.4,0c-0.4,0-0.6-0.2-0.6-0.5c0-0.7,0-1.4,0-2.1c0-0.4,0.2-0.5,0.6-0.5C25.1,38.2,25.5,38.2,25.9,38.2z M24.7,38.7
		c0,0.8,0,1.5,0,2.2c0.8,0,1.6,0,2.4,0c0-0.8,0-1.5,0-2.2C26.2,38.7,25.5,38.7,24.7,38.7z"/>
	<path class="st0" d="M77.4,38.2c0.4,0,0.7,0,1.1,0c0.5,0,0.7,0.2,0.7,0.6c0,0.6,0,1.3,0,1.9c0,0.4-0.2,0.6-0.6,0.6
		c-0.8,0-1.5,0-2.3,0c-0.5,0-0.7-0.2-0.7-0.7c0-0.6,0-1.2,0-1.9c0-0.4,0.2-0.7,0.7-0.7C76.7,38.2,77,38.2,77.4,38.2z M78.6,38.6
		c-0.7,0-1.4,0-2.1,0c-0.1,0-0.3,0.2-0.3,0.3c0,0.6,0,1.3,0,2c0.8,0,1.6,0,2.4,0C78.6,40.1,78.6,39.4,78.6,38.6z"/>
	<path class="st0" d="M42.3,38.2c0.4,0,0.7,0,1.1,0c0.4,0,0.7,0.2,0.7,0.6c0,0.7,0,1.3,0,2c0,0.4-0.2,0.6-0.6,0.6
		c-0.8,0-1.5,0-2.3,0c-0.4,0-0.6-0.2-0.6-0.6c0-0.6,0-1.3,0-1.9c0-0.5,0.2-0.7,0.7-0.7C41.6,38.2,41.9,38.2,42.3,38.2z M43.5,38.6
		c-0.7,0-1.4,0-2.1,0c-0.1,0-0.2,0.2-0.3,0.3c0,0.6,0,1.3,0,2c0.9,0,1.6,0,2.4,0C43.5,40.1,43.5,39.4,43.5,38.6z"/>
	<path class="st0" d="M68.1,38.6c0,0.4,0,0.6,0,0.9c0.6,0,1.2,0,1.8,0c0.5,0,0.8,0.2,0.7,0.7c0,0.2,0,0.3,0,0.5
		c0,0.5-0.2,0.7-0.6,0.7c-0.7,0-1.3,0-2,0c-0.4,0-0.6-0.2-0.6-0.6c0-0.1,0.1-0.2,0.2-0.3c0,0,0.2,0.1,0.3,0.2
		c0.1,0.1,0.2,0.2,0.3,0.2c0.6,0,1.2,0,1.9,0c0-0.3,0-0.6,0-0.9c-0.6,0-1.2,0-1.8,0c-0.7,0-0.8-0.2-0.8-1c0-0.7,0.1-0.8,0.8-0.8
		c0.6,0,1.2,0,1.8,0c0.2,0,0.4,0.3,0.5,0.5c0,0-0.2,0.2-0.3,0.3C69.6,38.3,68.8,38.8,68.1,38.6z"/>
	<path class="st0" d="M57.8,41.5c-0.3-0.1-0.5-0.2-0.8-0.4c-0.2-0.1-0.3-0.3-0.5-0.5c-0.4-0.5-0.4-0.5-1.2-0.4c0,0.4,0,0.7,0,1.1
		c0,0-0.1,0.1-0.1,0.1c-0.1-0.1-0.4-0.2-0.4-0.3c0-0.9,0-1.9,0-2.9c0.9,0,1.7,0,2.6,0c0.1,0,0.3,0.1,0.3,0.2
		c0.1,0.4,0.1,0.8,0.1,1.2c0,0.5-0.4,0.6-0.8,0.6c0,0-0.1,0.1-0.1,0.1c0.4,0.3,0.8,0.6,1.2,0.9C57.9,41.3,57.8,41.4,57.8,41.5z
		 M55.3,39.7c0.5,0,0.9,0,1.3,0c0.4,0,0.6-0.1,0.6-0.5c0-0.5-0.2-0.5-0.6-0.5c-0.3,0-0.6,0-0.9,0c-0.3,0-0.4,0.1-0.4,0.4
		C55.3,39.2,55.3,39.4,55.3,39.7z"/>
	<path class="st0" d="M80.3,38.2c0.9,0,1.7,0,2.5,0c0.1,0,0.3,0.1,0.4,0.2c0.1,0.4,0.1,0.8,0.1,1.2c0,0.6-0.4,0.6-0.9,0.6
		c0.2,0.2,0.4,0.4,0.6,0.6c0.2,0.2,0.3,0.3,0.6,0.5c-0.4,0.2-0.7,0.1-0.9-0.2c-0.2-0.2-0.4-0.4-0.5-0.6c-0.3-0.4-0.7-0.5-1.2-0.4
		c0,0.4,0,0.7,0,1.1c-0.4,0.1-0.6,0.1-0.6-0.3c0-0.8,0-1.6,0-2.4C80.3,38.5,80.3,38.4,80.3,38.2z M80.8,39.7c0.5,0,1,0,1.5,0
		c0.1,0,0.3-0.3,0.3-0.4c0-0.2-0.1-0.6-0.3-0.6c-0.5-0.1-1,0-1.6,0C80.8,39,80.8,39.3,80.8,39.7z"/>
	<path class="st0" d="M63.3,41.4c-0.1-0.1-0.3-0.2-0.3-0.4c0-0.9,0-1.9,0-3c0.3,0.2,0.6,0.2,0.7,0.4c0.7,0.7,1.3,1.4,2,2.1
		c0.1,0,0.1-0.1,0.2-0.1c0-0.6,0-1.1,0-1.7c0-0.2,0.1-0.5,0.2-0.5c0.4,0,0.3,0.4,0.3,0.6c0,0.9,0,1.7,0,2.7
		c-0.3-0.2-0.5-0.3-0.7-0.4c-0.7-0.7-1.3-1.4-1.9-2.2c-0.1,0.1-0.2,0.1-0.2,0.2c0,0.7,0,1.5,0,2.2C63.5,41.4,63.4,41.4,63.3,41.4z"
		/>
	<path class="st0" d="M30.9,40.9c0.2,0,0.3,0,0.4,0c0.5,0,1,0,1.6,0c0-0.3,0.1-0.5,0.1-0.7c0.1,0,0.1-0.1,0.2-0.1
		c0.1,0.2,0.3,0.3,0.3,0.5c0,0.3,0,0.7-0.4,0.8c-0.8,0-1.5,0-2.3,0c-0.2,0-0.4-0.3-0.4-0.5c0-0.7,0-1.4,0-2.1c0-0.4,0.2-0.6,0.6-0.6
		c0.5,0,1.1,0,1.6,0c0.9,0,1,0.1,0.9,1c-0.1,0-0.3,0.1-0.5,0.1c0-0.2-0.1-0.4-0.1-0.6c-0.7,0-1.3,0-2,0
		C30.9,39.4,30.9,40.1,30.9,40.9z"/>
	<path class="st0" d="M72.4,40.1c-0.4,0.4,0.2,1.2-0.7,1.3c0-1.1,0-2.1,0-3.2c0.9,0,1.7,0,2.6,0c0.2,0,0.3,0.3,0.5,0.5
		c0,0,0,0,0,0.1c0.1,1.3,0,1.4-1.3,1.4C73.1,40.1,72.7,40.1,72.4,40.1z M72.3,39.7c0.6,0,1.1,0,1.6,0c0.3,0,0.4-0.2,0.4-0.5
		c0-0.2-0.2-0.5-0.3-0.5c-0.6-0.1-1.1,0-1.7,0C72.3,39,72.3,39.3,72.3,39.7z"/>
	<path class="st0" d="M9.7,41.3c-0.4,0.1-0.6,0.1-0.6-0.3c0-0.8,0-1.6,0-2.4c0-0.4,0.2-0.5,0.6-0.3c0,0.4,0,0.8,0,1.2
		c0.8,0,1.5,0,2.2,0c0.1-0.4,0.1-0.8,0.2-1.2c0,0,0.2,0,0.4,0c0,1,0,2,0,2.9c0,0.1-0.2,0.2-0.4,0.3c-0.1,0-0.1-0.1-0.2-0.1
		c0-0.3,0-0.7,0-1c0-0.1-0.2-0.4-0.3-0.4c-0.6,0-1.3,0-2,0C9.7,40.4,9.7,40.9,9.7,41.3z"/>
	<path class="st0" d="M14.3,38.6c0,0.3,0,0.5,0,0.8c0.4,0,0.8,0,1.1,0c0.1,0,0.2,0.1,0.3,0.2c-0.1,0.1-0.2,0.2-0.3,0.2
		c-0.1,0-0.2,0-0.3,0c-0.9,0-0.9,0-0.8,1c0.6,0,1.2,0,1.9,0c0.2,0,0.3,0.2,0.5,0.2c-0.2,0.1-0.3,0.2-0.5,0.2c-0.8,0-1.6,0-2.5,0
		c0-1.1,0-2.1,0-3.2c0.9,0,1.8,0,2.7,0c0.1,0,0.2,0.1,0.2,0.2c-0.1,0.1-0.2,0.2-0.3,0.2C15.7,38.6,15,38.6,14.3,38.6z"/>
	<path class="st0" d="M34.5,41.4c0-1.1,0-2.1,0-3.2c0.9,0,1.8,0,2.7,0c0.1,0,0.1,0.2,0.2,0.2c-0.1,0.1-0.2,0.2-0.3,0.2
		c-0.5,0-1,0-1.4,0c-0.2,0-0.4,0-0.6,0c0,0.3,0,0.5,0,0.8c0.4,0,0.7,0,1,0c0.1,0,0.3,0.2,0.4,0.2c-0.1,0.1-0.2,0.2-0.4,0.2
		c-0.3,0-0.7,0-1,0c0,0.3,0,0.6,0,1c0.7,0,1.3,0,2,0c0.1,0,0.3,0.1,0.4,0.2c-0.1,0.1-0.3,0.2-0.4,0.2C36.2,41.4,35.4,41.4,34.5,41.4
		z"/>
	<path class="st0" d="M58.5,41.3c0.5-1,1-2,1.6-2.9c0.2-0.3,0.5-0.3,0.7,0c0.5,1,1.1,1.9,1.6,2.9c-0.4,0.2-0.6,0.1-0.7-0.3
		c-0.1-0.3-0.3-0.4-0.7-0.4c-0.3,0-0.6,0-0.9,0c-0.4,0-0.8,0-1,0.5c-0.1,0.1-0.3,0.2-0.5,0.3C58.5,41.4,58.5,41.4,58.5,41.3z
		 M60.4,38.7c-0.3,0.6-0.5,1-0.7,1.5c0.5,0,1,0,1.5,0C60.9,39.6,60.6,39.2,60.4,38.7z"/>
	<path class="st0" d="M19.5,37.5c0.5-0.2,0.7,0,0.8,0.3c0.4,0.9,0.9,1.8,1.4,2.9c0.5-1,0.9-1.9,1.3-2.9c0.1-0.3,0.3-0.5,0.7-0.3
		c-0.6,1.2-1.1,2.5-1.8,3.7c-0.1,0.3-0.5,0.3-0.7,0C20.7,40,20.1,38.8,19.5,37.5z"/>
	<path class="st0" d="M52.7,38c0,1.2,0,2.2,0,3.4c-0.2,0-0.4,0-0.6,0c0-1.1,0-2.2,0-3.4c-0.5,0-0.9,0-1.3,0c-0.1,0-0.2-0.1-0.3-0.2
		c0.1-0.1,0.2-0.3,0.4-0.3c1.1,0,2.1,0,3.2,0c0.1,0,0.2,0.1,0.4,0.2C54.2,37.8,54.1,38,54,38C53.6,38,53.2,38,52.7,38z"/>
	<path class="st0" d="M6.3,38c-0.5,0-0.9,0-1.3,0c-0.1,0-0.2-0.2-0.3-0.2c0.1-0.1,0.2-0.3,0.3-0.3c1.1,0,2.2,0,3.2,0
		c0.1,0,0.2,0.1,0.3,0.2C8.5,37.8,8.4,38,8.3,38c-0.4,0-0.8,0-1.3,0c0,1.2,0,2.2,0,3.3c-0.4,0.2-0.6,0.1-0.6-0.4
		C6.4,40,6.3,39,6.3,38z"/>
	<path class="st0" d="M45.7,41.4c-0.2,0-0.3,0-0.5,0c0-1.1,0-2.1,0-3.2c0.9,0,1.8,0,2.7,0c0.1,0,0.2,0.2,0.2,0.2
		c-0.1,0.1-0.2,0.2-0.3,0.2c-0.7,0-1.3,0-2,0c0,0.3,0,0.6,0,1c0.2,0,0.3,0,0.5,0c0.3,0.1,0.8-0.2,0.7,0.2c0,0.4-0.5,0.2-0.8,0.2
		c-0.1,0-0.3,0-0.5,0C45.7,40.5,45.7,40.9,45.7,41.4z"/>
	<path class="st0" d="M29.2,39.8c0,0.4,0,0.8,0,1.2c0,0.1-0.2,0.2-0.3,0.4c-0.1-0.1-0.3-0.2-0.3-0.3c0-0.8,0-1.7,0-2.5
		c0-0.1,0.2-0.2,0.3-0.3c0.1,0.1,0.2,0.2,0.3,0.4C29.3,39,29.2,39.4,29.2,39.8z"/>
	<path class="st0" d="M100.4,35.3c-1.4,0-2.9,0-4.3,0c-0.4,0-0.9,0-1.3-0.1c-1.1-0.2-1.6-0.7-1.8-1.8c0-0.2-0.1-0.4-0.1-0.6
		c0-2.8,0-5.5,0-8.3c0-1.5,0.7-2.1,2.2-2.2c1.5-0.1,2.9-0.1,4.4-0.1c1.7,0,3.5,0,5.2,0c0.5,0,1,0,1.4,0.1c1.1,0.2,1.6,0.7,1.7,1.8
		c0.1,0.4,0.1,0.7,0.1,1.1c0,2.4,0,4.8,0,7.1c0,2.2-0.7,2.9-2.9,3C103.5,35.3,101.9,35.3,100.4,35.3z M105.7,24.1
		c-3.6,0-7.2,0-10.7,0c0,3.2,0,6.3,0,9.4c3.6,0,7.1,0,10.7,0C105.7,30.3,105.7,27.2,105.7,24.1z"/>
	<path class="st0" d="M101.5,41.4c-0.4,0-0.8,0-1.2,0c-0.4,0-0.6-0.2-0.6-0.6c0-0.7,0-1.4,0-2c0-0.4,0.2-0.6,0.6-0.6
		c0.8,0,1.5,0,2.3,0c0.4,0,0.6,0.2,0.6,0.6c0,0.7,0,1.4,0,2.1c0,0.4-0.2,0.6-0.6,0.6C102.3,41.4,101.9,41.4,101.5,41.4z M102.7,40.9
		c0-0.8,0-1.5,0-2.2c-0.8,0-1.6,0-2.4,0c0,0.8,0,1.5,0,2.2C101.1,40.9,101.9,40.9,102.7,40.9z"/>
	<path class="st0" d="M108.1,41.5c-0.3-0.2-0.5-0.2-0.7-0.4c-0.7-0.7-1.3-1.4-2-2.2c-0.1,0-0.1,0.1-0.2,0.1c0,0.6,0,1.3,0,1.9
		c0,0.1-0.2,0.3-0.3,0.4c-0.1-0.1-0.2-0.3-0.2-0.4c0-0.9,0-1.8,0-2.9c0.3,0.1,0.6,0.2,0.7,0.3c0.7,0.7,1.3,1.4,1.9,2.1
		c0.1-0.1,0.2-0.1,0.2-0.2c0-0.7,0-1.4,0-2.2c0.1,0,0.1-0.1,0.2-0.1c0.1,0.1,0.4,0.2,0.4,0.3C108.2,39.4,108.1,40.4,108.1,41.5z"/>
	<path class="st0" d="M93.2,41.3c-0.4,0.2-0.6,0-0.8-0.3c-0.1-0.2-0.4-0.3-0.6-0.3c-0.3-0.1-0.6,0-0.9,0c-0.4,0-0.8,0-1,0.5
		c0,0.1-0.3,0.2-0.5,0.3c0,0-0.1-0.1-0.1-0.1c0.5-1,1-1.9,1.5-2.9c0.2-0.3,0.6-0.3,0.7,0C92.2,39.4,92.7,40.3,93.2,41.3z M90.5,40.1
		c0.5,0,1,0,1.5,0c-0.2-0.5-0.5-0.9-0.7-1.5C91,39.2,90.8,39.6,90.5,40.1z"/>
	<path class="st0" d="M94.8,38.6c-0.4,0-0.7,0-1.1,0c-0.1,0-0.2-0.1-0.3-0.2c0.1-0.1,0.2-0.2,0.3-0.2c0.9,0,1.9,0,2.8,0
		c0.1,0,0.2,0.2,0.3,0.2c-0.1,0.1-0.2,0.2-0.3,0.2c-0.4,0-0.7,0-1.1,0c0,0.9,0,1.8,0,2.7c-0.2,0-0.4,0-0.6,0
		C94.8,40.5,94.8,39.6,94.8,38.6z"/>
	<path class="st0" d="M97.7,41.3c0-1,0-2,0-3.1c0.2,0,0.3,0,0.5,0c0,1,0,1.9,0,2.9c0,0.1-0.2,0.3-0.4,0.4
		C97.8,41.4,97.8,41.4,97.7,41.3z"/>
</g>
</svg>
