<?xml version="1.0" encoding="utf-8"?>
<!-- Generator: Adobe Illustrator 23.0.1, SVG Export Plug-In . SVG Version: 6.00 Build 0)  -->
<svg version="1.1" id="Layer_1" xmlns="http://www.w3.org/2000/svg" xmlns:xlink="http://www.w3.org/1999/xlink" x="0px" y="0px"
	 viewBox="0 0 112.8 56.9" style="enable-background:new 0 0 112.8 56.9;" xml:space="preserve">
<style type="text/css">
	.st0{fill:#4D4D4D;}
</style>
<g>
	<g>
		<path class="st0" d="M10.9,41.5c0.1-0.3,0.3-0.7,0.4-1c0.5-1.3,1-2.5,1.5-3.7c0.1-0.2,0.2-0.3,0.4-0.3c0.6,0,0.6,0,0.8,0.5
			c0.6,1.5,1.2,3,1.8,4.4c0,0.1,0,0.1,0.1,0.2c-0.3,0-0.5,0-0.7,0c-0.1,0-0.1-0.1-0.1-0.2c-0.1-0.3-0.2-0.5-0.3-0.8
			c-0.1-0.1-0.1-0.2-0.3-0.2c-0.7,0-1.4,0-2.2,0c-0.1,0-0.2,0.1-0.2,0.2c-0.1,0.2-0.2,0.5-0.3,0.7c-0.1,0.2-0.2,0.3-0.4,0.3
			c-0.1,0-0.3,0-0.5,0C10.9,41.6,10.9,41.5,10.9,41.5z M13.4,37.2C13.4,37.2,13.4,37.2,13.4,37.2c-0.4,0.9-0.7,1.7-1.1,2.6
			c0.7,0,1.4,0,2.1,0C14.1,38.9,13.8,38.1,13.4,37.2z"/>
		<path class="st0" d="M99.8,39.9c-1,0-2,0-3,0c0,0.6,0.4,1.1,0.9,1.2c0.6,0.1,1.1-0.1,1.5-0.4c0,0,0.1,0,0.1,0
			c0.3,0.3,0.3,0.4-0.1,0.6c-1,0.6-2.3,0.3-2.8-0.6c-0.6-1-0.2-2.3,0.8-2.9c1-0.5,2.1-0.1,2.5,1c0.1,0.1,0.1,0.3,0.1,0.4
			C99.8,39.5,99.8,39.7,99.8,39.9z M99.2,39.4c-0.1-0.5-0.2-0.9-0.7-1.1c-0.4-0.2-0.9-0.2-1.3,0.1c-0.3,0.2-0.4,0.5-0.5,0.9
			C97.6,39.4,98.4,39.4,99.2,39.4z"/>
		<path class="st0" d="M17,41.5C16.9,41.6,16.9,41.6,17,41.5c-0.6,0.1-0.6,0.1-0.6-0.4c0-1,0-2,0-3c0-0.2,0-0.4,0.3-0.4
			c0.3,0,0.4,0,0.4,0.3c0,0,0,0,0,0.1c0.3-0.3,0.7-0.5,1.2-0.5c0.5,0,0.8,0.2,1,0.6c0.3-0.2,0.5-0.4,0.8-0.5c0.8-0.3,1.5,0,1.6,0.9
			c0,0.9,0,1.8,0,2.7c0,0.1-0.1,0.2-0.2,0.2c-0.1,0-0.3,0-0.5,0c0-0.1,0-0.2,0-0.3c0-0.7,0-1.5,0-2.2c0-0.7-0.5-1-1.1-0.7
			c-0.4,0.2-0.6,0.4-0.5,0.8c0,0.7,0,1.4,0,2.1c0,0.3-0.2,0.3-0.3,0.3c-0.2,0-0.3,0-0.3-0.3c0-0.8,0-1.6,0-2.4
			c0-0.4-0.2-0.6-0.5-0.7c-0.5-0.1-1.1,0.4-1.1,0.9C17,40,17,40.8,17,41.5z"/>
		<path class="st0" d="M47.7,40.6c-0.7,1-1.7,1.3-2.9,0.9c-1.2-0.4-1.8-1.4-1.8-2.7c0-1.2,0.8-2.1,1.9-2.4c1.1-0.3,2.2,0,2.8,1
			c-0.2,0.1-0.3,0.2-0.5,0.3c0,0-0.2,0-0.2-0.1c-0.6-0.6-1.3-0.8-2-0.5c-0.8,0.3-1.2,0.9-1.3,1.7c-0.1,1.1,0.5,2,1.4,2.2
			c0.7,0.2,1.3,0,1.8-0.5c0,0,0.1-0.1,0.1-0.1c0,0,0,0,0.1,0C47.3,40.4,47.5,40.5,47.7,40.6z"/>
		<path class="st0" d="M25.8,39.9c-1,0-2,0-3,0c0.1,0.5,0.2,0.8,0.6,1c0.7,0.4,1.3,0.2,1.9-0.3c0,0,0,0,0.1,0
			c0.3,0.3,0.3,0.4-0.1,0.6c-1,0.6-2.7,0.4-3-1.1c-0.4-1.5,0.7-2.7,2.1-2.5c0.8,0.1,1.4,0.8,1.5,1.7C25.8,39.6,25.8,39.7,25.8,39.9z
			 M22.8,39.4c0.8,0,1.6,0,2.4,0c0-0.7-0.5-1.2-1.2-1.2C23.3,38.3,22.8,38.8,22.8,39.4z"/>
		<path class="st0" d="M65.5,39.9c-1,0-2,0-3,0c0,0.5,0.3,0.9,0.7,1.1c0.7,0.3,1.2,0.1,1.8-0.3c0,0,0.1,0,0.1,0
			c0.3,0.3,0.3,0.4-0.1,0.6c-0.9,0.5-2.1,0.4-2.7-0.4c-0.6-0.8-0.6-2,0.1-2.8c0.5-0.6,1.2-0.7,1.9-0.4c0.8,0.3,1.1,0.9,1.2,1.6
			C65.5,39.6,65.5,39.7,65.5,39.9z M62.5,39.4c0.8,0,1.6,0,2.3,0c0.1-0.7-0.5-1.2-1.2-1.2C63,38.2,62.5,38.8,62.5,39.4z"/>
		<path class="st0" d="M68.8,39.9c0.1,0.5,0.3,0.9,0.7,1.1c0.5,0.3,1.1,0.2,1.8-0.3c0.1,0.1,0.2,0.2,0.3,0.4
			c-0.3,0.3-0.7,0.5-1.1,0.6c-1.1,0.2-2.1-0.4-2.3-1.5c-0.3-1.7,1-2.7,2.3-2.4c0.9,0.2,1.3,1.1,1.3,2c0,0.2-0.1,0.2-0.3,0.2
			c-0.8,0-1.6,0-2.4,0C69.1,39.9,69,39.9,68.8,39.9z M68.8,39.4c0.8,0,1.6,0,2.4,0c0-0.7-0.5-1.2-1.2-1.2
			C69.4,38.2,68.9,38.7,68.8,39.4z"/>
		<path class="st0" d="M36.3,39.6c0-0.2,0-0.3,0-0.4c0-0.8-0.5-1.2-1.2-1c-0.3,0.1-0.6,0.3-0.9,0.4c0,0,0,0,0,0
			c-0.3-0.3-0.3-0.4,0.1-0.7c0.6-0.4,1.2-0.4,1.9-0.2c0.5,0.2,0.8,0.5,0.8,1.1c0,0.8,0,1.7,0,2.5c0,0.2-0.1,0.2-0.2,0.2
			c-0.1,0-0.3,0-0.4,0c0-0.1,0-0.2,0-0.3c-0.1,0-0.1,0.1-0.2,0.1c-0.4,0.3-0.8,0.4-1.3,0.3c-0.7-0.1-1.1-0.6-1.1-1.4
			c0-0.6,0.6-1.1,1.2-1.1C35.4,39.2,35.8,39.3,36.3,39.6z M36.3,40.4c0-0.1,0-0.3-0.1-0.4c-0.3-0.4-1.1-0.5-1.5-0.2
			c-0.5,0.3-0.4,1,0.1,1.3C35.4,41.5,36.3,41.1,36.3,40.4z"/>
		<path class="st0" d="M49.8,41.7c-1.1,0-1.9-0.8-1.9-2c0-1.2,0.8-2,1.9-2c1.1,0,1.9,0.8,1.9,2C51.7,40.9,50.9,41.7,49.8,41.7z
			 M51,39.7c0-0.1,0-0.2,0-0.3c-0.1-0.6-0.5-1.1-1.1-1.1c-0.5,0-1,0.3-1.2,0.9c-0.1,0.4-0.1,0.8,0.1,1.2c0.4,0.8,1.4,1,1.9,0.3
			C50.9,40.5,51,40.1,51,39.7z"/>
		<path class="st0" d="M38.3,38.3c0.5-0.4,1-0.6,1.5-0.5c0.5,0.1,0.9,0.4,0.9,0.9c0,0.9,0,1.8,0,2.8c0,0.1-0.1,0.2-0.2,0.2
			c-0.2,0-0.3,0-0.5,0c0-0.8,0-1.5,0-2.2c0-0.1,0-0.3,0-0.4c-0.1-0.5-0.4-0.8-0.9-0.7c-0.2,0-0.3,0.1-0.5,0.2
			c-0.3,0.2-0.6,0.4-0.5,0.8c0,0.7,0,1.4,0,2.1c0,0.3-0.2,0.3-0.3,0.3c-0.2,0-0.3,0-0.3-0.3c0-1.1,0-2.2,0-3.2c0-0.2,0-0.3,0.3-0.3
			c0.2,0,0.4,0,0.4,0.3C38.3,38.2,38.3,38.2,38.3,38.3z"/>
		<path class="st0" d="M52.9,38.2c0.4-0.2,0.7-0.3,1-0.4c0.9-0.2,1.5,0.3,1.5,1.2c0,0.8,0,1.6,0,2.4c0,0.1,0,0.2,0,0.2
			c0,0-0.1,0-0.1,0c-0.5,0-0.5,0-0.5-0.4c0-0.6,0-1.2,0-1.8c0-0.1,0-0.2,0-0.3c-0.1-0.5-0.4-0.8-0.9-0.7c-0.2,0-0.4,0.1-0.6,0.2
			c-0.3,0.2-0.5,0.4-0.5,0.8c0,0.7,0,1.4,0,2.1c0,0.2-0.1,0.3-0.3,0.3c-0.2,0-0.4,0.1-0.4-0.2c0-1.1,0-2.2,0-3.3
			c0-0.2,0.1-0.3,0.3-0.3c0.2,0,0.4,0,0.3,0.3C52.9,38.1,52.9,38.2,52.9,38.2z"/>
		<path class="st0" d="M76.8,38.3c0.1-0.1,0.2-0.2,0.3-0.2c0.3-0.1,0.6-0.3,0.9-0.3c0.8-0.1,1.3,0.3,1.3,1.2c0,0.8,0,1.7,0,2.5
			c0,0.3-0.2,0.2-0.3,0.2c-0.2,0-0.3,0.1-0.3-0.2c0-0.7,0-1.5,0-2.2c0-0.9-0.6-1.1-1.2-0.9c-0.5,0.2-0.7,0.4-0.7,1
			c0,0.6,0,1.3,0,1.9c0,0.4,0,0.4-0.4,0.4c-0.1,0-0.1,0-0.2,0c0-0.2,0-0.3,0-0.5c0-1,0-2,0-2.9c0-0.2,0-0.4,0.3-0.4
			c0.3,0,0.4,0.1,0.3,0.3C76.8,38.2,76.8,38.2,76.8,38.3z"/>
		<path class="st0" d="M92.4,41.2c-0.5,0.4-1,0.6-1.6,0.5c-0.5-0.1-0.9-0.4-0.9-0.9c0-0.9,0-1.9,0-2.8c0-0.3,0.2-0.2,0.4-0.2
			c0.2,0,0.3,0,0.3,0.2c0,0.7,0,1.4,0,2.2c0,0.8,0.5,1.2,1.3,0.8c0.5-0.2,0.6-0.4,0.6-0.9c0-0.7,0-1.4,0-2.1c0-0.3,0.2-0.3,0.3-0.3
			c0.2,0,0.3,0,0.3,0.3c0,1.1,0,2.2,0,3.3c0,0.2,0,0.3-0.2,0.3c-0.2,0-0.4,0-0.4-0.3C92.4,41.3,92.4,41.3,92.4,41.2z"/>
		<path class="st0" d="M82.9,38.3c-0.1,0.1-0.2,0.3-0.2,0.3c-0.4-0.1-0.7-0.3-1-0.4c-0.2,0-0.5,0-0.7,0.1c-0.1,0.1-0.3,0.3-0.3,0.4
			c-0.1,0.2,0.1,0.3,0.3,0.4c0.3,0.1,0.7,0.2,1,0.3c0.4,0.1,0.7,0.3,0.9,0.7c0.2,0.5,0,1.2-0.6,1.4c-0.7,0.3-1.4,0.2-2.1-0.2
			c-0.3-0.2-0.3-0.2-0.1-0.5c0,0,0.1-0.1,0.1-0.1c0.1,0,0.1,0.1,0.2,0.1c0.4,0.3,0.8,0.5,1.3,0.4c0.2,0,0.3-0.1,0.4-0.2
			c0.3-0.2,0.3-0.7-0.1-0.8c-0.2-0.1-0.4-0.2-0.7-0.2c-0.3-0.1-0.6-0.1-0.8-0.3c-0.7-0.3-0.8-1.3-0.1-1.7
			C81.2,37.5,82.3,37.7,82.9,38.3z"/>
		<path class="st0" d="M59.3,38.4c-0.1,0.1-0.3,0.2-0.3,0.3c-0.3-0.1-0.5-0.3-0.7-0.4c-0.2-0.1-0.5,0-0.8,0
			c-0.6,0.2-0.9,0.8-0.8,1.6c0.1,0.6,0.5,1.1,1.2,1.1c0.4,0,0.8-0.1,1-0.5c0.1,0.1,0.3,0.2,0.4,0.3c-0.3,0.6-1.1,0.8-1.9,0.6
			c-0.8-0.2-1.3-0.9-1.4-1.8c0-0.9,0.5-1.7,1.2-2C58,37.6,58.9,37.8,59.3,38.4z"/>
		<path class="st0" d="M32.8,40.6c0.5,0.4,0.5,0.5,0,0.8c-0.9,0.6-2.1,0.2-2.6-0.7c-0.4-0.8-0.4-1.6,0.1-2.3
			c0.5-0.6,1.1-0.8,1.9-0.7c0.4,0.1,0.8,0.3,1,0.6c-0.1,0.1-0.3,0.2-0.3,0.3c-0.3-0.2-0.5-0.3-0.8-0.4c-0.6-0.2-1.1,0.2-1.4,0.7
			c-0.2,0.4-0.2,0.9,0,1.3c0.3,0.8,1.3,1,2,0.4C32.8,40.7,32.8,40.7,32.8,40.6z"/>
		<path class="st0" d="M94.3,38.4c-0.2,0-0.4,0-0.6,0c0-0.1,0-0.2,0-0.3c0-0.2,0.1-0.3,0.3-0.3c0.3,0,0.4-0.1,0.3-0.3
			c0-0.1,0-0.3,0-0.4c0-0.2,0.1-0.3,0.3-0.3c0.3,0,0.4,0.1,0.3,0.3c0,0,0,0,0,0c0,0.2-0.1,0.4,0,0.5c0.1,0.1,0.3,0,0.5,0.1
			c0.1,0,0.2,0.1,0.2,0.2c0,0.1,0,0.2,0,0.3c-0.3,0-0.5,0-0.7,0c0,0.1,0,0.2,0,0.3c0,0.6,0,1.2,0,1.8c0,0.6,0.1,0.7,0.7,0.5
			c0.3,0.4,0.2,0.6-0.3,0.7c-0.7,0.1-1.1-0.2-1.1-0.9c0-0.7,0-1.4,0-2.1C94.3,38.6,94.3,38.5,94.3,38.4z"/>
		<path class="st0" d="M67.7,41c0.3,0.5,0.2,0.6-0.3,0.7c-0.7,0.1-1.1-0.2-1.1-1c0-0.8,0-1.5,0-2.3c-0.2,0-0.4,0-0.6,0
			c0-0.2,0-0.4,0.1-0.5c0.1-0.1,0.3,0,0.6-0.1c0-0.3,0-0.5,0-0.8c0-0.3,0.2-0.2,0.3-0.2c0.2,0,0.3,0,0.3,0.2c0,0.3,0,0.5,0,0.8
			c0.2,0,0.4,0,0.5,0c0.3,0,0.2,0.2,0.2,0.3c0,0.2,0,0.3-0.2,0.3c-0.2,0-0.3,0-0.5,0c0,0.1,0,0.2,0,0.3c0,0.6,0,1.2,0,1.8
			C67,41.1,67.2,41.2,67.7,41z"/>
		<path class="st0" d="M83.2,38.4c0-0.2,0-0.5,0.1-0.5c0.1-0.1,0.3,0,0.6-0.1c0-0.3,0-0.7,0-0.9c0,0,0.1,0,0.1,0
			c0.6-0.1,0.6-0.1,0.6,0.5c0,0.5,0,0.5,0.5,0.5c0.2,0,0.3,0.1,0.3,0.3c0,0.2-0.1,0.3-0.3,0.3c-0.2,0-0.3,0-0.5,0c0,0.4,0,0.8,0,1.2
			c0,0.3,0,0.7,0,1c0,0.6,0.2,0.7,0.7,0.5c0.3,0.4,0.2,0.6-0.2,0.7c-0.7,0.1-1.2-0.1-1.1-0.9c0-0.8,0-1.6,0-2.4
			C83.6,38.4,83.4,38.4,83.2,38.4z"/>
		<path class="st0" d="M89.1,41c0.3,0.5,0.2,0.6-0.3,0.7c-0.7,0.1-1-0.2-1-1c0-0.7,0-1.3,0-2c0-0.1,0-0.2,0-0.3c-0.2,0-0.4,0-0.6,0
			c0-0.1,0-0.1,0-0.2c0-0.3,0-0.4,0.3-0.4c0.2,0,0.3-0.1,0.3-0.3c0-0.2,0-0.5,0-0.7c0.6-0.1,0.6-0.1,0.6,0.5c0,0.2,0,0.3,0,0.5
			c0.2,0,0.4,0,0.5,0c0.2,0,0.2,0.1,0.2,0.3s0,0.3-0.2,0.3c-0.2,0-0.3,0-0.5,0c0,0.4,0,0.8,0,1.2c0,0.3,0,0.6,0,1
			C88.3,41.1,88.5,41.2,89.1,41z"/>
		<path class="st0" d="M75.1,41.6c-0.2,0-0.4,0-0.7,0c0-1.7,0-3.4,0-5.2c0.2,0,0.4,0,0.7,0C75.1,38.1,75.1,39.8,75.1,41.6z"/>
		<path class="st0" d="M27,38.3c0.4-0.3,0.7-0.6,1.2-0.6c0,0.2,0,0.4,0,0.6c-0.4,0-0.8,0.1-1,0.3C27.1,38.8,27,39,27,39.1
			c0,0.7,0,1.4,0,2.1c0,0.1,0,0.2,0,0.3c0,0-0.1,0-0.1,0c-0.5,0.1-0.5,0.1-0.5-0.5c0-1,0-2,0-3c0-0.2,0-0.4,0.3-0.4
			c0.3,0,0.4,0.1,0.3,0.4C27,38.2,27,38.2,27,38.3z"/>
		<path class="st0" d="M60.6,41.6c-0.2,0-0.4,0-0.6,0c0-1.3,0-2.5,0-3.7c0.5-0.2,0.6-0.1,0.6,0.4c0.4-0.3,0.7-0.6,1.2-0.5
			c0,0.2,0,0.4,0,0.5c-0.3,0.1-0.6,0.2-0.9,0.3c-0.2,0.1-0.3,0.3-0.3,0.6c0,0.7,0,1.3,0,2C60.6,41.4,60.6,41.5,60.6,41.6z"/>
		<path class="st0" d="M86,37.9C86.1,37.8,86.1,37.8,86,37.9c0.6-0.1,0.6-0.1,0.6,0.5c0,1,0,1.9,0,2.9c0,0.5,0,0.5-0.4,0.4
			c-0.1,0-0.1,0-0.2,0C86,40.3,86,39.1,86,37.9z"/>
		<path class="st0" d="M29.4,39.7c0,0.5,0,1.1,0,1.7c0,0.3-0.2,0.2-0.3,0.3c-0.2,0-0.3,0-0.3-0.3c0-1.1,0-2.2,0-3.3
			c0-0.3,0.2-0.2,0.3-0.3c0.2,0,0.3,0,0.3,0.3C29.4,38.6,29.4,39.2,29.4,39.7z"/>
		<path class="st0" d="M86.7,36.9c0,0.2-0.2,0.4-0.4,0.4c-0.2,0-0.4-0.2-0.4-0.4s0.2-0.4,0.4-0.4S86.7,36.7,86.7,36.9z"/>
		<path class="st0" d="M29.5,36.9c0,0.2-0.2,0.4-0.4,0.4s-0.4-0.2-0.4-0.4c0-0.2,0.2-0.4,0.4-0.4C29.3,36.5,29.5,36.7,29.5,36.9z"/>
	</g>
	<g>
		<g>
			<g>
				<g>
					<path class="st0" d="M75.3,51.9c-0.2-0.1-0.5-0.2-0.7-0.3c-0.2-0.1-0.2-0.2,0-0.4c0.5,0.4,1,0.5,1.5,0.2
						c0.4-0.2,0.4-0.6,0.5-1.1c-0.1,0.1-0.2,0.1-0.2,0.2c-0.4,0.3-0.8,0.4-1.2,0.2c-0.5-0.2-0.6-0.6-0.6-1.1c0-0.6,0.2-1.1,0.7-1.4
						c0.5-0.3,1-0.3,1.5,0c0.1,0,0.1,0.1,0.2,0.2c0-0.1,0-0.2,0.1-0.3s0.2-0.1,0.3-0.1c0,0,0.1,0.1,0.1,0.2
						c-0.2,0.9-0.4,1.8-0.6,2.7c-0.1,0.6-0.6,0.9-1.1,1C75.7,51.9,75.5,51.9,75.3,51.9z M76.2,48.2c-0.3,0-0.6,0.1-0.7,0.3
						c-0.3,0.3-0.4,0.8-0.3,1.3c0.1,0.4,0.4,0.6,0.7,0.6c0.4,0,0.9-0.3,1-0.6c0.1-0.3,0.1-0.5,0.2-0.8c0.1-0.4,0-0.5-0.3-0.7
						C76.5,48.3,76.3,48.2,76.2,48.2z"/>
				</g>
			</g>
			<g>
				<path class="st0" d="M44.3,51.9c0-0.1-0.1-0.2-0.1-0.2c0-0.1,0.2-0.1,0.2-0.1c0.2-0.1,0.3-0.1,0.4-0.2c0.3-0.3,0.4-0.6,0.3-1
					c-0.2-0.7-0.3-1.3-0.4-2c0-0.1-0.1-0.3,0.1-0.3c0.2,0,0.2,0,0.3,0.2c0.1,0.6,0.2,1.2,0.3,1.8c0,0.1,0,0.2,0.1,0.3
					c0.1-0.1,0.2-0.2,0.2-0.3c0.4-0.6,0.7-1.1,1.1-1.7c0.1-0.2,0.3-0.3,0.5-0.2c-0.2,0.3-0.4,0.6-0.6,0.9c-0.5,0.7-0.9,1.4-1.4,2.2
					c-0.2,0.3-0.4,0.6-0.8,0.8C44.6,51.9,44.5,51.9,44.3,51.9z"/>
			</g>
			<g>
				<g>
					<path class="st0" d="M35.1,50.7c-0.4,0.1-0.4,0.1-0.5-0.3c-0.1-0.6-0.1-0.6-0.7-0.6c-0.4,0-0.8,0-1.2,0c-0.2,0-0.3,0-0.4,0.2
						c-0.1,0.1-0.2,0.2-0.2,0.4c-0.1,0.3-0.4,0.4-0.7,0.3c0.2-0.4,0.5-0.7,0.7-1.1c0.5-0.8,1-1.7,1.6-2.5c0.1-0.1,0.2-0.2,0.3-0.2
						c0.4,0,0.4,0,0.5,0.3c0.2,1.1,0.4,2.2,0.6,3.3C35.1,50.5,35.1,50.6,35.1,50.7z M32.8,49.4C32.8,49.4,32.9,49.4,32.8,49.4
						c0.5,0.1,1,0.1,1.5,0.1c0.2,0,0.2-0.1,0.2-0.2c-0.1-0.5-0.2-1-0.3-1.5c0-0.1-0.1-0.3-0.1-0.4c0,0,0,0-0.1,0
						C33.7,48,33.2,48.7,32.8,49.4z"/>
				</g>
			</g>
			<g>
				<path class="st0" d="M39.7,50.1c0.2-0.3,0.3-0.6,0.5-1c0.2-0.3,0.3-0.7,0.5-1c0.1-0.2,0.2-0.3,0.4-0.2c0,0.1,0,0.2-0.1,0.2
					c-0.4,0.8-0.8,1.5-1.2,2.3c-0.1,0.2-0.2,0.2-0.4,0.1c-0.1,0-0.1-0.2-0.1-0.2c-0.1-0.6-0.1-1.1-0.2-1.7c0-0.1,0-0.2,0-0.2
					c0,0,0,0-0.1,0c-0.1,0.2-0.3,0.4-0.4,0.7c-0.3,0.5-0.5,0.9-0.7,1.4c-0.1,0.2-0.2,0.2-0.3,0.2c-0.1,0-0.1-0.2-0.2-0.3
					c-0.1-0.7-0.2-1.4-0.2-2c0-0.1,0-0.1,0-0.2c0-0.1,0.1-0.2,0.2-0.2c0.1,0.1,0.2,0.1,0.2,0.2c0.1,0.5,0.1,1.1,0.2,1.7
					c0,0.1,0,0.2,0.1,0.3c0-0.1,0.1-0.2,0.2-0.2c0.3-0.6,0.6-1.1,1-1.7c0.1-0.1,0.2-0.3,0.3-0.2c0.1,0,0.1,0.2,0.1,0.3
					c0.1,0.5,0.1,1.1,0.2,1.6C39.6,50,39.6,50,39.7,50.1C39.6,50.1,39.7,50.1,39.7,50.1z"/>
			</g>
			<g>
				<g>
					<path class="st0" d="M57.4,48.4c0.1-0.4,0.2-0.8,0.3-1.2c0-0.2,0.1-0.3,0.4-0.2c0,0.1,0,0.2,0,0.2c-0.2,1.1-0.5,2.2-0.7,3.3
						c0,0.3-0.2,0.3-0.4,0.2c0-0.1,0-0.2,0-0.3c-0.1,0.1-0.1,0.1-0.2,0.1c-0.3,0.3-0.7,0.3-1.1,0.2c-0.4-0.1-0.6-0.4-0.7-0.8
						c-0.1-0.5,0-1.1,0.4-1.5c0.5-0.7,1.5-0.6,1.9-0.1C57.3,48.3,57.3,48.3,57.4,48.4z M55.4,49.5c0,0.5,0.2,0.8,0.7,0.9
						c0.4,0.1,1-0.3,1.1-0.7c0-0.2,0.1-0.5,0.2-0.7c0.1-0.4,0-0.6-0.4-0.7c-0.4-0.2-0.8-0.1-1.1,0.2C55.5,48.8,55.4,49.1,55.4,49.5z
						"/>
				</g>
			</g>
			<g>
				<g>
					<path class="st0" d="M53.7,50.8c0-0.2,0-0.3,0-0.4c-0.1,0-0.1,0.1-0.2,0.1c-0.6,0.6-1.6,0.3-1.8-0.6c-0.1-0.7,0.2-1.5,0.8-1.8
						c0.5-0.3,1-0.2,1.5,0.2c0,0,0.1,0.1,0.2,0.1c0-0.1,0-0.2,0.1-0.2c0.1-0.1,0.2-0.1,0.3-0.1c0,0.1,0.1,0.2,0.1,0.2
						c-0.2,0.8-0.3,1.6-0.5,2.4C54,50.7,53.9,50.7,53.7,50.8z M53.3,48.2c-0.7,0-1.2,0.6-1.2,1.3c0,0.5,0.3,0.9,0.7,0.9
						c0.4,0.1,0.9-0.3,1-0.7c0.1-0.3,0.1-0.5,0.2-0.8c0.1-0.3,0-0.4-0.2-0.5C53.7,48.3,53.5,48.3,53.3,48.2z"/>
				</g>
			</g>
			<g>
				<g>
					<path class="st0" d="M63.6,48.3c0.1-0.2,0.1-0.5,0.4-0.3c-0.1,0.4-0.2,0.8-0.3,1.1c-0.1,0.4-0.2,0.9-0.3,1.3
						c0,0.2-0.2,0.3-0.4,0.3c0-0.1,0-0.2,0-0.3c0,0-0.1,0-0.1,0c-0.4,0.4-0.8,0.5-1.3,0.2c-0.5-0.2-0.6-0.7-0.5-1.2
						c0.1-0.4,0.2-0.7,0.4-1c0.4-0.7,1.3-0.7,1.9-0.2C63.5,48.3,63.5,48.3,63.6,48.3z M61.6,49.5c0,0.3,0.1,0.6,0.4,0.8
						c0.5,0.3,1.2,0,1.3-0.6c0-0.2,0.1-0.5,0.2-0.7c0.1-0.4,0-0.5-0.3-0.7c-0.4-0.2-0.7-0.2-1,0.1C61.7,48.7,61.6,49.1,61.6,49.5z"
						/>
				</g>
			</g>
			<g>
				<g>
					<path class="st0" d="M43.3,50.7c0-0.1,0-0.2,0-0.3c-0.1,0.1-0.2,0.1-0.2,0.2c-0.4,0.3-0.8,0.3-1.2,0.1
						c-0.4-0.2-0.5-0.5-0.6-0.9c0-0.6,0.1-1.1,0.6-1.5c0.5-0.4,1.1-0.4,1.6-0.1c0.1,0,0.1,0.1,0.2,0.2c0.1-0.2,0.1-0.5,0.5-0.3
						c-0.2,0.7-0.3,1.3-0.4,2c0,0.1-0.1,0.3-0.1,0.4C43.6,50.7,43.5,50.8,43.3,50.7z M41.7,49.5c0,0.2,0,0.3,0.1,0.5
						c0.1,0.3,0.4,0.5,0.8,0.5c0.3,0,0.8-0.3,0.9-0.6c0.1-0.3,0.1-0.5,0.2-0.8c0.1-0.4,0-0.5-0.4-0.7c-0.4-0.2-0.9-0.1-1.2,0.3
						C41.8,48.8,41.7,49.1,41.7,49.5z"/>
				</g>
			</g>
			<g>
				<path class="st0" d="M72.4,48c0,0.1,0,0.2,0,0.3c0.1-0.1,0.2-0.1,0.2-0.2c0.3-0.2,0.7-0.3,1.1-0.2c0.3,0.1,0.5,0.4,0.5,0.7
					c-0.1,0.6-0.3,1.2-0.4,1.8c-0.1,0.2-0.2,0.2-0.4,0.2c0.1-0.3,0.1-0.5,0.2-0.8c0.1-0.3,0.1-0.6,0.2-0.9c0.1-0.2,0.1-0.5-0.1-0.6
					c-0.2-0.2-0.5-0.2-0.7-0.1c-0.3,0.1-0.6,0.3-0.7,0.7c-0.1,0.5-0.2,1-0.3,1.4c-0.1,0.3-0.2,0.3-0.4,0.3c0.2-0.9,0.4-1.7,0.6-2.6
					C72.1,48,72.3,48,72.4,48C72.4,48,72.4,48,72.4,48z"/>
			</g>
			<g>
				<path class="st0" d="M64.3,50.7c0.1-0.5,0.2-1.1,0.3-1.6c0.1-0.3,0.1-0.6,0.2-0.8c0-0.2,0.2-0.3,0.4-0.2c0,0.1,0,0.2,0,0.3
					c0.1,0,0.2-0.1,0.2-0.1c0.3-0.3,0.6-0.3,1-0.3s0.6,0.3,0.6,0.7c-0.1,0.6-0.3,1.3-0.4,1.9c-0.1,0.3-0.2,0.1-0.4,0.2
					c0.1-0.4,0.2-0.7,0.2-1.1c0.1-0.3,0.1-0.6,0.2-0.8c0.1-0.3-0.1-0.6-0.5-0.6c-0.6,0-1,0.3-1.1,0.8c-0.1,0.5-0.2,0.9-0.3,1.4
					C64.7,50.7,64.7,50.7,64.3,50.7z"/>
			</g>
			<g>
				<path class="st0" d="M49.7,48.3c-0.1,0.1-0.1,0.1-0.2,0.2c-0.2-0.1-0.4-0.3-0.6-0.3c-0.2,0-0.5,0-0.7,0.1
					c-0.3,0.2-0.3,0.5,0,0.6c0.3,0.1,0.5,0.2,0.8,0.4c0.6,0.3,0.7,0.9,0.1,1.3c-0.4,0.3-1.3,0.3-1.7-0.1c0,0-0.1-0.2-0.1-0.2
					c0-0.1,0.2-0.1,0.3,0c0.2,0.2,0.5,0.3,0.8,0.3c0.1,0,0.3,0,0.4-0.1c0.3-0.2,0.3-0.6,0-0.7c-0.2-0.1-0.5-0.2-0.7-0.3
					c-0.3-0.1-0.5-0.3-0.5-0.7c0-0.3,0.3-0.6,0.6-0.7C48.8,47.8,49.3,47.9,49.7,48.3z"/>
			</g>
			<g>
				<path class="st0" d="M58.5,48c0.3-0.1,0.4,0,0.4,0.2c0.1,0.5,0.2,1.1,0.3,1.6c0,0.1,0,0.2,0.1,0.4c0.1-0.2,0.2-0.3,0.3-0.4
					c0.4-0.6,0.7-1.1,1.1-1.7c0.1-0.2,0.3-0.2,0.5-0.2c0,0.1,0,0.1-0.1,0.2c-0.5,0.8-1,1.5-1.5,2.3c0,0.1-0.1,0.1-0.1,0.2
					c-0.2,0.2-0.5,0.1-0.5-0.1C58.7,49.7,58.6,48.9,58.5,48C58.5,48.1,58.5,48,58.5,48z"/>
			</g>
			<g>
				<path class="st0" d="M70,48.4c-0.1,0.1-0.2,0.1-0.2,0.2c-0.5-0.4-0.9-0.4-1.3-0.2c-0.4,0.3-0.7,0.9-0.5,1.4
					c0.1,0.5,0.7,0.8,1.2,0.6c0.1,0,0.3-0.1,0.4-0.2c0.2,0.1,0.2,0.2,0,0.4c-0.4,0.3-0.9,0.3-1.3,0.1c-0.5-0.2-0.7-0.6-0.7-1.1
					c0-1,0.7-1.9,1.8-1.7C69.6,48,69.8,48.2,70,48.4C70.1,48.3,70,48.3,70,48.4z"/>
			</g>
			<g>
				<path class="st0" d="M36.8,46.9c0,0.2-0.1,0.4-0.1,0.6c-0.2,1-0.4,1.9-0.6,2.9c0,0.3-0.2,0.3-0.4,0.2c0.1-0.4,0.2-0.8,0.3-1.2
					c0.2-0.8,0.3-1.5,0.5-2.3C36.5,46.9,36.5,46.8,36.8,46.9z"/>
			</g>
			<g>
				<path class="st0" d="M71.1,48c-0.1,0.4-0.2,0.8-0.3,1.2c-0.1,0.4-0.2,0.9-0.3,1.3c-0.1,0.3-0.2,0.2-0.4,0.2
					c0.1-0.6,0.3-1.2,0.4-1.7c0.1-0.3,0.1-0.5,0.2-0.8C70.8,48,70.9,47.9,71.1,48z"/>
			</g>
			<g>
				<path class="st0" d="M71.4,47.3c-0.1,0.1-0.2,0.2-0.3,0.2c-0.1,0-0.2-0.1-0.2-0.2C71,47.2,71,47,71.1,47c0.1,0,0.2,0.1,0.3,0.2
					C71.4,47.2,71.4,47.2,71.4,47.3z"/>
			</g>
		</g>
	</g>
	<path class="st0" d="M56,4.5c0.1,0,0.2,0.1,0.3,0.1c1.8,0,3.5,0.3,5.3,0.6c1.9,0.3,3.8,0.9,5.6,1.6c2.1,0.8,4,2,5.8,3.4
		c0.2,0.2,0.4,0.4,0.7,0.7c-0.1,0-0.2,0-0.3,0c-1.9,0-3.8,0-5.7,0c-0.2,0-0.3-0.1-0.5-0.2c-2.5-2-5.3-3.1-8.4-3.7
		c-1.6-0.3-3.3-0.5-4.9-0.5c-1.3,0-2.6,0-3.9,0.1c-2.5,0.2-4.9,0.7-7.3,1.6c-1.6,0.6-3.2,1.4-4.5,2.5c-2,1.6-3.5,3.5-4,5.9
		c-0.5,2-0.3,3.9,0.6,5.7c0.3,0.7,0.8,1.3,1.2,2c0.1,0.1,0.1,0.2,0.2,0.3c0,0,0,0,0,0c-0.1-0.1-0.2-0.1-0.2-0.2
		c-1.1-1.2-2-2.6-2.5-4.2C32.8,18.1,33,16,34.1,14c0.9-1.8,2.3-3.3,3.9-4.5c1.7-1.3,3.5-2.2,5.4-2.9c2.1-0.8,4.3-1.4,6.5-1.7
		c1.3-0.2,2.6-0.2,3.9-0.4c0.1,0,0.2,0,0.3-0.1C54.7,4.5,55.3,4.5,56,4.5z"/>
	<path class="st0" d="M46.8,15.4c0-0.3,0-0.6,0-0.9c0-0.3,0.1-0.4,0.3-0.3c0.6,0,1.2,0,1.8,0c0.3,0,0.4,0.1,0.3,0.3
		c0,1.7,0,3.5,0,5.2c0,1.4,0,2.8,0,4.1c0,0.3,0,0.4-0.3,0.3c-0.6,0-1.2,0-1.8,0c-0.2,0-0.3-0.1-0.3-0.3c0-0.3,0-0.6,0-1
		c0,0-0.1,0-0.1,0c-0.6,0.9-1.5,1.3-2.5,1.5c-1.6,0.2-3.1-0.2-4.3-1.4c-0.9-0.9-1.3-2-1.5-3.2c-0.1-1.3,0.1-2.5,0.8-3.6
		c1.4-2.3,4.2-2.8,6-2c0.6,0.2,1,0.6,1.4,1.1C46.7,15.4,46.7,15.4,46.8,15.4C46.8,15.4,46.8,15.4,46.8,15.4z M43.8,22.3
		c1.7,0,3-1.3,3-3.1c0-1.7-1.3-3-3-3s-3,1.3-3,3.1C40.8,21,42.1,22.3,43.8,22.3z"/>
	<path class="st0" d="M61.1,20.6c-0.5,2.1-2.6,4.2-5.8,3.9c-2.8-0.3-4.8-2.6-4.7-5.5c0.1-2.8,2.2-5,4.9-5.1c3.1-0.2,5.2,2,5.6,4
		c-0.8,0-1.6,0-2.4,0c-0.1,0-0.1-0.1-0.2-0.2c-0.9-1.9-3.4-2.1-4.6-0.8c-0.7,0.6-0.9,1.5-0.9,2.4c0,1.2,0.5,2.1,1.7,2.7
		c1.3,0.6,3,0.3,3.9-1.2c0-0.1,0.2-0.2,0.3-0.2C59.6,20.6,60.3,20.6,61.1,20.6C61,20.5,61.1,20.6,61.1,20.6z"/>
	<path class="st0" d="M68.5,11.9c0.2,0,0.3,0,0.4,0c1.9,0,3.7,0,5.6,0c0.2,0,0.3,0.1,0.5,0.2c1.1,1.4,1.8,3,2.1,4.8
		c0,0.1,0,0.2,0,0.3c0,0.1-0.1,0.1-0.2,0.2c0,0-0.1,0-0.2,0c-1.7,0-3.4,0-5.1,0c-0.3,0-0.3-0.1-0.4-0.3c-0.3-1.8-1.2-3.4-2.4-4.8
		C68.7,12.1,68.6,12.1,68.5,11.9z"/>
	<path class="st0" d="M69.4,24.2c0.2-0.3,0.4-0.6,0.6-0.9c0.8-1.4,1.3-3,1.3-4.6c0-0.2,0.1-0.3,0.3-0.3c1.7,0,3.4,0,5.1,0
		c0.3,0,0.3,0.1,0.3,0.3c-0.2,1.5-0.7,3-1.5,4.2c-0.2,0.4-0.5,0.7-0.8,1c-0.1,0.1-0.3,0.2-0.4,0.2c-1.6,0-3.1,0-4.7,0
		C69.6,24.2,69.5,24.2,69.4,24.2z"/>
	<path class="st0" d="M73.4,25.4c-0.5,0.4-1.1,0.9-1.6,1.3c-2,1.5-4.3,2.5-6.7,3.3c-1.9,0.6-3.9,1.1-5.9,1.3
		c-1.4,0.1-2.8,0.2-4.2,0.3c-0.9,0-1.8-0.1-2.6-0.1c-0.1,0-0.1,0-0.2-0.1c0.2,0,0.3,0,0.5,0c2.7,0,5.3-0.3,7.9-1.1
		c2.6-0.8,4.9-2,7-3.8c0.3-0.3,0.6-0.6,0.9-0.9c0.1-0.1,0.2-0.1,0.3-0.1c1.5,0,2.9,0,4.4,0C73.2,25.3,73.3,25.3,73.4,25.4
		C73.3,25.3,73.4,25.3,73.4,25.4z"/>
	<path class="st0" d="M65.1,19.2c0,1.6,0,3.1,0,4.7c0,0.3-0.1,0.4-0.3,0.3c-0.6,0-1.2,0-1.8,0c-0.2,0-0.3-0.1-0.3-0.3
		c0-3.2,0-6.3,0-9.5c0-0.2,0.1-0.3,0.3-0.3c0.6,0,1.2,0,1.8,0c0.2,0,0.3,0.1,0.3,0.3C65.1,16.1,65.1,17.6,65.1,19.2z"/>
	<path class="st0" d="M62.6,12c0-0.8,0.6-1.4,1.3-1.4c0.8,0,1.4,0.6,1.4,1.4c0,0.7-0.6,1.3-1.3,1.3C63.2,13.3,62.6,12.8,62.6,12z"/>
	<path class="st0" d="M75.6,9.1c0.5,0,0.9,0.4,0.9,0.9c0,0.5-0.4,0.9-0.9,0.9c-0.5,0-0.9-0.4-0.9-0.9C74.6,9.5,75,9.1,75.6,9.1z
		 M76.3,10c0-0.4-0.3-0.7-0.7-0.8c-0.4,0-0.8,0.3-0.8,0.7s0.3,0.8,0.8,0.8C76,10.8,76.3,10.4,76.3,10z"/>
	<g>
		<g>
			<path class="st0" d="M75.9,10.5C75.9,10.5,75.9,10.5,75.9,10.5L75.9,10.5C75.9,10.5,75.9,10.5,75.9,10.5
				C75.9,10.5,75.8,10.5,75.9,10.5c-0.1,0-0.1,0-0.2,0s0,0,0,0s0,0,0,0c0,0,0,0,0,0l-0.1-0.2c0,0,0-0.1,0-0.1s0,0,0-0.1s0,0,0,0
				c0,0,0,0-0.1,0h-0.1v0.4c0,0,0,0,0,0s0,0,0,0c0,0,0,0,0,0c0,0,0,0-0.1,0c0,0,0,0-0.1,0s0,0,0,0s0,0,0,0v0V9.6c0,0,0,0,0-0.1
				c0,0,0,0,0,0h0.3c0,0,0.1,0,0.1,0c0,0,0,0,0.1,0c0,0,0.1,0,0.1,0c0,0,0.1,0,0.1,0.1c0,0,0,0.1,0.1,0.1s0,0.1,0,0.1
				c0,0,0,0.1,0,0.1s0,0.1,0,0.1c0,0,0,0-0.1,0.1c0,0-0.1,0-0.1,0c0,0,0,0,0,0c0,0,0,0,0,0c0,0,0,0,0,0.1s0,0,0,0.1L75.9,10.5
				C75.9,10.4,75.9,10.4,75.9,10.5C75.9,10.5,75.9,10.5,75.9,10.5z M75.7,9.8C75.7,9.8,75.7,9.8,75.7,9.8c0-0.1-0.1-0.1-0.1-0.1
				c0,0,0,0,0,0c0,0,0,0-0.1,0h-0.1V10h0.1c0,0,0.1,0,0.1,0S75.6,9.9,75.7,9.8C75.6,9.9,75.6,9.9,75.7,9.8
				C75.7,9.9,75.7,9.8,75.7,9.8z"/>
		</g>
	</g>
</g>
</svg>
