<?xml version="1.0" encoding="utf-8"?>
<!-- Generator: Adobe Illustrator 23.0.1, SVG Export Plug-In . SVG Version: 6.00 Build 0)  -->
<svg version="1.1" id="Layer_1" xmlns="http://www.w3.org/2000/svg" xmlns:xlink="http://www.w3.org/1999/xlink" x="0px" y="0px"
	 viewBox="0 0 112.8 56.9" style="enable-background:new 0 0 112.8 56.9;" xml:space="preserve">
<style type="text/css">
	.st0{fill:#4D4D4D;}
</style>
<g>
	<path class="st0" d="M21.1,27.5c1.1-0.2,2.2-0.5,3.4-0.6c2.4-0.4,4.7-0.4,7.1-0.4c2.3,0,4.6,0.2,6.8,0.5c0.1,0,0.3,0,0.4,0
		c0-0.3-0.1-0.4-0.3-0.5c-0.9-0.2-1.8-0.4-2.8-0.6c-0.3-0.1-0.4-0.2-0.5-0.5c-0.6-1.7-1.1-3.5-1.7-5.2c0-0.1-0.1-0.2-0.1-0.4
		c-0.1,0.2-0.1,0.3-0.2,0.4c-0.5,1.6-1.1,3.2-1.6,4.8c-0.1,0.3-0.2,0.4-0.5,0.4c-1.8,0-3.5,0-5.3,0.1c-0.1,0-0.1,0-0.3,0
		c0-0.1,0.1-0.2,0.1-0.3c1.5-3.7,3-7.4,4.5-11.1c0.1-0.3,0.2-0.3,0.5-0.3c1.9,0,3.7,0,5.5,0c0.3,0,0.4,0.1,0.5,0.3
		c2.7,6.8,5.3,13.6,8,20.4c0,0.1,0.1,0.2,0.1,0.3c-0.1,0-0.2,0-0.3,0c-1.8,0-3.6,0-5.4,0c-0.3,0-0.4-0.1-0.4-0.3
		c-0.3-1-0.7-1.9-1.1-2.9c-0.1-0.3-0.3-0.4-0.5-0.5c-1.7-0.3-3.5-0.3-5.3-0.2c-0.7,0-1.3,0.1-2,0.2c-0.2,0-0.4,0.1-0.5,0.4
		c-0.4,1-0.8,2-1.3,3c-0.1,0.2-0.2,0.3-0.5,0.3c-1.8,0-3.6,0-5.4,0c-0.1,0-0.2,0-0.4,0c0.5-1.2,1-2.3,1.4-3.5c-0.3,0-0.6,0-0.8,0
		c-0.1,0-0.2,0-0.2,0c-0.1,0-0.2-0.1-0.2-0.1c0.1,0,0.1-0.1,0.2-0.1c0,0,0.1,0,0.1,0c3.9-0.8,7.8-1.2,11.8-1.1
		c1.8,0,3.5,0.2,5.2,0.5c0.1,0,0.2,0,0.3,0c0.1-0.3-0.1-0.4-0.3-0.4c-1.2-0.2-2.4-0.5-3.6-0.7c-2.7-0.4-5.5-0.5-8.2-0.4
		c-1.8,0.1-3.7,0.3-5.5,0.6c-0.1,0-0.1,0-0.2,0c0,0-0.1,0-0.1-0.1c0-0.1,0-0.1,0.1-0.2c0.1,0,0.1,0,0.2-0.1c2-0.5,4.1-0.8,6.2-1
		c3.2-0.2,6.3-0.1,9.5,0.2c0.5,0.1,1,0.1,1.5,0.2c0.1-0.3,0-0.3-0.2-0.4c-0.9-0.2-1.8-0.5-2.8-0.7c-3-0.5-6.1-0.6-9.1-0.4
		c-1.9,0.1-3.9,0.3-5.8,0.5C21.1,27.6,21.1,27.5,21.1,27.5z"/>
	<path class="st0" d="M53.8,13.1c0.6,0.1,1.3,0.2,1.9,0.3c1.3,0.3,2.6,0.7,3.8,1.3c0.3,0.2,0.3,0.2,0.2,0.5
		c-0.6,1.2-1.3,2.4-1.9,3.6c0,0.1-0.1,0.2-0.2,0.3c-0.1-0.1-0.2-0.1-0.3-0.2c-1.1-0.7-2.3-1.2-3.6-1.1c-0.6,0-1.1,0.2-1.6,0.5
		c-0.9,0.6-1,1.7-0.1,2.4c0.6,0.4,1.3,0.6,2,0.9c1.1,0.4,2.3,0.7,3.4,1.1c0.4,0.1,0.8,0.4,1.1,0.6c1.5,1,2.2,2.4,2.3,4.2
		c0,1.4-0.2,2.8-0.8,4.1c-0.7,1.4-1.9,2.3-3.3,2.9c-2.3,1-4.7,1.1-7.1,0.6c-1.7-0.3-3.3-1-4.7-1.9c-0.3-0.2-0.3-0.3-0.2-0.5
		c0.7-1.3,1.4-2.5,2.1-3.8c0-0.1,0.1-0.2,0.2-0.3c0.1,0.1,0.2,0.2,0.3,0.2c1.2,0.9,2.4,1.6,3.8,1.8c0.9,0.1,1.7,0.1,2.5-0.3
		c0.6-0.3,1-0.8,1.2-1.5c0.1-0.6-0.1-1.1-0.6-1.5c-0.5-0.3-1-0.6-1.6-0.8c-1-0.3-2-0.6-2.9-0.9c-0.6-0.2-1.1-0.4-1.7-0.6
		c-1.5-0.7-2.4-1.9-2.7-3.6c-0.2-1.7,0-3.3,0.8-4.8c1.1-1.9,2.8-2.9,4.9-3.4c0.4-0.1,0.7-0.1,1.1-0.2C52.7,13.1,53.2,13.1,53.8,13.1
		z"/>
	<path class="st0" d="M91,34.8c-4,0-8,0-12.1,0c-0.5,0-0.5,0-0.5-0.5c0-6.7,0-13.5,0-20.2c0-0.5,0-0.5,0.4-0.5c3.9,0,7.9,0,11.9,0
		c0.1,0,0.2,0,0.3,0c0,1.5,0,3.1,0,4.6c-0.2,0-0.3,0-0.5,0c-2,0-3.9,0-5.9,0c-0.4,0-0.4,0-0.4,0.5c0,0.9,0,1.8,0,2.7
		c0,0.4,0,0.4,0.4,0.4c1.9,0,3.8,0,5.7,0c0.4,0,0.4,0,0.4,0.4c0,1.3,0,2.5,0,3.8c0,0.5,0,0.5-0.4,0.5c-1.9,0-3.8,0-5.7,0
		c-0.2,0-0.4,0.1-0.4,0.3c0,1,0,2,0,3c0,0.2,0.1,0.3,0.3,0.3c2.2,0,4.3,0,6.5,0C91,31.6,91,33.2,91,34.8z"/>
	<path class="st0" d="M73.4,13.1c0.5,0.1,1.1,0.1,1.6,0.2c0.9,0.2,1.7,0.5,2.6,0.7c0.2,0.1,0.3,0.2,0.1,0.4
		c-0.8,1.4-1.5,2.8-2.3,4.2c-0.1,0.2-0.2,0.3-0.5,0.2c-1.6-0.5-3.2-0.5-4.8,0.2c-1.9,0.9-3,2.4-3.3,4.5c-0.2,1.6,0.1,3.1,1.1,4.4
		c1.1,1.4,2.6,2,4.3,2.1c0.9,0.1,1.8,0,2.7-0.4c0.2-0.1,0.3,0,0.4,0.2c0.8,1.4,1.5,2.9,2.3,4.3c0.1,0.1,0.2,0.3-0.1,0.4
		c-1.4,0.4-2.7,0.8-4.2,0.9c-3.2,0.2-6-0.7-8.5-2.6c-2.2-1.7-3.6-3.9-4-6.7c-0.7-4.8,1.7-9.3,6-11.5c1.4-0.7,2.9-1.2,4.5-1.3
		c0.1,0,0.2,0,0.2-0.1C72.3,13.1,72.9,13.1,73.4,13.1z"/>
	<path class="st0" d="M44.5,41c-0.4-0.2-0.6-0.5-0.6-1c0-0.6,0-1.1,0-1.7c0-0.6,0.4-0.8,1-0.8s0.9,0.3,1,0.8c0,0.6,0,1.2,0,1.8
		c0,0.4-0.2,0.6-0.6,0.8C45,41,44.8,41,44.5,41z M44.2,39.3c0,0.3,0,0.7,0.1,1c0.1,0.3,0.3,0.5,0.6,0.5s0.6-0.2,0.6-0.5
		c0-0.7,0-1.3,0-2c0-0.3-0.3-0.5-0.6-0.5s-0.6,0.2-0.6,0.5C44.2,38.6,44.2,38.9,44.2,39.3z"/>
	<path class="st0" d="M57.6,41c-0.4-0.2-0.6-0.6-0.6-1c0-0.5,0-1,0-1.6c0-0.6,0.4-0.9,1-0.9c0.6,0,1,0.3,1,0.9c0,0.5,0,1.1,0,1.7
		c0,0.4-0.2,0.8-0.6,1C58.2,41,57.9,41,57.6,41z M58.8,39.3c0-0.3,0-0.7-0.1-1c-0.1-0.3-0.3-0.5-0.6-0.5c-0.3,0-0.6,0.2-0.6,0.5
		c0,0.7,0,1.3,0,2c0,0.3,0.3,0.5,0.6,0.5c0.3,0,0.6-0.2,0.7-0.5C58.7,39.9,58.7,39.6,58.8,39.3z"/>
	<path class="st0" d="M77,41c-0.4-0.2-0.6-0.5-0.6-1c0-0.6,0-1.2,0-1.7c0.1-0.7,0.9-1.1,1.6-0.7c0.2,0.1,0.3,0.3,0.3,0.6
		c0,0.1-0.1,0.1-0.1,0.2c-0.1,0-0.2-0.1-0.2-0.1c-0.1-0.2-0.2-0.4-0.4-0.5c-0.5-0.1-0.9,0.1-0.9,0.6c0,0.6,0,1.2,0,1.7
		c0.1,0.5,0.7,0.8,1.2,0.5c0.3-0.2,0.1-0.6,0.1-0.8c0-0.1,0-0.3-0.1-0.3c-0.1-0.1-0.2,0-0.3,0c-0.1,0-0.1-0.1-0.2-0.1
		c0.1,0,0.1-0.1,0.2-0.1c0,0,0,0,0.1,0c0.7-0.1,0.7-0.1,0.7,0.7c0,0.2,0,0.4,0,0.6c0,0.3-0.1,0.5-0.3,0.5C77.7,41,77.3,41,77,41z"/>
	<path class="st0" d="M89.6,41c-0.3-0.2-0.5-0.4-0.5-0.7c0-0.1,0.1-0.2,0.1-0.3c0.1,0.1,0.2,0.1,0.2,0.2c0,0.3,0.2,0.5,0.5,0.5
		c0.3,0,0.5,0,0.6-0.3c0.1-0.3,0.1-0.6-0.2-0.8s-0.5-0.3-0.8-0.5c-0.3-0.2-0.5-0.5-0.5-0.9c0-0.4,0.3-0.7,0.7-0.7
		c0.6-0.1,1,0.1,1.1,0.6c0,0.1,0,0.3-0.1,0.3c-0.2,0.1-0.2-0.1-0.2-0.2c-0.1-0.3-0.3-0.4-0.5-0.4c-0.2,0-0.4,0-0.6,0.3
		c-0.1,0.3,0,0.6,0.2,0.7c0.2,0.2,0.4,0.3,0.7,0.5c0.8,0.4,0.8,1.4,0.1,1.8C90.1,41,89.8,41,89.6,41z"/>
	<path class="st0" d="M42.1,41c-0.3-0.2-0.5-0.4-0.5-0.7c0-0.1,0.1-0.2,0.1-0.3c0.1,0.1,0.2,0.1,0.2,0.2c0.1,0.2,0.1,0.4,0.3,0.5
		c0.3,0.1,0.6,0,0.8-0.2c0.2-0.3,0.1-0.6-0.1-0.8c-0.1-0.1-0.3-0.2-0.4-0.3c-0.2-0.2-0.4-0.3-0.6-0.4c-0.3-0.3-0.3-0.6-0.2-1
		c0.1-0.3,0.4-0.5,0.7-0.5c0.6,0,1,0.2,1,0.7c0,0.1-0.1,0.2-0.1,0.3c-0.1-0.1-0.1-0.1-0.2-0.2c0,0,0,0,0,0c0-0.3-0.2-0.4-0.5-0.4
		c-0.2,0-0.5,0-0.6,0.3c-0.1,0.3,0,0.6,0.2,0.7c0.2,0.2,0.4,0.3,0.7,0.4c0.7,0.3,0.8,1.4,0.1,1.8C42.7,41,42.4,41,42.1,41z"/>
	<path class="st0" d="M62.9,41c-0.4-0.2-0.6-0.5-0.6-0.9c0-0.6,0-1.2,0-1.8c0.1-0.8,0.7-0.9,1.3-0.7c0.3,0.1,0.5,0.5,0.5,0.8
		c0,0.1-0.1,0.2-0.1,0.2c0,0-0.1-0.1-0.2-0.1c0,0,0-0.1,0-0.1c0-0.3-0.2-0.4-0.5-0.5c-0.3,0-0.5,0.1-0.6,0.4c0,0.1-0.1,0.2-0.1,0.3
		c0,0.5,0,1.1,0,1.6c0,0.3,0.1,0.5,0.4,0.7c0.3,0.1,0.6,0,0.7-0.4c0-0.1,0-0.1,0-0.2c0-0.1,0.1-0.1,0.2-0.2c0,0.1,0.1,0.2,0.1,0.2
		c0,0.4-0.2,0.6-0.5,0.8C63.4,41,63.2,41,62.9,41z"/>
	<path class="st0" d="M33.6,41c-0.4-0.2-0.6-0.5-0.6-0.9c0-0.6,0-1.2,0-1.8c0.1-0.7,0.7-0.9,1.3-0.7c0.3,0.1,0.5,0.5,0.5,0.8
		c0,0.1-0.1,0.2-0.1,0.2s-0.1-0.1-0.2-0.1c0,0,0-0.1,0-0.1c0-0.3-0.2-0.4-0.5-0.5c-0.3,0-0.6,0.1-0.6,0.4c-0.1,0.5-0.1,1-0.1,1.5
		c0,0.2,0,0.5,0.1,0.7c0.1,0.3,0.3,0.5,0.6,0.4c0.3,0,0.5-0.2,0.5-0.5c0,0,0-0.1,0-0.1c0.1-0.1,0.1-0.1,0.2-0.2
		c0,0.1,0.1,0.2,0.1,0.2c0,0.4-0.2,0.6-0.5,0.8C34.1,41,33.8,41,33.6,41z"/>
	<path class="st0" d="M47.1,41c-0.4-0.2-0.6-0.4-0.6-0.8c0-0.6,0-1.3,0-1.9c0.1-0.7,0.7-0.9,1.3-0.8c0.3,0.1,0.5,0.4,0.5,0.8
		c0,0.1-0.1,0.2-0.1,0.2c-0.1,0-0.1-0.1-0.2-0.1c0,0,0-0.1,0-0.1c0-0.3-0.2-0.4-0.5-0.4c-0.3,0-0.5,0.1-0.6,0.3
		c0,0.1-0.1,0.3-0.1,0.4c0,0.5,0,1.1,0,1.6c0,0.2,0.1,0.4,0.3,0.5c0.4,0.3,0.8,0.1,0.9-0.4c0-0.1,0-0.3,0.2-0.3
		c0.1,0,0.1,0.2,0.1,0.3c0,0.3-0.2,0.5-0.5,0.7C47.5,41,47.3,41,47.1,41z"/>
	<path class="st0" d="M25.7,40.5c0.2-0.7,0.5-1.5,0.7-2.2c0-0.2,0.1-0.3,0.2-0.5c0-0.2,0.2-0.2,0.4-0.2c0.2,0,0.2,0.2,0.2,0.3
		c0,0.9,0,1.9,0,2.8c0,0.1-0.1,0.2-0.1,0.3c0-0.1-0.1-0.2-0.1-0.3c0-0.8,0-1.7-0.1-2.5c0,0.1-0.1,0.2-0.1,0.3
		c-0.3,0.8-0.5,1.5-0.8,2.3c0,0.1-0.2,0.3-0.3,0.3c-0.2,0.1-0.2-0.1-0.3-0.3c-0.3-0.8-0.5-1.5-0.8-2.3c0-0.1-0.1-0.2-0.1-0.3
		c0,0,0,0-0.1,0c0,0.1,0,0.2,0,0.3c0,0.8,0,1.5,0,2.2c0,0.1-0.1,0.2-0.1,0.3c0-0.1-0.1-0.2-0.1-0.3c0-0.9,0-1.9,0-2.8
		c0-0.1,0-0.3,0.2-0.3c0.2,0,0.3,0,0.4,0.2c0.3,0.8,0.5,1.6,0.8,2.4C25.6,40.3,25.6,40.4,25.7,40.5C25.7,40.5,25.7,40.5,25.7,40.5z"
		/>
	<path class="st0" d="M38.2,38.2c0,0.2,0,0.4,0,0.6c0,0.7,0,1.3,0,2c0,0.1-0.1,0.2-0.2,0.2c-0.1-0.1-0.2-0.2-0.2-0.2
		c0-1,0-1.9,0-2.9c0-0.1,0.1-0.2,0.2-0.2c0.1,0,0.3,0.1,0.4,0.2c0.2,0.3,0.3,0.6,0.4,0.9c0.3,0.6,0.5,1.1,0.9,1.7c0-0.1,0-0.2,0-0.3
		c0-0.7,0-1.3,0-2c0-0.1,0-0.2,0-0.2c0-0.1,0.1-0.1,0.2-0.2c0.1,0.1,0.1,0.1,0.2,0.2c0,0,0,0.1,0,0.1c0,0.9,0,1.8,0,2.7
		c0,0.1-0.1,0.3-0.2,0.3c-0.2,0.1-0.3,0-0.4-0.2c-0.3-0.8-0.7-1.5-1.1-2.3C38.4,38.3,38.3,38.2,38.2,38.2
		C38.2,38.1,38.2,38.2,38.2,38.2z"/>
	<path class="st0" d="M74,38.2c0,0.2,0,0.3,0,0.5c0,0.7,0,1.3,0,2c0,0.1-0.1,0.2-0.2,0.2c-0.1-0.1-0.2-0.2-0.2-0.2c0-1,0-1.9,0-2.9
		c0-0.1,0.1-0.2,0.2-0.2c0.2,0,0.3,0,0.4,0.2c0.3,0.7,0.6,1.3,0.9,1.9c0.1,0.2,0.2,0.5,0.4,0.7c0-0.1,0-0.2,0-0.3c0-0.7,0-1.5,0-2.2
		c0-0.1,0.1-0.2,0.2-0.3c0.1,0.1,0.1,0.2,0.1,0.2c0,1,0,1.9,0,2.8c0,0.1-0.1,0.2-0.2,0.3c-0.2,0.1-0.3,0-0.4-0.2
		c-0.3-0.8-0.7-1.5-1-2.3C74.2,38.4,74.1,38.3,74,38.2C74,38.2,74,38.2,74,38.2z"/>
	<path class="st0" d="M81.8,40.3c0-0.3,0-0.7,0-1.1c0-0.5,0-0.9,0-1.4c0-0.1,0.1-0.2,0.1-0.3c0.1,0.1,0.2,0.2,0.2,0.3
		c0,0.9,0,1.8,0,2.7c0,0.1-0.1,0.3-0.2,0.3c-0.2,0.1-0.3,0-0.4-0.2c-0.3-0.8-0.7-1.6-1.1-2.3c0-0.1-0.1-0.2-0.2-0.2
		c0,0.1,0,0.2,0,0.3c0,0.7,0,1.3,0,2c0,0.1,0,0.2,0,0.3c0,0.1-0.1,0.1-0.2,0.2c-0.1-0.1-0.1-0.1-0.2-0.2c0,0,0-0.1,0-0.1
		c0-0.9,0-1.8,0-2.7c0-0.1-0.1-0.3,0.2-0.3c0.2,0,0.3,0,0.4,0.2c0.3,0.8,0.7,1.5,1,2.3C81.6,40.1,81.7,40.3,81.8,40.3
		C81.8,40.3,81.8,40.3,81.8,40.3z"/>
	<path class="st0" d="M31.2,39.1c0.1,0.2,0.2,0.4,0.2,0.6c0,0.3,0,0.7,0,1c0,0.1-0.1,0.1-0.1,0.2c0-0.1-0.1-0.1-0.1-0.2
		c0-0.3,0-0.5,0-0.8c0-0.5-0.6-0.8-1-0.6c-0.1,0-0.1,0.2-0.1,0.2c0,0.4,0,0.7,0,1.1c0,0.1-0.1,0.2-0.1,0.2c0-0.1-0.1-0.2-0.1-0.2
		c0-1,0-1.9,0-2.9c0-0.2,0.1-0.3,0.3-0.3c0.3,0,0.6,0,0.9,0c0.4,0,0.6,0.2,0.6,0.6C31.5,38.7,31.5,38.8,31.2,39.1z M30,38.4
		c0,0.6,0,0.7,0.7,0.6c0.3,0,0.5-0.2,0.5-0.7c0-0.4-0.1-0.5-0.5-0.5C30,37.8,30,37.8,30,38.4z"/>
	<path class="st0" d="M88.3,39.1c0.1,0.3,0.2,0.4,0.2,0.7c0,0.3,0,0.7,0,1c0,0.1-0.1,0.1-0.1,0.2c-0.1-0.1-0.1-0.1-0.2-0.2
		c0-0.3,0-0.5-0.1-0.8c0-0.5-0.5-0.9-1-0.7c-0.1,0-0.1,0.2-0.1,0.3c0,0.4,0,0.7,0,1.1c0,0.1-0.1,0.2-0.2,0.3
		c-0.1-0.1-0.1-0.2-0.1-0.3c0-0.9,0-1.9,0-2.8c0-0.2,0.1-0.3,0.3-0.3c0.3,0,0.6,0,0.9,0c0.4,0,0.6,0.2,0.6,0.6
		C88.6,38.5,88.6,38.9,88.3,39.1z M87.1,38.4c0,0.6,0,0.7,0.6,0.6c0.4,0,0.5-0.3,0.5-0.7c0-0.4-0.1-0.5-0.5-0.5
		C87.1,37.8,87.1,37.8,87.1,38.4z"/>
	<path class="st0" d="M36.3,37.5c0.1,0.1,0.2,0.2,0.3,0.3c0.3,1,0.6,2,0.9,3c0,0.1,0,0.2-0.1,0.2c-0.1,0-0.2-0.1-0.2-0.1
		c0,0,0-0.1-0.1-0.2c-0.2-0.6-0.1-0.6-0.8-0.6c0,0,0,0-0.1,0c-0.7,0-0.7,0-0.8,0.6c0,0.1,0,0.1-0.1,0.2c-0.1,0-0.1,0.1-0.2,0.1
		c0-0.1-0.1-0.1,0-0.2c0.1-0.3,0.2-0.6,0.3-0.9c0.2-0.7,0.4-1.4,0.7-2C36.1,37.7,36.2,37.6,36.3,37.5z M36.3,38
		C36.3,38,36.3,38.1,36.3,38c-0.2,0.3-0.3,0.6-0.4,1c-0.2,0.8-0.4,0.8,0.6,0.8c0,0,0.1,0,0.1,0c0-0.1,0.1-0.1,0.1-0.2
		C36.6,39.1,36.5,38.6,36.3,38z"/>
	<path class="st0" d="M21.4,40.9c0-0.1,0-0.2,0.1-0.3c0.3-0.9,0.6-1.8,0.9-2.8c0-0.2,0.1-0.3,0.3-0.3c0.1,0,0.2,0.2,0.3,0.3
		c0.3,0.9,0.6,1.8,0.9,2.8c0,0.1,0,0.2,0.1,0.3c-0.2,0.1-0.3,0.1-0.3-0.1c0,0,0,0,0,0c-0.1-0.2-0.1-0.6-0.3-0.6
		c-0.4-0.1-0.8,0-1.1,0c-0.1,0-0.1,0.1-0.2,0.2c-0.1,0.2-0.1,0.3-0.2,0.5C21.6,40.9,21.5,40.9,21.4,40.9
		C21.4,40.9,21.4,40.9,21.4,40.9z M22.6,38C22.6,38,22.5,38,22.6,38c-0.3,0.5-0.4,1.1-0.6,1.7c0.4,0,0.7,0,1.1,0
		C22.9,39.2,22.8,38.6,22.6,38z"/>
	<path class="st0" d="M71.6,39.2c0-0.5,0-0.9,0-1.4c0-0.2,0.1-0.3,0.3-0.3c0.3,0,0.7,0,1,0c0.1,0,0.2,0.1,0.3,0.1
		c-0.1,0-0.2,0.1-0.3,0.1c-0.2,0-0.4,0-0.7,0c-0.2,0-0.3,0.1-0.3,0.3c0,0.2,0,0.5,0,0.7c0,0.2,0.1,0.3,0.3,0.3c0.2,0,0.4,0,0.6,0
		c0.1,0,0.2,0.1,0.3,0.1c-0.1,0-0.2,0.1-0.3,0.1c-0.2,0-0.3,0-0.5,0c-0.3,0-0.4,0.1-0.3,0.4c0,0.2,0,0.4,0,0.6
		c0,0.3,0.1,0.4,0.4,0.4c0.2,0,0.4,0,0.6,0c0.1,0,0.1,0.1,0.2,0.1c-0.1,0-0.1,0.1-0.2,0.1c-0.4,0-0.7,0-1.1,0
		c-0.2,0-0.3-0.1-0.3-0.3C71.6,40.2,71.6,39.7,71.6,39.2z"/>
	<path class="st0" d="M49.7,39.3c0-0.5,0-0.9,0-1.4c0-0.3,0.1-0.3,0.3-0.3c0.3,0,0.6,0,1,0c0.1,0,0.2,0.1,0.3,0.1
		c-0.1,0-0.2,0.1-0.3,0.1c-0.2,0-0.4,0-0.6,0c-0.2,0-0.3,0.1-0.3,0.3c0,0.2,0,0.4,0,0.6c0,0.2,0.1,0.3,0.3,0.3c0.2,0,0.4,0,0.6,0
		c0.1,0,0.2,0.1,0.2,0.1c-0.1,0-0.2,0.1-0.2,0.2c-0.2,0-0.4,0-0.6,0c-0.2,0-0.3,0.1-0.3,0.3c0,0.2,0,0.5,0,0.7
		c0,0.2,0.1,0.3,0.3,0.3c0.2,0,0.5,0,0.7,0c0.1,0,0.1,0.1,0.2,0.1c-0.1,0-0.1,0.1-0.2,0.1c-0.4,0-0.8,0-1.2,0
		c-0.2,0-0.2-0.1-0.2-0.3C49.8,40.2,49.7,39.7,49.7,39.3L49.7,39.3z"/>
	<path class="st0" d="M67.6,37.6c0,0.1,0,0.2-0.1,0.3c-0.3,0.9-0.5,1.8-0.8,2.8c0,0.2-0.1,0.3-0.3,0.3c-0.2,0-0.2-0.2-0.3-0.3
		c-0.3-0.9-0.5-1.8-0.8-2.8c0-0.1,0-0.2,0-0.3c0.2-0.1,0.3,0,0.4,0.2c0.2,0.8,0.4,1.6,0.6,2.4c0,0.1,0.1,0.2,0.1,0.3
		c0.1-0.3,0.2-0.7,0.3-1c0.2-0.5,0.3-1.1,0.4-1.6C67.3,37.7,67.3,37.5,67.6,37.6z"/>
	<path class="st0" d="M82.8,39.3c0-0.5,0-0.9,0-1.4c0-0.2,0.1-0.3,0.3-0.3c0.3,0,0.7,0,1,0c0.1,0,0.2,0.1,0.2,0.1
		c-0.1,0-0.2,0.1-0.2,0.1c-0.2,0-0.5,0-0.7,0c-0.2,0-0.3,0.1-0.3,0.3c0,0.3,0,0.5,0,0.8c0,0.2,0.1,0.2,0.3,0.2c0.2,0,0.5,0,0.7,0
		c0.1,0,0.1,0.1,0.2,0.1c-0.1,0-0.1,0.1-0.2,0.1c-0.2,0-0.5,0-0.7,0c-0.2,0-0.3,0.1-0.3,0.3c0,0.3,0,0.5,0,0.8
		c0,0.2,0.1,0.3,0.3,0.3c0.3,0,0.5,0,0.8,0c0.1,0,0.1,0.1,0.2,0.1c-0.1,0-0.1,0.1-0.2,0.1c-0.4,0-0.7,0-1.1,0
		c-0.2,0-0.3-0.1-0.3-0.3C82.8,40.2,82.8,39.7,82.8,39.3L82.8,39.3z"/>
	<path class="st0" d="M84.8,39.3c0-0.5,0-0.9,0-1.4c0-0.2,0.1-0.3,0.3-0.3c0.3,0,0.6,0,1,0c0.1,0,0.2,0.1,0.3,0.1
		c-0.1,0-0.2,0.1-0.3,0.1c-0.2,0-0.4,0-0.6,0c-0.2,0-0.3,0.1-0.3,0.3c0,0.2,0,0.5,0,0.7c0,0.2,0.1,0.3,0.3,0.3c0.2,0,0.4,0,0.6,0
		c0.1,0,0.1,0.1,0.2,0.1c-0.1,0-0.2,0.1-0.2,0.1c-0.2,0-0.4,0-0.7,0c-0.2,0-0.3,0.1-0.3,0.3c0,0.3,0,0.5,0,0.8
		c0,0.2,0.1,0.3,0.3,0.3c0.3,0,0.5,0,0.8,0c0.1,0,0.1,0.1,0.2,0.1c-0.1,0-0.1,0.1-0.2,0.1c-0.4,0-0.7,0-1.1,0
		c-0.2,0-0.3-0.1-0.3-0.3C84.8,40.2,84.8,39.7,84.8,39.3z"/>
	<path class="st0" d="M28.5,37.6c0.2,0,0.4,0,0.5,0c0.1,0,0.1,0.1,0.2,0.1c-0.1,0-0.1,0.1-0.2,0.1c-0.2,0-0.5,0-0.7,0
		c-0.2,0-0.4,0.1-0.3,0.3c0,0.2,0,0.5,0,0.7c0,0.2,0.1,0.3,0.3,0.3c0.2,0,0.5,0,0.7,0c0.1,0,0.1,0.1,0.2,0.1c-0.1,0-0.1,0.1-0.2,0.1
		c-0.2,0-0.5,0-0.7,0c-0.2,0-0.3,0.1-0.3,0.3c0,0.3,0,0.5,0,0.8c0,0.2,0.1,0.3,0.3,0.3c0.3,0,0.5,0,0.8,0c0.1,0,0.1,0.1,0.2,0.1
		c-0.1,0-0.1,0.1-0.2,0.1c-0.4,0-0.8,0-1.1,0c-0.1,0-0.2-0.2-0.2-0.2c0-1,0-1.9,0-2.9c0-0.2,0.1-0.2,0.3-0.2
		C28.2,37.6,28.4,37.6,28.5,37.6z"/>
	<path class="st0" d="M54.6,39.2c0.3-0.6,0.6-1.1,0.9-1.6c0,0,0.1,0,0.2,0c0,0.1,0,0.2-0.1,0.2c-0.1,0.2-0.2,0.5-0.3,0.7
		c-0.4,0.7-0.6,1.3-0.5,2.1c0,0,0,0.1,0,0.1c0,0.1-0.1,0.1-0.2,0.2c0-0.1-0.2-0.1-0.2-0.2c0-0.3,0-0.6,0-0.9c0-0.2,0-0.4-0.1-0.5
		c-0.2-0.5-0.4-0.9-0.7-1.4c0-0.1-0.1-0.2-0.1-0.3c0.2-0.1,0.3,0,0.4,0.1c0.2,0.4,0.3,0.7,0.5,1.1C54.5,38.9,54.5,39,54.6,39.2z"/>
	<path class="st0" d="M52.3,39.4c0-0.4,0-0.8,0-1.3c0-0.2-0.1-0.3-0.3-0.3c-0.1,0-0.3,0-0.4,0c0,0-0.1-0.1-0.1-0.1
		c0,0,0.1-0.1,0.1-0.1c0.6,0,1.1,0,1.7,0c0,0,0.1,0.1,0.1,0.1c0,0-0.1,0.1-0.1,0.1c-0.1,0-0.2,0-0.3,0c-0.4,0-0.4,0-0.4,0.4
		c0,0.7,0,1.5,0,2.2c0,0.1,0,0.2,0,0.3c0,0.1-0.1,0.1-0.2,0.2c0-0.1-0.2-0.1-0.2-0.2C52.3,40.3,52.3,39.8,52.3,39.4L52.3,39.4z"/>
	<path class="st0" d="M59.6,39.2c0-0.5,0-0.9,0-1.4c0-0.2,0.1-0.3,0.3-0.3c0.3,0,0.6,0,0.9,0c0.1,0,0.1,0.1,0.2,0.1
		c-0.1,0-0.1,0.1-0.2,0.1c-0.2,0-0.5,0-0.7,0c-0.2,0-0.3,0.1-0.3,0.3c0,0.2,0,0.5,0,0.7c0,0.2,0.1,0.3,0.3,0.3c0.2,0,0.4,0,0.6,0
		c0.1,0,0.1,0.1,0.2,0.1c-0.1,0-0.1,0.1-0.2,0.2c-0.2,0-0.4,0-0.6,0c-0.2,0-0.3,0.1-0.3,0.3c0,0.3,0,0.7,0,1c0,0.1-0.1,0.2-0.1,0.2
		c0-0.1-0.1-0.2-0.1-0.2C59.6,40.2,59.6,39.7,59.6,39.2L59.6,39.2z"/>
	<path class="st0" d="M68.8,39.2c0-0.4,0-0.8,0-1.3c0-0.1,0.1-0.4,0.1-0.4c0.3,0,0.2,0.2,0.2,0.4c0,0.8,0,1.5,0,2.3
		c0,0.4,0,0.4,0.4,0.4c0.2,0,0.3,0,0.5,0c0.1,0,0.1,0.1,0.2,0.1c-0.1,0-0.1,0.1-0.2,0.1c-0.3,0-0.7,0-1.1,0c-0.1,0-0.2-0.2-0.2-0.3
		C68.8,40.2,68.8,39.7,68.8,39.2L68.8,39.2z"/>
	<path class="st0" d="M79.3,39.3c0,0.5,0,0.9,0,1.4c0,0.1-0.1,0.2-0.2,0.3c-0.1-0.1-0.2-0.2-0.2-0.3c0-0.9,0-1.9,0-2.8
		c0-0.1,0.1-0.2,0.2-0.3c0.1,0.1,0.2,0.2,0.2,0.3C79.3,38.3,79.3,38.8,79.3,39.3z"/>
	<path class="st0" d="M64.7,39.3c0-0.5,0-1,0-1.4c0-0.1,0.1-0.2,0.1-0.3c0.1,0.1,0.2,0.2,0.2,0.3c0,1,0,1.9,0,2.8
		c0,0.1-0.1,0.2-0.2,0.3c0-0.1-0.1-0.2-0.1-0.3C64.7,40.2,64.7,39.7,64.7,39.3z"/>
	<path class="st0" d="M32.4,39.3c0,0.5,0,0.9,0,1.4c0,0.1-0.1,0.2-0.1,0.3c0-0.1-0.2-0.2-0.2-0.3c0-0.9,0-1.9,0-2.8
		c0-0.1,0.1-0.2,0.1-0.3c0,0.1,0.2,0.2,0.2,0.3C32.4,38.3,32.4,38.8,32.4,39.3z"/>
	<path class="st0" d="M49.1,39.3c0,0.5,0,0.9,0,1.4c0,0.1-0.1,0.2-0.2,0.3c0-0.1-0.1-0.2-0.1-0.3c0-1,0-1.9,0-2.8
		c0-0.1,0.1-0.2,0.2-0.3c0,0.1,0.1,0.2,0.1,0.3C49.1,38.3,49.1,38.8,49.1,39.3z"/>
	<path class="st0" d="M67.9,39.3c0-0.5,0-1,0-1.4c0-0.1,0.1-0.2,0.1-0.3c0.1,0.1,0.2,0.2,0.2,0.3c0,1,0,1.9,0,2.8
		c0,0.1-0.1,0.2-0.2,0.3c0-0.1-0.1-0.2-0.1-0.3C67.9,40.2,67.9,39.7,67.9,39.3z"/>
</g>
</svg>
