<?xml version="1.0" encoding="utf-8"?>
<!-- Generator: Adobe Illustrator 23.0.1, SVG Export Plug-In . SVG Version: 6.00 Build 0)  -->
<svg version="1.1" id="Layer_1" xmlns="http://www.w3.org/2000/svg" xmlns:xlink="http://www.w3.org/1999/xlink" x="0px" y="0px"
	 viewBox="0 0 112.8 56.9" style="enable-background:new 0 0 112.8 56.9;" xml:space="preserve">
<style type="text/css">
	.st0{fill:#4D4D4D;}
</style>
<g>
	<path class="st0" d="M54.3,31.1c1-0.2,1.9-0.4,2.7-0.7c0.2-0.1,0.5-0.5,0.5-0.7c0-7.2,0-14.4,0-21.7c0-0.1,0-0.1-0.1-0.3
		c-0.4-0.1-0.8-0.2-1.2-0.2c-0.7,0-1-0.3-1-1.1c0-1.8,0-1.9,1.8-1.7c1.5,0.2,2.9,0.5,4.4,0.8c1.1,0.2,1.8,0.8,1.5,2
		c-0.1,0.3,0,0.7-0.1,1.3c-0.8-0.2-1.5-0.3-2.3-0.5c0,7,0,13.9,0,21c1-0.3,2.1-0.6,3-1c0.3-0.1,0.4-0.7,0.4-1.1c0-6,0-12,0-18
		c0-0.6,0-1.2,0-1.9c0-0.3,0.2-0.6,0.3-0.8c0.2,0.2,0.6,0.4,0.7,0.6c0.9,2.1,1.8,4.2,2.8,6.3c0.6,1.4,1.2,2.8,1.9,4.4
		c0.5-1.4,0.9-2.5,1.3-3.6c0.1-0.4,0.4-0.6,0.6-1c0.3,0.3,0.7,0.5,0.9,0.8c1.5,2.1,2.4,4.5,2.8,7c0.1,0.4,0.2,0.9,0.3,1.5
		c1.6-1.1,3-2.1,3.9-3.7c0.8-1.4,0.4-2.7-1.1-3.4c-1.1-0.5-2.3-0.7-3.7-1.1c2,0,3.7,0.2,5,1.4c0.9,0.8,1.3,2,0.6,3.2
		c-0.8,1.3-1.8,2.6-2.9,3.6c-3.2,2.7-7,4.4-10.8,5.9c-7.8,3-15.8,5.1-24.1,5.8c-2.9,0.3-5.8,0.4-8.7-0.6c-0.7-0.2-1.3-0.5-1.9-0.9
		c-2-1.3-2.5-3.6-1-5.5c0.6-0.8,1.4-1.4,2.1-2.1c0.1,0.1,0.2,0.2,0.3,0.3c-0.4,0.4-0.8,0.8-1.1,1.2c-2.1,2.3-1.5,4.6,1.3,5.8
		c2.3,0.9,4.8,0.9,7.3,0.8c0-2.5,0-4.9,0-7.4c-0.9,0-1.7,0-2.8,0c0.3,1.2,0.5,2.4,0.7,3.5c0.3,1.2,0.3,1.2-1.4,1.8
		c-0.9,0.3-1.1-0.3-1.3-0.9c-2.6-7.1,0.3-16.7,6.5-21.1C42.7,9.1,43,9,43.6,8.7c0.1,2.8,0,5.5,0.1,8.1c0,2.7,0,5.4,0,8.1
		c0,2.6,0,5.3,0,8.1c0.8-0.1,1.5-0.1,2.3-0.2c0-1,0-2,0-3c0-2,0-2,1.5-2c1.3,0,1.3,0,1.3,2.1c0,0.8,0,1.5,0,2.4
		c0.9-0.2,1.7-0.3,2.6-0.5c0-1.5,0.1-2.9,0-4.3c0-0.5-0.5-1-0.9-1.3c-0.8-0.6-1.8-1.1-2.7-1.6c-1.2-0.7-1.8-1.8-1.8-3.3
		c0-4.1,0-8.3,0-12.4c0-1.1,0.4-1.9,1.3-2.3c1.8-0.7,3.5-1.3,5.3-1.8C53.5,4.6,54,5.1,54,6.1c0,4.5,0,9,0,13.5
		c0,0.8-0.3,1.1-1.1,1.1c-1.8,0-1.8,0-1.8-1.8c0-3.1,0-6.3,0-9.4c0-0.5,0.3-1.3-0.6-1.3c-0.7,0-1.5,0.3-1.6,1.2c0,0.3,0,0.5,0,0.8
		c0,3.3,0,6.6,0,9.9c0,1.1,0.4,1.8,1.4,2.3c0.8,0.4,1.6,0.9,2.3,1.4c1.1,0.7,1.7,1.7,1.7,3C54.3,28.2,54.3,29.5,54.3,31.1z
		 M66.9,27.2c1.9-0.9,3.6-1.7,5.3-2.5c0.2-0.1,0.4-0.3,0.4-0.5c0.1-1.5-0.2-3-0.9-4.6c-0.8,1.7-1.4,3.2-2,4.7c-0.1,0-0.2,0-0.3,0
		c-0.8-1.5-1.5-3.1-2.3-4.6c-0.1,0-0.1,0-0.2,0C66.9,22,66.9,24.4,66.9,27.2z M40.7,22.8c0-2.5,0-4.9,0-7.2
		c-1.6,2.2-2.5,4.5-2.7,7.2C39,22.8,39.8,22.8,40.7,22.8z"/>
	<path class="st0" d="M45.9,35.3c0.9-0.2,1.8-0.3,2.9-0.5c0,1.6-0.1,3,0,4.5c0,0.5,0.4,1.2,0.8,1.5c1.2,0.7,1.7,0.3,1.7-1
		c0-1.5,0-3,0-4.5c0-0.7,0.2-1,0.9-1.1c0.6-0.1,1.3-0.3,2-0.4c0,2.4,0,4.6,0,6.9c0,0.8,0,1.7,0,2.5c0,0.8-0.4,1.3-1.2,1.2
		c-2.1-0.1-4.2-0.5-6-1.7c-0.5-0.3-1-1.1-1-1.7C45.8,39.1,45.9,37.2,45.9,35.3z"/>
	<path class="st0" d="M60.3,32.1c0,3.7,0,7.2,0,10.8c0,0.9-0.8,1.3-2.1,1.3c-1,0-0.7-0.7-0.7-1.3c0-3,0-5.9,0-8.9
		c0-0.9,0.2-1.4,1.1-1.5C59.1,32.5,59.7,32.3,60.3,32.1z"/>
	<path class="st0" d="M66.8,29.9c0,3.7,0,7.1,0,10.5c0,0.7-1.8,2.1-2.5,1.9c-0.2,0-0.4-0.4-0.4-0.6c0-3.4,0-6.8,0-10.2
		c0-0.2,0.2-0.6,0.4-0.6C65,30.5,65.8,30.2,66.8,29.9z"/>
	<path class="st0" d="M75.5,25.7c-0.3,4.4-1.8,8.1-4.4,11.3c-0.1,0.2-0.4,0.3-0.6,0.3c-1.2-0.1-1.8-1.5-1.2-2.5
		c1.4-2.1,2.5-4.3,3-6.7c0.1-0.3,0.3-0.7,0.6-0.9C73.7,26.6,74.5,26.3,75.5,25.7z"/>
	<path class="st0" d="M43.5,40.3c-2.3-0.7-3.1-2-2.7-4.6c0.9-0.1,1.8-0.1,2.7-0.2C43.5,37.2,43.5,38.7,43.5,40.3z"/>
	<g>
		<path class="st0" d="M31.9,50.5h-1.1l-0.3,0.9h-0.4l1.1-2.9h0.4l1,2.9h-0.4L31.9,50.5z M31.4,48.9L31.4,48.9l-0.5,1.3h0.9
			L31.4,48.9z"/>
		<path class="st0" d="M35.1,49.3c0-0.3-0.2-0.6-0.7-0.6c-0.5,0-0.7,0.2-0.7,0.5c0,0.2,0.2,0.3,0.5,0.4l0.6,0.1
			c0.5,0.1,0.8,0.4,0.8,0.8c0,0.7-0.6,0.9-1.2,0.9c-0.8,0-1.1-0.4-1.1-1v0h0.4c0,0.4,0.3,0.7,0.8,0.7c0.4,0,0.8-0.1,0.8-0.5
			c0-0.3-0.2-0.4-0.6-0.5L34.1,50c-0.5-0.1-0.7-0.3-0.7-0.7c0-0.5,0.3-0.9,1-0.9c0.6,0,1.1,0.3,1.1,0.9
			C35.4,49.3,35.1,49.3,35.1,49.3z"/>
		<path class="st0" d="M36.1,48.5h2.3v0.3h-1v2.5H37v-2.5h-1V48.5z"/>
		<path class="st0" d="M39.2,48.5h0.5l0.8,2.4h0l0.8-2.4h0.5v2.9h-0.4v-2.4h0l-0.8,2.4h-0.4l-0.8-2.4h0v2.4h-0.4L39.2,48.5
			L39.2,48.5z"/>
		<path class="st0" d="M44.5,48.5h0.4v2.9h-0.4V48.5z"/>
		<path class="st0" d="M45.9,48.5h0.4l1.5,2.3h0v-2.3h0.4v2.9h-0.4L46.3,49h0v2.3h-0.4V48.5z"/>
		<path class="st0" d="M49,48.5h2.3v0.3h-1v2.5H50v-2.5h-1V48.5z"/>
		<path class="st0" d="M52,48.5h2.1v0.3h-1.7v0.9H54V50h-1.6v1h1.7v0.3H52V48.5z"/>
		<path class="st0" d="M55.6,51.3h-0.4v-2.9h1.3c0.5,0,0.9,0.2,0.9,0.8c0,0.4-0.2,0.6-0.4,0.7c0.2,0.1,0.3,0.1,0.3,0.5l0,0.5
			c0,0.2,0,0.2,0.1,0.3v0.1h-0.5C57,51.2,57,50.7,57,50.6c0-0.2,0-0.5-0.5-0.5h-0.9C55.6,50.1,55.6,51.3,55.6,51.3z M55.6,49.8h0.9
			c0.3,0,0.6-0.1,0.6-0.5c0-0.4-0.3-0.5-0.5-0.5h-1L55.6,49.8L55.6,49.8z"/>
		<path class="st0" d="M58.4,48.5h0.4l1.5,2.3h0v-2.3h0.4v2.9h-0.4L58.8,49h0v2.3h-0.4V48.5z"/>
		<path class="st0" d="M63.3,50.5h-1.1l-0.3,0.9h-0.4l1.1-2.9H63l1,2.9h-0.4L63.3,50.5z M62.7,48.9L62.7,48.9l-0.5,1.3h0.9
			L62.7,48.9z"/>
		<path class="st0" d="M64.2,48.5h2.3v0.3h-1v2.5h-0.4v-2.5h-1C64.1,48.8,64.1,48.5,64.2,48.5z"/>
		<path class="st0" d="M67.3,48.5h0.4v2.9h-0.4V48.5z"/>
		<path class="st0" d="M70,51.4c-1,0-1.4-0.8-1.4-1.5c0-0.9,0.5-1.5,1.4-1.5c0.9,0,1.4,0.6,1.4,1.5C71.4,50.7,71,51.4,70,51.4z
			 M70,48.7c-0.6,0-1,0.5-1,1.2c0,0.7,0.3,1.2,1,1.2c0.7,0,1-0.5,1-1.2C71,49.2,70.7,48.7,70,48.7z"/>
		<path class="st0" d="M72.3,48.5h0.4l1.5,2.3h0v-2.3h0.4v2.9h-0.4L72.7,49h0v2.3h-0.4V48.5z"/>
		<path class="st0" d="M77.2,50.5H76l-0.3,0.9h-0.4l1.1-2.9h0.4l1,2.9h-0.4L77.2,50.5z M76.6,48.9L76.6,48.9l-0.5,1.3H77L76.6,48.9z
			"/>
		<path class="st0" d="M79,51h1.5v0.3h-1.8v-2.9H79V51z"/>
	</g>
</g>
</svg>
