<?xml version="1.0" encoding="utf-8"?>
<!-- Generator: Adobe Illustrator 23.0.1, SVG Export Plug-In . SVG Version: 6.00 Build 0)  -->
<svg version="1.1" id="Layer_1" xmlns="http://www.w3.org/2000/svg" xmlns:xlink="http://www.w3.org/1999/xlink" x="0px" y="0px"
	 viewBox="0 0 112.8 56.9" style="enable-background:new 0 0 112.8 56.9;" xml:space="preserve">
<style type="text/css">
	.st0{fill:#4D4D4D;}
</style>
<g>
	<path class="st0" d="M56.7,35.6c-12.3,0-24.6,0-36.9,0c-1.5,0-2-0.5-2-2c0-6.5,0-13.1,0-19.6c0-1.7,0.5-2.1,2.1-2.1
		c10.3,0,20.6,0,30.9,0c13.8,0,27.6,0,41.4,0c0.4,0,0.8,0,1.1,0c1.7,0,2.1,0.4,2.1,2.1c0,3.2,0,6.4,0,9.7c0,3.3,0,6.6,0,9.9
		c0,1.7-0.4,2.1-2.1,2.1C81.2,35.6,68.9,35.6,56.7,35.6z M85.2,13.9c0.2,0.5,0.3,0.7,0.5,1c0.8,1.6,1.6,3.2,2.3,4.8
		c0.1,0.3,0.2,0.8,0,1c-0.4,0.8-1.3,0.6-1.8-0.2c-1-2-2-4-2.9-5.9c-0.2-0.5-0.5-0.6-1-0.6c-2.5,0-5.1,0-7.6,0c-0.8,0-0.9,0.3-0.9,1
		c0,4.6,0,9.2,0,13.8c0,1.3,0,2.6,0,4c0,0.2,0.3,0.7,0.5,0.7c2.4,0,4.9,0,7.5,0c-0.2-0.4-0.3-0.7-0.4-1c-0.7-1.5-1.4-3-2.2-4.4
		c-0.3-0.6-0.4-1.2,0.3-1.6c0.8-0.4,1.2,0.2,1.4,0.8c0.9,1.8,1.8,3.7,2.7,5.5c0.3,0.5,0.6,0.7,1.2,0.7c2.5,0,5,0,7.5,0
		c0.8,0,1-0.2,1-1c0-2,0-4.1,0-6.2c0-3.8,0-7.6,0-11.5c0-0.5,0.1-0.9-0.7-0.9C90.2,13.9,87.8,13.9,85.2,13.9z M30.6,13.9
		c0,6.5,0,13,0,19.4c2.7,0,5.2,0,7.9,0c-0.2-0.4-0.3-0.7-0.4-0.9c-0.7-1.5-1.4-3-2.1-4.4c-0.3-0.6-0.4-1.3,0.3-1.6
		c0.8-0.4,1.1,0.2,1.4,0.8c0.9,1.8,1.8,3.6,2.6,5.4c0.3,0.6,0.6,0.8,1.2,0.8c2.5,0,4.9,0,7.4,0c0.9,0,1-0.3,1-1.1
		c0-5.8,0-11.6,0-17.4c0-0.3,0-0.6,0-0.9c-2.7,0-5.3,0-8.1,0c0.2,0.5,0.4,0.9,0.6,1.2c0.7,1.5,1.5,3.1,2.2,4.6
		c0.3,0.5,0.1,1-0.4,1.3c-0.5,0.3-1,0.1-1.3-0.4c-0.1-0.2-0.2-0.4-0.3-0.6c-0.9-1.8-1.8-3.7-2.7-5.5c-0.2-0.3-0.6-0.6-0.9-0.6
		C36.3,13.9,33.5,13.9,30.6,13.9z M71.6,28.2c-0.5,0-0.8,0-1.2,0c-2.8,0-5.6,0-8.4,0c-0.7,0-1.1-0.3-1.1-1c0-0.7,0.5-0.9,1-1
		c0.1,0,0.2,0,0.3,0c2.8,0,5.7,0,8.5,0c0.3,0,0.6,0,0.9,0c0-1.8,0-3.4,0-5.1c-3,0-6,0-9,0c-0.3,0-0.8,0.1-1-0.1
		c-0.3-0.2-0.8-0.7-0.8-1c0-0.3,0.6-0.6,0.9-0.8c0.2-0.1,0.5,0,0.8,0c2.7,0,5.5,0,8.2,0c0.4,0,0.9,0.1,0.9-0.5c0-1.5,0-3.1,0-4.6
		c-6.5,0-13,0-19.4,0c0,6.5,0,12.9,0,19.4c6.5,0,12.9,0,19.3,0C71.6,31.7,71.6,30,71.6,28.2z M19.7,14c0,0.2-0.1,0.3-0.1,0.4
		c0,6.1,0,12.2,0,18.3c0,0.7,0.3,0.8,0.9,0.8c2.4,0,4.7,0,7.1,0c0.8,0,1-0.2,1-1c0-5.9,0-11.8,0-17.7c0-0.2,0-0.5-0.1-0.7
		C25.5,14,22.6,14,19.7,14z"/>
	<g>
		<path class="st0" d="M20.3,38v3.9h-0.7V38H20.3z"/>
		<path class="st0" d="M22.7,41.8H22v-2.1c0-0.1,0-0.3-0.1-0.3c0,0-0.1,0-0.1,0c0,0-0.1,0-0.2,0.1c-0.1,0.1-0.1,0.2-0.1,0.3v2h-0.7
			v-2.9h0.6v0.3c0,0,0-0.1,0.1-0.1c0.1-0.1,0.2-0.3,0.6-0.3c0.1,0,0.3,0,0.4,0.1c0.3,0.2,0.3,0.5,0.3,0.8L22.7,41.8L22.7,41.8z"/>
		<path class="st0" d="M24.4,39.8c0,0,0-0.1,0-0.1c0-0.1,0-0.3-0.3-0.3c0,0-0.1,0-0.1,0c0,0-0.2,0.1-0.2,0.2c0,0,0,0.1,0,0.1
			c0.1,0.1,0.3,0.2,0.4,0.3c0.1,0.1,0.2,0.1,0.3,0.2c0.1,0.1,0.2,0.1,0.3,0.2c0.1,0.1,0.3,0.3,0.3,0.7c0,0,0,0.2,0,0.3
			c-0.2,0.5-0.8,0.5-0.9,0.5c-0.5,0-0.7-0.2-0.8-0.3c-0.2-0.3-0.2-0.5-0.2-0.8h0.6c0,0.1,0,0.2,0,0.2c0,0.1,0,0.4,0.4,0.4
			c0.2,0,0.3-0.1,0.3-0.3c0-0.2-0.2-0.3-0.3-0.4c-0.1,0-0.2-0.1-0.2-0.2c-0.2-0.1-0.3-0.2-0.5-0.4c-0.1-0.1-0.2-0.3-0.2-0.6
			c0-0.2,0-0.3,0.1-0.3c0.1-0.3,0.3-0.5,0.9-0.5c0,0,0.2,0,0.4,0c0.1,0,0.4,0.1,0.5,0.5c0,0.1,0,0.3,0,0.5L24.4,39.8L24.4,39.8z"/>
		<path class="st0" d="M26,38.2v0.8h0.3v0.5H26v1.7c0,0,0,0.1,0,0.1c0,0.1,0.2,0.1,0.3,0.1l0,0.5c-0.1,0-0.2,0-0.3,0
			c0,0-0.3,0-0.5-0.1c-0.1-0.1-0.1-0.3-0.2-0.4v-1.9h-0.3v-0.5h0.3v-0.8H26z"/>
		<path class="st0" d="M27.3,38v0.6h-0.7V38H27.3z M27.3,38.9v2.9h-0.7v-2.9H27.3z"/>
		<path class="st0" d="M28.4,38.2v0.8h0.3v0.5h-0.3v1.7c0,0,0,0.1,0,0.1c0,0.1,0.2,0.1,0.3,0.1l0,0.5c-0.1,0-0.2,0-0.3,0
			c0,0-0.3,0-0.5-0.1c-0.1-0.1-0.1-0.3-0.2-0.4v-1.9h-0.3v-0.5h0.3v-0.8H28.4z"/>
		<path class="st0" d="M29.6,38.9v2c0,0.2,0,0.5,0.3,0.5c0.1,0,0.2,0,0.3-0.3c0-0.1,0-0.3,0-0.6v-1.6h0.7v2.9h-0.6v-0.4
			c0,0-0.1,0.1-0.1,0.2c-0.2,0.3-0.5,0.3-0.6,0.3c-0.1,0-0.3,0-0.5-0.2C29,41.5,29,41.3,29,41.1v-2.2L29.6,38.9L29.6,38.9z"/>
		<path class="st0" d="M32,38.2v0.8h0.3v0.5H32v1.7c0,0,0,0.1,0,0.1c0,0.1,0.2,0.1,0.3,0.1l0,0.5c-0.1,0-0.2,0-0.3,0
			c0,0-0.3,0-0.5-0.1c-0.1-0.1-0.1-0.3-0.2-0.4v-1.9h-0.3v-0.5h0.3v-0.8H32z"/>
		<path class="st0" d="M34.3,39.2c0.2,0.3,0.2,0.6,0.2,0.9c0,0.3,0,0.6,0,0.9c0,0.4-0.1,0.5-0.2,0.7c-0.1,0.2-0.3,0.3-0.8,0.3
			c-0.3,0-0.6-0.1-0.8-0.3c-0.2-0.2-0.2-0.5-0.2-1c0-0.7,0-1.1,0.3-1.4c0.3-0.3,0.7-0.3,0.8-0.2C34,38.9,34.2,39,34.3,39.2z
			 M33.9,40.2c0-0.3,0-0.6-0.1-0.7c0-0.1-0.2-0.2-0.3-0.2c-0.2,0-0.2,0.2-0.3,0.3c0,0.2,0,0.5,0,0.9c0,0.3,0,0.5,0,0.6
			c0,0,0.1,0.2,0.3,0.2s0.2-0.1,0.3-0.2c0-0.1,0-0.3,0.1-0.6V40.2z"/>
		<path class="st0" d="M38.3,38v0.6H37v0.9h1.2v0.6H37v1.1h1.3v0.6h-2V38H38.3z"/>
		<path class="st0" d="M39.8,39.9c0-0.2,0-0.4-0.1-0.5c0-0.1-0.1-0.1-0.2-0.1c-0.2,0-0.2,0.1-0.2,0.3c0,0.1,0,0.5,0,0.9
			c0,0.2,0,0.3,0,0.5c0,0.3,0.1,0.4,0.3,0.4c0.1,0,0.2,0,0.2-0.1c0-0.1,0-0.3,0-0.6l0.7,0c0,0.1,0,0.2,0,0.3c0,0.2,0,0.4-0.2,0.6
			c-0.2,0.2-0.5,0.3-0.7,0.3c-0.1,0-0.3,0-0.6-0.1c-0.3-0.2-0.4-0.6-0.4-1.4c0-0.1,0-0.3,0-0.4c0-0.3,0-0.6,0.2-0.9
			c0.1-0.2,0.3-0.3,0.8-0.3c0.1,0,0.3,0,0.5,0.1c0.4,0.2,0.4,0.6,0.4,1L39.8,39.9L39.8,39.9z"/>
		<path class="st0" d="M41.4,38.9v2c0,0.2,0,0.5,0.3,0.5c0.1,0,0.2,0,0.3-0.3c0-0.1,0-0.3,0-0.6v-1.6h0.7v2.9H42v-0.4
			c0,0-0.1,0.1-0.1,0.2c-0.2,0.3-0.5,0.3-0.6,0.3c-0.1,0-0.3,0-0.5-0.2c-0.1-0.2-0.2-0.4-0.2-0.6v-2.2L41.4,38.9L41.4,38.9z"/>
		<path class="st0" d="M45,41.3c0,0.3,0,0.4,0.1,0.5h-0.7l0-0.3c0,0.1-0.1,0.1-0.2,0.2c-0.1,0.1-0.3,0.2-0.5,0.2
			c-0.2,0-0.3-0.1-0.3-0.1c-0.3-0.2-0.3-0.6-0.3-0.7c0-0.3,0.1-0.4,0.1-0.5c0.2-0.3,0.5-0.4,0.8-0.5c0.2-0.1,0.2-0.1,0.3-0.2
			c0.1-0.1,0.1-0.2,0.1-0.2c0-0.2-0.1-0.3-0.3-0.3c0,0-0.1,0-0.2,0c-0.2,0.1-0.2,0.3-0.2,0.4h-0.6c0-0.1,0-0.2,0-0.3
			c0.1-0.3,0.3-0.6,1-0.6c0.4,0,0.6,0.1,0.7,0.2c0.1,0.1,0.1,0.2,0.2,0.2c0.1,0.2,0.1,0.3,0.1,0.4L45,41.3L45,41.3z M44.4,40.3
			c-0.2,0.1-0.2,0.1-0.4,0.2c-0.1,0.1-0.3,0.2-0.3,0.5c0,0.2,0.1,0.3,0.2,0.3c0,0,0.1,0,0.2,0c0,0,0.1,0,0.2,0
			c0.2-0.1,0.2-0.3,0.2-0.4L44.4,40.3L44.4,40.3z"/>
		<path class="st0" d="M46.2,38.2v0.8h0.3v0.5h-0.3v1.7c0,0,0,0.1,0,0.1c0,0.1,0.2,0.1,0.3,0.1l0,0.5c-0.1,0-0.2,0-0.3,0
			c0,0-0.3,0-0.5-0.1c-0.1-0.1-0.2-0.3-0.2-0.4v-1.9h-0.3v-0.5h0.3v-0.8H46.2z"/>
		<path class="st0" d="M48.5,39.2c0.2,0.3,0.2,0.6,0.2,0.9c0,0.3,0,0.6,0,0.9c0,0.4-0.1,0.5-0.2,0.7c-0.1,0.2-0.3,0.3-0.8,0.3
			c-0.3,0-0.6-0.1-0.8-0.3c-0.2-0.2-0.2-0.5-0.2-1c0-0.7,0-1.1,0.3-1.4c0.3-0.3,0.7-0.3,0.8-0.2C48.2,38.9,48.4,39,48.5,39.2z
			 M48,40.2c0-0.3,0-0.6-0.1-0.7c0-0.1-0.2-0.2-0.3-0.2c-0.2,0-0.2,0.2-0.3,0.3c0,0.2,0,0.5,0,0.9c0,0.3,0,0.5,0,0.6
			c0,0,0.1,0.2,0.3,0.2s0.2-0.1,0.3-0.2c0-0.1,0-0.3,0.1-0.6V40.2z"/>
		<path class="st0" d="M50.5,39.7c-0.2,0-0.3,0-0.4,0.1c-0.2,0.1-0.2,0.3-0.2,0.7v1.4h-0.7V39h0.6v0.5c0-0.1,0.1-0.2,0.1-0.3
			c0.1-0.2,0.3-0.3,0.4-0.3c0.1,0,0.1,0,0.2,0V39.7z"/>
		<path class="st0" d="M51.4,38v0.6h-0.7V38H51.4z M51.4,38.9v2.9h-0.7v-2.9H51.4z"/>
		<path class="st0" d="M53.8,41.3c0,0.3,0,0.4,0.1,0.5h-0.7l0-0.3c0,0.1-0.1,0.1-0.2,0.2c-0.1,0.1-0.3,0.2-0.5,0.2
			c-0.2,0-0.3-0.1-0.3-0.1c-0.3-0.2-0.3-0.6-0.3-0.7c0-0.3,0.1-0.4,0.1-0.5c0.2-0.3,0.5-0.4,0.8-0.5c0.2-0.1,0.2-0.1,0.3-0.2
			c0.1-0.1,0.1-0.2,0.1-0.2c0-0.2-0.1-0.3-0.3-0.3c0,0-0.1,0-0.2,0c-0.2,0.1-0.2,0.3-0.2,0.4h-0.6c0-0.1,0-0.2,0-0.3
			c0.1-0.3,0.3-0.6,1-0.6c0.4,0,0.6,0.1,0.7,0.2c0.1,0.1,0.1,0.2,0.2,0.2c0.1,0.2,0.1,0.3,0.1,0.4C53.8,39.7,53.8,41.3,53.8,41.3z
			 M53.1,40.3c-0.2,0.1-0.2,0.1-0.4,0.2c-0.1,0.1-0.3,0.2-0.3,0.5c0,0.2,0.1,0.3,0.2,0.3c0,0,0.1,0,0.2,0c0,0,0.1,0,0.2,0
			c0.2-0.1,0.2-0.3,0.2-0.4L53.1,40.3L53.1,40.3z"/>
		<path class="st0" d="M56.2,41.8h-0.7v-2.1c0-0.1,0-0.3-0.1-0.3c0,0-0.1,0-0.1,0c0,0-0.1,0-0.2,0.1c-0.1,0.1-0.1,0.2-0.1,0.3v2
			h-0.7v-2.9h0.6v0.3c0,0,0-0.1,0.1-0.1c0.1-0.1,0.2-0.3,0.6-0.3c0.1,0,0.3,0,0.4,0.1c0.3,0.2,0.3,0.5,0.3,0.8
			C56.2,39.7,56.2,41.8,56.2,41.8z"/>
		<path class="st0" d="M58.4,39.2c0.2,0.3,0.2,0.6,0.2,0.9c0,0.3,0,0.6,0,0.9c0,0.4-0.1,0.5-0.2,0.7c-0.1,0.2-0.3,0.3-0.8,0.3
			c-0.3,0-0.6-0.1-0.8-0.3c-0.2-0.2-0.2-0.5-0.2-1c0-0.7,0-1.1,0.3-1.4c0.3-0.3,0.7-0.3,0.8-0.2C58.1,38.9,58.3,39,58.4,39.2z
			 M57.9,40.2c0-0.3,0-0.6-0.1-0.7c0-0.1-0.2-0.2-0.3-0.2c-0.2,0-0.2,0.2-0.3,0.3c0,0.2,0,0.5,0,0.9c0,0.3,0,0.5,0,0.6
			c0,0,0.1,0.2,0.3,0.2s0.2-0.1,0.3-0.2c0-0.1,0-0.3,0.1-0.6V40.2z"/>
		<path class="st0" d="M62.2,38v3.9h-0.6v-0.3c0,0,0,0.1-0.1,0.1c-0.1,0.2-0.3,0.2-0.5,0.2c-0.2,0-0.5-0.1-0.7-0.6c0-0.2,0-0.5,0-1
			c0-0.2,0-0.4,0-0.6c0-0.1,0-0.4,0.2-0.6c0.1-0.1,0.2-0.3,0.6-0.3c0.3,0,0.4,0.1,0.5,0.2c0,0.1,0,0.1,0.1,0.1V38L62.2,38L62.2,38z
			 M61.5,39.9c0-0.2,0-0.3-0.1-0.5c0,0-0.1,0-0.2,0c-0.1,0-0.2,0-0.3,0.3c0,0.2,0,0.5,0,0.9c0,0.3,0,0.5,0.1,0.6
			c0,0,0.1,0.2,0.3,0.2c0,0,0.2,0,0.2-0.1c0-0.1,0-0.2,0-0.4C61.5,40.5,61.5,40.2,61.5,39.9z"/>
		<path class="st0" d="M64.6,40.5l-1.3,0c0,0.1,0,0.5,0,0.6c0,0.1,0,0.3,0.3,0.3c0.3,0,0.3-0.3,0.3-0.6h0.6c0,0.1,0,0.2,0,0.3
			c-0.1,0.4-0.2,0.6-0.4,0.7c-0.2,0.1-0.5,0.1-0.5,0.1c-0.1,0-0.7,0-0.9-0.4c-0.1-0.2-0.2-0.6-0.2-1.1c0-0.2,0-0.4,0-0.6
			c0-0.3,0.1-0.5,0.2-0.6c0.1-0.2,0.3-0.3,0.8-0.3c0.5,0,0.7,0.2,0.8,0.3c0.2,0.3,0.2,0.6,0.2,0.9L64.6,40.5L64.6,40.5z M64,40
			L64,40c0-0.1,0-0.2,0-0.3c0-0.1,0-0.4-0.3-0.4c-0.1,0-0.2,0-0.3,0.1c-0.1,0.1-0.1,0.3-0.1,0.6H64z"/>
		<path class="st0" d="M67.2,38l1.1,2.8L68.3,38h0.7v3.9h-0.8L66.9,39l0,2.9h-0.7V38H67.2z"/>
		<path class="st0" d="M71.2,39.2c0.2,0.3,0.2,0.6,0.2,0.9c0,0.3,0,0.6,0,0.9c0,0.4-0.1,0.5-0.2,0.7c-0.1,0.2-0.3,0.3-0.8,0.3
			c-0.3,0-0.6-0.1-0.8-0.3c-0.2-0.2-0.2-0.5-0.2-1c0-0.7,0-1.1,0.3-1.4c0.3-0.3,0.7-0.3,0.8-0.2C70.9,38.9,71.1,39,71.2,39.2z
			 M70.7,40.2c0-0.3,0-0.6-0.1-0.7c-0.1-0.1-0.2-0.2-0.3-0.2c-0.2,0-0.2,0.2-0.3,0.3c0,0.2,0,0.5,0,0.9c0,0.3,0,0.5,0.1,0.6
			c0,0,0.1,0.2,0.3,0.2s0.2-0.1,0.3-0.2c0-0.1,0.1-0.3,0.1-0.6C70.7,40.6,70.7,40.2,70.7,40.2z"/>
		<path class="st0" d="M73.2,39.7c-0.2,0-0.3,0-0.4,0.1c-0.2,0.1-0.2,0.3-0.2,0.7v1.4h-0.7V39h0.6v0.5c0-0.1,0.1-0.2,0.1-0.3
			c0.1-0.2,0.3-0.3,0.4-0.3c0.1,0,0.1,0,0.2,0C73.2,38.9,73.2,39.7,73.2,39.7z"/>
		<path class="st0" d="M76.6,41.8h-0.7v-2c0-0.1,0-0.3-0.1-0.3c-0.1,0-0.1,0-0.2,0c-0.1,0-0.2,0-0.3,0.1c-0.1,0.1-0.1,0.2-0.1,0.3
			v1.9h-0.7v-2c0-0.1,0-0.3-0.2-0.4c0,0-0.1,0-0.1,0c0,0-0.2,0-0.3,0.1c-0.1,0.1-0.1,0.2-0.1,0.4v1.8h-0.7v-2.9H74v0.3
			c0.1-0.2,0.2-0.4,0.6-0.4c0.1,0,0.3,0,0.4,0.2c0.1,0,0.1,0.1,0.1,0.2c0,0,0.1-0.1,0.1-0.1c0.1-0.1,0.3-0.3,0.6-0.3
			c0.1,0,0.3,0,0.4,0.1c0.3,0.2,0.3,0.4,0.3,0.7L76.6,41.8L76.6,41.8z"/>
		<path class="st0" d="M79,41.3c0,0.3,0,0.4,0.1,0.5h-0.7l0-0.3c0,0.1-0.1,0.1-0.2,0.2c-0.1,0.1-0.3,0.2-0.5,0.2
			c-0.2,0-0.3-0.1-0.3-0.1C77,41.6,77,41.2,77,41.1c0-0.3,0.1-0.4,0.1-0.5c0.2-0.3,0.5-0.4,0.8-0.5c0.2-0.1,0.2-0.1,0.3-0.2
			c0.1-0.1,0.1-0.2,0.1-0.2c0-0.2-0.1-0.3-0.3-0.3c0,0-0.1,0-0.2,0c-0.2,0.1-0.2,0.3-0.2,0.4H77c0-0.1,0-0.2,0-0.3
			c0.1-0.3,0.3-0.6,1-0.6c0.4,0,0.6,0.1,0.7,0.2c0.1,0.1,0.1,0.2,0.2,0.2c0.1,0.2,0.1,0.3,0.1,0.4V41.3z M78.3,40.3
			c-0.2,0.1-0.2,0.1-0.4,0.2c-0.1,0.1-0.3,0.2-0.3,0.5c0,0.2,0.1,0.3,0.2,0.3c0.1,0,0.1,0,0.2,0c0,0,0.1,0,0.2,0
			c0.2-0.1,0.2-0.3,0.2-0.4L78.3,40.3L78.3,40.3z"/>
		<path class="st0" d="M80.1,41.8h-0.7V38h0.7V41.8z"/>
		<path class="st0" d="M81.2,38v0.6h-0.7V38H81.2z M81.2,38.9v2.9h-0.7v-2.9H81.2z"/>
		<path class="st0" d="M83.3,38.9v0.5l-1,1.9h1v0.6h-1.8v-0.5l1-1.8h-0.9v-0.6L83.3,38.9L83.3,38.9z"/>
		<path class="st0" d="M85.5,41.3c0,0.3,0,0.4,0.1,0.5H85l0-0.3c0,0.1-0.1,0.1-0.2,0.2c-0.1,0.1-0.3,0.2-0.5,0.2
			c-0.2,0-0.3-0.1-0.3-0.1c-0.3-0.2-0.3-0.6-0.3-0.7c0-0.3,0.1-0.4,0.1-0.5c0.2-0.3,0.5-0.4,0.8-0.5c0.2-0.1,0.2-0.1,0.3-0.2
			c0.1-0.1,0.1-0.2,0.1-0.2c0-0.2-0.1-0.3-0.3-0.3c0,0-0.1,0-0.2,0c-0.2,0.1-0.2,0.3-0.2,0.4h-0.6c0-0.1,0-0.2,0-0.3
			c0.1-0.3,0.3-0.6,1-0.6c0.4,0,0.6,0.1,0.7,0.2c0.1,0.1,0.1,0.2,0.2,0.2c0.1,0.2,0.1,0.3,0.1,0.4L85.5,41.3L85.5,41.3z M84.9,40.3
			c-0.2,0.1-0.2,0.1-0.4,0.2c-0.1,0.1-0.3,0.2-0.3,0.5c0,0.2,0.1,0.3,0.2,0.3c0.1,0,0.1,0,0.2,0c0,0,0.1,0,0.2,0
			c0.2-0.1,0.2-0.3,0.2-0.4L84.9,40.3L84.9,40.3z"/>
		<path class="st0" d="M87.2,39.9c0-0.2,0-0.4-0.1-0.5c0-0.1-0.1-0.1-0.2-0.1c-0.2,0-0.2,0.1-0.2,0.3c0,0.1,0,0.5,0,0.9
			c0,0.2,0,0.3,0,0.5c0,0.3,0.1,0.4,0.3,0.4c0.1,0,0.2,0,0.2-0.1c0-0.1,0-0.3,0-0.6l0.7,0c0,0.1,0,0.2,0,0.3c0,0.2,0,0.4-0.2,0.6
			c-0.2,0.2-0.4,0.3-0.7,0.3c-0.1,0-0.3,0-0.6-0.1C86,41.6,86,41.2,86,40.4c0-0.1,0-0.3,0-0.4c0-0.3,0-0.6,0.2-0.9
			c0.1-0.2,0.3-0.3,0.8-0.3c0.1,0,0.3,0,0.5,0.1c0.4,0.2,0.4,0.6,0.4,1L87.2,39.9L87.2,39.9z"/>
		<path class="st0" d="M88.8,38v0.6h-0.7V38H88.8z M88.8,38.9v2.9h-0.7v-2.9H88.8z"/>
		<path class="st0" d="M91.1,39.2c0.2,0.3,0.2,0.6,0.2,0.9c0,0.3,0,0.6,0,0.9c0,0.4-0.1,0.5-0.2,0.7c-0.1,0.2-0.3,0.3-0.8,0.3
			c-0.3,0-0.6-0.1-0.8-0.3c-0.2-0.2-0.2-0.5-0.2-1c0-0.7,0-1.1,0.3-1.4c0.3-0.3,0.7-0.3,0.8-0.2C90.7,38.9,90.9,39,91.1,39.2z
			 M90.6,40.2c0-0.3,0-0.6-0.1-0.7c-0.1-0.1-0.2-0.2-0.3-0.2c-0.2,0-0.2,0.2-0.3,0.3c0,0.2,0,0.5,0,0.9c0,0.3,0,0.5,0.1,0.6
			c0,0,0.1,0.2,0.3,0.2s0.2-0.1,0.3-0.2c0-0.1,0.1-0.3,0.1-0.6C90.6,40.6,90.6,40.2,90.6,40.2z M91.2,37.9l-0.8,0.8H90l0.5-0.8H91.2
			z"/>
		<path class="st0" d="M93.6,41.8h-0.7v-2.1c0-0.1,0-0.3-0.1-0.3c0,0-0.1,0-0.1,0c0,0-0.1,0-0.2,0.1c-0.1,0.1-0.1,0.2-0.1,0.3v2
			h-0.7v-2.9h0.6v0.3c0,0,0-0.1,0.1-0.1c0.1-0.1,0.2-0.3,0.6-0.3c0.1,0,0.3,0,0.4,0.1c0.3,0.2,0.3,0.5,0.3,0.8L93.6,41.8L93.6,41.8z
			"/>
	</g>
	<rect x="17.4" y="43.2" class="st0" width="40.6" height="1.4"/>
	<rect x="58.1" y="43.2" class="st0" width="18.9" height="1.4"/>
	<rect x="76.9" y="43.2" class="st0" width="18.9" height="1.4"/>
</g>
</svg>
